<svg version="1.1" id="Layer_1"
	 xmlns="http://www.w3.org/2000/svg"
	 x="0px" y="0px" viewBox="0 0 841.8898 1190.5511" style="enable-background:new 0 0 841.8898 1190.5511;" xml:space="preserve">
<path style="fill:#040506;" d="M388.5522,891.04c-3.5546,1.0597-7.1082,0.5732-10.6288-0.1201
	c-4.0694-0.8016-8.1813-1.5262-11.8069-3.75c0.6941-4.0345,1.7837-7.9828,2.5439-12.0074
	c4.8142-25.4839,9.6367-50.9666,14.5549-76.4308c0.5623-2.9113,0.3433-6.0588,2.405-8.5577
	c0.7342-0.4183,1.5151-0.4265,2.3152-0.2712c5.3914,1.1233,10.7297,2.4955,16.1432,3.5242c1.1739,0.2231,2.3677,0.416,2.6183,1.9083
	c-0.9536,5.863-2.2101,11.6711-3.2707,17.5168c-4.5588,25.1295-9.1106,50.2604-13.7301,75.379
	c-0.0998,0.543-0.2888,1.0588-0.439,1.5872C389.119,890.2815,388.8381,890.6622,388.5522,891.04z"/>
<path style="fill:#0D193F;" d="M453.7898,887.1032c-3.5537,2.4142-7.721,2.9937-11.7766,3.822
	c-3.7043,0.7563-7.4634,1.1455-11.2082,0.1002c-0.287-0.3766-0.5651-0.7583-0.6963-1.2234
	c-1.8462-8.8486-3.375-17.7582-4.9955-26.6495c-3.5575-19.5198-7.2066-39.0231-10.6413-58.565
	c-0.5379-3.0605-1.5341-6.0255-1.8311-9.1323c0.1823-1.4954,1.3209-1.7794,2.5232-2.007
	c5.3372-1.0105,10.6058-2.3361,15.9137-3.4871c0.3039-0.0895,0.6133-0.1381,0.9286-0.1606
	c0.6444-0.0305,1.2581,0.0699,1.8092,0.4292c1.1289,0.9836,1.2932,2.3914,1.537,3.7238
	c4.8235,26.3627,10.0237,52.654,14.9662,78.9941c0.6074,3.237,1.3926,6.4448,1.8481,9.7023
	C452.3971,884.2983,454.4096,885.2117,453.7898,887.1032z"/>
<path style="fill:#543C35;" d="M433.6225,790.446c-0.5629-0.0259-1.1258-0.0518-1.6886-0.0778
	c-0.1772-0.2192,0.0547-0.4422-0.0059-0.6625c-0.3229,0.1659-0.7022,0.2911-0.5676,0.7871
	c-5.3815,1.5803-10.8698,2.6996-16.3751,3.7315c-0.8322,0.1559-1.6779,0.0528-1.8037,1.1838
	c-1.0509,0.8234-0.4589,1.8593-0.2949,2.7842c1.641,9.2524,3.4623,18.4717,5.1204,27.7211c0.1929,1.076,0.4632,2.1483,0.1568,3.2502
	c-0.1815,0.4414-0.3872,0.8552-0.9757,0.7974c-2.1399-11.2404-4.301-22.477-6.3975-33.7255
	c-0.3255-1.7465,0.8846-2.9471,2.2675-3.5111c1.6388-0.6683,3.463-1.0901,5.2282-1.1754c1.4579-0.0704,1.7439-0.6334,1.5403-1.7953
	c-0.438-2.4985,0.1108-5.3101-2.4316-7.1525c-0.5739-0.4159-0.8808-1.088-1.7711-0.9567c-1.1805,0.1744-2.2173-0.028-2.3631-1.5052
	c-0.1897-1.922,0.2228-3.7082,1.8936-4.8121c1.0738-0.7096,2.1232-0.3621,3.1637,0.6066c1.0359,0.9645,2.3593,1.733,3.688,2.2487
	c4.0707,1.5795,5.4028,4.1388,4.0717,8.2219c-0.0841,0.2581-0.0917,0.5482-0.2088,0.7871c-0.4033,0.8225-0.9956,1.7507-0.187,2.4998
	c0.8124,0.7526,1.7027-0.0539,2.492-0.3861c2.3114-0.9726,4.7046-1.2568,7.1899-1.1199c0.9727,0.0537,1.3417,0.3038,1.5293,1.3877
	c1.4577,8.4235,2.9885,16.8353,4.5794,25.2348c2.0937,11.0534,4.261,22.0928,6.4001,33.1375
	c1.9506,10.071,3.9713,20.1292,5.8121,30.2202c0.4486,2.4592,1.3147,4.8715,1.1871,7.4283
	c-2.0399-0.0375-1.7655-1.8101-2.0023-2.9529c-1.4303-6.9017-2.7035-13.8355-4.0371-20.7572
	c-3.3251-17.2581-6.6088-34.5239-9.9846-51.7724c-1.0187-5.2051-2.2701-10.3719-2.9235-15.6494
	C435.7229,792.8345,435.5636,791.1093,433.6225,790.446z"/>
<path style="fill:#8082A3;" d="M433.6225,790.446c1.707-0.5552,2.4185-0.0417,2.7556,1.8474
	c1.4727,8.2535,3.1517,16.4701,4.7224,24.7065c2.4568,12.8828,4.8853,25.771,7.3284,38.6565
	c1.8387,9.6979,3.685,19.3943,5.5125,29.0944c0.107,0.568,0.4958,0.7009,0.9317,0.8411c-0.3616,0.5059-0.7221,1.0097-1.0829,1.5125
	c-3.7616-4.2037-3.0419-9.7261-4.2324-14.6682c-1.3111-5.4428-2.2546-10.9755-3.3149-16.4774
	c-2.7379-14.2077-5.4678-28.417-8.1688-42.6318c-1.351-7.1102-2.627-14.2346-3.9535-21.3495
	C434.023,791.4542,433.7916,790.9559,433.6225,790.446z"/>
<path style="fill:#8082A3;" d="M385.7331,790.4204c-1.6928,6.1654-2.5634,12.4978-3.787,18.7579
	c-2.3843,12.1983-4.7231,24.4056-7.0558,36.614c-2.4311,12.7226-4.8563,25.4464-7.211,38.1832
	c-0.236,1.2767-1.1597,2.0779-1.5629,3.195c-0.3663-0.5335-0.7327-1.0662-1.0991-1.5991
	c1.9516-6.7595,2.8527-13.7369,4.2213-20.6154c3.7182-18.6868,7.0819-37.4424,10.8304-56.1248
	c1.1296-5.6296,2.1997-11.2787,3.2058-16.9364C383.493,790.668,383.5814,788.6708,385.7331,790.4204z"/>
<path style="fill:#543C35;" d="M406.158,795.4109c-0.0838-0.9235-0.69-1.0528-1.4937-1.1809
	c-5.6737-0.9037-11.2465-2.2842-16.8152-3.6777c0.0159-0.212,0.1207-0.3669,0.2947-0.4755
	c0.1443-0.1241,0.2092-0.2834,0.1938-0.4784c-0.0017-0.2085,0.1005-0.3452,0.2878-0.4225c1.22,0.3,2.5135-0.0828,3.7357,0.5767
	c0.5049,0.2723,1.4998,0.5507,1.9977-0.2218c0.4126-0.6401,0.1252-1.3328-0.1376-2.0587c-1.4386-3.9734-1.1406-6.4937,1.467-8.3099
	c2.2346-1.5566,4.9626-2.2755,7.1885-4.0324c1.2168-0.9604,3.4244,0.8013,3.68,2.9747c0.1665,1.4158,0.9562,3.627-1.9044,3.4869
	c-2.211-0.1081-3.158,1.7812-3.7404,3.0608c-0.8105,1.7806-0.6425,4.0236-0.805,6.0759c-0.084,1.0602,0.8629,0.5873,1.379,0.7875
	c2.321,0.9002,5.1701,0.4561,6.9472,2.7665c0.4834,0.6285,0.9409,0.9764,0.7272,2.0504
	c-2.2277,11.1924-4.3142,22.413-6.4399,33.6257c-0.5877,0.0587-0.7845-0.3566-0.9663-0.792c-0.3914-2.14,0.2733-4.1838,0.6714-6.23
	c1.5033-7.7265,2.8554-15.4811,4.3466-23.2098C407.0522,798.2736,407.7423,796.648,406.158,795.4109z"/>
<path style="fill:#553D37;" d="M385.7331,790.4204c-1.1507-0.5215-1.8247-0.1365-2.0564,1.0841
	c-1.681,8.8547-3.3599,17.7097-5.0427,26.5639c-2.6358,13.8691-5.2673,27.7388-7.9141,41.6058
	c-1.5617,8.1822-3.161,16.3572-4.7032,24.543c-0.1287,0.6829-0.1693,1.2647-1.0002,1.3528
	c0.9616-5.3856,1.8817-10.7802,2.8925-16.1577c1.897-10.0923,3.8468-20.1749,5.774-30.2615
	c1.8908-9.8961,3.7852-19.7916,5.6697-29.6888c1.2613-6.6245,2.8844-13.1824,3.6858-19.8909
	c0.0798-0.6675,0.2145-1.6481,0.9136-1.2734c1.5174,0.8132,3.2602-0.0878,4.6729,0.8783c0.0002-0.0002-0.1284,0.16-0.1284,0.16
	c-0.5547,0.4175-1.145,0.259-1.7168,0.1304c0.3589,0.3363,1.3699-0.1759,1.2341,0.8883c0,0-0.1645,0.1967-0.1647,0.197
	C387.1437,790.5084,386.4384,790.4644,385.7331,790.4204z"/>
<path style="fill:#624B46;" d="M417.1881,829.9611c0.1613-0.1874,0.3227-0.3748,0.484-0.5622
	c1.1289,0.0804,1.1819,1.021,1.3241,1.7836c2.2874,12.2733,4.7191,24.5202,6.7698,36.8392c-0.0966,0.66-0.3871,1.1979-0.9789,1.5436
	c-1.4794-4.9368-2.0583-10.0591-3.0613-15.0928C420.1022,846.3242,418.6897,838.1337,417.1881,829.9611z"/>
<path style="fill:#624B46;" d="M402.2358,829.3981c0.1615,0.1866,0.3229,0.3734,0.4844,0.5601
	c-2.278,12.1696-4.5334,24.3436-6.875,36.5009c-0.1983,1.0297,0.2525,2.2513-0.7246,3.1054
	c-0.5862-0.3482-0.8715-0.8854-0.9731-1.5401c0.8935-7.0591,2.5887-13.9764,3.763-20.9882
	c0.8133-4.8563,1.7963-9.6837,2.709-14.5226C400.8329,831.3824,400.5559,829.8339,402.2358,829.3981z"/>
<path style="fill:#594040;" d="M394.6939,868.4543c0.1423,0.37,0.2845,0.7401,0.4268,1.1102
	c-0.6854,5.9888-2.1328,11.8434-3.1052,17.7784c-0.3645,2.2247-0.4632,4.1749-3.4633,3.697
	c0.0106-0.405,0.0211-0.8099,0.0316-1.2149c1.3876-0.7324,1.6006-2.1101,1.8889-3.4447c1.0585-4.9002,1.8337-9.8555,2.8651-14.7606
	C393.5753,870.4901,393.5897,869.2281,394.6939,868.4543z"/>
<path style="fill:#594141;" d="M424.787,869.5652c0.1426-0.3704,0.2852-0.7408,0.4277-1.1112
	c2.0528,2.7899,1.8084,6.2144,2.4923,9.3638c0.7144,3.2897,1.3718,6.6016,1.9237,9.9277c0.1414,0.8517,0.4228,1.5767,1.1441,2.0861
	c0.0101,0.3979,0.0202,0.796,0.0302,1.1938c-1.1752,0.0005-2.3701,0.0153-2.646-1.524c-1.1259-6.2799-2.246-12.5607-3.3558-18.8434
	C424.7407,870.3038,424.7899,869.93,424.787,869.5652z"/>
<path style="fill:#8082A3;" d="M394.6939,868.4543c-1.2033,6.3801-2.3843,12.7646-3.6289,19.1366
	c-0.2495,1.2773-0.4635,2.8189-2.4812,2.2341c2.179-11.9746,4.3508-23.9506,6.539-35.9236
	c1.9132-10.4683,3.8292-20.9364,5.7736-31.399c1.5161-8.158,3.0731-16.3083,4.6248-24.4597
	c0.1685-0.8855,0.4224-1.7548,0.6367-2.6317c1.5055-0.1298,2.2579-0.1042,1.8201,2.0287
	c-2.0311,9.8935-3.7891,19.8432-5.6227,29.7769c-0.1311,0.7103-0.0837,1.4536-0.1194,2.1815
	c-1.5789,5.1842-2.1493,10.5761-3.2236,15.8636C397.4468,852.967,396.1216,860.7211,394.6939,868.4543z"/>
<path style="fill:#182E56;" d="M394.9973,793.4612c0.2839,2.954-0.7237,5.8109-1.1727,8.6705
	c-1.828,11.6417-3.8766,23.249-5.8687,34.8646c-2.1295,12.4163-4.2866,24.8279-6.4327,37.2414
	c-0.7724,4.4681-1.5478,8.9357-2.3234,13.4031c-0.1147,0.6608,0.18,1.6523-0.9708,1.5861c-1.0596-0.061-1.3503-0.9119-1.2227-1.7885
	c0.3264-2.2427,0.7301-4.4749,1.1373-6.7051c3.0632-16.7744,6.1678-33.5415,9.1922-50.3229
	c2.107-11.691,4.1009-23.4024,6.1726-35.0999c0.1211-0.6835,0.4867-1.3236,0.7385-1.9839
	C394.4971,793.3716,394.7472,793.4164,394.9973,793.4612z"/>
<path style="fill:#1F6167;" d="M390.1064,830.4814c0.3065-1.0643-0.4115-2.3121,0.5821-3.2534
	c0.4247-0.3436,0.6693-0.9336,1.162-1.1329c4.5303-1.8324,4.7334-6.2227,5.9562-10.0069c0.2416-0.7474,0.0425-1.4335-0.4769-2.0238
	c-0.2584-1.2676,1.5787-2.3338,0.0634-3.9785c-0.6176,1.4462-0.633,2.6912-0.0572,3.9919c0.1521,1.0007-0.7609,1.3503-1.2252,1.9624
	c-0.947,1.2488-1.819,2.2319-0.3635,3.9453c1.4493,1.7061,0.2802,3.36-2.225,3.5454c-0.1253-0.1476-0.2464-0.3481-0.1659-0.481
	c1.3039-2.1525-0.1913-1.9587-1.5598-1.8757c0.8374-6.6464,1.6283-13.3008,3.4016-19.7862c0.1994-0.1843,0.4209-0.3362,0.663-0.4586
	c1.5576-0.1887,3.1066-0.5722,4.6915-0.2509c0.8639,0.6104,1.6621,1.3357,2.717,1.6381c0.072,0.0931,0.1425,0.1879,0.2129,0.2827
	c-1.2342,6.927-2.4242,13.8625-3.7416,20.7736c-0.2499,1.3114,0.0738,2.7705-0.8502,3.939
	c-1.1579,2.2724-3.6807,1.5645-5.4486,2.5032c-1.1664-0.2817-1.9754,0.7195-3.0273,0.8542
	C390.3121,830.6073,390.2093,830.5444,390.1064,830.4814z"/>
<path style="fill:#1F6167;" d="M378.7155,871.3322c-0.0615,0.1716-0.123,0.3432-0.1845,0.5148
	c-1.4933,1.035-3.1396,0.6106-4.7516,0.5064c-0.896-0.3139-1.8705-0.2537-2.7731-0.5505c0.4478-2.6194,0.5885-5.3028,1.6238-7.7998
	c0.9306-2.8803,2.9873-5.1253,4.3731-7.75c1.3902-2.6327,0.7667-4.2027-1.9681-4.8265c-0.6421-0.8745,0.4355-1.4749,0.36-2.2592
	c0.8273-0.1962,1.5412-0.8298,2.3842-0.6852c-0.7812-0.4551-1.5058,0.8952-2.3836,0.233c0.5503-2.9704,1.1006-5.9408,1.651-8.9113
	c1.8546-2.9272,4.5438-5.0861,6.9459-7.5063c0.4661-0.4694,1.0065-1.121,1.8503-0.5851c-0.0555,2.0622-0.3489,4.0828-1.0536,6.0316
	c-0.3808,0.0446-0.5223,0.1665-0.1471,0.4554c0.3657,2.3483-0.8761,4.427-1.1189,6.6732c-0.3617,0.5043-0.5432,1.0117-0.0273,1.5317
	c-0.1882,0.9649-0.3765,1.9298-0.5647,2.8947c-0.925,0.4113-1.0699,1.3605-1.5088,2.1215c-0.3968,0.688-0.4128,1.869-1.7204,1.611
	c-0.4955-0.4329-0.3388-1.0645-0.4797-1.6901c-0.1204,0.8089,0.0659,1.4138,0.683,1.8516c0.6124,0.9092,0.868,1.8915,0.6212,2.979
	c-0.9713,0.7536-2.1621,1.319-2.3621,2.74c0.8697-0.5925,1.7499-1.1722,2.438-1.989c0.2254-0.1601,0.4645-0.1733,0.714-0.0632
	c-0.2446,3.019-0.6639,6.0059-1.6325,8.8918c-1.0338,1.7807-3.1379,1.8784-4.6804,2.9868c0.7018-0.0823,1.3715-0.3713,1.9639,0.1127
	c0.1,0.4792,0.1813,0.8665,0.8975,0.8859c0.5599,0.0151,1.3483,0.3179,0.5321,1.1582c-0.9498,0.0016-1.9019,0.1224-2.8434-0.0859
	c-0.8271-0.7026-1.7643-0.3441-2.6618-0.3706c-0.3725,0.1473,0.2174,0.4995,0.0175,0.1923c0.836-0.4346,1.6608-0.3642,2.4799,0.0562
	C376.4048,871.3925,377.7475,870.3946,378.7155,871.3322z"/>
<path style="fill:#1F6167;" d="M390.7352,871.6794c-0.63,5.2136-1.372,10.4067-2.8193,15.4713
	c-0.7277,0.6971-1.5553,1.0735-2.5833,0.8092c-1.4054-1.0726-2.8089-2.1526-4.4125-2.9316
	c-0.0127-0.2257-0.0254-0.4515-0.0381-0.6772c0.9376-0.9313,1.4725-1.9343,0.5681-3.1935c1.2921-7.561,2.5842-15.1219,3.8764-22.683
	c0.663-0.3939,1.3393-0.1265,2.0124-0.0475c0.6395,0.3478,1.7302-0.46,2.029,0.7829c0.425,3.5632,1.5912,7.0133,1.5715,10.64
	C390.936,870.47,391.1434,871.1069,390.7352,871.6794z"/>
<path style="fill:#1F6167;" d="M386.9607,848.7552c0.1668-1.3226,0.3337-2.6453,0.5005-3.9679
	c0.3455-0.3026,0.7326-0.5372,1.1967-0.5706c1.3526-0.0974,2.4614-0.3287,2.4576-2.1281c-0.0039-1.8422-1.3746-1.823-2.5348-2.1713
	c0.079-0.9409-0.4614-1.9708,0.4023-2.799c0.4559-0.5953,1.2215-0.2405,1.7622-0.5743c0.6014-0.5478,0.8736-1.2349,0.8852-2.1356
	c-0.229,0.8589-0.299,1.6879-1.0212,2.2116c-1.4142-0.3996-1.0376-1.5239-0.7999-2.3817c0.2522-0.9103,0.4581-1.7178-0.121-2.545
	c0.1394-0.404,0.2789-0.8079,0.4182-1.212c-0.0001-0.0001,0.2138,0.1501,0.2138,0.1501c0.5717,0.207,1.2518,0.0083,1.7583,0.4645
	c0.787,1.9441,2.8869,1.62,4.3006,2.486c-1.3873,4.3976-1.9392,8.8415-0.7649,13.3843c-0.3867,1.7069-0.7734,3.4138-1.1601,5.1207
	c-0.8562,1.3719-1.8261,2.5546-3.7029,2.2275c-0.1689-0.2004-0.2451-0.4335-0.2302-0.6953
	c0.4857-1.1599,1.6792-2.1549,0.8444-3.6202c-0.2827-0.3666-0.6483-0.8653-1.0826-0.6541c-0.7397,0.3598,0.0214,1.184-0.3301,1.7288
	c-0.1108,0.2401-0.2922,0.3987-0.5439,0.4788C388.0735,851.0747,387.6102,849.8335,386.9607,848.7552z"/>
<path style="fill:#39AEB3;" d="M373.12,871.7604c1.8037,0.0288,3.6074,0.0576,5.411,0.0865
	c0.4474,1.322-0.3683,2.4702-0.5097,3.7112c-0.7797,2.1452-1.633,4.2497-2.9807,6.1239c-0.8846,1.2302-1.9484,1.8104-3.5161,1.4931
	c-1.5236-0.3083-2.0402-1.3024-2.1743-2.673c0.2883-2.7979,1.0257-5.4991,1.7637-8.2002
	C371.711,871.8564,372.3277,871.4829,373.12,871.7604z"/>
<path style="fill:#1F6167;" d="M392.8943,793.136c-0.0561,1.8977-0.3802,3.7434-1.0696,5.5183
	c-0.5584,0.0496-1.1233,0.0701-1.698,0.2255c0.5075,1.0364,1.1035,0.113,1.608,0.2615c0.0582,2.463-0.7046,4.8036-1.0737,7.2029
	c-0.2111,0.1491-0.4446,0.2244-0.7039,0.2161c-1.3815-0.1978-2.7595-0.0033-4.1402,0.0469c-0.788-0.0759-1.56-0.2002-2.1784-0.7606
	c0.001-0.2195,0.002-0.439,0.0031-0.6585c0.7673-0.606,1.6102-0.8629,2.5734-0.5596c0.8154,0.4454,1.5745-0.0601,2.3397-0.1903
	c0.7061-0.1201,1.1076-0.6801,0.885-1.4097c-0.1615-0.5292-0.6334-0.9756-1.1874-0.9894c-0.7611-0.019-0.5539,0.7522-0.7663,1.1949
	c-0.2808,0.5853,0.0877,1.9244-1.3621,1.2851c-0.8209-1.3198-0.4217-2.7626-0.4255-4.1619
	c-0.4908-0.8625,0.1178-1.8936-0.4171-2.7519c0.2516-1.7023,0.1328-3.4901,1.1555-5.0148
	C388.6706,791.8089,390.7652,792.6769,392.8943,793.136z"/>
<path style="fill:#39AFB4;" d="M385.7671,806.3526c1.4068-0.6812,2.8175-1.0026,4.2423-0.0467
	c-0.0528,0.7229-0.0653,1.4531-0.1412,2.1687c-0.2684,2.5324-0.5885,4.9938-3.1404,6.5269c-1.4,0.841-2.1426,2.4322-3.1198,3.7411
	c-0.6732,0.9017-1.2156,2.1156-2.7189,1.8362c0.1623-2.989,0.9076-5.8491,1.9123-8.6518c0.1989-0.4509,0.2433-0.9592,0.5091-1.3865
	c0.954-1.1878,1.4237-2.6409,2.1588-3.949C385.5674,806.5108,385.6673,806.4318,385.7671,806.3526z"/>
<path style="fill:#39AEB3;" d="M390.738,854.2341c1.2388-0.7158,2.4775-1.4315,3.7163-2.1472
	c-1.1123,6.5552-2.0098,13.1511-3.7193,19.5927c-0.822-3.5435-0.3672-7.3563-2.1996-10.6803
	c-0.578-1.0484,0.8479-1.5394,0.5455-2.4613c-0.0173-0.1249-0.0346-0.2499-0.0539-0.3749
	C389.1901,856.6763,389.0899,855.0739,390.738,854.2341z"/>
<path style="fill:#1F6167;" d="M400.5913,801.3419c-1.6549,0.0129-3.3097,0.0259-4.9646,0.0389
	c0.2484-1.626,1.5215-0.7859,2.4018-0.8533c-1.1169-0.1227-2.2112-0.0779-2.8219-1.2427c0.297-1.472,0.6053-2.9418,0.8875-4.4167
	c0.2375-1.2418,0.8215-1.5017,1.8251-0.6947c1.9397,1.5369,4.6775,1.5181,6.4786,3.3251c-0.3051,1.7003-0.6102,3.4005-0.9151,5.1009
	c0.0002,0.0001-0.1603-0.1283-0.1603-0.1283C402.441,802.0243,401.4643,801.8084,400.5913,801.3419z"/>
<path style="fill:#1F6167;" d="M369.3501,880.5022c1.5953,2.9149,3.7272,2.9779,5.509,0.1516
	c1.066-1.6909,2.1089-3.3966,3.1621-5.0956c-0.568,3.1685-1.136,6.337-1.7039,9.5056c-0.4416,0.9326-1.1634,1.6144-1.9765,2.2156
	c-0.5432,0.2253-1.2289-0.2564-1.6991,0.342c-0.402-0.1793-0.804-0.3586-1.2059-0.538c-0.6972-0.9164-1.7954-1.3263-2.6236-2.0775
	c-0.0042-0.4011-0.0083-0.8022-0.0125-1.2033c0.544-0.3282,0.1817-0.6605,0.0044-0.9919
	C368.9862,882.0412,369.1682,881.2717,369.3501,880.5022z"/>
<path style="fill:#39AEB3;" d="M385.8429,831.7127c-3.3349,2.2591-5.6225,5.6571-8.7962,8.0914
	c0.5526-2.8893,1.1051-5.7787,1.6577-8.6681c0.6828-0.8436,1.731-1.0433,2.6369-1.5035c0.2634-0.0865,0.531-0.1345,0.8067-0.1565
	c1.2632,0.6937,3.7653-0.6947,3.718,2.2043L385.8429,831.7127z"/>
<path style="fill:#39AEB3;" d="M375.0352,851.4267c0.9233,0.4269,1.8876-1.4232,2.5087-0.2614
	c0.708,1.3244,1.6342,2.8561,0.5556,4.5342c-1.7922,2.7886-3.3025,5.762-5.4694,8.3037
	C372.9803,859.7246,374.0247,855.5789,375.0352,851.4267z"/>
<path style="fill:#38ABB0;" d="M397.2821,814.0577c0.6402,0.0966,1.5041-0.2885,1.5611,0.9163
	c0.2019,4.2639-3.8694,10.4158-8.1547,12.254c0.2065-1.1896-0.6493-2.9302,1.5893-3.066c-0.2232-1.2101,0.5497-0.8657,1.1742-0.7527
	c1.174-0.0853,2.264-0.5136,2.437-1.744c0.1461-1.0394-0.5166-1.8633-1.6479-2.1268c-1.0977-0.2556-0.5798-0.8266-0.2941-1.3977
	c0.8152-1.6298,1.88-3.0459,3.3757-4.1127L397.2821,814.0577z"/>
<path style="fill:#38ADB2;" d="M395.6144,846.9663c-1.5525-0.827-2.1317-1.9658-1.4002-3.7114
	c0.6846-1.6336,0.4882-3.4144,0.3481-5.104c-0.1596-1.9247,0.2527-3.5169,1.6262-4.86c0.2747-0.8851,0.4649-1.8575,1.7518-1.6975
	c0.0613,4.4402-1.4849,8.6343-1.9896,12.9881C395.8583,845.3787,395.7275,846.1715,395.6144,846.9663z"/>
<path style="fill:#38ADB2;" d="M397.9403,831.5934c-0.5839,0.5658-1.1678,1.1316-1.7518,1.6974
	c-2.6038,1.5562-3.6048-0.1206-4.4121-2.1882c0.0397-0.7459,0.3085-1.3282,1.0982-1.5386c1.757-1.4147,4.2648-0.8229,6.0163-2.2521
	C399.1205,828.8605,398.5103,830.2225,397.9403,831.5934z"/>
<path style="fill:#1F6268;" d="M380.8892,820.5789c3.3748-4.5439,9.1338-7.5635,9.1212-14.2729
	c0.2164,0.0127,0.4337,0.0255,0.6509,0.0383c-0.5667,3.1453-1.1331,6.2906-1.6994,9.436c-1.2793,1.2933-3.3296,1.8962-3.6313,4.063
	c-0.8648,1.3298-2.6075,1.6501-3.4474,3.0017c-0.5605,0.0021-0.9568-0.5139-1.5255-0.5056
	C380.1956,821.6501,380.6292,821.1407,380.8892,820.5789z"/>
<path style="fill:#37AAAF;" d="M386.9607,848.7552c1.2739,0.4939,1.7428,1.8047,2.6791,2.6411
	c0.9527,1.1441,0.8064,2.4507,0.0199,3.4489c-0.8529,1.0824-1.1383,2.401-1.8948,3.4913c-0.1086,0.0726-0.2187,0.1438-0.3287,0.215
	c-0.7214,0.4743-1.4119,0.1005-2.1096-0.0768C385.8712,855.2349,386.416,851.9951,386.9607,848.7552z"/>
<path style="fill:#39AEB3;" d="M381.3629,822.847c0.4873-2.0464,2.6771-2.1113,3.8749-3.3307
	c0.078-0.0901,0.1559-0.1804,0.2324-0.2724c0.9588-0.3842,1.81-1.2065,2.9804-0.7422c-0.2637,1.0487-0.5275,2.0975-0.7912,3.1462
	c-0.8065,1.5289-2.0705,2.5598-3.5973,3.3104c-1.4157,0.1746-2.7298,0.1729-2.9201-1.7256
	C381.2153,823.1041,381.2891,822.9756,381.3629,822.847z"/>
<path style="fill:#38ADB2;" d="M388.5808,839.9174c0.8848-0.6478,1.9131-0.9861,2.709-0.101
	c1.0957,1.2185,0.5298,2.7946,0.3792,4.1855c-0.1268,1.171-1.2937,0.6705-2.0286,0.7562c-0.7178,0.0836-1.4521,0.0251-2.1792,0.0292
	C388.1248,843.2308,387.6081,841.4029,388.5808,839.9174z"/>
<path style="fill:#39AEB3;" d="M380.3576,822.3394c0.6383-0.4316,1.0785-0.4707,1.0053,0.5076c0,0,0.0244-0.0329,0.0244-0.0329
	c-0.4773,0.5142-0.2761,1.0197,0.111,1.4244c1.9059,1.9926,1.8814,3.463-0.1386,5.7521l0.0361-0.0237
	c-0.8713,0.1827-1.6099,1.1343-2.6301,0.4542C379.2963,827.7272,379.827,825.0333,380.3576,822.3394z"/>
<path style="fill:#38ADB2;" d="M379.7118,853.0761c1.4711-0.9197,0.7335-3.7228,3.2195-3.7769
	c-0.8611,2.4513-0.5452,5.154-1.6148,7.5607c-0.1655,0.0403-0.3331,0.0551-0.5031,0.0443c-0.5139,0.1057-0.7124-0.0835-0.5605-0.6
	c-0.2552-1.072-0.7245-2.1103-0.5126-3.2558L379.7118,853.0761z"/>
<path style="fill:#38ADB1;" d="M380.9201,885.0283c2.1429-0.2468,3.3963,0.8644,4.1583,2.7253
	c-0.071,0.4478-0.3404,0.7368-0.7358,0.9274c-1.379,0.2032-2.8873,1.4583-4.0119-0.4786
	C380.1116,887.0672,380.3795,886.0225,380.9201,885.0283z"/>
<path style="fill:#38ACB1;" d="M384.6976,888.1749c0.1275-0.1408,0.2551-0.2816,0.3817-0.4219
	c0.9449-0.2004,1.8907-0.4015,2.8366-0.6024c0.3464,2.4449-0.2287,3.9629-3.1712,3.3334c-0.8762-0.1875-1.811-0.1005-2.719-0.1393
	c-0.7388-0.7604-0.1232-1.0485,0.4722-1.3245C383.2115,888.6895,384.1148,888.85,384.6976,888.1749z"/>
<path style="fill:#21656B;" d="M381.3596,829.9906c0.4076-1.3754,0.7649-2.7686,1.2395-4.1204
	c0.3448-0.9819-0.4835-0.6705-0.8401-0.9217c-0.8069-0.5683-1.4861-1.2095-0.3717-2.1344c0.0739,1.9108,1.4909,1.644,2.7216,1.6794
	c1.0951,0.3568,2.1762-0.6351,3.2738-0.0338c0.0764,0.4748,0.0418,0.9031-0.4734,1.1299c-0.5381,0.5827-1.3128,0.5508-1.9892,0.7833
	c-1.0876,0.374-1.7688,0.9877-1.0169,2.221c0.5912,0.8054,1.7354,0.6434,2.3759,1.3558c0.0292,0.6168,0.3525,1.3037-0.413,1.7307
	C384.8809,829.738,382.8745,830.5198,381.3596,829.9906z"/>
<path style="fill:#37A8AD;" d="M404.3976,797.4984c-2.4613-0.4379-4.6007-1.7297-6.8507-2.6967
	c-0.9229-0.3967,0.2183-0.4117,0.3721-0.6284c2.2398-0.4009,4.1252,0.9947,6.2594,1.2559
	C405.8646,795.6356,403.8897,796.8281,404.3976,797.4984z"/>
<path style="fill:#38ADB2;" d="M385.7902,799.7184c1.093,1.5779,0.2978,3.3466,0.5066,5.0139l0.0203-0.0342
	c-0.8263,0.5217-1.7207,0.6707-2.6755,0.4901c0.5332-1.5804,0.2612-3.3853,1.3419-4.8129
	C385.1454,800.0247,385.3959,799.7833,385.7902,799.7184z"/>
<path style="fill:#38ADB2;" d="M393.452,823.4093c-0.2094,0.5348-1.134-0.0465-1.1742,0.7526
	c-1.895-0.7166-0.9076-1.8974-0.481-2.9877c0.8532-0.8723,1.8501-1.8314,2.9221-0.5473
	C396.0018,822.1639,393.5298,822.3068,393.452,823.4093z"/>
<path style="fill:#39AFB4;" d="M383.5242,828.9172c-1.0233-0.0867-1.2092-0.6894-0.8338-1.5026
	c0.3672-0.7953,0.613-1.774,1.7734-1.8028c0.8148-0.0203,1.6302-0.0159,2.4454-0.0223c-0.082,0.1869-0.164,0.3737-0.2461,0.5604
	C386.0717,827.5883,385.6607,829.2318,383.5242,828.9172z"/>
<path style="fill:#35A4A8;" d="M376.8941,869.0477c-1.0057-0.2828-1.8488,0.8918-3.0299,0.2671
	c1.2613-2.3661,3.9648-2.2986,5.8198-3.563c0.2268,0.9313-0.1788,1.5842-0.9194,2.0896
	C378.3387,868.55,377.9579,869.3285,376.8941,869.0477z"/>
<path style="fill:#38ACB1;" d="M383.5638,810.7896c-0.0182,0.5372-0.215,0.9547-0.7621,1.1375
	c-0.5547-2.1415,0.543-4.0555,0.8369-6.0803c0.7489,0.0031,1.5815-0.3463,2.1286,0.506c0-0.0001,0.0193-0.0255,0.0193-0.0255
	C385.1039,807.8437,384.4946,809.3967,383.5638,810.7896z"/>
<path style="fill:#349FA4;" d="M383.5242,828.9172c1.5498-0.3512,1.8887-2.0765,3.139-2.7674
	c0.3799,1.318,0.1391,2.5732-0.3842,3.7998C385.3044,829.756,383.8893,830.738,383.5242,828.9172z"/>
<path style="fill:#38ABB0;" d="M385.2378,819.5162c-0.4626-0.0798-1.349,0.0139-0.5973-0.8015
	c1.1985-1.3,2.3902-2.6834,4.3214-2.9346c-0.1708,0.6841-0.3416,1.3682-0.5125,2.0522c-0.9,0.916-2.1646,1.1425-3.2451,1.717
	L385.2378,819.5162z"/>
<path style="fill:#37A9AE;" d="M387.3827,824.4597c-1.0851,0.6119-2.1721,1.0234-3.2737,0.0338
	c1.1833-0.9484,2.3667-1.897,3.5502-2.8455C388.2698,822.6543,387.0741,823.483,387.3827,824.4597z"/>
<path style="fill:#38ABB0;" d="M390.7044,836.5556c-0.3464,0.8832-1.0792,0.5844-1.7213,0.5629
	c0.2351-1.8083,0.4702-3.6166,0.7052-5.425c1.1274,0.412,1.1757,1.2158,0.8228,2.1948c-0.3346,0.9281-0.7615,1.8807,0.2299,2.7031
	L390.7044,836.5556z"/>
<path style="fill:#35A3A8;" d="M376.8941,869.0477c0.647-0.365,0.9529-1.2593,1.8701-1.2061
	c1.2983,0.8215-0.145,1.9116,0.2764,2.8193c-0.1451,0.2035-0.2845,0.1997-0.4184-0.0112c-0.3299-0.76-1.0159-0.4889-1.5744-0.5157
	C375.0222,870.0361,377.1502,869.3778,376.8941,869.0477z"/>
<path style="fill:#37AAAE;" d="M391.7348,799.1414c-1.6895,3.2452-1.8727-0.735-2.9552-0.5247
	c1.067-0.6243,2.0743-0.7476,3.0452,0.0376C391.8126,798.82,391.7826,798.9823,391.7348,799.1414z"/>
<path style="fill:#1F5F65;" d="M384.6976,888.1749c-0.1526,0.8541-0.7415,1.1403-1.5238,1.1499
	c-0.6872,0.0084-1.246,0.1382-1.148,1.02c-1.0716-0.3132-2.1319-0.6354-1.695-2.1425
	C381.794,889.4081,383.2401,887.8917,384.6976,888.1749z"/>
<path style="fill:#329CA1;" d="M392.8943,793.136c-2.1526-0.1817-4.3051-0.3635-6.4576-0.5453
	c0.0291-0.3234-0.1494-1.0179,0.1715-0.8995C388.6494,792.4446,391.1103,791.3577,392.8943,793.136z"/>
<path style="fill:#36A7AC;" d="M381.4502,881.1577c1.7122,0.1559,0.9036,1.4746,0.966,2.2869
	c0.0828,1.0776-0.8087,0.9518-1.5341,0.9066C380.5268,883.1898,381.5087,882.2663,381.4502,881.1577z"/>
<path style="fill:#36A7AC;" d="M374.1962,887.0645c0.173-1.2333,1.404-1.3448,2.1212-2.0009c0.0113,1.1188,0.125,2.2861-1.2906,2.73
	C374.2961,888.0678,374.1204,887.7095,374.1962,887.0645z"/>
<path style="fill:#38ACB1;" d="M368.8123,885.006c1.549-0.1597,2.4484,0.5014,2.6235,2.0775
	C370.3959,886.6,368.4442,887.2685,368.8123,885.006z"/>
<path style="fill:#34A1A5;" d="M395.2065,799.2848c1.0916,0.3781,2.1831,0.756,3.5443,1.2273
	c-1.1264,0.7068-2.3615,0.0029-3.1238,0.8687c-0.0003-0.0001-0.2149-0.0186-0.2149-0.0186s-0.2138,0.0261-0.2138,0.0259
	C395.201,800.6871,395.2038,799.9859,395.2065,799.2848z"/>
<path style="fill:#35A6AB;" d="M385.7902,799.7184c-0.2687,0.2189-0.5375,0.4378-0.8065,0.6568
	c-0.8419-1.0243,0.1543-1.8511,0.2975-2.7696C386.1135,798.1501,386.0604,798.9081,385.7902,799.7184z"/>
<path style="fill:#21676D;" d="M385.2042,819.5495c0.917-0.8839,2.0315-1.3943,3.2452-1.7171
	c0.0004,0.2231,0.0008,0.4462,0.0012,0.6693C387.3744,818.8693,386.4492,819.7049,385.2042,819.5495z"/>
<path style="fill:#36A7AB;" d="M374.1962,887.0645c0.2768,0.243,0.5535,0.486,0.8304,0.7291
	c-0.8802,1.126-1.5725-0.354-2.3847-0.1722C372.6002,885.8728,373.654,887.1829,374.1962,887.0645z"/>
<path style="fill:#37ACB1;" d="M378.6222,870.6497c0.1392,0.0133,0.2787,0.017,0.4184,0.0112
	c0.1466,0.3474-0.0506,0.5281-0.3252,0.6713c-1.0793-0.4251-2.4196,0.4138-3.3583-0.6934l-0.0172,0.0276
	C376.434,870.6608,377.5281,870.6553,378.6222,870.6497z"/>
<path style="fill:#21676D;" d="M378.7656,830.4211c0.8767-0.1514,1.7534-0.3028,2.6301-0.4542
	c-0.6718,0.9087-1.6719,1.0611-2.6913,1.1692C378.7248,830.8978,378.7452,830.6595,378.7656,830.4211z"/>
<path style="fill:#39AFB4;" d="M373.12,871.7604c-0.6687,0.1805-1.3375,0.361-2.0062,0.5416
	c-0.1434-0.1431-0.1793-0.3094-0.1075-0.499C371.7035,871.4229,372.3924,870.6295,373.12,871.7604z"/>
<path style="fill:#36A8AD;" d="M375.3957,848.7154c0.7921-0.0062,1.4319-0.9237,2.3785-0.3694
	c-0.6812,0.6879-1.4513,0.9724-2.3792,0.8215C375.3304,849.0168,375.3305,848.8661,375.3957,848.7154z"/>
<path style="fill:#34A1A6;" d="M384.6422,838.1996c-0.3923,0.1296-0.7847,0.2592-1.1771,0.3887
	c-0.008-0.1467-0.0786-0.3786-0.0138-0.4262c0.3912-0.288,0.5693-1.3491,1.338-0.4179
	C384.7603,837.9026,384.7113,838.0543,384.6422,838.1996z"/>
<path style="fill:#36AAAF;" d="M383.496,846.4045c-0.351,0.0186-0.8178,0.092-0.8712-0.352
	c-0.0725-0.6036,0.3401-0.9813,0.8986-1.1796C383.5142,845.3834,383.5051,845.894,383.496,846.4045z"/>
<path style="fill:#38AEB3;" d="M368.8042,882.8107c0.6011,0.313,1.2278,0.6049,1.1881,1.445
	c-0.3975-0.1511-0.795-0.3021-1.1924-0.4531C368.8013,883.472,368.8028,883.1414,368.8042,882.8107z"/>
<path style="fill:#085D9B;" d="M424.8864,792.914c1.5441,2.873,1.5074,5.7589,2.0179,8.4525
	c2.8497,15.0374,5.5092,30.1108,8.2371,45.1714c2.3906,13.1991,4.7883,26.3969,7.1686,39.5978
	c0.0963,0.5341,0.0494,1.0944,0.065,1.6425c0.0245,0.8607-0.3648,1.4119-1.2406,1.4921c-0.9716,0.0887-0.8582-0.6619-0.9669-1.2887
	c-1.0823-6.2431-2.2066-12.479-3.2773-18.7242c-1.5904-9.2762-3.1461-18.5584-4.7181-27.8378
	c-1.5426-9.1063-3.0872-18.2123-4.6308-27.3185c-1.0282-6.0656-2.0471-12.1328-3.0934-18.1953
	C424.2958,795.0244,424.0028,794.1645,424.8864,792.914z"/>
<path style="fill:#39AFB4;" d="M420.4719,827.2961c-0.9404-4.7311-1.9064-9.4573-2.8118-14.1951
	c-0.5701-2.9835-1.0494-5.9843-1.5694-8.9774c1.1812-2.7363,3.1424-3.6116,7.3418-3.2801c0.2797,0.1005,0.5379,0.2424,0.7758,0.4211
	c1.2796,3.6747,1.3813,7.5786,2.1926,11.3475c0.6252,2.9044,0.967,5.8701,1.4348,8.8084c-0.7756,0.3121-1.4648-0.6865-2.2622-0.1556
	c-0.3784,0.8213,0.8138,1.3931,0.3468,2.2212c-2.2031-0.0422-3.6966-1.6138-2.5906-2.9554c2.0421-2.4771,0.5161-3.8556-0.9846-5.45
	c-0.2539-0.2697-0.4187-0.5837-0.3426-0.9748c0.6557-1.2921,0.4804-2.5632,0.038-4.1227c-1.7569,1.6143,0.215,2.7907,0.0052,4.0516
	c-0.7533,0.7532-0.659,1.6229-0.3679,2.5338c0.5506,1.7222,1.1731,3.4133,1.421,5.2337c0.1664,1.2222,1.1425,2.0156,2.1409,2.697
	c1.1971,0.817,2.4414,1.5757,3.4288,2.6636c0.9802,0.9901,0.3179,2.2422,0.535,3.354c-0.1074,0.0488-0.2148,0.0977-0.3221,0.1476
	c-1.0191-0.1813-1.8136-1.1379-2.9701-0.8547C424.1424,828.8744,421.6078,829.5949,420.4719,827.2961z"/>
<path style="fill:#3BB0B4;" d="M442.2935,839.8619c0.5471,2.9328,1.0941,5.8655,1.6411,8.7983
	c-0.8591,0.7754-1.5954-0.6754-2.3437-0.1874c0.8343-0.1332,1.5359,0.4995,2.3475,0.7413c0.1852,0.5419,0.3703,1.0838,0.5555,1.6257
	c-3.4518,1.8672-3.6209,2.7678-1.4883,6.5101c1.2561,2.2043,3.036,4.1183,3.7219,6.6415c1.0594,2.4799,1.1324,5.1635,1.6022,7.7651
	c-0.8912,0.3419-1.8698,0.2692-2.7685,0.5919c-1.6176,0.1147-3.2646,0.524-4.7668-0.4802c-0.145-0.2228-0.2899-0.4456-0.4349-0.6684
	c1.1665-0.7135,2.5962,0.2237,3.7453-0.5972c0.8536-0.4384,1.7828-0.0797,2.6618-0.2531c-1.0165,0.149-2.1314-0.2985-3.0412,0.5054
	c-1.1612-0.0623-2.3706,0.4402-3.4706-0.3034c0.0024-0.3256,0.0048-0.6511,0.0071-0.9767c0.3976-0.2435,0.8236-0.2064,1.254-0.1278
	c0.426,0.0778,0.807,0.3121,1.2426,0.3561c-0.2846-0.2337-0.6798-0.4165-0.4148-0.9033c0.6238-0.4845,1.3044-0.3831,2.3447,0.1006
	c-1.8171-1.4037-4.0062-1.3784-4.9894-3.2471c-1.0122-2.8665-1.4228-5.8439-1.6332-8.8583
	c0.2438-0.1306,0.4747-0.1041,0.6961,0.0536c0.6732,0.7437,1.4237,1.3815,2.395,1.8233c-0.2802-1.3865-1.4349-1.8495-2.3116-2.5739
	c-0.2724-1.0804,0.0022-2.0541,0.5789-2.9674c0.5982-0.4462,0.8401-1.0391,0.7086-1.8895
	c-0.1426,0.6262,0.0133,1.2346-0.4447,1.6606c-1.1644,0.3622-1.2996-0.6695-1.6205-1.295
	c-0.4528-0.8827-0.8747-1.7613-1.6418-2.4208c-0.1736-0.9398-0.3472-1.8797-0.5208-2.8195c0.4764-0.5605,0.2728-1.1044-0.04-1.6457
	c-0.7159-2.1523-1.3295-4.3224-1.1495-6.63c0.3289-0.1616,0.141,0.2314,0.2272-0.1209c0.0625-0.2554-0.1084-0.3372-0.3447-0.2045
	c-0.7878-1.9803-0.9591-4.074-1.1341-6.167c0.5627-0.4422,1.0873-0.1411,1.4535,0.2243
	C437.4761,834.4752,440.4337,836.6605,442.2935,839.8619z"/>
<path style="fill:#8082A3;" d="M430.7749,889.8317c-2.0024,0.4435-1.7114-1.3546-1.8926-2.2363
	c-1.3075-6.3629-2.4632-12.7569-3.6673-19.1412c-2.3474-12.7115-4.692-25.4235-7.0549-38.1319
	c-0.0608-0.3268-0.321-0.6165-0.4881-0.9234c-1.1718-6.7563-2.3159-13.5178-3.5259-20.2673
	c-0.731-4.0773-1.5177-8.1461-2.3777-12.1978c-0.2929-1.3801,0.2959-1.6171,1.4134-1.5255
	c2.6743,10.4458,4.1131,21.1308,6.1004,31.7091c1.9378,10.3143,3.7115,20.6593,5.5867,30.9855
	c1.7935,9.8767,3.6234,19.7468,5.4429,29.6188C430.4424,888.4295,430.6195,889.1285,430.7749,889.8317z"/>
<path style="fill:#3AAFB4;" d="M434.0412,858.4912c1.2827,7.5396,2.5653,15.0791,3.848,22.6187
	c-0.8875,1.2817-0.3071,2.317,0.5547,3.3051c0.0004,0.204,0.0007,0.4081,0.0012,0.6121c-1.5899,0.7999-3.0163,1.8463-4.4165,2.9365
	c-1.023,0.2654-1.8587-0.118-2.6207-0.7558c-1.2771-3.4511-1.3178-7.1566-2.1935-10.6935
	c-0.3875-1.5649-0.5514-3.1854-0.8168-4.7806c-0.2231-4.2269,1.007-8.2755,1.5183-12.4083
	c0.0115-0.2446,0.0765-0.4791,0.1875-0.6975c0.4913-0.4465,1.1009-0.058,1.6339-0.2332c0.2132-0.0773,0.4309-0.125,0.6532-0.1619
	C432.9621,858.1838,433.5431,858.0789,434.0412,858.4912z"/>
<path style="fill:#3AB0B4;" d="M424.8871,852.0893c-0.3714-1.6827-0.7429-3.3653-1.1143-5.048
	c0.7794-1.3043,0.969-2.6473,0.5572-4.1517c-0.4323-1.579-0.3147-3.2408-0.2056-4.8531c0.1104-1.6316-0.6335-2.9639-1.1472-4.3895
	c1.3275-1.0328,3.5419-0.576,4.3065-2.562c0.5139-0.4529,1.2072-0.2468,1.78-0.4861l0.1397-0.082
	c0.3993,0.2744,0.5117,0.6583,0.4269,1.1176c-0.458,0.8325-0.4016,1.6289-0.0995,2.5417c0.289,0.8729,0.5744,1.9435-0.6673,2.4953
	c-0.8082-0.4534-0.866-1.3096-1.0985-2.1052c-0.0403,0.8124,0.2811,1.4357,0.8325,1.9602c0.5238,0.3815,1.2524-0.025,1.7492,0.4569
	c0.8969,0.8626,0.367,1.928,0.4138,2.9114c-1.1664,0.3577-2.5208,0.3794-2.5178,2.2118c0.0029,1.8143,1.1559,1.9985,2.4843,2.1306
	c0.4633,0.0461,0.8554,0.2639,1.1311,0.6575c-0.1624,1.3293,0.8769,2.4918,0.534,3.8462c-0.7261,1.0668-0.9851,2.6133-2.7161,2.6479
	c-0.2425-0.2682-0.378-0.5877-0.339-0.9464c0.2073-1.903-0.5345-1.2386-1.3025-0.4846c-0.1488,0.7592-1.1007,1.7107,0.5136,2.0038
	c0.4018-0.3339,0.7067-0.9778,1.3703-0.4222c0.4373,1.6607,1.2101,3.1515,2.2567,4.5067c0.0043,0.851,0.4619,1.7499-0.2556,2.5281
	l0.0357-0.0261c-0.5504,0.7663-1.1434-1.3173-1.6852,0.0252l0.0336-0.0225c-0.1795,0.0879-0.4521,0.1287-0.4867,0.0184
	C428.9513,855.8132,426.668,854.1426,424.8871,852.0893z"/>
<path style="fill:#CAE096;" d="M440.7945,871.8682c1.8127-0.0328,3.6253-0.0657,5.438-0.0985
	c0.7366-0.0101,1.475-0.0274,2.0659,0.5303c0.8927,2.6865,1.3963,5.4525,1.686,8.2621c-0.058,1.4269-0.7188,2.3048-2.1773,2.6074
	c-1.4082,0.2923-2.4584-0.1334-3.3098-1.2609c-1.4327-1.8975-2.3285-4.0567-3.1374-6.2629
	C441.0372,874.4066,440.4647,873.205,440.7945,871.8682z"/>
<path style="fill:#3AAFB4;" d="M435.6924,805.2411c0.0003,0.1825,0.0006,0.3649,0.0009,0.5475
	c-0.5626,0.6162-1.3254,0.7104-2.0872,0.8078c-1.2884,0.053-2.5985-0.429-3.8678,0.1557c-0.3246,0.1575-0.6534,0.2872-1.0168,0.1288
	c-0.1964-2.5983-1.2319-5.0776-1.094-7.7233c0.4958-0.1219,1.3389,0.6541,1.3965-0.0135c0.0637-0.7383-0.9692-0.2773-1.4847-0.47
	c-0.6347-1.7575-1.1122-3.5448-1.0285-5.4382c2.1115-0.6736,4.2408-1.1998,6.4839-0.785c0.7969,1.5986,1.0266,3.3159,1.0609,5.0741
	c-0.2464,0.9224-0.0328,1.882-0.2224,2.8109c-0.2565,1.3651,0.204,2.8268-0.5592,4.1199c-1.5256,0.5897-1.1934-0.735-1.4451-1.4273
	c-0.1479-0.4064-0.1102-0.9955-0.7006-0.974c-0.5736,0.0209-1.0204,0.4433-1.2085,0.9661c-0.2079,0.5778,0.0453,1.1526,0.621,1.3212
	c0.8339,0.2443,1.6802,0.6802,2.5988,0.2915C434.1117,804.3312,434.9546,804.5661,435.6924,805.2411z"/>
<path style="fill:#CBE196;" d="M429.2437,806.2453c1.4693-0.8024,2.9146-0.6212,4.3464,0.1066
	c0.0959,0.0787,0.1918,0.1575,0.2896,0.2344c0.7282,1.2639,1.1492,2.7018,2.1578,3.8071c0.5599,0.6827,0.4504,1.5718,0.7206,2.3453
	c1.1493,2.5016,1.4951,5.1755,1.6883,7.882c-1.6069,0.1649-2.1791-1.1345-2.8739-2.1408c-1.149-1.6641-2.3334-3.2968-4.0401-4.4082
	c-1.8307-1.1923-1.4633-3.2186-2.0014-4.8877C429.2337,808.2622,429.3882,807.2232,429.2437,806.2453z"/>
<path style="fill:#CAE096;" d="M424.8871,852.0893c2.8901,1.2443,4.6864,3.4058,5.4167,6.4614
	c1.4618,1.8312-0.391,3.2915-0.5422,4.9403c-0.2552,2.7832-0.6643,5.5358-1.3622,8.2432
	C427.2273,865.1855,426.0572,858.6374,424.8871,852.0893z"/>
<path style="fill:#3FB0B3;" d="M423.7286,801.3793c-2.9314-0.1583-5.6591,0.2502-7.6378,2.7443
	c-0.3678-2.189-0.7356-4.3781-1.1035-6.5671c1.7358-1.8983,4.4868-1.8527,6.4275-3.3588c0.9344-0.8258,1.5928-0.7933,1.8519,0.5771
	c0.2831,1.4979,0.5841,2.9924,0.8773,4.4883c-0.5825,1.2159-1.7062,1.1166-2.8191,1.1857
	C422.084,800.8997,423.5629,799.5441,423.7286,801.3793z"/>
<path style="fill:#3BAFB3;" d="M441.3598,875.6457c1.0956,1.7472,2.1752,3.5046,3.2906,5.2391
	c1.647,2.5611,3.7735,2.4252,5.334-0.3228c0.1794,0.7319,0.3589,1.4636,0.5383,2.1953c-0.1375,0.3696-0.5238,0.7419,0.0121,1.1041
	c-0.0065,0.3636-0.013,0.7273-0.0194,1.0909c-0.7924,0.8136-1.8904,1.243-2.645,2.1042c-0.3599,0.1776-0.7199,0.3552-1.0798,0.5328
	c-0.5227-0.6343-1.3154-0.0093-1.8925-0.4026c-0.7618-0.5952-1.4535-1.2512-1.8784-2.1409
	C442.4664,881.9125,441.9131,878.7791,441.3598,875.6457z"/>
<path style="fill:#C9E096;" d="M442.2935,839.8619c-3.1362-2.5118-5.4558-5.9072-8.8293-8.1628
	c-0.0002-0.0004,0.0557,0.0137,0.0557,0.0137c-0.1292-2.9248,2.3991-1.5268,3.6303-2.2403
	c0.2701,0.0102,0.5374,0.0562,0.7977,0.1302c0.9265,0.4368,1.9527,0.7031,2.6866,1.4935
	C441.1875,834.0181,441.7405,836.94,442.2935,839.8619z"/>
<path style="fill:#C9E096;" d="M446.7275,863.9914c-1.9182-2.2001-3.1902-4.8315-4.8336-7.2109
	c-0.9674-1.4008-0.9637-2.6638-0.7065-4.2979c0.3889-2.471,2.231-1.094,3.3064-1.6426c0.6858,3.5801,1.3878,7.1575,2.045,10.7431
	C446.6833,862.371,446.6689,863.1879,446.7275,863.9914z"/>
<path style="fill:#C6DF97;" d="M422.0331,814.0272c0.9284,0.8256,1.9527,1.5247,2.5616,2.6965
	c0.6591,1.2683,1.9244,2.2067-0.4014,3.3989c-1.6972,0.8701-0.8647,2.4496,1.7445,3.2727c0.9247-0.7278,1.4804-0.0363,2.0669,0.5374
	c0.8666,0.9443,0.5851,2.1248,0.664,3.2306c-3.0756-1.1776-5.664-2.7764-6.3693-6.39c-0.3304-1.6933-0.9618-3.3384-1.5671-4.9644
	c-0.526-1.4131-0.0193-1.8677,1.3412-1.7527L422.0331,814.0272z"/>
<path style="fill:#C9E096;" d="M423.1587,833.3047c1.4086,1.3304,1.7903,2.9409,1.6421,4.8597
	c-0.1238,1.6025-0.1749,3.3366,0.3089,4.8284c0.6068,1.8713,0.2905,3.085-1.3369,4.0481c-0.7704-4.76-1.5408-9.5203-2.3112-14.2807
	c-0.1654-0.642,0.2527-0.7547,0.698-0.6528C422.753,832.2433,423.3359,832.4826,423.1587,833.3047z"/>
<path style="fill:#C9E097;" d="M423.1587,833.3047c-0.4621-0.5045-0.884-1.1343-1.697-0.5444
	c-0.5984-1.773-1.1486-3.5546-0.9897-5.4645c1.759,1.4032,4.2153,0.8775,6.0125,2.1749c1.2128-0.0048,1.3092,0.7222,1.0867,1.6584
	C426.7701,833.2132,425.7346,834.8217,423.1587,833.3047z"/>
<path style="fill:#3DB0B3;" d="M429.2437,806.2453c0.6757,0.5493,0.3977,1.3301,0.5066,2.0236
	c0.3588,2.2851,0.5641,4.5218,3.0214,5.8934c2.5794,1.4397,3.1612,4.8353,5.6747,6.4583c0.2603,0.5275,0.8211,0.9601,0.5246,1.6633
	c-0.4793,0.254-0.8933,0.6865-1.5162,0.5546c-0.7974-1.3865-2.5863-1.6411-3.4142-2.9912
	c-0.2348-2.2412-2.4644-2.6906-3.6589-4.0699c-0.5533-2.9654-1.1067-5.9308-1.66-8.8962
	C428.8955,806.6691,429.0696,806.4572,429.2437,806.2453z"/>
<path style="fill:#C9E096;" d="M434.1211,819.518c1.2136,1.1986,3.4225,1.2378,3.8724,3.3259
	c0.0734,0.1218,0.1469,0.2435,0.2209,0.3654c-0.1224,1.8555-1.3845,1.8691-2.7558,1.7114c-1.8981-0.633-3.096-2.0055-3.9341-3.7545
	c-0.0363-0.9379-0.9411-1.6848-0.5947-2.7067c1.1531-0.3598,2.0126,0.3864,2.9654,0.785
	C433.9716,819.3345,434.0464,819.4263,434.1211,819.518z"/>
<path style="fill:#C9DF96;" d="M429.727,851.4258c0.9074-0.8763,1.4214-2.143,2.6651-2.6851
	c0.6231,2.4973,1.1884,5.0037,1.2131,7.5964c0.1665,0.2389,0.1613,0.5326-0.0949,0.6165c-0.5561,0.1824-0.9853-0.0848-1.2941-0.5579
	c-1.8509-1.16-3.0303-2.6508-2.4631-5.0021L429.727,851.4258z"/>
<path style="fill:#C8E096;" d="M431.8582,844.8947c-0.5424-0.0315-1.0845-0.0686-1.6272-0.0933
	c-2.3646-0.1079-3.729-2.5023-2.5083-4.5707c0.7808-1.3231,1.9301-1.0602,3.0378-0.336
	C431.7895,841.4158,431.2789,843.2748,431.8582,844.8947z"/>
<path style="fill:#C8DE96;" d="M437.9935,822.8439c-0.0714-0.8801,0.3021-0.9835,0.9773-0.5601
	c0.5529,2.7023,1.1059,5.4045,1.6588,8.1068c-1.0493,0.8679-1.7647-0.3693-2.6677-0.4235l0.0372,0.0244
	c-1.6163-1.0099-1.3181-2.8304-1.7794-4.3154c-0.2109-0.679,0.4847-0.7593,0.979-0.9935c0.7423-0.3516,1.4397-0.8649,0.7735-1.8657
	L437.9935,822.8439z"/>
<path style="fill:#C8E097;" d="M438.5408,856.9066l-0.2376,0.0035c0,0-0.2372-0.015-0.2372-0.0149
	c-1.0626-2.4252-0.951-5.1036-1.6398-7.6091c2.4695,0.0779,1.7611,2.8548,3.2189,3.7918l-0.0284-0.0273
	c0.2178,1.1448-0.27,2.1791-0.5089,3.2524C439.2562,856.8213,439.0579,857.0137,438.5408,856.9066z"/>
<path style="fill:#C6DF97;" d="M434.1383,887.6938c0.972-1.6379,2.1119-3.0045,4.3066-2.6672
	c0.8003,0.9684,0.6866,2.097,0.5665,3.2266c-1.1967,1.9383-2.7103,0.5912-4.1153,0.4009
	C434.4978,888.4496,434.2324,888.1389,434.1383,887.6938z"/>
<path style="fill:#BED897;" d="M434.1383,887.6938c0.1882,0.197,0.3764,0.3939,0.5646,0.5909
	c0.6058,0.4699,1.3809,0.4386,2.0557,0.6982c0.608,0.2339,1.2935,0.481,0.6319,1.3371c-0.8114,0.0464-1.6237,0.0815-2.4342,0.1413
	c-3.5675,0.263-3.5674,0.2656-3.5487-3.254C432.3971,886.9254,433.2003,887.6882,434.1383,887.6938z"/>
<path style="fill:#44B4B2;" d="M437.9722,822.817c0.5974,0.3338,0.7551,1.1069,0.3601,1.3486
	c-2.9833,1.8256-0.4736,3.8822-0.3332,5.826c-1.5118,0.5249-3.5339-0.2792-4.4792,1.7211c-0.8118-0.4142-0.4321-1.1073-0.402-1.7186
	c0.6141-0.7675,1.7766-0.6147,2.3626-1.4221c0.7236-1.2274,0.0532-1.8315-1.015-2.1937c-0.6678-0.2266-1.419-0.1743-2.0436-0.5724
	c-0.5237-0.2801-0.5186-0.7357-0.4074-1.2267c1.0629-0.605,2.1536,0.0308,3.2277-0.0724
	C436.4644,824.4481,437.8931,824.7234,437.9722,822.817z"/>
<path style="fill:#C0DD98;" d="M421.4147,794.1977c0.5417,0.147,1.288,0.304,0.1732,0.7626
	c-2.1863,0.8992-4.3989,1.7342-6.6006,2.5959c-0.1907-0.663-0.3814-1.3264-0.6125-2.13
	C416.9043,795.6122,418.9377,793.7659,421.4147,794.1977z"/>
<path style="fill:#C8E097;" d="M435.6924,805.2411c-0.9404,0.0881-1.8406-0.0196-2.6546-0.5461l0.0192,0.0335
	c0.188-1.673-0.5232-3.429,0.4641-5.0282c1.1067-0.2778,0.7216,0.7763,1.0584,1.1859
	C435.5463,802.1855,435.2275,803.8135,435.6924,805.2411z"/>
<path style="fill:#C6DE97;" d="M428.0046,823.9327c-0.6891-0.1792-1.3783-0.3583-2.0672-0.5374
	c-0.214-0.2769-0.3849-0.6089-0.6513-0.8199c-0.6316-0.5001-1.4879-0.9719-0.7185-1.877c0.7341-0.8636,1.6484-0.9368,2.4855-0.002
	c0.2329,0.2601,0.5146,0.4764,0.7783,0.7184C428.2754,822.2321,428.0841,823.0862,428.0046,823.9327z"/>
<path style="fill:#C4DD98;" d="M436.758,812.7386c-0.3226-0.6556-0.6451-1.3112-0.9677-1.9667
	c-0.9355-1.3841-1.5356-2.9355-2.2195-4.4453c0,0,0.0193,0.0255,0.0192,0.0254c0.5244-0.8481,1.3741-0.4807,2.1033-0.5634
	C436.249,808.0745,437.1423,810.3087,436.758,812.7386z"/>
<path style="fill:#CBE196;" d="M432.4218,825.8057c1.9012-0.4529,3.679-0.5942,4.3448,1.8425
	c0.2182,0.7986-0.1444,1.2122-0.9604,1.2443c-0.902,0.4106-1.3247-0.3607-1.8992-0.7632c-0.6713-0.5615-0.9875-1.3609-1.3977-2.098
	L432.4218,825.8057z"/>
<path style="fill:#CAE096;" d="M439.6992,865.7535c1.8523,1.2004,4.3374,1.35,5.8205,3.4198
	c-1.1816,0.8474-2.103-0.4973-3.108-0.1511c-1.5316,0.062-2.0719-1.0807-2.6481-2.1799
	C439.7421,866.4793,439.7206,866.1164,439.6992,865.7535z"/>
<path style="fill:#BEDC98;" d="M435.2421,824.5065c-1.0546,0.9987-2.1425,0.4764-3.2278,0.0716
	c0.1576-1.1827-0.9328-2.1871-0.4897-3.4118C432.7637,822.2797,434.0029,823.3931,435.2421,824.5065z"/>
<path style="fill:#C2DC98;" d="M430.3815,815.7773c1.9501,0.21,3.1058,1.6344,4.3145,2.9163
	c0.7266,0.7704-0.0648,0.7644-0.575,0.8246c0-0.0001,0.033,0.0322,0.033,0.0322c-1.0771-0.5528-2.2992-0.8259-3.2243-1.6719
	C430.747,817.1781,430.5643,816.4777,430.3815,815.7773z"/>
<path style="fill:#C7DF97;" d="M428.6199,836.5927c0.9709-0.8207,0.5865-1.7809,0.2366-2.7011
	c-0.3788-0.9958-0.2256-1.7585,0.774-2.257c0.2391,1.7833,0.4782,3.567,0.7168,5.3495c-0.6535,0.2126-1.3013,0.4056-1.6913-0.4265
	L428.6199,836.5927z"/>
<path style="fill:#C9E096;" d="M434.1054,827.7711c0.5669,0.3737,1.1337,0.7475,1.7007,1.1213
	c-0.3047,1.8115-1.7663,0.7972-2.6882,1.1014c-0.0546-0.9402-0.9769-1.7093-0.542-2.7463
	C433.2345,826.9871,433.631,827.4929,434.1054,827.7711z"/>
<path style="fill:#C9E096;" d="M439.7635,866.8422c0.8826,0.7266,1.7652,1.4532,2.648,2.1799
	c0.214,0.2479,0.5947,0.4872,0.6075,0.7451c0.0276,0.5555-0.5248,0.3499-0.7727,0.3108c-0.6712-0.1058-1.3242-0.3276-1.9844-0.5032
	C440.2139,868.6425,439.4566,867.8394,439.7635,866.8422z"/>
<path style="fill:#C1DD98;" d="M432.2163,856.3958c0.4574-0.1512,0.9533,0.6078,1.389-0.0587
	c0.8602,0.5736,0.347,1.4252,0.4358,2.1544c-0.701,0.1819-1.3953,0.5367-2.1213,0.0826
	C432.4085,857.9012,430.4866,856.8997,432.2163,856.3958z"/>
<path style="fill:#3AA6AA;" d="M437.3906,890.32c-0.0674-1.7731-2.5392-0.3696-2.6877-2.0354
	c1.4332-0.4272,2.8807,1.1094,4.3085-0.0316C439.8985,890.0621,438.2365,889.8709,437.3906,890.32z"/>
<path style="fill:#A9D69D;" d="M432.9946,792.4509c-2.1613,0.261-4.3227,0.5222-6.484,0.7841
	c1.7437-2.0672,4.3578-0.6222,6.3766-1.5798C432.923,791.9205,432.9588,792.1857,432.9946,792.4509z"/>
<path style="fill:#C3DE97;" d="M427.5392,798.6741c0.9069-0.8197,1.9177-0.6599,2.9815-0.2379
	c-1.0169,0.0819-0.9318,4.0765-2.8932,0.7217C427.5603,799.0033,427.5309,798.8421,427.5392,798.6741z"/>
<path style="fill:#B7D698;" d="M443.0196,885.0459c0.7607,0.6219,1.9386,0.793,2.1591,1.9987
	c0.3767,1.0828-0.7189,0.7401-1.0763,1.1121C443.3341,887.2616,442.7541,886.301,443.0196,885.0459z"/>
<path style="fill:#BEDD98;" d="M438.4438,884.415c-1.9991-0.6842-2.1754-1.7345-0.5546-3.3051
	C437.93,882.2358,438.878,883.2094,438.4438,884.415z"/>
<path style="fill:#C6DF96;" d="M447.8702,887.0566c0.2309-1.5198,1.156-2.1665,2.645-2.1041
	C451.0612,887.449,448.7755,886.3848,447.8702,887.0566z"/>
<path style="fill:#B6DA99;" d="M423.7286,801.3793c-0.7866-0.8386-1.8985-0.2758-2.9467-0.6623
	c1.0066-0.9486,2.3194-0.9061,3.362-1.4541c0.0216,0.6682,0.0432,1.3362,0.0646,2.003
	C424.0529,801.3214,423.8929,801.3596,423.7286,801.3793z"/>
<path style="fill:#A8CE9B;" d="M434.5795,800.8862c-0.3527-0.3952-0.7053-0.7904-1.0582-1.1857
	c-0.3286-0.8495-0.2201-1.5914,0.5343-2.175C434.7058,798.5713,434.8483,799.6967,434.5795,800.8862z"/>
<path style="fill:#B1D59B;" d="M444.1024,888.1567c0.3586-0.3705,0.7173-0.7409,1.076-1.1118
	c0.6112-0.0372,1.5335-0.9951,1.6117,0.5446C445.8716,887.6703,445.1262,888.5732,444.1024,888.1567z"/>
<path style="fill:#48B5B2;" d="M430.9298,817.8784c1.2253,0.2668,2.305,0.8146,3.2243,1.6719
	c-1.2414,0.1294-2.1826-0.629-3.2242-1.0908C430.9298,818.2659,430.9298,818.0721,430.9298,817.8784z"/>
<path style="fill:#CBE196;" d="M448.2983,872.3c-0.7159-0.0706-1.5301,0.2416-2.0659-0.5303
	c0.6921-1.1194,1.3961-0.3509,2.0973-0.0131C448.3192,871.9377,448.3088,872.1188,448.2983,872.3z"/>
<path style="fill:#C6DF97;" d="M444.0023,870.6423c-1.0765,1.0877-2.4323,0.3474-3.6429,0.5573
	c-0.0348-0.2152-0.0698-0.4305-0.1047-0.647c1.2548,0.0381,2.5096,0.0773,3.7643,0.1164L444.0023,870.6423z"/>
<path style="fill:#F1EEED;" d="M431.3604,790.4928c-0.2406-0.2376-1.209-0.1077-0.7728-0.4523
	c0.6673-0.5272,1.6401-1.0729,2.8034-0.598c-0.2227,0.7374-1.3113,0.1911-1.4575,0.9259
	C431.7427,790.4098,431.5515,790.4512,431.3604,790.4928z"/>
<path style="fill:#48B5B2;" d="M437.9619,829.9672c0.8892,0.1418,1.7784,0.2837,2.6676,0.4245
	c0.0017,0.2341,0.0034,0.4694,0.0049,0.7045C439.5999,831.0602,438.6389,830.85,437.9619,829.9672z"/>
<path style="fill:#C0DD97;" d="M443.9384,849.2141c-0.8902,0.0545-1.681-0.1478-2.321-0.8638
	c0.9037-0.5706,1.5369,0.3823,2.3172,0.3102C443.9359,848.8448,443.9372,849.0294,443.9384,849.2141z"/>
<path style="fill:#B5D99A;" d="M434.5981,837.8657c0.4111-0.9138,0.7959-0.287,1.1222,0.053
	c0.1368,0.1425,0.123,0.4295,0.1778,0.6509c-0.3941-0.1261-0.7881-0.2521-1.1823-0.3784
	C434.6224,838.1021,434.5832,837.9937,434.5981,837.8657z"/>
<path style="fill:#4AB4B1;" d="M434.1054,827.7711c-0.5099-0.1745-1.0197-0.3489-1.5296-0.5235
	c-0.022-0.405-0.0439-0.8097-0.0663-1.2154C433.1629,826.4996,433.8205,826.9643,434.1054,827.7711z"/>
<path style="fill:#CAE196;" d="M450.5347,883.8615c-0.3921,0.1227-0.7842,0.2455-1.1762,0.3682
	c-0.0493-0.8367,0.6622-1.0715,1.1642-1.4722C450.5266,883.1254,450.5307,883.4934,450.5347,883.8615z"/>
<path style="fill:#C3DE97;" d="M435.8651,844.821c0.5742,0.5349,1.8547,1.0526,0.04,1.6456
	C435.8918,845.9182,435.8785,845.3696,435.8651,844.821z"/>
<path style="fill:#7F84A4;" d="M422.2348,787.6874c-1.0491,0.1628-2.0115-0.0777-1.8813-1.9816
	c0.1414-2.0663-1.7457-3.1377-2.9065-4.3534c-1.1488-1.2031-1.1542-2.3608-0.6337-3.3902c0.7277-1.4394,1.7349-0.4766,2.6835,0.1272
	c0.8142,0.5181,1.8039,0.7571,2.7085,1.1371c3.0746,1.2915,4.2006,4.0288,3.1236,7.1959
	C424.8246,787.9053,423.7094,787.5903,422.2348,787.6874z"/>
<path style="fill:#8184A5;" d="M422.5873,788.7653c0.8672,0.0285,2.1091-0.121,2.0017,1.0834
	c-0.0738,0.8276-1.2133,1.1317-2.1588,1.0967c-0.7062-0.0262-1.4612,0.1278-1.4763-1.009
	C420.9373,788.6809,421.7532,788.7532,422.5873,788.7653z"/>
<path style="fill:#7F84A4;" d="M397.3297,787.6165c-2.7819,0.7758-2.8938-1.4328-3.1304-2.997
	c-0.3345-2.2111,0.5937-4.0742,2.6558-5.1649c1.1111-0.5876,2.2769-1.0815,3.4468-1.5447c0.8608-0.3408,1.8831-1.358,2.6486-0.1521
	c0.6733,1.0607,0.7033,2.2068-0.3138,3.4159c-1.3707,1.6296-3.505,2.8246-3.2182,5.588
	C399.563,788.1518,398.0446,787.4265,397.3297,787.6165z"/>
<path style="fill:#8184A3;" d="M397.1751,788.769c1.0413-0.0288,1.8423-0.0421,1.7827,1.2182
	c-0.0554,1.1741-0.8832,0.9444-1.5618,0.9478c-0.9351,0.0047-2.0414-0.2024-2.006-1.2735
	C395.4232,788.6584,396.529,788.7242,397.1751,788.769z"/>
<path style="fill:#F1EEED;" d="M388.014,790.3549c-0.2395-0.7294-1.1886-0.18-1.5125-0.8279
	c0.6442-0.4947,1.3476-0.0687,1.9953-0.191c0.3412,0.3005,0.6825,0.6008,1.1575,1.0189
	C389.016,790.3549,388.515,790.3549,388.014,790.3549z"/>
<path style="fill:#37AAAF;" d="M397.3227,814.0281c-1.2197-1.0624-1.4684-4.525-0.3403-5.1946
	c0.6503-0.386,1.0257,0.1678,1.2549,0.636c0.8603,1.7571,1.2871,3.4611-0.955,4.5881
	C397.2821,814.0577,397.3227,814.0281,397.3227,814.0281z"/>
<path style="fill:#35A5AA;" d="M392.8747,829.5641c-0.366,0.5128-0.7321,1.0256-1.0981,1.5385
	c-0.6694,0.4114-1.2437,0.5292-1.4563-0.4711C391.2245,830.4019,391.3994,828.4264,392.8747,829.5641z"/>
<path style="fill:#2E9196;" d="M400.5913,801.3419c1.0115,0.1318,2.2361-0.2521,2.731,1.1292
	C401.9731,803.1562,401.3953,801.9753,400.5913,801.3419z"/>
<path style="fill:#38ADB2;" d="M378.5994,847.0354c-0.568,0.2006-1.0535,0.7656-1.9676,0.2725
	c0.92-2.3293,2.6994-4.0817,4.2997-5.9142c0.4555-0.5217,1.6354-0.98,2.1669-0.7466c1.0909,0.4789,0.0694,1.3959-0.0865,2.0831
	c-0.1801,0.7941-0.0138,2.226-1.6583,1.532c-0.1581,0.1731-0.3274,0.3344-0.5058,0.4857c-0.6722,0.3411-0.988,0.9402-1.1741,1.6351
	C379.4229,846.7773,379.286,847.3639,378.5994,847.0354z"/>
<path style="fill:#37ABB0;" d="M380.2529,856.3043c0.1869,0.2,0.3737,0.4,0.5605,0.6c0.0298,2.3913-2.4314,1.8925-3.5821,2.9626
	C378.3884,858.7888,376.9655,855.6329,380.2529,856.3043z"/>
<path style="fill:#37AAAF;" d="M379.7403,853.0485c-1.8039-0.0391-1.0196-1.5595-1.2575-2.4096
	c-0.0961-0.3432,0.776-0.6922,1.3012-0.6459c0.6432,0.0568,0.4829,0.6349,0.4097,1.0393c-0.1245,0.6879-0.3175,1.3633-0.4818,2.0439
	C379.7118,853.0761,379.7403,853.0485,379.7403,853.0485z"/>
<path style="fill:#39AEB3;" d="M378.5994,847.0354c0.4542-0.2314,0.569-0.6401,0.5768-1.1046
	c0.4325-0.7004,0.9899-1.2731,1.7126-1.6769c0.155,0.0082,0.31,0.011,0.4651,0.0083
	C381.0244,846.6221,380.4429,847.2075,378.5994,847.0354z"/>
<path style="fill:#31999E;" d="M375.3571,870.6388c-0.9013,0-1.8025,0-2.7037,0c0.9281-0.5958,1.8454-0.8929,2.6864,0.0278
	C375.3399,870.6664,375.3571,870.6388,375.3571,870.6388z"/>
<path style="fill:#39AFB4;" d="M386.8932,878.3712c-0.4747-0.6216-0.9493-1.2433-1.5312-2.0056
	c1.343-0.577,2.4008-1.8663,3.9444-1.0306c0.5844,0.3163,0.3241,1.1457,0.1646,1.7507c-0.3731,1.4163-1.5099,1.2945-2.5971,1.2578
	C386.8739,878.3436,386.8932,878.3712,386.8932,878.3712z"/>
<path style="fill:#37AAAF;" d="M388.5338,872.3171c-0.138-1.1965,0.1473-2.2944,0.7906-3.3776
	c1.0101,1.4166,0.9445,2.9592,0.7631,4.6668c-0.5784-0.4811-1.0822-0.9-1.5859-1.3189L388.5338,872.3171z"/>
<path style="fill:#34A3A8;" d="M386.8739,878.3436c-1.4883,0.7018-2.9765,1.4037-4.6092,2.1736
	c1.9994-3.2738,1.9994-3.2738,4.6285-2.1463C386.8932,878.3712,386.8739,878.3436,386.8739,878.3436z"/>
<path style="fill:#36A8AD;" d="M388.5017,872.2874c1.1535,2.3313-0.2897,2.4005-2.0714,2.2787
	c0.6294-0.8851,0.6941-2.1704,2.1036-2.2491C388.5338,872.3171,388.5017,872.2874,388.5017,872.2874z"/>
<path style="fill:#36A7AC;" d="M389.0809,858.5379c-0.5527-0.5403-1.0773,2.3591-1.6448,0.0135
	c0,0.0001-0.0285,0.0258-0.0285,0.0258c0.1637-0.2157,0.2868-0.4689,0.4705-0.6594c0.3363-0.3491,0.3763-1.2595,1.056-0.9429
	c0.7057,0.3286,0.4554,1.0376,0.1258,1.6124L389.0809,858.5379z"/>
<path style="fill:#20646A;" d="M389.0599,858.5873c-0.3572-0.1997,0.7619-1.6028-0.6971-0.8735
	c-0.3698,0.1849-0.6394,0.5703-0.9551,0.8634c-0.2772-2.711,3.0572-4.2991,2.2319-7.1807c0.0002-0.0002-0.0372,0.0298-0.0372,0.0298
	c0.9365-0.2976,1.0601,0.4844,1.3667,1.026c0.0932,0.4023,0.0453,0.7766-0.23,1.1029c-0.0004,0.2261-0.0007,0.4521-0.0011,0.6785
	C390.1786,855.6851,389.6193,857.1362,389.0599,858.5873z"/>
<path style="fill:#37A8AD;" d="M390.7339,852.501c-0.3771-0.3582-0.7542-0.7164-1.1314-1.0746
	c-0.019-0.355-0.0884-0.7161-0.0461-1.0636c0.0861-0.7069-1.6543-1.3082-0.3533-1.8802c0.899-0.3954,2.3561-0.3951,2.6017,1.2841
	c-0.0063,0.1252-0.0126,0.2504-0.0177,0.3757c-0.0966,0.7617-0.3643,1.4614-0.7635,2.1143
	C390.9283,852.3392,390.8311,852.4201,390.7339,852.501z"/>
<path style="fill:#36A8AD;" d="M390.741,836.5914c-0.2424-1.2882,0.3278-2.4023,0.8067-3.8516
	c0.5791,1.678,1.9262,3.214-0.8434,3.8158C390.7044,836.5556,390.741,836.5914,390.741,836.5914z"/>
<path style="fill:#38AAAF;" d="M390.7391,853.5553c-0.0017-0.3514-0.0034-0.7028-0.0052-1.0541
	c0-0.0001-0.0257,0.0351-0.0257,0.0351c0.5208-0.8719,0.6471-1.903,1.1254-2.792c0,0-0.0286,0.0225-0.0286,0.0225
	C393.0747,851.4869,392.2822,852.6268,390.7391,853.5553z"/>
<path style="fill:#39AEB3;" d="M386.2968,804.7323c1.2769-1.0834-0.1097-3.0958,1.5685-4.1667
	c0.9841,1.1768,3.2844,1.8389,2.1681,3.9354c-0.7824,1.4691-2.4158,0.9809-3.716,0.1967
	C386.3171,804.6981,386.2968,804.7323,386.2968,804.7323z"/>
<path style="fill:#236A70;" d="M383.5638,810.7896c0.3919-1.6614,1.0739-3.1782,2.2227-4.4623
	C385.5511,808.0665,385.0505,809.6738,383.5638,810.7896z"/>
<path style="fill:#C4DF97;" d="M422.0735,814.0562c-0.3514-0.2688-0.7395-0.5013-1.0479-0.8128
	c-1.1316-1.143-0.5892-2.3528-0.0647-3.5298c0.2192-0.4921,0.6692-1.2324,1.1385-0.919c0.9594,0.6405,1.04,1.8459,1.0096,2.9066
	c-0.0248,0.8677,0.5599,2.1552-1.0761,2.3259C422.0331,814.0272,422.0735,814.0562,422.0735,814.0562z"/>
<path style="fill:#AFD89C;" d="M427.5711,831.1291c-0.3624-0.553-0.7248-1.1061-1.0869-1.6588
	c1.4518-0.9771,1.6782,0.8486,2.5799,1.1284C428.8638,831.6136,428.2654,831.5061,427.5711,831.1291z"/>
<path style="fill:#C8E096;" d="M438,844.2645c-2.1613,0.4777-1.3327-1.5619-1.9662-2.3669
	c-0.2884-0.3663-0.3758-1.0526,0.0739-1.2071c0.924-0.3174,1.8977,0.1471,2.4418,0.7872c1.5244,1.7931,3.1707,3.5236,4.1786,5.6972
	c-0.7542,0.8093-1.3463,0.0428-1.9858-0.1227c-0.5091-0.1125-0.7697-0.4935-0.9947-0.9124
	c-0.2512-0.6266-0.6693-1.1058-1.2743-1.4193C438.3044,844.5796,438.1476,844.4267,438,844.2645z"/>
<path style="fill:#C5DF97;" d="M438.5408,856.9066c0.1889-0.201,0.3778-0.4022,0.5668-0.6035
	c0.7838-0.4387,1.4381-0.6285,1.8562,0.5091c0.3605,0.9808,0.8954,1.8975,1.2096,2.9799
	C440.8864,858.8977,438.6313,859.3158,438.5408,856.9066z"/>
<path style="fill:#C4DE97;" d="M439.645,853.0778c-0.125-0.5981-0.2516-1.1959-0.3746-1.7944
	c-0.116-0.5646-0.5442-1.3565,0.5591-1.2661c0.5117,0.0419,1.3739,0.2081,1.0415,1.1422c-0.2561,0.7198,0.2265,1.9738-1.2544,1.891
	C439.6165,853.0505,439.645,853.0778,439.645,853.0778z"/>
<path style="fill:#CAE196;" d="M438,844.2645c0.1582,0.0015,0.3163-0.0013,0.4744-0.0081c0.7201,0.4032,1.2753,0.9747,1.7071,1.6722
	c0.187,0.3745,0.3739,0.7489,0.5609,1.1234C438.8875,847.1706,438.3436,846.6176,438,844.2645z"/>
<path style="fill:#A8D59D;" d="M444.0189,870.669c0.8032-0.9409,1.763-0.5945,2.7303-0.0264c-0.9156,0-1.8313,0-2.7469-0.0001
	C444.0023,870.6423,444.0189,870.669,444.0189,870.669z"/>
<path style="fill:#CBE196;" d="M432.4844,878.3389c-0.3653-0.0022-0.7361,0.0355-1.095-0.0135
	c-1.6319-0.2231-1.8922-1.4989-1.4977-2.6369c0.402-1.1599,1.4843-0.6221,2.3094-0.2284c0.5633,0.2687,1.1093,0.574,1.7833,0.9258
	c-0.553,0.7212-1.0362,1.3513-1.5193,1.9813L432.4844,878.3389z"/>
<path style="fill:#C3DE97;" d="M430.8547,872.2872c-0.4621,0.3956-0.9243,0.7912-1.5005,1.2844
	c-0.3885-1.6772-0.2382-3.1923,0.6509-4.6595c0.6783,1.0599,0.9549,2.1814,0.8182,3.4037L430.8547,872.2872z"/>
<path style="fill:#B5D999;" d="M432.4651,878.3672c2.4313-1.7114,3.5154,0.0696,4.9821,2.3369
	c-1.9801-0.9439-3.4714-1.6548-4.9628-2.3654C432.4844,878.3389,432.4651,878.3672,432.4651,878.3672z"/>
<path style="fill:#C1DD98;" d="M430.8234,872.3159c1.3852,0.0878,1.4842,1.3403,2.1324,2.2676
	c-1.799,0.0887-3.2166,0.0107-2.1012-2.2962C430.8547,872.2872,430.8234,872.3159,430.8234,872.3159z"/>
<path style="fill:#BEDD98;" d="M430.2701,858.5733c0.3821-0.1763-0.7379-1.6478,0.7305-0.8608
	c0.3632,0.1946,0.6387,0.5527,0.9547,0.8357C431.4261,860.7228,430.8257,858.1473,430.2701,858.5733z"/>
<path style="fill:#CAE096;" d="M427.5499,849.7673c0.2741-1.622,1.6907-1.6749,2.5936-1.2725
	c1.2558,0.5597-0.4307,1.1748-0.3538,1.8791c0.0375,0.3443-0.0383,0.701-0.0627,1.0519c0.0001-0.0001,0.0261-0.0319,0.0262-0.032
	c-0.3771,0.3694-0.7542,0.7389-1.1313,1.1084c-0.0941-0.0838-0.1881-0.1675-0.2842-0.2496
	c-0.3992-0.6507-0.6717-1.3484-0.7709-2.1093C427.5603,850.0181,427.5551,849.8927,427.5499,849.7673z"/>
<path style="fill:#C1DD98;" d="M428.656,836.5577c-2.7083-0.4973-1.4977-2.0327-0.9532-3.7065
	c0.7173,1.3531,1.0873,2.4794,0.9173,3.7415C428.6199,836.5927,428.656,836.5577,428.656,836.5577z"/>
<path style="fill:#C4DF97;" d="M428.6218,852.5022c-0.1084,0.3275,0.028,1.1547-0.618,0.6459
	c-1.1476-0.9042-1.5662-2.0855-0.4539-3.3807c-0.0001-0.0001-0.0222-0.0232-0.0222-0.0232c0.4739,0.8899,0.6007,1.9197,1.124,2.7897
	L428.6218,852.5022z"/>
<path style="fill:#CAE196;" d="M433.0378,804.6949c-1.2991,0.7856-2.9156,1.2706-3.7108-0.2031
	c-1.1385-2.1099,1.2453-2.699,2.0824-3.9632c1.7661,1.1058,0.3824,3.1199,1.6473,4.1995
	C433.057,804.7285,433.0378,804.6949,433.0378,804.6949z"/>
<path style="fill:#4DB6B1;" d="M433.5709,806.3267c1.1349,1.2843,1.8097,2.7983,2.2194,4.4451
	C434.3117,809.6592,433.79,808.0685,433.5709,806.3267z"/>
<path style="fill:#1F6167;" d="M380.8888,844.2539c-0.3846,0.7491-0.9419,1.322-1.7126,1.6769
	C379.3397,844.9556,379.7432,844.2257,380.8888,844.2539z"/>
<path style="fill:#21676D;" d="M391.8335,849.7443c0.0285,1.0934-0.2302,2.071-1.1254,2.7919
	C390.7122,851.4559,390.9612,850.4744,391.8335,849.7443z"/>
<path style="fill:#3BB0B4;" d="M440.1815,845.9286c-0.7678-0.3542-1.3195-0.9291-1.7068-1.6722
	C439.6019,844.2433,440.0372,844.9374,440.1815,845.9286z"/>
<path style="fill:#47B5B2;" d="M428.6517,852.5338c-0.8968-0.7194-1.1514-1.6977-1.124-2.7897
	C428.4132,850.4681,428.6632,851.4482,428.6517,852.5338z"/>
</svg>
