<svg width="40" height="32" viewBox="0 0 40 32" fill="none" xmlns="http://www.w3.org/2000/svg">
<path d="M0 16C0 7.16344 7.16344 0 16 0H24C32.8366 0 40 7.16344 40 16C40 24.8366 32.8366 32 24 32H16C7.16344 32 0 24.8366 0 16Z" fill="white"/>
<path d="M0 16C0 7.16344 7.16344 0 16 0H24C32.8366 0 40 7.16344 40 16C40 24.8366 32.8366 32 24 32H16C7.16344 32 0 24.8366 0 16Z" fill="url(#paint0_radial_144_12375)" fill-opacity="0.05"/>
<path fill-rule="evenodd" clip-rule="evenodd" d="M24.0606 10.6464L23.707 10.2929L22.9999 11L23.3535 11.3536L27.9999 16L23.3535 20.6464L22.9999 21L23.707 21.7071L24.0606 21.3536L29.0606 16.3536L29.4141 16L29.0606 15.6464L24.0606 10.6464ZM16.3536 21.3536L16.7071 21.7072L17.4142 21.0001L17.0607 20.6465L12.4142 16.0001L17.0607 11.3536L17.4142 11.0001L16.7071 10.293L16.3536 10.6465L11.3536 15.6465L11 16.0001L11.3536 16.3536L16.3536 21.3536Z" fill="#141414"/>
<path d="M16 1H24V-1H16V1ZM24 31H16V33H24V31ZM16 31C7.71573 31 1 24.2843 1 16H-1C-1 25.3888 6.61116 33 16 33V31ZM39 16C39 24.2843 32.2843 31 24 31V33C33.3888 33 41 25.3888 41 16H39ZM24 1C32.2843 1 39 7.71573 39 16H41C41 6.61116 33.3888 -1 24 -1V1ZM16 -1C6.61116 -1 -1 6.61116 -1 16H1C1 7.71573 7.71573 1 16 1V-1Z" fill="#D0D0D0"/>
<defs>
<radialGradient id="paint0_radial_144_12375" cx="0" cy="0" r="1" gradientUnits="userSpaceOnUse" gradientTransform="translate(20 25.5) rotate(-154.592) scale(22.1416 50.8165)">
<stop stop-color="#141414" stop-opacity="0"/>
<stop offset="1" stop-color="#141414" stop-opacity="0.6"/>
</radialGradient>
</defs>
</svg>
