<svg width="24" height="24" viewBox="0 0 24 24" fill="none" xmlns="http://www.w3.org/2000/svg">
<path d="M18.9419 5.69036C17.6279 5.08877 16.2407 4.66198 14.8158 4.4209C14.6208 4.76947 14.4443 5.12811 14.2872 5.4953C12.7694 5.26658 11.2258 5.26658 9.70801 5.4953C9.55079 5.12814 9.37437 4.76951 9.17946 4.4209C7.75361 4.66402 6.3655 5.09182 5.05016 5.69351C2.43887 9.55696 1.73099 13.3245 2.08493 17.0385C3.61417 18.1683 5.32582 19.0276 7.14548 19.579C7.55522 19.0279 7.91778 18.4433 8.22933 17.8313C7.63759 17.6103 7.06646 17.3376 6.52255 17.0164C6.6657 16.9126 6.8057 16.8056 6.94098 16.7018C8.52364 17.4461 10.251 17.832 12 17.832C13.7489 17.832 15.4763 17.4461 17.0589 16.7018C17.1958 16.8135 17.3358 16.9205 17.4774 17.0164C16.9324 17.3381 16.3602 17.6113 15.7675 17.8329C16.0786 18.4445 16.4412 19.0287 16.8513 19.579C18.6725 19.0298 20.3855 18.1709 21.915 17.04C22.3303 12.733 21.2055 9.00009 18.9419 5.69036ZM8.67765 14.7544C7.69134 14.7544 6.87649 13.8593 6.87649 12.7581C6.87649 11.657 7.66302 10.7541 8.6745 10.7541C9.68598 10.7541 10.4945 11.657 10.4772 12.7581C10.4599 13.8593 9.68284 14.7544 8.67765 14.7544ZM15.3223 14.7544C14.3344 14.7544 13.5227 13.8593 13.5227 12.7581C13.5227 11.657 14.3092 10.7541 15.3223 10.7541C16.3353 10.7541 17.1376 11.657 17.1203 12.7581C17.103 13.8593 16.3275 14.7544 15.3223 14.7544Z" fill="#A1A1A1"/>
</svg>
