<svg width="15" height="15" viewBox="0 0 15 15" fill="none" xmlns="http://www.w3.org/2000/svg">
<path fill-rule="evenodd" clip-rule="evenodd" d="M14.8212 5.75L14.8212 1.38604L14.8212 0.886042L14.3212 0.886042L9.95722 0.886041L9.95722 1.88604L13.1141 1.88604L9.01788 5.98224L9.72499 6.68934L13.8212 2.59315L13.8212 5.75L14.8212 5.75Z" fill="#141414"/>
<path fill-rule="evenodd" clip-rule="evenodd" d="M0.88585 9.95715L0.88585 14.3211V14.8211H1.38585L5.74981 14.8211L5.74981 13.8211L2.59296 13.8211L6.68915 9.72492L5.98204 9.01781L1.88585 13.114L1.88585 9.95715L0.88585 9.95715Z" fill="#141414"/>
<path fill-rule="evenodd" clip-rule="evenodd" d="M9.95752 14.8211L14.3215 14.8211H14.8215V14.3211L14.8215 9.9571L13.8215 9.9571L13.8215 13.114L9.72528 9.01776L9.01818 9.72487L13.1144 13.8211L9.95752 13.8211L9.95752 14.8211Z" fill="#141414"/>
<path fill-rule="evenodd" clip-rule="evenodd" d="M5.75049 0.886095L1.38653 0.886094L0.886531 0.886094L0.886531 1.38609L0.88653 5.75005L1.88653 5.75006L1.88653 2.5932L5.98272 6.68939L6.68983 5.98229L2.59364 1.88609L5.75049 1.88609L5.75049 0.886095Z" fill="#141414"/>
</svg>
