<svg width="446" height="96" viewBox="0 0 446 96" fill="none" xmlns="http://www.w3.org/2000/svg">
<path d="M0 48C0 25.3726 0 14.0589 7.02944 7.02944C14.0589 0 25.3726 0 48 0H398C420.627 0 431.941 0 438.971 7.02944C446 14.0589 446 25.3726 446 48V48C446 70.6274 446 81.9411 438.971 88.9706C431.941 96 420.627 96 398 96H48C25.3726 96 14.0589 96 7.02944 88.9706C0 81.9411 0 70.6274 0 48V48Z" fill="#F0F0F0"/>
<path d="M7.02944 88.9706L6.32233 89.6777L7.02944 88.9706ZM438.971 88.9706L439.678 89.6777L438.971 88.9706ZM438.971 7.02944L439.678 6.32233L438.971 7.02944ZM7.02944 7.02944L6.32233 6.32233L7.02944 7.02944ZM48 1H398V-1H48V1ZM398 95H48V97H398V95ZM48 95C36.658 95 28.2521 94.9979 21.7987 94.1302C15.3741 93.2665 11.0345 91.5614 7.73654 88.2635L6.32233 89.6777C10.0538 93.4092 14.8858 95.2188 21.5322 96.1124C28.1499 97.0021 36.7146 97 48 97V95ZM-1 48C-1 59.2854 -1.00212 67.8501 -0.112403 74.4678C0.781185 81.1142 2.59084 85.9462 6.32233 89.6777L7.73654 88.2635C4.43859 84.9655 2.73353 80.6259 1.86976 74.2013C1.00212 67.7479 1 59.342 1 48H-1ZM445 48C445 59.342 444.998 67.7479 444.13 74.2013C443.266 80.6259 441.561 84.9655 438.263 88.2635L439.678 89.6777C443.409 85.9462 445.219 81.1142 446.112 74.4678C447.002 67.8501 447 59.2854 447 48H445ZM398 97C409.285 97 417.85 97.0021 424.468 96.1124C431.114 95.2188 435.946 93.4092 439.678 89.6777L438.263 88.2635C434.966 91.5614 430.626 93.2665 424.201 94.1302C417.748 94.9979 409.342 95 398 95V97ZM398 1C409.342 1 417.748 1.00212 424.201 1.86976C430.626 2.73353 434.966 4.43859 438.263 7.73654L439.678 6.32233C435.946 2.59084 431.114 0.781185 424.468 -0.112403C417.85 -1.00212 409.285 -1 398 -1V1ZM447 48C447 36.7146 447.002 28.1499 446.112 21.5322C445.219 14.8858 443.409 10.0538 439.678 6.32233L438.263 7.73654C441.561 11.0345 443.266 15.3741 444.13 21.7987C444.998 28.2521 445 36.658 445 48H447ZM48 -1C36.7146 -1 28.1499 -1.00212 21.5322 -0.112403C14.8858 0.781185 10.0538 2.59084 6.32233 6.32233L7.73654 7.73654C11.0345 4.43859 15.3741 2.73353 21.7987 1.86976C28.2521 1.00212 36.658 1 48 1V-1ZM1 48C1 36.658 1.00212 28.2521 1.86976 21.7987C2.73353 15.3741 4.43859 11.0345 7.73654 7.73654L6.32233 6.32233C2.59084 10.0538 0.781185 14.8858 -0.112403 21.5322C-1.00212 28.1499 -1 36.7146 -1 48H1Z" fill="#A1A1A1"/>
</svg>
