<?xml version="1.0" encoding="utf-8"?>
<!-- Generator: Adobe Illustrator 27.8.1, SVG Export Plug-In . SVG Version: 6.00 Build 0)  -->
<svg version="1.1" id="Layer_1" xmlns="http://www.w3.org/2000/svg" width="24px" height="50px" x="0px" y="0px"
     viewBox="0 0 73.3 136.8" style="enable-background:new 0 0 73.3 136.8;" xml:space="preserve">
<g>
	<path d="M71.7,69.7c-0.7-2.4-3.1-3.8-5.5-3.1c-0.7,0.2-1.3,0.5-1.8,1l-0.1,0.1c-1.2,1.1-1.7,2.9-1.2,4.5c0.7,2.4,1.1,5,1.1,7.5v20
		c0,14.3-10.6,26.9-24.9,28.2c-15.2,1.4-28.6-9.7-30.1-24.9c-0.1-0.9-0.1-1.7-0.1-2.6V80.2c0-13.5,9.5-25.5,22.8-27.7
		c5.1-0.9,10.3-0.3,15,1.6c1.6,0.6,3.3,0.3,4.6-0.8l0.1-0.1c1.8-1.6,2-4.4,0.4-6.3c-0.4-0.5-1-0.9-1.6-1.2
		c-5.9-2.5-12.4-3.3-18.8-2.4C13.3,45.8,0,61.9,0,80.3v19c0,20.4,16.7,37.8,37.2,37.5c19.9-0.4,35.9-16.6,35.9-36.5V79.5
		C73.1,76.3,72.6,72.9,71.7,69.7z M8.8,48.7L8.8,48.7c1.3-1.2,1.8-2.9,1.3-4.5c-1.1-3.9-1.4-8-0.7-12.1C11.9,17.1,26.1,7,41.1,9.5
		s25.2,16.7,22.7,31.7c-2,12.2-11.9,21.5-24.1,22.9c-4.6,0.5-9.2-0.1-13.4-1.9c-1.6-0.6-3.3-0.3-4.6,0.8h-0.1
		c-1.8,1.6-2,4.4-0.4,6.3c0.4,0.5,1,0.9,1.6,1.2c6.4,2.7,13.4,3.4,20.2,2.2c19.9-3.5,33.2-22.5,29.7-42.4
		c-3.6-20-22.5-33.2-42.4-29.7S-2.9,23,0.6,42.9c0.2,1.3,0.5,2.5,0.9,3.8c0.7,2.4,3.2,3.7,5.5,3C7.7,49.5,8.3,49.2,8.8,48.7z"/>
</g>
</svg>
