<svg xmlns="http://www.w3.org/2000/svg" width="29" height="30" viewBox="0 0 29 30" fill="none">
  <path fill-rule="evenodd" clip-rule="evenodd" d="M15.735 4.86255H12.8011C11.2763 4.86255 10.0791 4.86254 9.12215 4.95228C8.14629 5.0438 7.34361 5.23377 6.6345 5.66234C5.89353 6.11018 5.26952 6.72525 4.81424 7.45799C4.37763 8.1607 4.18418 8.95652 4.09112 9.92179C3.99999 10.8671 4 12.0491 4 13.5516V16.4484C4 17.9509 3.99999 19.1329 4.09112 20.0782C4.18418 21.0435 4.37763 21.8393 4.81424 22.542C5.26952 23.2748 5.89353 23.8898 6.6345 24.3377C7.34361 24.7662 8.14629 24.9562 9.12215 25.0477C10.0791 25.1375 11.2763 25.1375 12.8011 25.1374H15.735C17.2598 25.1375 18.457 25.1375 19.414 25.0477C20.3898 24.9562 21.1925 24.7662 21.9016 24.3377C22.6426 23.8898 23.2666 23.2748 23.7219 22.542C24.1585 21.8393 24.352 21.0435 24.445 20.0782C24.5361 19.1329 24.5361 17.9509 24.5361 16.4483V13.5517C24.5361 12.0492 24.5361 10.8671 24.445 9.92179C24.352 8.95652 24.1585 8.1607 23.7219 7.45799C23.2666 6.72525 22.6426 6.11018 21.9016 5.66234C21.1925 5.23377 20.3898 5.0438 19.414 4.95228C18.457 4.86254 17.2598 4.86255 15.735 4.86255ZM9.2622 6.44573C10.141 6.36332 11.2682 6.36255 12.8404 6.36255H15.6958C17.268 6.36255 18.3951 6.36332 19.2739 6.44573C20.142 6.52714 20.6905 6.68301 21.1257 6.94609C21.6655 7.2723 22.1182 7.71924 22.4478 8.24962C22.7125 8.6756 22.8697 9.21235 22.9519 10.0657C23.0353 10.9307 23.0361 12.0407 23.0361 13.5919V16.4081C23.0361 17.9593 23.0353 19.0693 22.9519 19.9343C22.8697 20.7877 22.7125 21.3244 22.4478 21.7504C22.1182 22.2808 21.6655 22.7277 21.1257 23.0539C20.6905 23.317 20.142 23.4729 19.2739 23.5543C18.3951 23.6367 17.268 23.6374 15.6958 23.6374H12.8404C11.2682 23.6374 10.141 23.6367 9.2622 23.5543C8.39408 23.4729 7.84566 23.317 7.41039 23.0539C6.87066 22.7277 6.41788 22.2808 6.08834 21.7504C5.82367 21.3244 5.66647 20.7877 5.5842 19.9343C5.50081 19.0693 5.5 17.9593 5.5 16.4081V13.5919C5.5 12.0407 5.50081 10.9307 5.5842 10.0657C5.66647 9.21235 5.82367 8.6756 6.08834 8.24962C6.41788 7.71924 6.87066 7.2723 7.41039 6.94609C7.84566 6.68301 8.39408 6.52714 9.2622 6.44573Z" fill="white"/>
  <path d="M11.9105 20.0849V15.5374L16.3605 20.0849H18.8358V19.9669L13.7178 14.7896L18.441 9.87639V9.81738H15.9498L11.9105 14.1589V9.81738H9.90576V20.0849H11.9105Z" fill="white"/>
</svg>
