<svg id="e4Heyi9ovnN1" xmlns="http://www.w3.org/2000/svg" xmlns:xlink="http://www.w3.org/1999/xlink" viewBox="0 0 305 73" shape-rendering="geometricPrecision" text-rendering="geometricPrecision"><g clip-path="url(#e4Heyi9ovnN21)"><g><g><path id="e4Heyi9ovnN5" d="M27.04,49.22L42.77,71.68h17.12L36.58,38.72l-9.54,10.5Z" opacity="0" fill="#231f20"/><path id="e4Heyi9ovnN6" d="M19.6,45.51L59.58,1.49h-17.8L19.6,26.55v18.96Z" fill="#231f20" stroke-opacity="0"/><path id="e4Heyi9ovnN7" d="M13.6,1.49h-13.6v70.19h13.6v-70.19Z" transform="translate(-.32173 0)" fill="#231f20"/></g><g><path d="M106.86,48.53c-3,1.37-6.46,2.15-10.34,2.15h-3.47l10.69,21h15.25L106.86,48.53v0Z" fill="#231f20"/><path id="e4Heyi9ovnN10" d="M118.9,23.27v-.2-.15c-.07-12.1-8.76-21.43-22.37-21.43h-7.68v11.88h5.11c6.93,0,10.99,3.86,10.99,9.8s-4.06,9.8-10.99,9.8h-5.11v11.88h7.68c13.63,0,22.33-9.36,22.37-21.5v-.07-.01Z" fill="#231f20"/><path id="e4Heyi9ovnN11" d="M82.84,1.49h-13.74v70.19h13.74v-70.19Z" opacity="0" fill="#231f20"/></g><g><path d="M174.94,58.81h-24.3v12.87h24.3v-12.87Z" fill="#231f20"/><path d="M172.07,30.39h-21.43v12.18h21.43v-12.18Z" fill="#231f20"/><path id="e4Heyi9ovnN15" d="M174.94,1.49h-24.3v12.87h24.3v-12.87Z" fill="#231f20"/><path id="e4Heyi9ovnN16" d="M144.64,1.49h-13.66v70.19h13.66v-70.19Z" opacity="0" fill="#231f20"/></g><g transform="translate(-.32173 0)"><path id="e4Heyi9ovnN18" d="M224.33,1.49h-13.66l15.15,41.67h-13l-4.56,12.48h22.11l5.84,16.04h14.85L224.33,1.49Z" fill="#231f20"/><path id="e4Heyi9ovnN19" d="M212.91,25.4L206.3,7.21L181.56,71.68h14.46L212.91,25.4Z" opacity="0" fill="#231f20"/></g><path d="M304.03,62.86c0,4.36.39,8.02.49,8.81h-10.99c-.2-1.09-.5-4.26-.5-6.24-2.28,4.06-7.33,7.42-14.16,7.42-13.86,0-23.17-10.89-23.17-25.44s9.4-25.24,22.97-25.24c8.41,0,12.67,3.86,14.16,6.93v-29.1h11.19v62.86h.01Zm-23.86-.1c7.52,0,12.77-6.24,12.77-15.44s-5.15-14.95-12.67-14.95-13.07,5.84-13.07,15.05s5.15,15.35,12.97,15.35v-.01Z" fill="#231f20"/></g><clipPath id="e4Heyi9ovnN21"><rect width="304.52" height="72.86" rx="0" ry="0" fill="#fff"/></clipPath></g></svg>
