<svg id="eB1kvmsL79H1" xmlns="http://www.w3.org/2000/svg" xmlns:xlink="http://www.w3.org/1999/xlink" viewBox="0 0 472.5 72.07" shape-rendering="geometricPrecision" text-rendering="geometricPrecision"><g><path id="eB1kvmsL79H3" d="M456.26,52.1c-3.13,3.73-7.98,6.67-15.04,6.85v13.37c17.1-.27,26.82-10.46,30.62-20.22h-15.58Z" fill="#231f20"/><rect width="31.29" height="11.79" rx="0" ry="0" transform="translate(441.21 34.32)" fill="#231f20"/><path id="eB1kvmsL79H5" d="M441.21,12.36c6.95.21,11.6,2.91,14.57,6.45l13.54-4.32c-4.71-8.2-13.78-15.02-28.11-15.3v13.17Z" opacity="0" fill="#231f20"/><path id="eB1kvmsL79H6" d="M435.21,58.34c-9.06-2.18-16.47-9.98-16.47-22.54c0-13.35,7.78-20.79,16.47-22.86v-13.41c-16.66,2.33-30.62,15.95-30.62,36.27s13.47,33.85,30.62,36.17v-13.63Z" fill="#231f20"/></g><g><polygon id="eB1kvmsL79H8" points="328.04,11.67 328.04,70.85 341.7,70.85 341.7,32.69 328.04,11.67" opacity="0" fill="#231f20"/><polygon id="eB1kvmsL79H9" points="373.66,70.85 387.94,70.85 387.94,0.66 374.27,0.66 374.27,47.09 345.07,0.66 328.04,0.66 373.66,70.85" fill="#231f20"/></g><path id="eB1kvmsL79H10" d="M292.73,70.85v-70.19h13.86v70.19h-13.86Z" fill="#231f20"/><g><path id="eB1kvmsL79H12" d="M261.59,38.76c-1.17,13.21-10.24,19.42-20.95,19.42h-4.89v12.67h5.38c19.09,0,33.39-11.74,34.65-32.1h-14.19Z" fill="#231f20"/><path id="eB1kvmsL79H13" d="M261.58,32.76h14.2c-1.29-20.31-15.48-32.1-34.54-32.1h-5.48v12.68h4.99c10.69,0,19.65,6.27,20.84,19.42Z" opacity="0" fill="#231f20"/><polygon id="eB1kvmsL79H14" points="229.75,58.18 229.75,13.34 229.75,0.66 216.09,0.66 216.09,70.85 229.75,70.85 229.75,58.18" fill="#231f20"/></g><g transform="translate(0-1)"><polygon id="eB1kvmsL79H16" points="175.24,0.8 161.57,0.8 176.72,42.48 163.72,42.48 159.17,54.95 181.27,54.95 187.12,70.99 201.97,70.99 175.24,0.8" opacity="0" fill="#231f20"/><polygon id="eB1kvmsL79H17" points="163.81,24.72 157.2,6.53 132.47,70.99 146.92,70.99 163.81,24.72" fill="#231f20"/></g><g><path id="eB1kvmsL79H19" d="M111.23,39.29C109.9,53.05,99.56,59.6,89.4,59.6s-20.4-6.56-21.73-20.31h-14.19C54.9,60.12,71.24,72.87,89.4,72.87s34.61-12.75,36.02-33.58h-14.19Z" fill="#231f20"/><path id="eB1kvmsL79H20" d="M67.66,33.29C68.95,19.47,79.31,12.88,89.4,12.88s20.55,6.59,21.84,20.41h14.18c-1.46-20.86-17.79-33.58-36.02-33.58s-34.46,12.72-35.92,33.58h14.18Z" fill="#231f20"/></g><g><polygon id="eB1kvmsL79H22" points="13.66,57.9 0,57.9 0,70.99 44.95,70.99 44.95,57.92 13.66,57.92 13.66,57.9" fill="#231f20"/><rect id="eB1kvmsL79H23" width="13.66" height="51.1" rx="0" ry="0" transform="translate(0 0.8)" opacity="0" fill="#231f20"/></g></svg>
