<svg fill="#000000" version="1.1" id="Layer_1" xmlns="http://www.w3.org/2000/svg" width="256px" height="256px"
     viewBox="0 0 24 24" enable-background="new 0 0 24 24" xml:space="preserve" stroke="#000000"
     stroke-width="0.00024000000000000003"><g id="SVGRepo_bgCarrier" stroke-width="0" transform="translate(3.24,3.24), scale(0.73)">
  <rect x="-2.4" y="-2.4" width="28.80" height="28.80" rx="14.4" fill="#ffffff" stroke-width="1"/>
</g>
  <path d="M12,24C5.4,24,0,18.6,0,12S5.4,0,12,0s12,5.4,12,12S18.6,24,12,24z M12,2C6.5,2,2,6.5,2,12s4.5,10,10,10s10-4.5,10-10 S17.5,2,12,2z"/>
  <path d="M14,16c-0.3,0-0.5-0.1-0.7-0.3c-0.4-0.4-0.4-1,0-1.4l2.3-2.3l-2.3-2.3c-0.4-0.4-0.4-1,0-1.4s1-0.4,1.4,0l3,3 c0.4,0.4,0.4,1,0,1.4l-3,3C14.5,15.9,14.3,16,14,16z"/>
  <path d="M10,16c-0.3,0-0.5-0.1-0.7-0.3l-3-3c-0.4-0.4-0.4-1,0-1.4l3-3c0.4-0.4,1-0.4,1.4,0s0.4,1,0,1.4L8.4,12l2.3,2.3 c0.4,0.4,0.4,1,0,1.4C10.5,15.9,10.3,16,10,16z"/>
</svg>
