<svg width="18" height="18" viewBox="0 0 18 18" fill="none" xmlns="http://www.w3.org/2000/svg">
<path d="M17 8.00019C16.7554 6.24041 15.9391 4.60985 14.6766 3.35969C13.4142 2.10953 11.7758 1.30911 10.0137 1.08175C8.25159 0.854381 6.46362 1.21268 4.9252 2.10144C3.38678 2.9902 2.18325 4.36013 1.5 6.00019M1.5 6.00019V2M1.5 6.00019L5.5 6M1 10.0002C1.24456 11.76 2.06093 13.3905 3.32336 14.6407C4.58579 15.8909 6.22424 16.6913 7.98633 16.9186C9.74841 17.146 11.5364 16.7877 13.0748 15.8989C14.6132 15.0102 15.8168 13.6403 16.5 12.0002M16.5 12.0002V16M16.5 12.0002L12.5 12" stroke="#141414" stroke-linecap="square"/>
</svg>
