<svg width="20" height="18" viewBox="0 0 20 18" fill="none" xmlns="http://www.w3.org/2000/svg">
<path d="M10 14V14.01M10 11V6" stroke="#141414" stroke-linecap="square"/>
<path d="M3.00019 17.0318H17.0002C17.3265 17.0295 17.6473 16.9474 17.9346 16.7926C18.2219 16.6379 18.4669 16.4152 18.6484 16.144C18.8299 15.8728 18.9422 15.5613 18.9756 15.2367C19.0091 14.9121 18.9626 14.5843 18.8402 14.2818L11.7402 2.03175C11.5672 1.71915 11.3137 1.45858 11.0059 1.27714C10.6982 1.0957 10.3474 1 9.99019 1C9.63293 1 9.28219 1.0957 8.97444 1.27714C8.66668 1.45858 8.41315 1.71915 8.24019 2.03175L1.14019 14.2818C1.02013 14.5773 0.972523 14.8973 1.00134 15.2151C1.03016 15.5328 1.13456 15.839 1.30584 16.1082C1.47712 16.3773 1.7103 16.6016 1.98592 16.7623C2.26153 16.9229 2.57158 17.0153 2.89019 17.0318" stroke="#141414" stroke-linecap="square"/>
</svg>
