<svg version="1.1" id="Layer_1"
	 xmlns="http://www.w3.org/2000/svg"
	 x="0px" y="0px" viewBox="0 0 841.8898 1190.5511" style="enable-background:new 0 0 841.8898 1190.5511;" xml:space="preserve">
<path style="fill:#010101;" d="M517.6665,765.1255c0.0914,3.0821-1.204,5.8666-2.4408,8.4789
	c-2.7381,5.7836-3.1545,12.085-4.6612,18.1335c-0.9745,3.9119-1.4783,7.9392-2.3056,11.8913
	c-0.1938,0.9258-0.6475,1.8754-1.5825,2.4322c-2.6958,1.6052-4.3623,4.4285-7.0213,6.0481
	c-3.1251,1.9037-1.4632,4.7034-1.1005,6.9128c0.8449,5.1473,1.0851,10.38,2.1295,15.4742c1.1747,5.73,1.1085,11.5533,1.4013,17.3085
	c0.2432,4.7794-0.9401,9.6439-1.6092,14.4543c-0.8778,6.3112-3.8401,12.0726-4.9604,18.3336
	c-0.1687,0.9429-0.3862,2.1085-2.1226,1.1538c-3.3647-1.8502-6.9761-0.3208-10.4308-0.0507
	c-2.5503,0.1994-5.2229,0.5496-7.6465,1.6437c-2.1668,0.9783-2.5674,2.3511-0.9582,4.0273c0.9301,0.9687,1.576,1.8327,0.9379,3.0895
	c-0.6246,1.2302-1.7678,0.665-2.8124,0.7951c-2.2826,0.2844-4.1977,1.7899-6.2422,2.8431
	c-8.519,4.3885-17.8784,5.8702-27.1224,7.6484c-5.8287,1.1211-11.7145,2.414-17.671,2.1988
	c-6.5975-0.2384-13.2823-0.1578-19.7412-1.6663c-2.7247-0.6365-5.6775-0.7855-8.1542-2.3318
	c-0.7104-0.4435-1.4158-0.3279-2.1104-0.293c-5.3801,0.2704-10.6555-0.8899-15.9963-1.136c-0.2845-0.013-1.2194,0.057-0.2142-0.5349
	c0.1491-0.0878,0.3549-0.0793,0.5344-0.1154c1.7275-1.1268,3.6187-0.6991,5.4639-0.5289c1.0747,0.0991,2.1445,0.0716,3.2148,0.0999
	c4.2526-0.417,8.4461,1.0823,12.7066,0.4043c1.0686-0.2741,2.2159,0.0353,3.2759-0.3215c0.3415-0.1952-0.256-0.4047-0.032-0.1147
	c0.1113,0.144,0.0709,0.2144-0.1164,0.2432c-1.0574,0.1622-2.1363-0.0853-3.1901,0.171c-4.0219,0.7368-7.9695-0.7758-11.9757-0.3861
	c-10.4235,0.0878-20.2011-2.6904-29.7415-6.6239c-2.3814-0.9818-2.4422-2.5645-1.9122-4.6547
	c2.5866-10.2011,5.4997-20.3159,8.0492-30.526c2.4783-9.9254,5.4899-19.7067,7.9947-29.6208
	c1.0267-4.0639,2.4037-8.0226,3.03-11.4213c-1.7522,5.963-3.4139,12.72-5.1996,19.442c-2.2306,8.3964-5.3645,16.5306-7.289,25.0086
	c-1.6812,7.4064-3.1536,14.8588-5.896,21.9811c-0.4924,1.2788-0.8822,2.5985-1.4572,3.8453
	c-0.3712,0.8683-0.4088,1.8301-0.7328,2.7109c-1.24,1.6229,1.1473,2.4649,0.8409,3.8861c-3.4945-1.2646-3.5918-1.5475-2.355-7.2175
	c-3.6403,0.6722-6.2871-2.258-9.7801-2.4134c-3.8856-0.1729-7.8188-1.5413-11.5718,0.3318
	c-1.8128,0.9047-2.5082-0.4449-2.3285-1.3257c0.7362-3.6095-1.3375-6.5311-2.0753-9.7445
	c-1.132-4.9305-2.0747-9.8507-2.1062-14.9161c-0.0262-4.1942-0.7943-8.3401-0.5855-12.5603
	c0.4771-9.6442,0.6379-19.3304,3.0734-28.7388c0.8795-3.3972,0.3072-5.6986-2.7047-7.6923
	c-2.173-1.4384-3.7053-3.7485-5.9333-5.2236c-1.9371-1.2825-1.6869-3.54-2.0303-5.376
	c-2.4899-13.3098-5.3516-26.5334-8.9147-39.5958c-0.8457-3.1004-2.0147-6.1351-3.2874-9.0914
	c-2.1615-5.0208-2.8488-10.4557-4.6324-15.5804c-2.2496-6.4638-5.0854-12.7288-6.6641-19.4854
	c1.455-0.1877,2.74-0.2389,4.0201-1.5444c1.7053-1.7389,7.2318,0.1516,7.4072,2.5497c0.2711,3.7084,2.9186,5.3129,5.2348,7.1958
	c7.2966,5.9316,15.9016,9.7122,24.1634,13.9807c2.7374,1.4142,6.2307,1.7229,9.3926,2.3289
	c3.8887,0.7452,7.485,2.1794,11.1888,3.4136c7.4135,2.4702,14.8812,4.782,22.3588,7.0528c1.6922,0.5138,3.1431,0.4581,4.0221-1.8506
	c3.906-10.2589,8.8902-20.0946,12.2134-30.5801c0.8218-2.5929,2.4055-3.1883,4.7318-3.1844
	c10.8909,0.0182,21.7823,0.0569,32.6724-0.0427c1.7019-0.0155,2.502,0.66,3.0608,2.0428
	c4.6376,11.479,9.2787,22.9565,14.0036,34.6448c10.4874-3.3145,20.9752-6.657,31.4833-9.9349
	c3.6914-1.1515,7.3358-2.3979,11.2264-2.9478c3.7423-0.5289,7.0729-2.4194,10.254-4.4931
	c5.3313-3.4755,11.5662-5.4274,16.4117-9.7391c1.2872-1.1453,2.6987-2.1496,4.0293-3.2476
	c1.0175-0.8396,1.5533-1.8333,1.6871-3.2625c0.3766-4.0228,4.7154-5.6556,8.2643-3.4615c1.4676,0.9075,3.3857,0.9961,5.2117,1.0474
	c-1.7774,7.9152-5.5502,15.0798-7.6043,22.817c-0.843,3.1752-1.7447,6.3348-2.6083,9.5047
	c-0.2324,0.853-0.3585,1.7479-1.1173,2.3463c-1.3777-0.5844-0.4705-1.5153-0.2742-2.2529c0.3942-1.4812,1.0803-2.894,1.0049-3.8223
	c-1.7253,5.7346-3.9399,11.9592-5.74,18.3055c-0.1831,0.3151,0.1031-0.04-0.1383,0.222c-0.4459,0.4839-0.6424,1.0422-0.7046,1.6721
	c0.2131-0.4606-0.0051-1.2813,0.9433-1.1288C517.8861,764.6935,517.8738,764.9149,517.6665,765.1255z"/>
<path style="fill:#808181;" d="M352.7995,895.4592c-0.8746-1.1908-2.8253-1.9668-1.5371-3.9909
	c1.0615-0.6888,0.7883-1.6504,0.5331-2.6083c2.4442-5.9459,4.573-12.0023,5.8887-18.3019
	c1.4025-6.7148,3.1664-13.2991,5.221-19.8623c2.5056-8.004,5.0988-16.0131,6.9623-24.223
	c0.8511-3.7496,2.1511-7.3974,3.4849-11.0276c0.2192,2.3582-0.7569,4.4676-1.3223,6.642
	c-5.2762,20.2921-10.605,40.5706-15.9137,60.8544c-0.754,2.8809-1.4252,5.785-2.2478,8.6458
	c-0.3628,1.2615-0.2475,1.7173,1.1617,2.3123c9.5363,4.026,19.4163,6.4869,29.7495,7.1188
	c0.2292,0.3096,0.2116,0.6066-0.0452,0.8916c-2.9895-0.0151-5.979-0.0303-8.9686-0.0453c-0.593-0.6121-1.36-0.3815-2.0698-0.4279
	c-0.2995,0.2396-0.685,0.3695-1.0075,0.2322c-4.3214-1.8374-9.0992-1.7805-13.4989-3.2744
	c-2.1559-0.9689-4.1792-2.2274-6.4341-2.9867L352.7995,895.4592z"/>
<path style="fill:#F7F6F6;" d="M517.1412,764.0241c0.9715-5.9247,3.2475-11.4617,5.1381-17.1099
	c0.2709-0.8094,0.265-1.8027,1.3722-2.6202c0.0776,1.7086,0.1711,3.1448-0.4681,4.6462c-0.3241,0.7614-1.2415,1.5021-0.572,2.5255
	c-0.2159,0.7729-0.4318,1.5458-0.6477,2.3188c-0.5382,0.7417-1.065,1.4896-1.2908,2.4009
	c-0.1169,0.8445-0.6085,1.5804-0.6948,2.4337c-1.0944,1.6387-1.2504,3.6528-2.1554,5.3668
	C517.6058,764.1876,517.3782,764.1913,517.1412,764.0241z"/>
<path style="fill:#141314;" d="M358.7843,898.1547c4.3338,1.1084,8.8883,1.2656,13.0712,2.9882
	c0.6382,0.2628,1.2239,0.2286,1.8408,0.2939c-0.1928,0.7693-0.9109,0.6854-1.3023,0.5212
	c-4.4201-1.8533-9.3242-1.7298-13.7738-3.4267c-0.1438-0.0548-0.2323-0.2546-0.3466-0.3868
	C358.4485,897.9177,358.6185,897.9318,358.7843,898.1547z"/>
<path style="fill:#292727;" d="M517.5605,764.0031c0.6042-1.8841,1.0876-3.8151,2.1441-5.5236
	c0.1838-0.2103,0.3546-0.2103,0.5104,0.0317c-0.9263,2.1752-1.2989,4.5638-2.5485,6.6143
	c-0.0007-0.1847-0.0014-0.3695-0.0021-0.5542c-0.1826-0.0971-0.2587-0.2136-0.2288-0.3497
	C517.4677,764.0759,517.5092,764.0031,517.5605,764.0031z"/>
<path style="fill:#0B0A0A;" d="M358.7843,898.1547l-0.2552-0.0151l-0.2555,0.0049c-2.0162-0.5552-3.8323-1.5143-5.5179-2.7365
	C355.1597,895.4575,356.856,897.0609,358.7843,898.1547z"/>
<path style="fill:#8F8C8C;" d="M293.3712,713.1821c0.7952-0.4969,1.5339-0.4023,2.3781-0.1007
	C294.9434,713.7017,294.2011,713.5212,293.3712,713.1821z"/>
<path style="fill:#4C4A4A;" d="M520.5588,755.8079c0.4564-0.6827,0.0256-1.9817,1.4049-2.0233
	c-0.242,0.6725-0.484,1.345-0.726,2.0175C521.0131,756.0041,520.7867,755.9969,520.5588,755.8079z"/>
<path style="fill:#A5A2A2;" d="M531.7605,713.0826c-1.072,0.5675-1.8362,0.5008-2.6995,0.197
	C529.8092,712.4876,530.5898,712.8184,531.7605,713.0826z"/>
<path style="fill:#040404;" d="M520.5588,755.8079c0.2258-0.0018,0.4517-0.0035,0.6783-0.0056
	c-0.3402,0.9028-0.6811,1.8059-1.022,2.7089c-0.0001,0-0.2531-0.0508-0.2531-0.0508s-0.2574,0.0192-0.2574,0.0192
	C519.9893,757.5889,520.274,756.6984,520.5588,755.8079z"/>
<path style="fill:#818181;" d="M488.98,884.3387c-4.2325-0.1188-8.3559,0.8439-12.5341,1.2632
	c-1.5424-0.3316-0.8379-1.3876-0.5695-2.1161c0.8482-2.3021,1.358-4.7018,2.1312-7.0227c0.24-3.0889,0.2842-6.1932,0.8586-9.251
	c0.4147-2.2076-0.32-4.354-0.4208-6.5368c-0.0076-1.5673-0.0005-3.1337-0.0085-4.7003c0.0192-1.2589,0.0486-2.5182-0.3846-3.7322
	c-0.265-9.6749-1.4349-19.2802-2.4473-28.886c-1.4039-13.3212-2.7396-26.6496-5.1215-39.8655
	c-1.2567-6.9725-2.2058-14.0445-2.8195-21.1323c-0.8392-1.0675-0.364-2.4807-0.9714-3.6394
	c-0.2985-0.5695-0.2218-1.291,0.758-1.3285c0.8268-0.0316,1.501-0.4871,1.5969-1.2455c0.1075-0.8501,0.0646-1.5499,1.1978-1.6233
	c1.2527-0.081,0.9923,1.0567,1.3205,1.6238c1.9865,3.4323,4.8993,4.0596,7.4459,1.2991c1.5616-1.6927,0.8698-3.9803,0.4931-5.8952
	c-0.3134-1.5931,0.3789-1.2161,1.1985-1.1581c1.152,0.8017,0.7299,2.1952,1.2284,3.2438
	c1.7935,6.7676,3.7829,13.4865,5.0681,20.3815c1.5093,6.9448,2.9457,13.8995,3.6672,20.9831
	c0.1297,1.2732,0.2788,2.5375,0.268,3.8154c-0.0023,0.5826,0.0067,1.1672,0.0114,1.7499c-0.1029,0.9239,0.5521,1.5793,0.85,2.3637
	c1.3133,7.2406,2.1715,14.5472,3.2509,21.8197c0.1866,0.7191,0.2296,1.4557,0.2559,2.1929
	c0.0004,0.7056,0.1119,1.3961,0.3183,2.0723c0.1951,0.8219,0.2166,1.6593,0.2286,2.4975c-0.0168,0.8345,0.1229,1.6484,0.333,2.4542
	c0.1984,0.8497,0.2084,1.716,0.249,2.5809c-0.0188,0.7751,0.2979,1.4863,0.4269,2.2348c0.193,4.0664,0.7594,8.0976,0.7409,12.1901
	c-0.0218,4.8149-0.2829,9.583-1.117,14.3188c-0.6618,4.7896-1.3395,9.5558-3.1575,14.1165
	C492.4242,881.6675,491.2552,883.4196,488.98,884.3387z"/>
<path style="fill:#818181;" d="M346.7616,885.6024c-4.3707-0.6008-8.7415-1.2017-13.1122-1.8024
	c-1.5055-0.7009-2.2097-2.0271-2.8426-3.4706c-2.0956-4.7803-2.8791-9.8595-3.5309-14.9773
	c-1.6172-8.8311-1.2589-17.688-0.3887-26.5516c0.1144-0.7596,0.4573-1.4769,0.4296-2.2651
	c0.0355-0.8896,0.0439-1.7827,0.2342-2.6586c0.4904-1.5333,0.2191-3.1564,0.5371-4.7108c0.1247-0.5616,0.3013-1.113,0.3234-1.6958
	c0.0605-0.89,0.0645-1.7852,0.2799-2.6585c0.6159-5.4963,1.8832-10.9077,2.091-16.4538c0.3895-1.7093,0.8716-3.4029,0.9438-5.1718
	c-0.0034-0.2924,0.0117-0.5839,0.0326-0.8755c0.5464-3.2883,0.5446-6.6381,1.0979-9.9272
	c1.0308-6.1812,1.9265-12.3853,3.3058-18.5024c1.4637-6.8091,3.2753-13.5309,5.1069-20.2477
	c0.4991-1.0443,0.0815-2.4413,1.2311-3.2374c0.5172,0.0642,1.401-0.5552,1.3242,0.6378c-0.0455,0.7073-0.3226,1.4017-0.3504,2.1076
	c-0.1278,3.238,1.1731,5.9207,3.2845,6.1152c2.6647,0.2454,4.6284-1.02,5.6708-3.6254c0.1462-0.3654-0.0094-1.4225,1.0959-1.1096
	c0.7554,0.2139,1.411,0.3465,1.1081,1.3707c-0.0425,0.1437,0.0551,0.4646,0.1516,0.4939c4.0046,1.2186,1.1909,3.9172,1.3062,5.9733
	c0.0985,3.9585-1.1239,7.7424-1.5375,11.6392c-1.0405,9.8018-2.9177,19.4803-4.5415,29.1943
	c-0.4606,0.8996-1.0208,1.7708-0.8628,2.8623c0.0007,0.7667,0.0081,1.5312,0.0233,2.2983c-0.413,6.0941-1.28,12.1395-1.8804,18.2128
	c-0.4655,4.7102-0.8696,9.4264-1.3944,14.1317c-0.4243,3.8039-0.6517,7.6295-0.7259,11.4598
	c-0.4215,1.2198-0.4385,2.4854-0.4042,3.756c-0.0103,1.5706,0.0022,3.1413-0.0055,4.7112
	c-1.0861,5.3152,0.2761,10.5665,0.4312,15.8473c0.7663,2.3203,1.296,4.7111,2.1366,7.013
	C347.5965,884.2151,348.299,885.2683,346.7616,885.6024z"/>
<path style="fill:#ADAFC7;" d="M392.959,767.2622c-1.6867,0.2111-1.1978-1.1105-1.1033-1.8159
	c0.8026-5.9897,1.7252-11.9634,2.5492-17.9504c0.8242-5.9878,1.5671-11.9868,2.3652-17.9782
	c0.2734-2.0522,0.822-4.093,0.8553-6.1454c0.0394-2.4309,1.3909-2.7578,3.3063-2.7514c7.3147,0.0247,14.6299,0.0475,21.944-0.0157
	c1.8402-0.0159,2.3547,0.5679,2.5454,2.4904c0.6864,6.9175,1.7381,13.7979,2.574,20.7017
	c0.6417,5.3004,1.2022,10.6114,1.7238,15.9251c0.1856,1.8909,0.5618,3.7517,0.684,5.6626c0.0891,1.3931-0.3104,1.5207-1.3417,1.365
	c-0.5265-0.0795-1.0522-0.2552-1.5426-0.4692c-6.1447-2.6819-12.5695-1.223-18.8893-1.2841
	c-1.5501-0.015-3.1276,0.2812-4.6468,0.0831c-3.9685-0.5175-7.417,1.3006-11.0697,2.2034L392.959,767.2622z"/>
<path style="fill:#818181;" d="M317.1048,784.9202c-0.6958-0.4454-0.6899-1.2582-0.9568-1.9115
	c-1.6514-4.0421-2.7658-8.2809-5.39-11.9369c-2.5945-3.6145-2.6073-8.2335-4.0886-12.3057
	c-1.0508-2.8889-1.7878-5.8923-2.843-8.7794c-1.2121-3.3163-2.5119-6.4091-1.2365-10.1968c0.8553-2.5399-0.3781-5.4136-0.601-8.1448
	c-0.0584-0.7162-0.3474-1.4207,0.0182-2.2379c2.2644,0.384,3.9409,1.8203,5.731,3.0436c1.1912,0.8143,2.2339,1.9391,3.8424,1.9255
	c2.6186,0.53,4.6041,2.1466,6.5562,3.8207c2.3175,1.1175,4.5144,2.2756,7.3,2.2886c3.401,0.016,3.6586,0.8691,3.6679,4.3604
	c0.0112,4.1951,0.1796,8.3603-0.3501,12.5624c-0.6689,5.3059-1.5686,10.52-3.3847,15.5634c-0.3616,1.004-0.836,2.0295-0.6158,3.1659
	c0.0197,0.1398,0.0394,0.2796,0.061,0.4193c-1.2256,5.0261-1.2358,10.2656-2.666,15.2532
	c-0.0551,0.2556-0.1357,0.5071-0.2252,0.7526c-0.4821,1.1475-0.8396,2.3352-1.0521,3.5667c-0.049,0.2461-0.1183,0.486-0.1926,0.725
	c-0.6302,1.752-0.6108,3.7696-2.1,5.1722c-0.1266-0.0142-0.2536-0.0291-0.3806-0.0439c-0.1134-1.6296-0.0157-3.2062,0.5621-4.7841
	c1.0518-2.8722,0.5028-5.6901-0.5665-8.4575c-0.4855-1.2567-1.0948-2.4854-1.1325-3.8763c0.6232-0.2441,0.9999,0.2955,1.4909,0.4708
	c0.6323,0.2257,1.1501,0.0335,1.2549-0.6093c0.1405-0.8621-0.1945-1.7201-0.9361-2.1292c-0.6573-0.3627-0.8902,0.3579-1.063,0.8688
	C317.6334,783.9825,317.5452,784.5345,317.1048,784.9202z"/>
<path style="fill:#818181;" d="M500.1,776.1378c-0.3737-4.1577-2.4208-7.8768-3.031-12.0062
	c-0.853-5.7724-1.8104-11.5082-1.3434-17.3727c0.0578-0.726-0.0393-1.4703,0.0725-2.1847c0.1699-1.0859-1.3911-2.2459-0.4756-2.9142
	c1.0916-0.7968,2.7306-1.2705,4.0888-1.1857c2.8051,0.1751,4.9882-1.1601,7.306-2.277c1.9521-1.6743,3.9378-3.2907,6.5563-3.8209
	c1.7013-0.0163,2.7805-1.2325,4.0498-2.0896c1.7171-1.1595,3.3393-2.515,5.9588-2.9556
	c-1.4548,5.6721-0.3303,11.4203-2.4653,16.7818c-3.1816,7.9898-5.1737,16.3432-7.5917,24.5709
	c-1.4243,4.8466-3.5969,9.4732-5.4329,14.1988c-0.2939-0.2301-0.4464-0.5456-0.5819-0.8862
	c-0.2708-0.6813-0.2407-1.8914-1.4257-1.3741c-0.7411,0.3235-1.0785,1.2908-0.7659,2.1194c0.445,1.1789,1.2523,0.6425,1.9761,0.2349
	c0.2415-0.1361,0.4975-0.1782,0.7599-0.0474c-0.3699,1.2938-0.6427,2.6254-1.129,3.8739c-1.1959,3.0702-1.5255,6.1501-0.2786,9.2596
	c0.459,1.1448,0.301,2.2429,0.2967,3.5925c-1.3946-1.6613-1.0615-3.7389-2.1906-5.2244c-0.088-0.0875-0.176-0.1752-0.2659-0.2616
	c-0.4772-1.149-0.6995-2.3858-1.2175-3.5253c-0.1025-0.2504-0.1784-0.5052-0.2475-0.7657
	c-1.429-5.0147-1.4657-10.2704-2.6882-15.3189C500.0548,776.4188,500.0774,776.2783,500.1,776.1378z"/>
<path style="fill:#ADAFC7;" d="M441.2224,772.2364c-0.6552-2.2037-2.2913-3.1423-4.4317-3.2439
	c-1.5934-0.0757-2.8731-0.9514-4.313-1.4071c-0.7568-0.2395-1.0274-0.6916-1.1285-1.5618
	c-1.2199-10.4985-2.5399-20.9852-3.7853-31.4808c-0.4467-3.7648-0.7631-7.545-1.1428-11.3575
	c1.7096,0.0227,2.1946,1.246,2.7105,2.3904c3.3778,7.493,6.7405,14.9929,10.1081,22.4904c0.839,0.5689,1.2325,1.4573,1.6692,2.3158
	c0.1122,0.2107,0.2031,0.431,0.2834,0.6553c0.3115,1.139,0.8389,2.1869,1.384,3.2278c0.1116,0.2135,0.2012,0.4354,0.2803,0.662
	c0.2392,0.8065,0.5289,1.5898,1.0201,2.2844c0.2731,0.4104,0.5045,0.8407,0.6458,1.3148c0.1855,0.9781,0.585,1.8519,1.2693,2.5893
	c0.5706,1.2836,1.7614,2.4136,1.0051,4.0262c0.6141,3.8975,2.086,7.2933,7.083,7.6371c1.8959,0.1305,3.5567,1.0716,5.4615,2.0137
	c-4.7516,3.6557-9.2459,7.3545-14.7549,9.5148c-0.0928-0.0801-0.1857-0.1602-0.2802-0.2391
	c-0.5731-1.0654-0.6437-2.3443-1.4169-3.3254c-0.1762-1.0767-0.4906-2.1033-1.1148-3.0198
	c-0.0917-1.0538-0.3442-2.0699-0.6937-3.0659C440.7967,773.8301,440.7494,773.0173,441.2224,772.2364z"/>
<path style="fill:#ADAFC7;" d="M379.1856,784.3289c-5.3438-2.059-9.693-5.6927-14.2076-9.0502
	c-0.7448-0.5539-0.1449-1.0831,0.5321-1.3348c2.1305-0.7919,4.3592-1.6918,6.5714-1.4282c1.4456,0.1722,1.8485-0.1821,2.4066-1.2471
	c1.0287-1.9628,2.2486-3.8315,2.4609-6.1171c-0.483-1.3988,0.3255-2.5341,0.7577-3.746c0.6874-0.8466,1.3505-1.7083,1.5042-2.8417
	c0.1377-0.4722,0.3705-0.8972,0.6378-1.3047c0.4868-0.6832,0.7846-1.454,1.0256-2.2505c0.0722-0.2271,0.1678-0.4444,0.2713-0.6581
	c0.5596-1.037,1.0518-2.1034,1.3931-3.2367c0.0768-0.2314,0.1743-0.4526,0.282-0.6705c0.4537-0.8699,0.8297-1.7955,1.6852-2.3796
	c3.8561-8.2437,7.0521-16.8085,11.4549-24.7863c0.2197,0.085,0.4394,0.17,0.6591,0.255c-0.7495,5.7685-1.476,11.5401-2.2547,17.3046
	c-0.8227,6.0897-1.6458,12.1802-2.5665,18.2554c-0.4536,2.9933-0.3254,6.1-1.6138,8.9445c-1.2492,1.8182-3.4855,1.496-5.1582,2.3889
	c-1.244,0.3849-1.356,1.4288-1.4379,2.4899c-0.08,0.4918-0.2827,0.9296-0.5651,1.3334c-0.744,1.1291-1.143,2.3817-1.3249,3.712
	c-0.1248,0.9869-0.4561,1.9014-0.9579,2.7562c-0.6531,1.0366-0.7189,2.2979-1.279,3.3704
	C379.3707,784.1691,379.2782,784.249,379.1856,784.3289z"/>
<path style="fill:#818181;" d="M504.4532,796.4307c0.0432,0.9942,0.0782,1.9531,0.3942,2.9501
	c1.23,3.8806,0.7727,5.4274-2.7787,7.3394c-1.9576,1.0539-3.745,1.9472-4.2488,4.4509c-1.5099-6.2343-3.0345-12.284-3.8085-18.5023
	c-0.839-6.74-1.2718-13.6108-2.9907-20.1321c-1.0898-4.1345-2.429-8.2918-3.1768-12.48c-0.7294-4.0849-2.1729-7.8159-3.5938-11.6198
	c-0.1643-0.4398-0.9185-1.079,0.1167-1.565c0.9184-0.431,1.406-0.2294,2.0049,0.6268c5.231,7.4789,9.5877,15.3776,12.0519,24.2327
	c0.4207,1.5119,0.6373,3.1216,1.6765,4.4064l-0.0352-0.0497c1.9608,5.3414,1.3157,11.2072,3.3268,16.5385l-0.0299-0.049
	c0.4577,1.2751,0.6354,2.6313,1.1277,3.8964L504.4532,796.4307z"/>
<path style="fill:#808181;" d="M382.3305,774.1284c0.5306-0.257,0.5966-0.7642,0.68-1.2623
	c0.3999-0.3612,0.2242-0.9434,0.5155-1.3472c0.7935-0.8234,1.8117-1.2906,2.8164-1.78c1.1826-0.7194,2.709-0.5181,3.8195-1.4297
	c1.1716,0.2915,2.0683-0.1518,2.7967-1.0468c0.0005-0.0002-0.0467,0.0215-0.0462,0.0212c3.2923,0.3834,6.6218,0.2324,9.8517-0.1896
	c3.3819-0.4419,6.7219-0.3026,10.0713-0.235c3.5997,0.0725,7.31,0.0579,10.7613,0.3209c5.0981,0.3884,11.0374,0.325,15.0229,4.9268
	c0.8821,1.0186,1.6757,1.2668,2.603,0.1296c0.1889,0.7531,0.3779,1.5059,0.5669,2.2586c-0.5712,1.1447,0.5955,2.037,0.4527,3.1195
	c0.4245,0.9833,0.8491,1.9666,1.2737,2.9499c0.407,1.2549,0.5492,2.5868,1.1035,3.799c0,0-0.0327-0.056-0.0327-0.0559
	c-0.1306,3.239,1.8797,6.039,1.9143,9.2355c0.0659,6.0884,1.5658,11.9372,2.9579,17.8145
	c-2.3168-4.4861-2.7703-9.4449-3.7941-14.2573c-0.9926-4.665-1.1919-9.5128-3.6186-13.8371
	c-4.2729-7.6141-11.2345-11.1945-19.3709-12.5533c-7.8102-1.3043-15.7203-1.4462-23.5295,0.4492
	c-4.0039,0.9718-8.0978,2.27-10.9085,5.1772c-3.3717,3.4875-6.2108,7.5662-7.4545,12.5206
	c-2.1328,8.4963-4.4413,16.9485-6.8611,26.1205c-0.4944-2.7897,0.3514-4.7022,0.9279-6.5326
	c1.6978-5.3903,2.0392-10.9702,2.6335-16.5112c0.2812-2.6215,2.0149-4.8787,1.7028-7.6044c0,0.0001-0.0433,0.0435-0.0433,0.0435
	c0.5604-1.2124,0.6464-2.5668,1.1359-3.8004c0.3826-0.9539,0.7653-1.9078,1.1479-2.8616
	C381.6194,776.489,382.2373,775.3749,382.3305,774.1284z"/>
<path style="fill:#808181;" d="M324.7539,776.1378c1.6727-4.5342,3.2369-9.1123,5.0461-13.5914
	c2.1241-5.2586,4.8925-10.1959,8.0837-14.8893c0.3336-0.4907,0.4741-1.2749,1.6505-0.8426
	c-7.0173,20.098-8.3932,41.3803-13.0464,62.1882c-1.3314-1.4577-3.2623-1.8259-4.9761-2.6428
	c-0.699,0.3205-0.9758-0.2874-1.3764-0.6261c-0.155-0.2379-0.293-0.4841-0.4176-0.7391c-0.9861-1.2231-1.1785-2.605-0.576-4.0095
	c0.6317-1.4725,0.8565-3.0351,1.2523-4.5602l-0.0296,0.049c0.4909-1.2655,0.6717-2.6208,1.1277-3.8964l-0.0299,0.049
	c2.011-5.3312,1.366-11.1971,3.3268-16.5385L324.7539,776.1378z"/>
<path style="fill:#808080;" d="M474.8471,885.5201c-0.3858,0.4922-0.6516,1.1154-1.6185,1.3107
	c0.2199-2.3542,1.7437-4.2324,1.7956-6.5815c0.1445-6.5468,1.1911-13.0329,0.5582-19.6508
	c-0.521-5.4479-0.2603-10.9782-0.2161-16.4709c0.058-7.211-1.3558-14.2491-2.4604-21.3109
	c-1.1065-7.0738-2.1347-14.1308-2.5554-21.2934c-0.4397-7.4869-0.8537-14.9843-2.0209-22.4208
	c-0.5205-3.3165-0.4901-6.7193-0.7096-10.083c-0.1362-0.7145-0.8534-1.6898,0.7321-1.6316c1.2505,4.5995,1.25,9.3777,1.9692,14.0569
	c0.9696,6.3087,2.0909,12.5964,2.9167,18.9252c0.848,6.4988,1.4018,13.0353,2.1714,19.5417
	c0.9536,8.0627,1.6577,16.1462,2.444,24.2226c0.4155,4.2676,0.7878,8.548,0.7915,12.8463
	c0.3437,6.2178,0.0176,12.4155-0.5416,18.604C477.3174,878.9926,477.0662,882.5791,474.8471,885.5201z"/>
<path style="fill:#808080;" d="M356.1348,769.0193c-0.2574,7.4473-1.5132,14.7986-2.1318,22.2076
	c-0.4121,4.9355-0.3885,9.9058-1.1915,14.8151c-1.0191,6.2303-1.999,12.467-2.9928,18.7015
	c-0.1138,0.7138-0.2121,1.4302-0.3116,2.1461c-1.2908,9.29-1.9648,18.6516-2.0685,28.0034
	c-0.1028,9.26-1.2395,18.5939,0.8896,27.8022c0.1874,0.8107,0.431,1.415,0.9975,2.0687c0.4026,0.4645,0.2558,1.6001-0.9677,0.7563
	c-2.2097-2.9311-2.4592-6.507-3.258-9.9054c-0.5864-6.1911-0.8524-12.3888-0.5397-18.6029
	c0.3004-8.467,1.1708-16.8817,2.0311-25.3082c0.4707-4.6105,1.1143-9.2188,1.3399-13.8566c0.2715-0.8733,0.965-1.6207,0.7913-2.6319
	c0.484-7.4797,1.7201-14.8547,2.9699-22.2324c1.3511-7.976,2.3508-16.0042,3.3135-24.0357
	c0.0661-0.5516,0.1977-1.0764,0.4171-1.5841C356.9468,767.3624,356.2915,768.2979,356.1348,769.0193z"/>
<path style="fill:#808181;" d="M475.2886,747.7274c-3.4757,1.0258-6.7317,2.1229-10.0602,2.9156
	c-1.859,0.4427-2.6168,1.3423-2.6277,3.1832c-0.0064,1.0874-0.3622,2.1705-0.398,3.2608c-0.0464,1.4103,0.1482,2.7753-2.046,2.5396
	c-0.9721-0.1045-1.5872,0.7662-1.9351,1.6867c-0.3347,0.8858-0.1881,1.7863-0.2101,2.6964
	c-0.0309,1.2753,1.5482,2.9895-0.3253,3.772c-2.4343,1.0165-4.8759-0.0509-6.017-2.107c-1.4756-2.659-2.0735-5.701-2.3745-8.5561
	c-0.1465-1.3904,1.5238-3.8796,3.6526-4.4723c6.7044-1.8664,13.2772-4.2128,20.1144-5.5916
	C473.7278,746.9204,474.5094,746.7642,475.2886,747.7274z"/>
<path style="fill:#808081;" d="M361.7908,760.2397c-0.2177-2.0388-0.6179-3.8566-0.5552-5.6583
	c0.0904-2.597-1.1136-3.7499-3.5078-4.2874c-3.165-0.7106-6.2799-1.6442-9.4914-2.502c1.4669-1.2928,3.1578-0.4769,4.5323-0.1254
	c6.5577,1.6765,13.0604,3.571,19.5674,5.441c1.9391,0.5574,3.3888,3.7654,2.6541,5.6238c-0.9977,2.5236-1.9822,5.0526-3.0047,7.5659
	c-0.5356,1.3166-4.3871,2.2865-5.392,1.4089c-0.3623-0.3163-0.1704-0.6627-0.1353-0.9941c0.0961-0.9086,0.2218-1.8141,0.3402-2.7203
	C367.3008,760.1453,365.4542,758.7426,361.7908,760.2397z"/>
<path style="fill:#808081;" d="M380.2739,757.4127c-0.1687,0.3381-0.3374,0.6762-0.5061,1.0143
	c-0.734,0.8575-0.5975,2.2263-1.6877,2.8745c-0.0849,1.3692-0.4218,2.6643-1.131,3.85c-1.4015,0.1758-0.6457,1.9827-1.8682,2.4094
	c-0.8727,0.3046-1.5244,1.3844-2.751,0.4891c1.586-1.8098,2.391-3.9747,2.9297-6.2895c0.5266-2.2623,1.2255-4.4701,3.2118-5.9899
	c0.3243-0.2482,0.6945-0.8283,0.6163-1.1517c-1.011-4.1789,1.9864-7.1628,3.2343-10.6177c2.8462-7.8796,6.8031-15.33,9.2562-23.3781
	c0.1519-0.4985,0.2246-1.3348,1.2175-1.1191c0.7791,0.1693,0.6816,0.688,0.6698,1.2417c-0.0368,1.7204-0.0561,3.4009-0.74,5.0688
	c-2.6808,6.5376-5.2676,13.114-7.8562,19.689c-0.3222,0.8184-0.9595,1.5933-0.6269,2.5833
	c-0.5337,0.8701-0.8375,1.8401-1.2084,2.7809l0.032-0.0493c-0.6198,1.2739-1.1853,2.5712-1.6823,3.8981l0.0344-0.0516
	C380.8476,755.5021,380.7643,756.5422,380.2739,757.4127z"/>
<path style="fill:#808081;" d="M443.9871,758.427c-0.1688-0.3381-0.3375-0.6762-0.5063-1.0143
	c-0.4904-0.8704-0.5737-1.9104-1.1441-2.7475l0.0347,0.0516c-0.4977-1.3268-1.0626-2.6245-1.6825-3.8984l0.0324,0.0496
	c-0.3593-0.9393-0.6969-1.8879-1.1652-2.7816c-1.071-4.7862-3.5616-9.0405-5.1183-13.6474
	c-0.6655-1.9695-1.4752-3.8982-2.3384-5.791c-1.3663-2.9956-1.9384-6.1587-1.8269-9.5573
	c7.3748,16.1986,12.9965,33.1846,21.4233,49.0264c-2.7171,0.3701-3.968-1.0598-4.8991-2.9753
	c-0.3398-1.4174-0.9415-2.7196-1.7295-3.9401C444.6832,760.2861,444.468,759.3048,443.9871,758.427z"/>
<path style="fill:#818181;" d="M355.4014,791.0493c5.8562,4.0817,10.8483,8.144,16.3908,11.2112
	c3.4698,1.9202,2.5663,3.9031,1.788,6.4073c-0.0267,0.0857-0.0826,0.1624-0.2186,0.423
	c-5.8624-2.9943-11.2701-6.6721-16.5978-10.5198C353.8548,796.4701,356.1423,793.9386,355.4014,791.0493z"/>
<path style="fill:#818181;" d="M467.8961,791.5054c1.1365,3.9831,0.0571,6.8151-3.3635,8.8738
	c-4.1094,2.4734-8.1174,5.116-12.1555,7.7069c-1.3734,0.8812-1.8899,0.8485-2.5597-1.0025
	c-0.9099-2.5145-0.4553-3.3903,1.9164-4.772C457.2584,799.0931,462.4088,795.232,467.8961,791.5054z"/>
<path style="fill:#808081;" d="M470.953,892.0898c-2.3267-2.447-2.6146-5.8194-3.0549-8.7503
	c-1.3841-9.2136-4.8851-17.7639-7.5877-26.5503c-2.8469-9.2559-4.3708-18.808-6.9047-28.1237
	c-0.1134-0.417-0.0145-0.8918,0.1963-1.3857c1.817,7.754,4.4072,15.2993,7.1243,22.6957
	c4.1979,11.4272,4.5629,23.8814,10.0418,34.9113c1.0544,2.1227,1.8038,4.6443,1.3127,7.2162
	C471.7011,892.4161,471.3251,892.4172,470.953,892.0898z"/>
<path style="fill:#818181;" d="M369.5729,820.567c-4.1825-1.8384-8.2161-3.6791-12.3071-5.3822
	c-2.1538-0.8965-3.8255-1.8182-2.8728-4.6612c0.3303-0.9855,0.0526-2.175,0.0526-3.5996c3.0202,1.8509,6.3623,2.5577,9.2277,4.2426
	c1.8333,1.0781,3.8692,1.4431,5.756,2.2905c1.9806,0.8895,2.4594,1.8513,1.4658,3.7407
	C370.356,818.2231,370.0359,819.3637,369.5729,820.567z"/>
<path style="fill:#66666F;" d="M352.0351,828.515c4.1166,2.0573,8.1643,4.1202,12.253,6.0981
	c1.1645,0.5633,1.3268,1.288,0.9514,2.4055c-0.5747,1.7109-1.068,3.4493-1.6293,5.2857c-3.4955-1.8646-6.9105-3.8801-10.4945-5.528
	c-2.2725-1.0448-3.0073-2.2242-2.1072-4.6488C351.4223,831.0127,351.4154,829.7108,352.0351,828.515z"/>
<path style="fill:#232426;" d="M355.67,767.4121c-1.2623,11.851-2.9854,23.6353-4.9315,35.3932
	c-0.6974,4.2138-0.9034,8.5091-1.3337,12.7672c-0.3884,0.5584-0.485,1.2634-0.9064,1.8053
	c-1.0261,10.5376-2.0764,21.073-3.0613,31.6145c-0.2464,2.6368-0.2823,5.2935-0.4149,7.9409
	c-0.3877,0.9352-0.1112,1.9173-0.2028,2.8734c-0.0493,0.5143-0.0009,1.1126-0.8254,0.9603
	c0.0361-1.6594,0.0721-3.3188,0.1082-4.9783c0.4715-1.1043-0.0885-2.3256,0.3887-3.4292
	c0.0946-10.4036,1.6033-20.6871,2.6354-31.0108c0.4438-4.4393,0.9141-8.876,1.3724-13.314
	c0.6458-0.7662,0.4065-1.6924,0.4633-2.5665c-0.0074-0.6741,0.0161-1.3391,0.4737-1.8952c0.438-6.11,1.9035-12.0593,2.8474-18.0901
	c1.142-7.2967,1.5817-14.6979,3.2687-21.9111c0.0989-0.423,0.356-0.809,0.5395-1.2123c0.1706,0.5877,0.3412,1.1754,0.5117,1.7631
	C355.9902,765.1335,356.8647,766.5663,355.67,767.4121z"/>
<path style="fill:#66666F;" d="M473.6543,833.8122c0.0511,1.1987-0.7336,1.7112-1.5373,2.1479
	c-3.7537,2.0392-7.5225,4.0503-11.2872,6.0692c-0.2272,0.1218-0.6166,0.373-0.6755,0.3131
	c-1.1906-1.2111-1.3615-2.8917-1.9998-4.3638c-0.4529-1.0446-0.0749-1.4614,0.7498-1.9282
	c4.0307-2.2818,8.0562-4.5734,12.0526-6.9145c1.3245-0.7759,2.0318-0.4648,2.1564,1.0164
	C473.2198,831.417,473.0364,832.7144,473.6543,833.8122z"/>
<path style="fill:#808181;" d="M353.4429,821.0352c1.5188,0.7905,2.9612,1.5558,4.4165,2.2957
	c2.9989,1.5249,6.2208,2.7032,8.8211,4.8746c1.9776,1.6514,0.1621,3.5605-0.2914,5.2201c-0.416,1.522-1.7057,0.4084-2.4335,0.05
	c-3.5674-1.7578-7.0978-3.5945-10.594-5.4905c-1.6114-0.8738-1.9413-5.5654-0.5509-6.6696
	C352.9867,821.1756,353.2336,821.1251,353.4429,821.0352z"/>
<path style="fill:#242426;" d="M478.1822,856.931c-0.6672-15.4417-2.6829-30.7524-4.3401-46.1026
	c-1.2846-11.8994-3.5478-23.6472-4.9482-35.5188c-0.3092-2.621-0.3827-5.2786-0.8094-7.8958
	c-1.1929-0.8473-0.3217-2.2792-0.9318-3.2916c0.1704-0.5877,0.3408-1.1754,0.5112-1.7631c1.773,4.3613,2.0222,9.0433,2.5605,13.6133
	c0.7473,6.3457,1.7885,12.6302,2.9093,18.9098c1.4291,8.0072,1.7805,16.1363,2.7321,24.1981
	c1.0162,8.6096,1.8377,17.2432,2.6518,25.8751c0.2312,2.4519,0.14,4.9343,0.1966,7.4026c0.4775,1.105-0.0831,2.3279,0.3894,3.4334
	c0.0361,1.6588,0.0722,3.3176,0.1082,4.9764c-0.8248,0.1518-0.7767-0.4466-0.826-0.9615
	C478.2939,858.8495,478.5714,857.8666,478.1822,856.931z"/>
<path style="fill:#66666F;" d="M354.9999,797.9216c4.2424,4.9932,9.7501,6.7966,14.2573,10.0653
	c0.9548,0.6925,2.0829,1.1411,3.1004,1.7532c1.3979,0.8406,0.4886,1.9099,0.2191,2.8946c-0.3625,1.3248-1.1372,0.7524-1.9048,0.4158
	c-4.1639-1.8265-8.2983-3.7294-12.5222-5.4061c-2.5121-0.9972-3.5539-2.5623-3.1794-5.2366
	C355.143,801.1761,354.9999,799.9002,354.9999,797.9216z"/>
<path style="fill:#66666F;" d="M447.293,793.2803c0-2.2148,0.038-3.8188-0.0148-5.4199c-0.0302-0.9158,0.5497-1.2083,1.2023-1.5984
	c5.1695-3.0909,9.3857-7.4229,14.203-10.9753c0.364-0.2684,0.6282-0.6701,0.9861-0.9492c0.7972-0.6218,1.9158-2.0749,2.5652-1.0396
	c0.6025,0.9605,1.5703,2.8431-0.1828,4.1202c-1.7621,1.2835-3.5376,2.5164-5.1657,4.0104
	C456.6179,785.346,452.1633,789.0605,447.293,793.2803z"/>
<path style="fill:#808181;" d="M357.7003,778.9678c6.0885,4.0673,11.2059,9.3796,16.904,13.9851
	c0.4751,0.3839,0.8355,0.9672,1.1126,1.5258c0.4589,0.9252,0.1434,1.9473-0.4302,2.5787c-0.8601,0.9466-1.3706-0.2634-1.9315-0.6851
	c-4.5802-3.4434-9.1472-6.9046-13.697-10.3881C357.349,784.2162,355.5382,782.2421,357.7003,778.9678z"/>
<path style="fill:#66666F;" d="M356.8229,785.2484c5.4741,4.0692,10.8658,8.0657,16.2394,12.0867
	c0.6541,0.4894,1.2306,1.0897,1.8073,1.6739c1.0577,1.0718,0.1506,2.1571-0.258,3.0142c-0.4713,0.9883-1.3234,0.0165-1.8143-0.2764
	c-5.5459-3.3091-10.7028-7.1987-15.8637-11.0559C354.9745,789.2267,356.3929,787.0873,356.8229,785.2484z"/>
<path style="fill:#818181;" d="M453.3671,815.0601c4.3928-1.4347,8.1975-4.3669,12.8818-5.0658
	c0.1623-0.0242,0.3055-0.1887,0.4534-0.2936c0.8918-0.6334,1.9435-2.1354,2.8406-0.5406c0.6897,1.2261,1.0186,3.2612-0.5226,4.2426
	c-4.5937,2.9247-9.6485,4.9583-14.6668,7.0341c-0.9454,0.3911-1.3166-0.2878-1.4979-1.0569
	c-0.2061-0.8744-0.3547-1.7623-0.5284-2.6443C452.7154,816.2026,452.8705,815.5253,453.3671,815.0601z"/>
<path style="fill:#66666F;" d="M474.0116,843.174c0.137,0.5499,0.1891,0.642,0.1762,0.7239
	c-0.476,3.0038,1.6428,6.6942-1.1475,8.9235c-2.3156,1.8502-5.557,2.5411-8.4307,3.7637c-1.1155-1.5369-1.1833-3.5028-1.8083-5.2689
	c-0.3004-0.8488,0.0357-1.5662,0.8785-2.0565C467.0392,847.3057,470.3789,845.318,474.0116,843.174z"/>
<path style="fill:#818181;" d="M457.1738,828.9354c2.3299-1.3752,4.6604-2.7495,6.9894-4.1261
	c2.2627-1.3374,4.5238-2.6774,6.8893-4.0776c1.0281,1.6156,0.8095,3.4664,1.3334,5.1098c0.309,0.9694-0.5176,1.177-1.1749,1.5085
	c-4.202,2.1193-8.32,4.4232-12.6105,6.3423c-2.8869,1.2913-1.7302-1.6564-2.3731-2.7158
	C456.4425,830.2496,456.7166,829.5499,457.1738,828.9354z"/>
<path style="fill:#66666F;" d="M467.4834,784.2176c0.1704,1.9341,0.1863,3.3039,0.4456,4.626
	c0.1638,0.8349-0.2052,1.1325-0.7618,1.5153c-5.3662,3.6913-10.4832,7.7493-16.1261,11.0286
	c-0.7118,0.4137-1.771,1.6774-2.4391,0.5173c-0.5692-0.9883-0.4413-2.4285,0.8506-3.3901c4.0723-3.0309,8.0929-6.1316,12.1176-9.226
	C463.4977,787.8067,465.5062,786.4241,467.4834,784.2176z"/>
<path style="fill:#7C7C7C;" d="M331.9171,883.2953c-1.6065,1.1697-2.2549,0.1865-2.6468-1.2184
	c-2.8409-10.1863-4.6133-20.4719-4.7448-31.139c-0.1574-12.7668,1.6783-25.2478,3.7323-37.7496
	c0.1619-0.9854,0.2086-1.9896,0.3088-2.9852c-0.1016-0.6628,0.3232-0.7736,0.8338-0.7949c0.328,0.0818,0.5425,0.2838,0.6463,0.6053
	c0.0378,6.2468-1.9016,12.248-2.2903,18.4432c0.1591,2.2625-0.584,4.4476-0.5601,6.699c-0.1894,4.5471-0.4926,9.0871-0.731,13.6292
	c-0.3059,5.8282-0.044,11.6568,0.9493,17.4261c0.6648,5.1848,1.9976,10.1953,4.0016,15.0268
	C331.6904,881.8987,332.1929,882.5015,331.9171,883.2953z"/>
<path style="fill:#66666F;" d="M349.5045,843.0559c3.9319,2.3029,7.2762,4.285,10.6457,6.2236
	c1.3676,0.7868,0.4784,1.8082,0.2466,2.6279c-1.3248,4.6848-1.2174,4.2042-5.708,2.8426c-4.5801-1.3888-5.949-3.9594-5.2059-8.3114
	C349.6331,845.5585,349.5045,844.6309,349.5045,843.0559z"/>
<path style="fill:#66656F;" d="M353.1915,818.3466c0.0333-0.2798,0.1282-0.8156,0.1555-1.3546
	c0.088-1.7352,0.5272-2.4019,2.4491-1.4468c3.8184,1.8976,7.7325,3.6227,11.6925,5.2052c1.5213,0.608,1.8698,1.2546,1.2874,2.7085
	c-0.3309,0.826-0.4767,1.7493-0.5676,2.6428c-0.114,1.1208-0.5376,1.1243-1.4173,0.6699c-4.362-2.2536-8.7415-4.4738-13.1343-6.6664
	C352.9187,819.7365,352.734,819.3043,353.1915,818.3466z"/>
<path style="fill:#7F7F7F;" d="M494.6361,806.9056c0.0165,0.3368,0.0329,0.6736,0.0494,1.0104
	c1.2794,2.8602,1.1524,5.9928,1.7416,8.986c0.3003,1.1687,0.467,2.3619,0.6308,3.5554c0.6532,3.347,0.9075,6.7473,1.34,10.1238
	c0.0956,1.6409,0.0336,3.2995,0.5501,4.8931c0.7978,4.9991,0.5325,10.0391,0.5793,15.0668c0.0002,0.5166,0.0002,1.0336,0,1.5501
	c0.0135,2.7189-0.1681,5.4254-0.5305,8.1201c-0.899,7.9965-2.8124,15.7755-5.0342,23.4883
	c-0.6899,0.7995-1.5262,0.6255-2.1356,0.0579c-0.6794-0.6329-0.0209-1.3563,0.2566-1.9834
	c2.181-4.9285,3.5134-10.0866,4.2289-15.4183c1.794-9.4491,0.8158-18.9337,0.37-28.4088c-0.0429-0.9119-0.1125-1.8232-0.1257-2.7352
	c-0.2785-3.7846-0.7646-7.5512-1.0776-11.3326c0.0207-0.7546-0.0802-1.4948-0.3037-2.2185
	c-0.1828-0.7341-0.2247-1.4866-0.2998-2.2355c-0.8233-3.341-0.9858-6.781-1.5229-10.1648
	c-0.1404-0.8846-0.1023-1.8127,0.4288-2.6234C494.187,806.3402,494.6047,806.01,494.6361,806.9056z"/>
<path style="fill:#66666F;" d="M468.648,799.0762c0.0873,1.8004,0.0727,3.5997,0.2987,5.3684
	c0.1352,1.0584-0.5532,1.1777-1.1516,1.5447c-4.662,2.8596-9.7923,4.7399-14.7062,7.0724
	c-0.6345,0.3012-1.2587,0.5764-1.6479-0.1596c-0.4471-0.8453-0.5475-1.8184,0.3795-2.4476
	c3.6625-2.4866,7.2472-5.1172,11.0794-7.3124C464.9473,801.9692,466.0613,799.6053,468.648,799.0762z"/>
<path style="fill:#66666F;" d="M455.3051,827.6763c-1.651-4.6995-1.6379-4.674,2.529-6.8168
	c4.1073-2.1122,8.1843-4.2836,12.285-6.4345c0.0966,0.1533,0.2122,0.2764,0.2603,0.422c1.2082,3.6509-0.5382,5.3217-3.8043,6.7186
	C462.6723,823.2348,459.0664,825.5986,455.3051,827.6763z"/>
<path style="fill:#66666F;" d="M364.8899,779.4619c3.5194,1.8141,6.4926,4.4492,9.828,6.5359
	c1.4141,0.8847,2.4226,4.5265,1.5019,5.8552c-0.6119,0.8831-1.0393,0.2565-1.5099-0.1496
	c-3.991-3.4438-8.0068-6.8595-11.9615-10.3444c-1.2292-1.0831-2.3021-2.3566-3.8243-3.049
	c-1.0037-0.4564-1.4244-1.2471-1.0869-2.1972c0.2898-0.8157,0.1681-2.1028,1.1076-2.3359c1.057-0.2624,1.2949,0.9748,1.781,1.6921
	c0.9506,1.4026,1.6375,3.1063,3.629,3.4059C364.8496,778.7819,365.0969,778.9146,364.8899,779.4619z"/>
<path style="fill:#808181;" d="M466.666,777.9336c2.2734,5.2273-2.113,6.6194-4.5779,8.8549
	c-3.7595,3.4095-7.5793,6.7872-11.7776,9.6797c-0.6015,0.4144-1.136,1.5378-2.0104,0.6147
	c-0.7972-0.8416-0.6184-1.8588,0.2314-2.6556c2.5214-2.3639,4.9343-4.8671,7.6265-7.0192
	C459.8349,784.4688,463.3422,781.3524,466.666,777.9336z"/>
<path style="fill:#818181;" d="M350.0512,840.308c0.0426-3.4865,0.1759-3.5007,3.2088-2.1379
	c2.674,1.2015,5.0467,2.9308,7.6429,4.2022c1.9803,0.9698,1.8869,1.8069,1.3748,3.668c-0.7856,2.8549-1.6503,2.8482-3.7917,1.1471
	c-1.964-1.5602-4.262-2.7639-6.5501-3.83C350.3645,842.6252,349.6243,841.7698,350.0512,840.308z"/>
<path style="fill:#818181;" d="M474.249,839.6274c0.659,1.9145-1.2861,2.5247-2.3573,3.303
	c-2.6206,1.9042-5.5338,3.4001-8.244,5.1895c-1.0924,0.7213-1.5388,0.5059-2.0192-0.5862
	c-1.3337-3.0318-0.8391-4.1043,2.8803-6.0831c2.3145-1.2312,4.6195-2.4808,6.9166-3.7443
	C473.9314,836.3281,474.266,836.5244,474.249,839.6274z"/>
<path style="fill:#808080;" d="M409.4052,718.9509c-2.1187,0.8693-4.2402-0.0786-6.3547-0.0972
	c-2.5092-0.022-4.937,0.6637-7.4285,0.4864c-0.7535-0.0536-1.5133-0.1631-1.5559-1.1443c-0.0528-1.2141,0.9756-0.7939,1.5807-0.9667
	c2.847-0.8128,5.8104-0.5829,8.6393-0.3315c7.4673,0.6636,14.9302,0.2264,22.3911,0.3997c2.1207,0.0493,2.1207,0.0491,1.9839,1.6702
	c-0.7561-0.8911-1.5216,0.5439-2.2791-0.0091c-4.2213-0.012-8.447-0.139-12.6447,0.476
	C412.3439,718.8188,410.7905,719.638,409.4052,718.9509z"/>
<path style="fill:#808181;" d="M466.4799,864.0445c-1.0273-1.3569-1.0145-2.9412-1.4307-4.3612
	c-0.3435-1.172,0.0539-2.2662,1.507-2.8373c2.499-0.9819,4.9118-2.1829,7.3345-3.2802c0.1758,0.3054,0.2481,0.3782,0.2606,0.4602
	c0.7823,5.1147,0.7721,5.0969-3.832,7.6323C469.0007,862.3846,467.7566,863.2461,466.4799,864.0445z"/>
<path style="fill:#818181;" d="M349.4348,856.2571c0.0508-0.8096,0.1016-1.6193,0.1658-2.6428
	c1.1646,0.438,2.1597,0.7859,3.1348,1.1832c6.2189,2.5342,6.2174,2.5378,4.273,9.1093c-2.6484-2.0181-5.6857-3.2158-8.5318-4.773
	C349.2629,858.3304,348.6834,857.0721,349.4348,856.2571z"/>
<path style="fill:#313134;" d="M486.3419,773.9156c-1.6759-6.7734-3.3517-13.5468-5.0276-20.3203
	c0.2509-0.1795,0.5123-0.1966,0.7849-0.0532c1.9652,2.9455,2.2571,6.4114,3.0139,9.7299c0.2502,0.2528,0.2923,0.6133,0.455,0.9136
	c-0.1011-0.3406-0.2451-0.6595-0.4765-0.9411c-0.1688-0.6321-0.1546-1.2776-0.2001-1.9183c0.141-0.4088,0.3528-0.7145,0.8587-0.5931
	c2.7679,9.7433,4.6318,19.6716,6.0709,29.6868c-0.2372,0.1548-0.4686,0.1464-0.6949-0.0233
	c-0.5658-0.9991-0.6687-2.2017-1.3791-3.1401c-0.1272-0.6507-0.5006-1.2384-0.4988-1.9218
	c-0.5503-4.7729-1.2143-9.5299-2.0209-14.2672c0.2579,1.0652,0.7147,2.1035,0.4185,3.2435
	C486.9744,774.9553,486.6883,774.3364,486.3419,773.9156z"/>
<path style="fill:#66656F;" d="M467.9061,870.6063c-0.3271-1.0771-0.5042-2.0803-0.9285-2.9649
	c-0.7543-1.572-0.152-2.6258,1.0974-3.4957c0.7437-0.5178,1.4916-1.0698,2.3163-1.4214c1.3819-0.5891,3.0595-2.4246,4.0319-1.5463
	c1.1187,1.0105,0.2734,3.2744,0.3596,4.9907c0.0304,0.6046-0.2811,0.9186-0.8604,1.2065
	C471.9794,868.3413,470.0924,869.42,467.9061,870.6063z"/>
<path style="fill:#66656E;" d="M348.8249,860.8671c1.3808-0.0986,2.1967,0.5894,3.0225,1.0636
	c5.7507,3.3021,5.222,1.7598,3.4784,8.3674c-2.1529-0.9155-3.9045-2.5657-6.2628-3.1376c-1.1339-0.2751-0.8536-1.5417-0.2476-2.2477
	C349.9555,863.5845,349.5498,862.338,348.8249,860.8671z"/>
<path style="fill:#3E3E42;" d="M494.0176,806.3223c0.0617,4.4748,0.8997,8.8594,1.5408,13.2669
	c-0.1393,0.3149-0.2633,0.6356-0.3652,0.9644c0.053,0.4388-0.3466,0.8958,0.065,1.3023c0.1425-0.142,0.299-0.2027,0.4799-0.2002
	c0.4934,0.5115,0.4879,1.1321,0.3874,1.7735c-0.1493,0.2216-0.2061,0.4882-0.346,0.715c-0.1437,0.2313-0.3323,0.4223-0.5321,0.6047
	c-0.2054,0.1843-0.4205,0.3506-0.7151,0.3539c-0.7225-4.4568-1.4806-8.9083-2.155-13.3723c-0.4602-3.0466-0.8035-6.111-1.199-9.1674
	c-0.3994-0.543-0.4661-1.2606-0.9291-1.7701c0.009-0.5414,0.0181-1.083,0.0272-1.6245c0.2455-0.2708,0.5492-0.3134,0.8853-0.2283
	c0.6483,0.7419,0.3673-0.527,0.7541-0.3508c3.341,0.5328,1.8083,3.1731,2.1605,4.9984c-0.8021,0.788,0.1601,1.5841-0.0094,2.3749
	C494.0515,806.0826,494.0345,806.2025,494.0176,806.3223z"/>
<path style="fill:#808080;" d="M474.7715,868.2345c0.0559,3.5935,0.3521,7.0104-3.5006,8.8102
	c-1.1799,0.5511-1.6844,0.7808-2.0855-0.9749C468.0372,871.0445,468.211,870.6115,474.7715,868.2345z"/>
<path style="fill:#808080;" d="M348.6026,867.6801c1.9037,1.0802,3.5348,2.1851,5.3091,2.963
	c1.8485,0.8105,1.2359,2.2228,1.0265,3.4346c-0.2012,1.1645-0.4881,2.8532-1.6721,3.0276c-1.2562,0.1851-3.024-0.9463-3.2326-2.03
	C349.5847,872.7433,347.9965,870.5969,348.6026,867.6801z"/>
<path style="fill:#808081;" d="M506.1106,738.1795c-2.656,0.1894-4.8473,2.6646-7.917,1.3964
	c4.8818-3.2717,10.18-5.7072,15.2653-8.5794c0.6884,1.1671-0.468,1.8995-0.1898,2.795
	C511.0622,735.5467,508.6926,737.0364,506.1106,738.1795z"/>
<path style="fill:#808080;" d="M515.6414,727.525c1.2308-1.1129,2.3398-2.2786,3.6116-3.2257
	c1.7645-1.3141,3.0844-2.7021,2.8884-5.1614c-0.1083-1.3583,1.0341-2.0363,2.262-2.3214c1.0391-0.2413,1.8154,0.0115,2.5088,1.0206
	c0.8419,1.225,0.2545,2.347-0.4183,2.8758C523.1494,723.3417,520.4146,726.9973,515.6414,727.525z"/>
<path style="fill:#313134;" d="M341.8946,753.5952c-0.6483,4.7977-2.6919,9.2367-3.5767,13.9833
	c-0.3955,2.1221-0.4439,4.3484-1.4548,6.3373c-0.3459,0.4052-0.6245,1.0209-1.2932,0.4152
	c-0.3563-1.3383,0.2974-2.4974,0.6166-3.718c-0.4449,1.406-0.8891,2.8029-0.9077,4.3154c-0.0094,0.764,0.0569,1.7048-1.1295,1.7783
	c0.3737-3.9943,0.438-8.0593,2.6509-11.6343c0.0983-0.0081,0.1966-0.0164,0.2935-0.0282c0.4375-0.4059,0.2348-1.0057,0.4491-1.4833
	c0.0842-0.2346,0.1881-0.454,0.3058-0.672c1.1843-3.0953,1.3548-6.541,3.2802-9.3732
	C341.3978,753.409,341.6532,753.4361,341.8946,753.5952z"/>
<path style="fill:#232326;" d="M491.2538,799.1839c-0.3259-0.0051-0.6518-0.0102-0.9776-0.0153
	c-0.6515-7.7944-1.7596-15.514-3.7223-23.0984c-0.1786-0.6902-0.1464-1.4351-0.2121-2.1545
	c0.3356,0.1871,0.6712,0.3742,1.0069,0.5613c1.6961,2.4348,1.1692,5.4079,1.9046,8.0821c0.247,0.8982,0.4415,1.9189,0.379,2.9142
	c0.1855,0.538,0.3709,1.076,0.5563,1.6141c-0.0851,1.1266,0.7633,2.0622,0.6549,3.1945c1.0778,1.5371,0.8135,3.4819,1.5594,5.1191
	c-0.1772,0.2968-0.3543,0.5936-0.5314,0.8903C491.1551,797.1464,491.9562,798.3257,491.2538,799.1839z"/>
<path style="fill:#2A2A2D;" d="M333.4789,792.6124c-0.3419,3.2806-0.6839,6.5612-1.0259,9.8418
	c-1.2811,0.059-0.5945-0.7639-0.7554-1.2236c-0.2247,0.317,0.0754,0.9046-0.2268,1.316c-0.2315,0.1204-0.47,0.1315-0.7151,0.0497
	c-0.2429-0.4078-0.2209-0.8602-0.1785-1.3022c0.0168-0.175,0.1583-0.2654-0.0036-0.2233c-0.0505,0.5583-0.0933,1.2014,0.1087,1.8649
	c-0.0173,1.0599,0.5427,2.2298-0.5872,3.0758c-0.9934,0.0533-1.4012-0.3094-0.9249-1.2999
	c0.3106-4.8853,1.3455-9.6309,2.7576-14.3036c0.8042,0.5701,0.3217,1.497,0.6273,2.1888
	C332.8756,792.52,333.1816,792.4567,333.4789,792.6124z"/>
<path style="fill:#808080;" d="M413.3693,900.8132c-2.8428,0-5.6856,0-8.6761,0c0.5815-1.9653,2.0855-3.0256,3.2911-4.3115
	c0.6481-0.6912,1.1651-0.5537,1.8088,0.0797c1.2758,1.2556,2.6335,2.428,3.9574,3.6348
	C413.6234,900.4153,413.4964,900.6142,413.3693,900.8132z"/>
<path style="fill:#7E7F7F;" d="M370.7693,830.7178c2.3289-8.9042,4.6577-17.8084,6.9866-26.7126
	C376.7376,813.24,374.3755,822.1359,370.7693,830.7178z"/>
<path style="fill:#808080;" d="M311.584,733.7927c-0.0981-0.6054-0.1962-1.2108-0.3009-1.8573
	c4.6735,2.3356,9.2527,4.7842,13.7933,7.5952c-2.5603,1.1428-4.1131-1.6506-6.3344-1.3505
	C316.1609,737.0361,313.7923,735.5453,311.584,733.7927z"/>
<path style="fill:#232326;" d="M496.7658,866.803c-0.4391,5.3221-2.3053,10.2591-4.2726,15.1364
	c-0.7999,1.983,0.0513,1.9518,1.4696,1.7604c0.0604,1.0814-0.4565,1.2629-1.3328,0.8389c-1.1918-0.5765-2.413-0.502-3.6498-0.2
	c4.3189-3.7996,4.9934-9.1678,6.13-14.3257c0.3096-1.405,0.4482-2.8478,0.6652-4.2732
	C496.7214,865.5201,496.4096,866.4729,496.7658,866.803z"/>
<path style="fill:#FEFDFD;" d="M478.0434,757.0558c-0.1737,0.4731-0.6132,0.7216-1.1376,0.9111
	c-1.8918,0.6838-5.4171-1.962-5.0052-3.8952c0.1271-0.5967,0.9777-1.1644,1.6259-1.4853
	C474.0468,752.3287,478.1161,756.3774,478.0434,757.0558z"/>
<path style="fill:#262629;" d="M331.9171,883.2953c-2.4358-5.2609-4.2778-10.699-4.9248-16.4942
	c0.35-0.3375,0.0449-1.2839,0.9913-1.0671c0.9906,6.3037,1.8692,12.6426,5.6655,18.0661
	C333.072,883.6318,332.4946,883.4636,331.9171,883.2953z"/>
<path style="fill:#FDFDFC;" d="M347.8549,751.9491c2.0895-0.629,3.5822,0.9673,3.942,2.0567
	c0.3793,1.1481-0.9654,2.7697-2.2867,3.6438c-0.9397,0.6216-1.7026,0.6135-1.6647-0.8762
	C347.887,755.1433,347.8549,753.5114,347.8549,751.9491z"/>
<path style="fill:#66656E;" d="M474.1205,876.5651c0.3293,2.0603,0.164,3.8508-0.6586,5.5179
	c-0.2205,0.447-0.7412,0.931-1.2037,1.0315c-0.7575,0.1646-0.6359-0.6474-0.8471-1.1041
	C469.8613,878.6588,469.853,878.6626,474.1205,876.5651z"/>
<path style="fill:#232325;" d="M333.4789,792.6124c-0.3165,0.1788-0.6329,0.3576-0.9494,0.5364
	c-0.6792-0.9577-0.2467-1.9079,0.0184-2.859c0.3683-1.0437,0.0157-2.3193,1.0137-3.1613c0.003-0.3686,0.006-0.7371,0.0089-1.1057
	c0.3811-3.9241,0.5995-7.8804,2.286-11.5458c0.3355-0.1871,0.6711-0.3741,1.0066-0.5612
	C335.735,780.148,334.6069,786.3801,333.4789,792.6124z"/>
<path style="fill:#808080;" d="M302.3013,723.8702c-1.2172-0.9167-2.5036-1.757-3.6289-2.7753
	c-0.8498-0.769-1.5929-1.8229-0.8143-3.0054c0.2935-0.4457,0.3566-1.5359,1.496-1.1127c1.2885,0.4785,1.8114,1.4105,1.7745,2.6796
	c-0.0447,1.5402,0.4249,2.8125,1.6432,3.7819C302.8451,723.833,302.7587,724.0539,302.3013,723.8702z"/>
<path style="fill:#F7F7F7;" d="M346.766,758.2186c-1.9305-1.5284-2.9262-5.393-2.1193-6.8323
	c0.3356-0.5984,0.8795-0.6064,1.4181-0.5395c0.9158,0.1138,1.166,0.7631,1.0762,1.5752c-0.0995,0.9002-0.2976,1.7916-0.3611,2.6932
	C346.7163,756.0181,346.766,756.929,346.766,758.2186z"/>
<path style="fill:#333336;" d="M481.895,753.5779c-0.1934,0.0058-0.3868,0.0116-0.5805,0.0174
	c-0.817-0.951-0.3845-2.1403-0.611-3.2037c2.3297-0.8585,2.4462,1.1312,2.8577,2.4016c0.8452,2.6091,1.4727,5.2889,2.1894,7.9398
	c-0.1824,0.2059-0.3643,0.4117-0.5463,0.6174c-1.4127-0.6061-1.1171-2.0554-1.5182-3.1459
	C483.1148,756.6516,483.0731,754.8973,481.895,753.5779z"/>
<path style="fill:#FDFDFD;" d="M384.7346,901.91c0.015-0.2972,0.0301-0.5944,0.0452-0.8915
	c4.1975-0.6553,8.3181,0.7657,12.5025,0.4634c0.2057,0.0923,0.291,0.2086,0.2567,0.3489c-0.0372,0.152-0.0843,0.2282-0.1418,0.2282
	c-1.9353,1.0466-4.0681,0.6264-5.9888,0.3378C389.1739,902.0611,386.9525,902.1243,384.7346,901.91z"/>
<path style="fill:#7B7B7D;" d="M335.8566,774.477c-0.762,3.8486-1.524,7.6972-2.286,11.5458
	c-1.3177-1.7913,0.313-3.5215,0.1327-5.3233c-0.1304-1.3032,0.2778-2.6602,0.446-3.993c0.6046-2.2412,1.209-4.4825,1.8665-6.9202
	C336.8817,771.5161,335.3294,772.964,335.8566,774.477z"/>
<path style="fill:#66656E;" d="M350.0786,876.9022c3.6208,1.6996,3.8951,2.4919,2.083,4.982
	c-0.8051,1.1063-1.3808,0.9525-1.8543-0.2336c-0.0984-0.2463-0.2139-0.5087-0.2185-0.7655
	C350.0662,879.631,350.0786,878.3763,350.0786,876.9022z"/>
<path style="fill:#343437;" d="M341.8946,753.5952c-0.1958-0.0053-0.3916-0.0106-0.5874-0.016
	c-1.2957,1.4792-1.2733,3.4507-1.9423,5.1628c-0.3594,0.9197-0.0908,2.2026-1.4046,2.6174
	c-0.1537-0.1434-0.2036-0.2859-0.1517-0.4278c0.0517-0.1415,0.103-0.2122,0.1542-0.2122c0.4323-3.3724,1.1893-6.6442,2.6753-9.7397
	c0.494-1.0291,1.0105-1.1216,1.8619-0.5839C342.2802,751.4589,342.7085,752.6447,341.8946,753.5952z"/>
<path style="fill:#29292C;" d="M345.7139,876.1203c0.6303,3.204,1.3953,6.3701,2.6441,9.4
	c-0.5232,0.2033-1.0234,0.8531-1.5965,0.082c0.655-2.2667-1.2301-3.9448-1.4081-6.0385c-0.0822-0.9672-0.5411-1.9024-0.8292-2.8522
	C344.7585,876.1878,345.0652,875.8098,345.7139,876.1203z"/>
<path style="fill:#29292C;" d="M474.8471,885.5201c1.2485-3.0302,2.0139-6.1964,2.6438-9.4006
	c0.6487-0.3097,0.9558,0.0677,1.19,0.5919c-0.7512,2.4126-1.5045,4.8246-2.252,7.2383c-0.1701,0.5494-0.8115,1.1104,0.017,1.6522
	C475.8721,886.3736,475.3709,885.7246,474.8471,885.5201z"/>
<path style="fill:#FBFAFA;" d="M478.4591,754.9166c-1.0307-1.1284-2.0981-2.2969-3.0751-3.3664
	C479.1041,749.681,478.9434,751.2473,478.4591,754.9166z"/>
<path style="fill:#2D2E30;" d="M499.0452,850.7888c-0.0323-5.1048-0.0646-10.2096-0.097-15.3145
	c1.2416,1.4773,0.0046,3.5003,1.1021,5.0095c-0.5433,1.6651-0.1163,3.3793-0.2554,5.066c-0.0013,1.4053,0.0188,2.8098-0.0109,4.2133
	C499.7739,850.2422,499.8998,850.8883,499.0452,850.7888z"/>
<path style="fill:#3E3E42;" d="M495.7766,817.3421c-0.3638-3.1419-0.7276-6.2839-1.0912-9.426
	c1.8925-0.3804,0.6805,1.1578,1.0433,1.7258c0.7807,1.2219,0.4974,2.6235,0.507,3.9691c0.6493,0.7796-0.1546,1.8777,0.5779,2.639
	l-0.0208-0.0488c0.1485,0.1924,0.1954,0.4044,0.1242,0.6398C496.6537,817.2736,496.3178,817.5418,495.7766,817.3421z"/>
<path style="fill:#2C2C2E;" d="M498.3979,830.5812c-1.1267-3.2231-1.1757-6.6667-2.0345-9.9446
	c0.4996-0.467,0.9999-0.4279,1.5006-0.002c0.0034,0.7009,0.0068,1.4016,0.0102,2.1024c0.6841,1.2144-0.1176,2.6232,0.5029,3.8458
	C498.384,827.9156,498.3909,829.2484,498.3979,830.5812z"/>
<path style="fill:#F1F0F0;" d="M422.6343,901.4851c3.6596-0.8069,7.3513-0.691,11.0622-0.2904
	c-3.7355,0.0025-7.3863,0.8727-11.1118,0.9414C422.4096,901.9045,422.4351,901.6882,422.6343,901.4851z"/>
<path style="fill:#808080;" d="M320.372,805.2235c0.0037,0.1938,0.0073,0.3876,0.0109,0.5814
	c0.1595,0.1472,0.2086,0.2897,0.1476,0.4275c-0.0599,0.1354-0.118,0.2032-0.1744,0.2032c-3.7569-2.7194-3.9292-3.0227-3.6498-6.4125
	c1.3102,0.0313,0.52,1.6633,1.4922,1.9597c-0.0001,0.0001-0.0362-0.0478-0.0362-0.0478
	C318.6489,803.1993,319.5263,804.2007,320.372,805.2235z"/>
<path style="fill:#7E7E7E;" d="M422.6343,901.4851c-0.0165,0.217-0.0331,0.434-0.0497,0.651
	c-2.1412,0.7552-4.2708,0.4432-6.4111-0.0736C418.2651,901.0856,420.4715,901.5273,422.6343,901.4851z"/>
<path style="fill:#777778;" d="M470.953,892.0898c0.3759,0.0044,0.7518,0.0088,1.1277,0.0131
	c-0.0688,3.5933-3.4088,2.9674-5.2435,4.2837C467.7664,894.4856,470.5182,894.4631,470.953,892.0898z"/>
<path style="fill:#545459;" d="M499.0452,850.7888c1.0074-1.741,0.1587-3.6664,0.5435-5.4693
	c0.1436-0.2087,0.2829-0.1956,0.4185,0.0081c-0.1905,3.6608,0.7049,7.3685-0.4734,10.9867c-0.697-1.3614,0.1179-2.8936-0.482-4.2659
	C499.0496,851.6284,499.0474,851.2086,499.0452,850.7888z"/>
<path style="fill:#7E7E7F;" d="M302.3013,723.8702c0.1569-0.144,0.3138-0.2881,0.4707-0.4321
	c1.6016,1.32,3.2033,2.6399,5.2564,4.3317C305.2219,727.0858,303.4628,725.9152,302.3013,723.8702z"/>
<path style="fill:#7B7B7D;" d="M364.6347,770.7919c1.5253-2.6317,3.6478-2.5636,6.5908-2.1995
	C368.6787,769.4423,366.7844,770.0745,364.6347,770.7919z"/>
<path style="fill:#252628;" d="M311.584,733.7927c2.386,1.4625,4.772,2.9249,7.158,4.3874
	c-0.2017,0.0057-0.4034,0.0114-0.6053,0.017c-2.4767-0.7739-4.4317-2.4429-6.5563-3.8209
	C311.5816,734.1818,311.5828,733.9872,311.584,733.7927z"/>
<path style="fill:#252628;" d="M506.1106,738.1795c2.3862-1.4626,4.7724-2.9254,7.1585-4.388
	c0.0015,0.1948,0.0029,0.3896,0.0043,0.5846c-2.125,1.3776-4.0794,3.0481-6.5564,3.821
	C506.515,738.1913,506.3128,738.1854,506.1106,738.1795z"/>
<path style="fill:#7C7C7C;" d="M324.1341,840.4521c0,3.0634,0,6.1269,0,9.1903c-0.0959,0.0004-0.1919,0.0008-0.2878,0.0013
	c0-3.0635,0-6.1268,0-9.1902C323.9422,840.453,324.0381,840.4526,324.1341,840.4521z"/>
<path style="fill:#787879;" d="M460.7578,897.4796c-1.7936,0.4304-3.5872,0.8607-5.3808,1.2911
	C456.9228,897.2628,458.7748,897.0187,460.7578,897.4796z"/>
<path style="fill:#2D2E30;" d="M499.0518,852.0483c0.9563,1.3323,0.2024,2.8578,0.4819,4.2664
	c-0.2232,1.2925,0.4759,2.7125-0.5368,3.8965C499.0152,857.4902,499.0335,854.7693,499.0518,852.0483z"/>
<path style="fill:#E4E3E3;" d="M364.8899,779.4619c-0.1784-0.1958-0.3569-0.3916-0.5353-0.5871
	c-0.373-0.6837-0.5289-1.3094,0.4484-1.6168c0.7356-0.2312,1.345,0.0771,1.4597,0.7527
	C366.4198,778.9365,365.9342,779.5319,364.8899,779.4619z"/>
<path style="fill:#56575C;" d="M492.403,795.4009c-1.4172-1.3911-0.6771-3.6793-2.1056-5.0656
	c0.3323-0.2575,0.6458-0.2457,0.9384,0.0655c0.1952,0.0063,0.3903,0.0126,0.5854,0.019
	C491.4811,792.1426,493.1837,793.6266,492.403,795.4009z"/>
<path style="fill:#1A1B1F;" d="M390.1619,768.3092c-0.793,1.7023-2.8246,0.7936-3.9193,1.86
	c-0.3988,0.2122-0.826,0.2023-1.2574,0.1611c-0.0815-0.0706-0.1628-0.1416-0.244-0.2128c1.5215-1.4608,3.7643-1.033,5.4437-2.0805
	C390.2005,768.1297,390.1929,768.2204,390.1619,768.3092z"/>
<path style="fill:#313134;" d="M337.9628,760.7194c0.0132,0.2101,0.0263,0.4202,0.0394,0.6303
	c0.3613,0.7211,0.3636,1.4342-0.048,2.138l0.019-0.0344c-0.654,0.4013,0.2093,1.6581-0.9881,1.7531c0,0-0.1837-0.1332-0.1843-0.1336
	C336.43,763.4188,336.7308,761.9446,337.9628,760.7194z"/>
<path style="fill:#68676C;" d="M362.629,769.2869c-1.4727-1.4199-0.9831-3.0549-0.6782-4.6701
	C362.1768,766.1735,362.4029,767.7302,362.629,769.2869z"/>
<path style="fill:#2C2C2F;" d="M497.864,820.6345c-0.5004,0.0007-1.0007,0.0013-1.5009,0.002
	c-0.1956-1.0981-0.3913-2.1963-0.5869-3.2944c0.2895-0.171,0.5786-0.3419,0.8678-0.5128c0.9407,0.6288-0.1873,2.1772,1.1655,2.6227
	C497.8278,819.8462,497.8459,820.2404,497.864,820.6345z"/>
<path style="fill:#7A7A7C;" d="M458.7599,899.0137c2.0595-0.5786,3.6537-1.0264,5.2478-1.4743
	C462.616,898.7619,461.0858,899.4556,458.7599,899.0137z"/>
<path style="fill:#69696C;" d="M467.1527,764.1221c0.889,0.9332,0.4302,2.2483,0.932,3.2914
	c-0.5816,0.412-0.3382,1.0623-0.4646,1.6058C466.624,767.4672,467.1809,765.7667,467.1527,764.1221z"/>
<path style="fill:#67676C;" d="M349.4348,856.2571c-0.1096,1.0287,0.703,2.365-0.9582,2.8766
	C348.5438,858.0909,347.7879,856.7736,349.4348,856.2571z"/>
<path style="fill:#777779;" d="M320.3561,806.4356c0.0089-0.2103,0.0178-0.4207,0.0267-0.6308
	c0.3763,0.1851,0.7525,0.3701,1.1288,0.5551c0.5157,0.7083,1.0315,1.4167,1.5472,2.125
	C321.7884,808.2227,321.0449,807.3629,320.3561,806.4356z"/>
<path style="fill:#69696C;" d="M355.67,767.4121c0.502-1.0427,0.041-2.3586,0.9332-3.29c-0.0304,1.6448,0.528,3.3453-0.4685,4.8972
	C356.0091,768.4752,356.2511,767.8245,355.67,767.4121z"/>
<path style="fill:#77777A;" d="M500.0072,845.3276l-0.2099,0.0168c0,0-0.2092-0.0244-0.2089-0.0247
	c0.1672-1.611-0.6291-3.3138,0.462-4.8361C500.0359,842.0984,500.0215,843.713,500.0072,845.3276z"/>
<path style="fill:#FFFFFF;" d="M409.4052,718.9509c1.435,0.2414,2.983-0.5292,4.332,0.4835
	C412.2952,719.2552,410.7387,720.1024,409.4052,718.9509z"/>
<path style="fill:#7A797C;" d="M333.5617,787.1285c-0.2154,1.0583-0.4308,2.1166-0.6461,3.1749
	c-0.4854,0.1552-0.7378,0.0737-0.506-0.4988C332.6626,788.8561,331.7817,787.4193,333.5617,787.1285z"/>
<path style="fill:#7A7A7B;" d="M448.7969,759.2609c-0.5963-0.7289-1.3002-1.4431-1.3323-2.7814
	C448.61,757.2434,448.8594,758.157,448.7969,759.2609z"/>
<path style="fill:#3C3D40;" d="M329.1405,809.6308c-0.1912,0.1908-0.3824,0.3816-0.5737,0.5723
	c-0.941-1.1409-0.4977-2.0238,0.5213-2.7994C329.8662,808.1282,329.7342,808.874,329.1405,809.6308z"/>
<path style="fill:#59595E;" d="M332.4095,789.8046c0.1689,0.1665,0.3376,0.3331,0.5062,0.4993
	c-0.1292,0.948-0.2582,1.8965-0.3867,2.845c-1.2889-0.6745-0.3382-1.8409-0.6012-2.7408
	C332.0884,790.2068,332.249,790.0057,332.4095,789.8046z"/>
<path style="fill:#737375;" d="M370.0913,833.6541c0.6665,1.2573-0.3863,2.1432-0.4378,3.501
	C368.7873,835.6456,369.9899,834.74,370.0913,833.6541z"/>
<path style="fill:#7B7B7C;" d="M514.9432,731.4744c0.1412-1.2348,0.7934-1.8538,2.0052-2.0994
	C516.1758,730.1838,515.5595,730.8291,514.9432,731.4744z"/>
<path style="fill:#1B1B20;" d="M439.5561,748.0864c1.0051,0.6688,1.2844,1.6417,1.1652,2.7816
	c-0.9805-0.6765-1.0374-1.8417-1.4817-2.8018C439.3465,748.0513,439.452,748.058,439.5561,748.0864z"/>
<path style="fill:#8E8D8D;" d="M397.3972,902.0591c-0.0383-0.1924-0.0766-0.3848-0.1149-0.5772
	c1.1584,0.0001,2.3168,0.0001,3.4752,0.0001c0.0108,0.1171,0.0216,0.234,0.0325,0.351
	C399.6591,901.9083,398.5281,901.9836,397.3972,902.0591z"/>
<path style="fill:#5F5F63;" d="M498.3771,826.5828c-1.0386-1.1675-0.3315-2.5634-0.5028-3.8452
	C498.9352,823.902,498.3447,825.2831,498.3771,826.5828z"/>
<path style="fill:#42403F;" d="M435.9582,900.3108c0.8739,0.0463,1.7478,0.0927,3.2416,0.1718
	C437.6141,900.983,436.6658,901.0414,435.9582,900.3108z"/>
<path style="fill:#616165;" d="M497.8097,819.452c-1.8255-0.2361-0.7468-1.7615-1.1647-2.6227
	c0.0487-0.2092,0.0982-0.4186,0.1478-0.6281C497.9966,817.0142,496.9268,818.5386,497.8097,819.452z"/>
<path style="fill:#CBCAC8;" d="M426.3819,718.9584c0.7599-0.0541,1.5251-1.4271,2.279,0.0091
	c-0.5727,0.2367-1.1521,0.4587-1.7169,0.713C425.7358,720.2242,426.5817,719.188,426.3819,718.9584z"/>
<path style="fill:#1C1D22;" d="M383.0339,750.8679c-0.1314-1.1586,0.1773-2.1262,1.2075-2.7809
	c0.0009,0,0.2644-0.0231,0.2644-0.0231C384.0745,749.0296,384.0164,750.1915,383.0339,750.8679z"/>
<path style="fill:#515156;" d="M329.1703,804.7117c0.0038,0.7314,0.4347,1.0247,1.1024,1.075
	c0.1687,0.1863,0.2538,0.4052,0.2563,0.6568c-0.0926,0.3917-0.3362,0.6326-0.7259,0.7275c-0.2537-0.0001-0.4664-0.0942-0.638-0.2815
	C328.9261,806.1629,328.1862,805.4352,329.1703,804.7117z"/>
<path style="fill:#3E3E42;" d="M494.6361,806.9056c-0.2061-0.1943-0.4122-0.3887-0.6183-0.5832
	c-0.0001-0.0002,0.0287,0.0453,0.0287,0.0453c-0.3631-0.5995-0.4807-1.1848,0.1002-1.7296
	C495.6274,805.1094,495.2628,805.9792,494.6361,806.9056z"/>
<path style="fill:#626268;" d="M491.2538,799.1839c0.124-0.9807-0.2999-2.0786,0.6177-2.8912
	c0.0145,0.7647,0.029,1.531,0.0439,2.2971C491.673,798.7629,492.0927,799.6747,491.2538,799.1839z"/>
<path style="fill:#DCDAD9;" d="M351.7955,888.8599c0.7087,1.0507,1.0821,2.0328-0.5331,2.6083
	C351.4401,890.5988,351.6178,889.7294,351.7955,888.8599z"/>
<path style="fill:#6C6C71;" d="M459.2119,769.7833c-0.9804,0.3793-1.8119,0.4025-2.9498,0.0202
	C457.3859,769.3809,458.2186,769.4285,459.2119,769.7833z"/>
<path style="fill:#D8D6D6;" d="M517.5605,764.0031c0.0346,0.1894,0.0693,0.3788,0.1039,0.5682
	c-0.9568,0.1021-0.0844,1.3158-0.9335,1.5079c-0.3544-0.7877-0.3354-1.4901,0.4104-2.0551
	C517.2802,764.0007,517.4199,763.9937,517.5605,764.0031z"/>
<path style="fill:#757578;" d="M494.1466,804.6381c-0.0334,0.5765-0.0668,1.153-0.1002,1.7295
	c-0.7241-0.9343-0.8772-1.8626,0.0297-2.7797C494.0998,803.938,494.1232,804.288,494.1466,804.6381z"/>
<path style="fill:#E6E4E4;" d="M457.1738,828.9354c0.0688,0.8586-0.459,1.4406-0.9464,2.0411
	C455.8113,829.9567,456.0833,829.2562,457.1738,828.9354z"/>
<path style="fill:#7F7F80;" d="M329.1651,806.8895c0.2026-0.0031,0.4052-0.0062,0.6078-0.0093
	c0.7534,0.9774,0.7854,1.9025-0.1992,2.7542c-0.1443,0.0004-0.2885-0.0008-0.433-0.0035c-0.0176-0.7424-0.035-1.4847-0.0525-2.2271
	C329.1185,807.233,329.1442,807.0615,329.1651,806.8895z"/>
<path style="fill:#EEEDEC;" d="M453.3671,815.0601c-0.0269,0.757-0.2469,1.394-1.0399,1.6752
	C452.1837,815.8726,452.0558,815.0194,453.3671,815.0601z"/>
<path style="fill:#616165;" d="M496.8136,816.2499c-0.9123-0.7225-0.4679-1.7422-0.5779-2.6398
	C497.3763,814.283,496.5499,815.3859,496.8136,816.2499z"/>
<path style="fill:#060606;" d="M476.9949,810.5847c0.0364-4.1865,3.1213-7.5101,6.9993-7.541
	c3.0555-0.0244,6.0406,3.1425,6.1456,6.5197c0.1212,3.8988-3.524,7.7922-7.2797,7.7754
	C479.3129,817.3229,476.9599,814.6133,476.9949,810.5847z"/>
<path style="fill:#070707;" d="M480.022,789.3048c-2.9104-0.0385-5.2434-2.6245-5.2256-5.7922
	c0.0166-2.9559,2.2498-5.2567,5.0508-5.2037c2.6265,0.0497,5.2777,2.8729,5.2629,5.6041
	C485.0952,786.6693,482.5762,789.3386,480.022,789.3048z"/>
<path style="fill:#080808;" d="M492.2126,830.5388c1.0617,0.0584,2.3629,1.0082,2.3714,3.2866
	c0.0116,3.0575-3.5827,6.3606-7.0094,6.4555c-2.0491,0.0568-3.4489-1.3306-3.4345-3.4041
	C484.1621,833.6896,487.7005,830.4795,492.2126,830.5388z"/>
<path style="fill:#0B0A0B;" d="M488.742,861.7916c-2.2082,0.0808-4.3086-1.6931-4.333-3.6594
	c-0.0302-2.4428,2.6315-4.9515,5.264-4.9612c2.5984-0.0096,4.8294,1.7285,4.8659,3.7909
	C494.578,859.1657,491.5496,861.6888,488.742,861.7916z"/>
<path style="fill:#2A2A2D;" d="M496.7658,866.803c-0.3302-0.3545-0.6605-0.7089-0.9906-1.0632
	c1.0187-6.4949,1.1519-13.0321,0.883-19.583c-0.1081-2.6346-0.3346-5.2643-0.5072-7.8962c0.4833-1.0596-0.7226-2.6801,1.0942-3.2969
	c-0.1478,7.7478,0.9557,15.4664,0.5752,23.2159C497.6784,861.0718,497.6028,863.9885,496.7658,866.803z"/>
<path style="fill:#0B0B0B;" d="M486.5676,872.2816c2.2264-0.0002,3.6048,0.9451,3.6196,3.3422
	c0.0165,2.6804-2.0306,4.5137-4.9915,4.5057c-2.2607-0.0061-3.8371-1.38-3.802-3.3137
	C481.4364,874.4597,483.8944,872.3071,486.5676,872.2816z"/>
<path style="fill:#2F2F32;" d="M478.6809,876.7114c-0.3965-0.1972-0.793-0.3944-1.1898-0.5917
	c0.2301-6.3964,0.4604-12.7927,0.6909-19.1888c1.1029,1.075-0.2228,2.8019,1.0296,3.8368
	C480.2408,866.1225,478.886,871.3978,478.6809,876.7114z"/>
<path style="fill:#313134;" d="M497.2452,834.9637c-1.0175,0.8821,0.1702,2.4962-1.0939,3.2967
	c-0.5046-0.4952-0.4485-1.1107-0.3706-1.7307c0.2373-0.9128,0.42-1.8229-0.13-2.6977c-0.6256-0.642-0.4791-1.4324-0.4239-2.2053
	c0.1472-0.1624,0.3301-0.2512,0.5421-0.2735c0.0407-0.7934-0.1807-1.5864,0.1077-2.3709c0.124-0.3374,0.1528-0.6011,0.0927-0.243
	c-0.0179,0.1069-0.2451,0.2054-0.3711,0.3562c-0.2263,0.0392-0.4047-0.0205-0.544-0.1873
	c-0.4989-0.4753-0.4498-1.0746-0.3795-1.6786c0.1484-0.1769,0.2708-0.3705,0.37-0.579c0.1619-0.9037,0.0333-1.8741,0.619-2.6792
	c0.1542-0.1808,0.3083-0.3616,0.4622-0.5423C496.4988,827.274,496.872,831.1188,497.2452,834.9637z"/>
<path style="fill:#2F2F32;" d="M479.1035,855.7914c-0.8381-1.0634-0.3554-2.2767-0.3896-3.4324
	C479.3319,853.4471,479.1468,854.6273,479.1035,855.7914z"/>
<path style="fill:#626268;" d="M490.2492,800.793c1.0941,0.1777,1.0511,0.9531,0.9295,1.7699
	C490.1551,802.3477,490.1309,801.6078,490.2492,800.793z"/>
<path style="fill:#2A2A2D;" d="M495.6507,833.832c0.8643,0.8599,0.7672,1.766,0.1298,2.6979
	C495.7374,835.6304,495.6941,834.7312,495.6507,833.832z"/>
<path style="fill:#2F2F32;" d="M495.0542,828.9081c0.1899-0.0091,0.3798-0.0183,0.5697-0.0275
	c0.5131,0.9131,0.4848,1.8294,0.0162,2.7484c-0.1378-0.001-0.2757-0.0018-0.4135-0.0023
	C495.1693,830.7205,495.1117,829.8144,495.0542,828.9081z"/>
<path style="fill:#2F2F32;" d="M495.1323,827.2304h-0.229c0,0-0.2289-0.0009-0.2288-0.0009
	c-0.0471-0.7091-0.0944-1.4182-0.1419-2.127c0.1814-0.2022,0.3631-0.4047,0.5448-0.6071
	C495.6083,825.3967,495.512,826.3107,495.1323,827.2304z"/>
<path style="fill:#060606;" d="M346.2103,810.9578c-0.0412,3.7745-2.5045,6.4102-5.9636,6.3809
	c-3.6388-0.0308-7.0994-3.6923-7.1826-7.5994c-0.0721-3.3862,3.0862-6.7722,6.2454-6.6957
	C343.3337,803.1411,346.259,806.496,346.2103,810.9578z"/>
<path style="fill:#070707;" d="M348.4088,783.5125c0.0177,3.1678-2.3153,5.7538-5.2256,5.7923
	c-2.5542,0.0338-5.0732-2.6356-5.0881-5.3919c-0.0149-2.7311,2.6365-5.5543,5.2629-5.6041
	C346.1601,778.2559,348.3922,780.5555,348.4088,783.5125z"/>
<path style="fill:#2A2A2D;" d="M327.9837,865.734c-0.3305,0.3557-0.661,0.7115-0.9914,1.0672
	c-1.3779-5.7285-1.3859-11.5835-0.9941-17.3699c0.3267-4.8251,0.2656-9.6455,0.5202-14.4619
	c1.801,0.6222,0.6072,2.2296,1.0814,3.2883C326.9587,847.4272,326.476,856.5945,327.9837,865.734z"/>
<path style="fill:#080809;" d="M339.0648,836.939c-0.0175,2.0675-1.4605,3.447-3.5013,3.3474
	c-2.9757-0.1454-6.4334-3.6532-6.3921-6.5063c0.0304-2.1019,1.1482-3.1968,3.2183-3.2446
	C335.5331,830.463,339.0905,833.9076,339.0648,836.939z"/>
<path style="fill:#0B0B0B;" d="M338.0746,880.1287c-2.9687,0.0345-5.0236-1.7681-5.0611-4.4399
	c-0.0308-2.1987,1.2156-3.382,3.5731-3.3919c2.6554-0.0112,5.1351,2.1028,5.224,4.4534
	C341.8843,878.6976,340.3308,880.1024,338.0746,880.1287z"/>
<path style="fill:#3C3D40;" d="M329.5736,809.6344c0.0662-0.918,0.1325-1.836,0.199-2.754c0.1731-0.184,0.346-0.3678,0.5189-0.5516
	c0.3937-0.3173,0.7921-0.2944,1.1944-0.0167c0.1706,0.5699,0.2944,1.1366-0.1188,1.6649
	c0.1755,5.8193-1.1624,11.4486-2.1491,17.1219c-0.2012-0.0242-0.4021-0.0218-0.5862,0.0253
	c-0.0878,0.5639-0.0119,1.1058,0.0541,1.6467c0.1059,0.329,0.2189,0.6561,0.3774,0.9654c0.0843,0.4447,0.045,0.8556-0.3219,1.1768
	c-0.1391,0.1448-0.3088,0.2218-0.5098,0.2327c-0.2902-0.0624-0.5447-0.2001-0.7824-0.3725
	c-0.1395-0.1323-0.2681-0.2755-0.3868-0.4276C327.8994,822.1086,328.7365,815.8715,329.5736,809.6344z"/>
<path style="fill:#0C0C0C;" d="M338.8083,858.2113c-0.0669,1.943-2.2809,3.731-4.4277,3.5757
	c-2.3962-0.1732-5.2633-2.8998-5.1608-4.9079c0.0944-1.85,2.3272-3.7401,4.3875-3.7141
	C336.2216,853.1981,338.8917,855.7886,338.8083,858.2113z"/>
<path style="fill:#2F2F32;" d="M345.7139,876.1203c-0.3965,0.197-0.793,0.3942-1.1895,0.5914
	c-0.3375-5.3096-1.4785-10.5924-0.5303-15.9447c1.251-1.0342-0.0737-2.7597,1.0283-3.8338
	C345.2528,863.329,345.4834,869.7246,345.7139,876.1203z"/>
<path style="fill:#2F2F32;" d="M327.0623,828.3458c0.1564-0.008,0.3129-0.0124,0.4695-0.0134c0.3723,1.05,0.419,2.0908,0.0543,3.093
	c0.6453-0.6846-0.2022-1.8126,0.5164-2.5379c0.2126,0.0084,0.4253,0.0169,0.6384,0.0255c-0.3034,1.6277,0.2993,3.3736-0.6411,4.9182
	c-0.5494,0.8768-0.3595,1.7888-0.1289,2.7026c0.0771,0.6179,0.1336,1.2313-0.3715,1.7237
	c-1.2573-0.8009-0.0733-2.4054-1.0812-3.2883C326.6997,832.7615,326.881,830.5536,327.0623,828.3458z"/>
<path style="fill:#28292C;" d="M331.3671,807.977c-0.003-0.5376-0.0061-1.0753-0.0091-1.6129
	c-0.5387-0.5994-0.559-1.3018-0.4081-2.0401c0.3197-0.6177,0.4802-1.4363,1.4874-1.2068
	C332.3754,804.8021,332.1495,806.4508,331.3671,807.977z"/>
<path style="fill:#48484C;" d="M349.4423,805.7409c-0.0156,0.8878,0.4416,1.9701-0.9438,2.2938
	c-0.0109-0.7258-0.022-1.4516-0.0331-2.1774C348.7498,805.4713,349.0796,805.4684,349.4423,805.7409z"/>
<path style="fill:#69696E;" d="M349.4423,805.7409c-0.3259,0.0385-0.6519,0.077-0.9773,0.1159
	c0.0089-0.8948-0.4409-1.985,0.9709-2.2838C349.438,804.2957,349.4401,805.0182,349.4423,805.7409z"/>
<path style="fill:#747377;" d="M332.4373,803.1171c-0.3708,0.4375-0.7416,0.8749-1.1124,1.3124
	c-0.5239-0.6276-0.455-1.2761-0.068-1.9357c0.0845-0.5883,0.169-1.1765,0.2589-1.8022c0.7402,0.4224,0.1006,1.4689,0.9372,1.7626
	C332.4478,802.6752,332.4425,802.8961,332.4373,803.1171z"/>
<path style="fill:#2F2F32;" d="M344.491,852.3596c-0.0332,1.1541,0.4493,2.3667-0.3889,3.4294
	C344.0581,854.626,343.8733,853.4473,344.491,852.3596z"/>
<path style="fill:#2F2F32;" d="M329.0633,827.7363c-0.1536-0.1848-0.3072-0.3695-0.4608-0.5542
	c-0.3333-0.9079-0.4753-1.8099,0.0819-2.6907c0.1777,0.2024,0.3554,0.4047,0.5333,0.6072
	C329.1664,825.978,329.1149,826.8572,329.0633,827.7363z"/>
<path style="fill:#2A2A2D;" d="M327.9709,836.5338c-0.6349-0.9332-0.7332-1.8408,0.1288-2.7027
	C328.0569,834.7321,328.0139,835.6329,327.9709,836.5338z"/>
<path style="fill:#040404;" d="M317.1048,784.9202c-0.0173-0.3589-0.027-0.7184-0.0534-1.0767
	c-0.087-1.1807,0.2315-2.1912,1.3996-2.6564c0.5879-0.2341,1.1962,0.2601,1.2478,0.7419c0.1348,1.2576,1.9924,2.129,0.7871,3.6683
	c-1.6662,2.1278-2.4865,0.4595-3.4244-0.7322C317.0615,784.8649,317.1048,784.9202,317.1048,784.9202z"/>
<path style="fill:#101011;" d="M324.789,776.0881c-1.4404,5.4461-0.7347,11.3241-3.3268,16.5385
	C322.9616,787.1923,322.2689,781.3169,324.789,776.0881z"/>
<path style="fill:#050505;" d="M327.5255,760.7157c-0.2389,1.1239-0.6856,2.1778-2.163,2.2369
	c-1.0074,0.0404-1.1234-0.6652-1.1407-1.4632c-0.0276-1.2744,0.6039-2.1174,1.7852-2.346
	C326.9945,758.9524,327.4703,759.6379,327.5255,760.7157z"/>
<path style="fill:#0F0F11;" d="M320.372,805.2235c-1.2376-0.7594-2.641-1.4073-2.2096-3.2886
	c1.4012-1.5703,1.0082-3.8676,2.2317-5.5099c-0.0143,0.9959,0.0789,1.9818-0.3944,2.944
	C319.0157,801.3692,319.0635,803.3475,320.372,805.2235z"/>
<path style="fill:#080809;" d="M304.4247,740.6655c0.0331-0.5799-0.5606-1.3688,0.6037-1.3709
	c0.9543-0.0017,1.5403,0.4244,1.5873,1.3949c0.0411,0.8485-0.1683,1.7295-1.1498,1.8165
	C303.8744,742.647,304.6784,741.2945,304.4247,740.6655z"/>
<path style="fill:#101112;" d="M304.3503,734.0238c0.4523-0.4373-0.5081-1.8835,0.8623-1.7401
	c0.9784,0.1025,1.3917,1.1446,1.2604,2.0999c-0.114,0.8292-0.8137,1.1763-1.6326,1.0665
	C303.9579,735.3317,303.8264,734.8293,304.3503,734.0238z"/>
<path style="fill:#131416;" d="M321.4922,792.5776c0.139,1.4479-0.3612,2.7107-1.1277,3.8964
	C320.2982,795.0471,320.4486,793.683,321.4922,792.5776z"/>
<path style="fill:#191A1B;" d="M507.7547,784.9291c-0.7044,0.6915-0.9862,2.1424-2.431,1.5375
	c-0.7569-0.3169-1.5241-1.0455-1.3225-1.8527c0.3145-1.2598,0.6372-2.749,1.9088-3.382c0.8687-0.4325,1.5204,0.494,1.7458,1.2445
	c0.2247,0.7485,0.1048,1.6004,0.1362,2.4066C507.7922,784.8826,507.7547,784.9291,507.7547,784.9291z"/>
<path style="fill:#101011;" d="M503.3916,792.6265c-1.5514-2.1618-1.4789-4.7123-1.8022-7.1926
	c-0.4078-3.1284-1.0076-6.2317-1.5246-9.3459c1.4854,2.2759,1.4735,4.892,1.7967,7.4601
	C502.2445,786.5903,502.8707,789.6018,503.3916,792.6265z"/>
<path style="fill:#050505;" d="M498.6335,759.0482c1.1846,0.3126,1.9464,0.9522,1.9877,2.2322
	c0.0276,0.8552,0.015,1.7361-1.1929,1.674c-1.3214-0.068-1.8628-1.0026-2.0624-2.1439
	C497.1991,759.8567,497.6981,759.2804,498.6335,759.0482z"/>
<path style="fill:#080809;" d="M520.3745,740.553c-0.2397,0.6407,0.6595,1.9749-0.8965,1.9609
	c-1.0067-0.009-1.2457-0.8793-1.2433-1.7325c0.0027-0.9606,0.5305-1.4596,1.499-1.4827
	C520.7046,739.2756,520.7399,739.7886,520.3745,740.553z"/>
<path style="fill:#101112;" d="M520.777,734.4794c0.1627,0.8215-0.3469,0.9622-0.9355,0.9686
	c-0.9905,0.0107-1.6215-0.5258-1.475-1.4895c0.1154-0.7586,0.4427-1.8303,1.4284-1.6899
	C521.0175,732.4426,520.0093,733.9349,520.777,734.4794z"/>
<path style="fill:#131416;" d="M504.4893,796.4739c-0.7666-1.1857-1.2668-2.4485-1.1277-3.8964
	C504.4052,793.683,504.5556,795.0471,504.4893,796.4739z"/>
<path style="fill:#17171B;" d="M440.6889,750.8183c1.1283,1.0544,1.634,2.3777,1.6825,3.8984
	C441.388,753.5997,440.7099,752.3508,440.6889,750.8183z"/>
<path style="fill:#111216;" d="M444.6192,784.3631c-0.856-1.1246-1.1548-2.411-1.1034-3.7991
	C444.4551,781.6643,444.6308,782.9865,444.6192,784.3631z"/>
<path style="fill:#111216;" d="M442.242,777.6143c-0.11-1.0456-1.6625-1.8819-0.4526-3.1193
	C441.8353,775.5499,442.7868,776.4734,442.242,777.6143z"/>
<path style="fill:#131317;" d="M443.9871,758.427c0.8697,0.7264,1.1365,1.6877,1.08,2.7748
	C444.1622,760.489,443.8845,759.532,443.9871,758.427z"/>
<path style="fill:#141418;" d="M442.3367,754.6652c0.9994,0.6584,1.1728,1.6609,1.1441,2.7475
	C442.615,756.6986,442.2697,755.7678,442.3367,754.6652z"/>
<path style="fill:#222228;" d="M382.3305,774.1284c0.4604,1.3865-0.221,2.4845-0.9046,3.5818
	C381.0055,776.3339,381.7587,775.254,382.3305,774.1284z"/>
<path style="fill:#18191C;" d="M381.3837,754.7167c0.063-1.5142,0.545-2.8476,1.6823-3.8981
	C383.0446,752.3508,382.369,753.6006,381.3837,754.7167z"/>
<path style="fill:#111216;" d="M380.2781,780.5718c-0.0388,1.3684-0.2258,2.6925-1.1359,3.8004
	C379.1137,782.9837,379.3036,781.6605,380.2781,780.5718z"/>
<path style="fill:#131317;" d="M378.0801,761.3015c0.7097-0.8716,0.3404-2.3773,1.6878-2.8744
	C379.6807,759.6644,379.8777,761.0688,378.0801,761.3015z"/>
<path style="fill:#09090A;" d="M383.6809,771.6536c-0.1485,0.4456-0.0245,1.042-0.6705,1.2124
	c0.1148-1.2067-0.4559-2.8453,1.7304-2.748c0.0003-0.0004-0.058-0.0413-0.058-0.0413
	C385.0192,771.0283,384.1254,771.1982,383.6809,771.6536z"/>
<path style="fill:#141418;" d="M380.2739,757.4127c-0.0199-1.083,0.1425-2.0901,1.1442-2.7476
	C381.4851,755.7678,381.1397,756.6986,380.2739,757.4127z"/>
<path style="fill:#CCCDDC;" d="M383.6809,771.6536c0.334-0.5256,0.6679-1.0513,1.0019-1.577
	c0.5199,0.0308,1.0398,0.0617,1.5598,0.0927C385.386,770.6592,384.9333,771.8469,383.6809,771.6536z"/>
<path style="fill:#626268;" d="M348.4985,817.3779c-0.1183-0.8131-0.1706-1.593,0.9068-1.8048
	C349.5533,816.4006,349.5908,817.173,348.4985,817.3779z"/>
<path style="fill:#313134;" d="M495.1133,820.1321c0.1486-0.1811,0.2972-0.3623,0.4455-0.5432
	c0.0594,0.6892,0.119,1.3783,0.1791,2.067c-0.1776,0.2031-0.3553,0.4066-0.5331,0.61
	C494.6519,821.5771,494.7888,820.8586,495.1133,820.1321z"/>
<path style="fill:#7B7B7D;" d="M489.6324,785.4731c-0.7611-3.6655-1.5222-7.3309-2.2834-10.9963
	c0.4523-1.5383-0.9102-2.9517-0.1697-4.984C488.4549,775.0499,489.9206,780.1146,489.6324,785.4731z"/>
<path style="fill:#67676B;" d="M481.895,753.5779c0.0151-0.0899,0.0032-0.1995,0.0511-0.2656
	c0.0896-0.1235,0.2139-0.2219,0.3237-0.3309c0.635,1.8649,1.262,3.7325,1.9086,5.5933c0.3236,0.9313,0.6832,1.85,1.0262,2.775
	c0.0107,0.7082,0.0215,1.4158,0.0325,2.1235l0.0094-0.0084C483.4778,760.3901,483.0411,756.8638,481.895,753.5779z"/>
<path style="fill:#7A7A7C;" d="M491.2358,790.4008c-0.313-0.0217-0.626-0.0434-0.9387-0.0654
	c0.2343-1.0919-1.028-2.1334-0.1085-3.2481C491.4312,787.9092,491.3485,789.1503,491.2358,790.4008z"/>
<path style="fill:#67676B;" d="M485.237,763.4733c0.6834,0.457,0.6429,1.1624,0.6653,1.9156
	c-1.1525-0.3734-0.5132-1.2802-0.6559-1.9238C485.2464,763.4649,485.237,763.4733,485.237,763.4733z"/>
<path style="fill:#737376;" d="M493.1716,808.3577c0.4316,1.0712,0.3864,2.0046,0.0718,3.093
	C492.821,810.3783,492.8618,809.4448,493.1716,808.3577z"/>
<path style="fill:#747377;" d="M492.4023,804.1252c-0.9204-0.9921-0.4782-2.1196-0.0263-3.2253c0,1.0828,0,2.1655,0,3.2481
	L492.4023,804.1252z"/>
<path style="fill:#7A7A7C;" d="M492.3759,804.1481c0.7554,0.8257,0.5889,1.7554,0.0263,2.7047c0-0.909,0-1.818,0-2.7272
	C492.4023,804.1252,492.3759,804.1481,492.3759,804.1481z"/>
<path style="fill:#717073;" d="M495.1323,827.2304c-0.0182-0.9117-0.0363-1.8234-0.0546-2.7351
	c0.1953-0.1749,0.3908-0.3498,0.5862-0.5244C495.4791,825.0564,496.1938,826.2883,495.1323,827.2304z"/>
<path style="fill:#6F6F73;" d="M495.1133,820.1321c0.0302,0.7114,0.0605,1.4226,0.0912,2.1339
	c-0.1591,0.1555-0.2825,0.9114-0.4763,0.3335C494.4763,821.8487,494.2378,820.8298,495.1133,820.1321z"/>
<path style="fill:#6E6E72;" d="M493.7362,815.2822c-0.3275-0.6133-0.3019-1.1943-0.0206-1.8757
	C494.1352,814.0732,494.1205,814.6538,493.7362,815.2822z"/>
<path style="fill:#6D6C71;" d="M494.3614,819.2052c-0.3925-0.7572-0.3481-1.2822-0.1673-1.8251
	C494.8094,817.8152,494.5342,818.3667,494.3614,819.2052z"/>
<path style="fill:#67676B;" d="M337.9542,763.4877c0.0158-0.7131,0.0316-1.4261,0.0477-2.1386
	c0.9236-2.7362,1.8464-5.4731,2.7745-8.2084c0.0211-0.0623,0.1024-0.1043,0.1557-0.1558c0.1248,0.1981,0.2497,0.3962,0.3748,0.5944
	C340.1639,756.8734,339.7221,760.405,337.9542,763.4877z"/>
<path style="fill:#67676B;" d="M336.9851,765.2063c0.3294-0.5843,0.6588-1.1686,0.9881-1.7531
	c-0.0881,0.6905-0.011,1.4657-0.3092,2.0486C337.3427,766.1298,337.0046,765.8166,336.9851,765.2063z"/>
<path style="fill:#2B2B2F;" d="M331.257,802.4939c0.0229,0.6432,0.0457,1.2864,0.0683,1.9326
	c0.0108,0.6477,0.0219,1.2924,0.0329,1.9374c-0.3558-0.0115-0.7114-0.0232-1.0668-0.035c-0.0123-0.1805-0.0186-0.3612-0.0186-0.5421
	c-0.0349-0.9034-0.0698-1.8068-0.1047-2.7101c0.2301-0.1959,0.3502-0.5236,0.6958-0.581
	C330.9949,802.4958,331.1259,802.4952,331.257,802.4939z"/>
<path style="fill:#737376;" d="M330.8639,802.4957c-0.2313,0.1935-0.4626,0.387-0.6949,0.5807
	c0.0706-0.7614,0.142-1.523,0.221-2.3652C331.048,801.2677,330.7179,801.9355,330.8639,802.4957z"/>
<path style="fill:#FEFEFE;" d="M478.8716,814.167c-2.9959-5.3314,1.6544-10.7543,5.6145-10.0635
	c0.927,0.1616,1.7219,0.4825,2.4389,0.9666c1.0533,0.7109,1.2497,1.2109,0.0805,2.4305
	C484.5737,810.0374,481.3748,811.5364,478.8716,814.167z"/>
<path style="fill:#FCFCFB;" d="M488.909,807.6777c0.4005,5.6949-2.5822,9.0326-6.9853,8.5789
	c-0.8524-0.0878-1.6953-0.384-1.881-1.0927c-0.1844-0.7038,0.5921-1.2377,1.2423-1.6132
	C483.9158,812.0312,486.7033,810.7317,488.909,807.6777z"/>
<path style="fill:#FCFCFC;" d="M475.8921,783.3615c-0.2141-0.9387,0.0503-2.1131,0.7881-2.5307
	c0.5342-0.3024,1.1455,0.9132,1.7086,1.4709c1.2153,1.2037,2.5822,2.2469,3.5592,3.6965c0.9034,1.3403,0.3595,1.9324-0.975,2.1871
	C478.37,788.6822,475.3585,786.4632,475.8921,783.3615z"/>
<path style="fill:#F9F8F8;" d="M483.3754,785.9019c-1.592-1.5482-3.1476-3.0821-4.7308-4.5871
	c-0.4382-0.4165-0.6876-0.8831-0.5169-1.4507c0.225-0.7483,0.902-0.394,1.3868-0.4463c1.7422-0.1879,2.9697,0.6608,3.759,2.1135
	C484.04,782.9422,484.8055,784.4243,483.3754,785.9019z"/>
<path style="fill:#FBFBFB;" d="M487.4248,832.9571c1.9288-1.4961,4.1096-2.1863,5.5979-0.7366
	c1.35,1.3151,0.4555,3.3356-0.7928,4.8178C490.5074,835.8763,488.9469,834.5677,487.4248,832.9571z"/>
<path style="fill:#FBFBFB;" d="M491.1674,837.9783c-0.7975,0.2915-1.6071,0.4402-2.2475,0.8522
	c-1.2912,0.8309-2.4442,0.7278-3.2869-0.4735c-0.9494-1.3535-0.3352-2.7164,0.4269-3.9587
	c0.5059-0.8247,1.0739-0.3381,1.5177,0.0789C488.7884,835.6147,489.9595,836.7945,491.1674,837.9783z"/>
<path style="fill:#FBFBFB;" d="M488.9446,854.597c0.3608,1.1313-0.0599,2.3159,0.4536,3.462
	c0.3632,0.8105,0.7627,2.0372-0.2611,2.6198c-0.9103,0.518-1.9825-0.1199-2.7044-0.7158c-0.7865-0.6495-1.6119-1.4962-0.9028-2.7751
	C486.295,855.8082,487.1692,854.6284,488.9446,854.597z"/>
<path style="fill:#F6F6F6;" d="M490.3272,854.1656c3.7887,1.4712,4.1509,3.0554,1.0351,5.7858
	C491.9992,857.6803,489.656,856.4418,490.3272,854.1656z"/>
<path style="fill:#F9F9F9;" d="M483.2345,878.6176c-1.5781-3.5266,0.4341-5.468,5.2327-5.1429
	C487.0076,875.5349,485.0794,876.9262,483.2345,878.6176z"/>
<path style="fill:#F4F4F4;" d="M489.3198,875.1714c-0.2319,2.8226-2.0225,3.8435-4.385,4.2296
	C486.3566,878.0295,487.795,876.6422,489.3198,875.1714z"/>
<path style="fill:#646569;" d="M495.6402,831.629c-0.0051-0.9161-0.0103-1.8322-0.0158-2.7484
	c0.0231-0.0848,0.0235-0.1895,0.0753-0.2502c0.0919-0.1075,0.2151-0.1884,0.3253-0.2805c0.3529,1.0858,0.2866,2.1802,0.0551,3.275
	c-0.0106,0.0502-0.1319,0.1087-0.2001,0.1068C495.7991,831.7296,495.72,831.666,495.6402,831.629z"/>
<path style="fill:#FEFEFE;" d="M344.2426,814.0631c-2.4073-2.5104-5.5994-4.0178-8.0294-6.5571
	c-1.152-1.2037-0.981-1.6421,0.0421-2.4474c2.103-1.6552,5.075-1.2291,7.2278,1.0345
	C345.6368,808.3576,345.9326,811.3593,344.2426,814.0631z"/>
<path style="fill:#FCFCFB;" d="M334.3976,807.9556c2.1148,2.6883,4.9068,4.1006,7.6094,5.6461
	c0.644,0.3682,1.41,0.9377,1.1544,1.6595c-0.2511,0.7092-1.1181,0.9302-1.9822,1.0011
	C336.7381,816.6266,333.7424,813.1744,334.3976,807.9556z"/>
<path style="fill:#FCFCFC;" d="M346.5817,780.5349c1.6819,4.1652,0.2344,7.4428-3.1615,7.6683
	c-0.9226,0.0613-2.0034,0.1212-2.4832-0.7206c-0.497-0.8723,0.329-1.6564,0.8994-2.257
	C343.3202,783.6636,344.8957,782.1887,346.5817,780.5349z"/>
<path style="fill:#F9F8F8;" d="M339.7264,785.795c-1.3024-1.3634-0.5821-2.8468,0.1971-4.2531
	c0.795-1.4351,2.0054-2.3159,3.7539-2.1249c0.4873,0.0533,1.1625-0.2965,1.3958,0.4347c0.1789,0.5609-0.0531,1.0405-0.5047,1.4519
	C342.9526,782.7761,341.3609,784.2748,339.7264,785.795z"/>
<path style="fill:#FBFBFB;" d="M337.9715,836.7061c0.0428,1.7571-0.7652,2.6585-2.2805,2.5715
	c-1.1396-0.0654-2.4197-0.4018-2.9043-1.6064c-0.2352-0.5847,3.2487-3.955,3.7347-3.6926
	C337.6248,834.5742,338.0059,835.6622,337.9715,836.7061z"/>
<path style="fill:#FBFBFB;" d="M331.7129,837.3759c-0.5956-0.926-1.2112-1.4762-1.2922-2.0963
	c-0.1544-1.1818-0.814-2.7278,0.6409-3.4406c1.3354-0.6541,2.818-0.2419,4.0798,0.5794c0.909,0.5917,0.1688,0.9952-0.224,1.4264
	C333.8857,834.9767,332.8586,836.1128,331.7129,837.3759z"/>
<path style="fill:#F9F9F9;" d="M334.4848,873.6756c2.7376-0.7346,4.6153-0.2486,5.9047,1.8701
	c0.5799,0.9529,0.6115,2.0439-0.2698,2.6508c-0.6388,0.4399-1.2461-0.4782-1.7619-0.9385
	C337.112,876.1466,335.9036,874.9933,334.4848,873.6756z"/>
<path style="fill:#F4F4F4;" d="M337.464,879.2783c-1.5399-0.3552-3.4362-1.2632-3.6096-4.6036
	C335.3617,876.597,336.5905,878.1643,337.464,879.2783z"/>
<path style="fill:#737376;" d="M330.4496,808.6038c0.4468,0.8618,0.4227,1.7377,0,3.4105
	C330.4496,810.3519,330.4496,809.4779,330.4496,808.6038z"/>
<path style="fill:#646569;" d="M328.1025,828.8875c0,0.892,0,1.7841,0,2.6761c-0.1903,0.0057-0.3806,0.0115-0.5708,0.0172
	c0-1.0828,0-2.1656,0-3.2484C327.722,828.5175,327.9122,828.7025,328.1025,828.8875z"/>
<path style="fill:#717073;" d="M328.6845,824.4915c-0.0272,0.8972-0.0544,1.7943-0.0818,2.691
	C327.944,826.2643,327.609,825.3564,328.6845,824.4915z"/>
<path style="fill:#6F6F73;" d="M328.7912,820.6587c0.4979,0.6362,0.395,1.3384,0.2134,2.0871
	C328.1972,822.109,328.9163,821.3598,328.7912,820.6587z"/>
<path style="fill:#6E6E72;" d="M330.0303,813.381c0.2838,0.6108,0.3253,1.1945-0.0224,1.9373
	C329.6403,814.5885,329.627,814.0045,330.0303,813.381z"/>
<path style="fill:#6D6C71;" d="M329.5354,818.931c-0.4299-0.5116-0.4312-1.0767-0.1381-1.6661
	C329.9702,817.775,329.5309,818.3543,329.5354,818.931z"/>
<path style="fill:#FBFBFB;" d="M334.1719,854.5703c2.2022,0.1723,3.3624,1.5634,3.6997,3.3834
	c0.2182,1.1779-0.8648,2.0004-2.0237,2.5127c-1.7928,0.7926-2.6573,0.2483-2.2191-1.635
	C333.9553,857.4283,334.1649,856.0372,334.1719,854.5703z"/>
<path style="fill:#F8F7F7;" d="M332.9105,854.2982c0.4723,1.8591-0.8686,3.4673-0.4238,5.3664
	c-1.8274-0.198-2.0581-1.5821-2.1539-2.6885C330.192,855.3479,331.5517,854.7834,332.9105,854.2982z"/>
</svg>
