<svg version="1.1" id="Layer_1"
	 xmlns="http://www.w3.org/2000/svg"
	 x="0px" y="0px" viewBox="0 0 841.8898 1190.5511" style="enable-background:new 0 0 841.8898 1190.5511;" xml:space="preserve">
<path style="fill:#351212;" d="M292.0792,733.249c6.5746,5.3431,13.955,7.4323,21.1709,9.83
	c6.1809,2.0538,12.5486,3.1616,19.0859,2.7392c3.371-0.2178,6.2819,1.1357,10.2225,2.2356
	c-4.498,0.8978-4.4727,4.3107-5.0154,6.7796c-1.6766,7.6269-3.6817,15.1886-4.8188,22.9419
	c-0.9818,6.6948-2.1854,13.3549-3.0391,20.0743c-0.8299,6.5323-1.9087,13.0344-2.9572,19.5371
	c-1.08,6.6982-2.7153,13.2924-2.5845,20.1829c0.079,4.1601-0.7316,8.3303-0.9998,12.5052
	c-0.5413,8.4232,1.0023,16.6144,2.9275,24.7558c0.599,2.5329,0.9565,5.1153,1.8576,7.5861
	c0.5536,1.5179,0.2383,2.7853-1.5786,3.4358c-10.1405,3.6309-19.1632,9.5154-28.739,14.2863
	c-9.2534,4.6103-18.5351,3.7151-27.7927-0.5513c-5.6344-2.5966-10.2071-6.2343-14.3105-10.8848
	c-13.3466-15.1265-19.17-33.4745-22.9411-52.6777c-3.0396-15.4781-3.8329-31.1882-3.9763-46.9411
	c-0.1045-11.4836,1.5956-22.7923,3.039-34.1263c0.6528-5.1258,0.5494-10.4337,2.5354-15.2887
	c4.4942-10.9864,10.8674-20.3392,22.3111-25.327c5.067-2.2086,10.2698-2.8239,15.6682-2.7013
	c2.1707,0.0493,4.3474,0.5775,6.5031-0.2668c0.6815-0.2668,1.4202,0.0061,2.0852,0.4136c4.1457,2.5409,8.4078,4.8851,12.3391,7.7812
	c1.8997,1.3994,4.0282,2.4974,6.0941,3.6589c1.3796,0.7756,1.7399,1.6606,0.9006,3.1096
	C298.2739,729.4311,297.0969,733.1252,292.0792,733.249z"/>
<path style="fill:#5A0D0D;" d="M531.1879,732.6707c-5.5903-0.1506-6.5131-4.4215-8.4129-7.6923
	c-0.5394-0.9288,0.1229-1.6933,0.8715-2.0193c6.0339-2.6276,10.9001-7.1325,16.629-10.3246
	c4.3563-2.4275,8.4441-1.3493,12.5137-1.413c14.9404-0.2337,25.1629,7.5543,32.561,20.0804
	c4.2831,7.2521,5.3174,15.134,6.2971,23.1964c1.6223,13.3503,3.3768,26.6683,2.9448,40.1755
	c-0.5529,17.2874-2.0606,34.4617-6.0846,51.3146c-2.1182,8.8721-5.5818,17.355-9.4364,25.5688
	c-3.8983,8.3068-9.3215,15.7961-16.3497,21.8154c-6.072,5.2006-13.4797,7.7126-21.2715,9.1749
	c-7.0904,1.3307-13.066-1.9032-19.0486-4.7435c-5.6617-2.6879-11.0896-5.8694-16.6143-8.845
	c-2.7292-1.47-5.6761-2.3987-8.5644-3.4702c-1.9873-0.7372-2.386-1.8765-1.8461-3.9998
	c2.7219-10.7045,5.6496-21.4621,4.6241-32.6353c-0.8856-9.6483-0.8143-19.3666-2.9936-28.9429
	c-1.777-7.808-2.3747-15.8829-3.5347-23.8337c-0.6913-4.7379-1.1116-9.5514-2.2648-14.1783
	c-2.3073-9.2573-3.8112-18.6763-6.0281-27.9432c-0.4308-1.8008-1.4886-3.4432-2.0431-5.2255
	c-0.4051-1.3022-1.7188-0.0944-2.3327-1.3509c2.5961-0.6918,4.9041-2.1974,7.6486-2.0264
	c12.3573,0.7698,23.6971-2.9966,34.8196-7.7252C525.9534,736.4874,528.4061,734.9189,531.1879,732.6707z"/>
<path style="fill:#817D7D;" d="M316.9042,736.6182c-3.135-1.2452-5.673-2.7888-7.1328-5.7288
	c-2.3093-4.6506-4.662-9.2797-6.9487-13.9413c-0.4565-0.9307-1.2455-2.1143,0.2228-2.8231
	c1.2825-0.6194,2.0124,0.3276,2.5739,1.3563c2.53,4.6348,5.4951,9.0465,7.4761,13.9608
	C314.0826,731.8911,316.7472,733.3335,316.9042,736.6182z"/>
<path style="fill:#817D7D;" d="M509.696,735.8784c-0.5652,0.1266-0.8485-0.2036-0.7908-0.7333
	c0.0569-0.5229,0.1493-1.1088,0.4306-1.5305c4.2867-6.4258,7.7955-13.3005,11.6167-19.9951
	c0.432-0.7569,0.7777-2.1939,2.0859-1.5471c1.4014,0.6931,0.26,1.8136-0.0403,2.6019c-2.5587,6.7142-5.3124,13.3356-9.9943,18.9361
	C511.8668,734.9705,510.5804,735.9138,509.696,735.8784z"/>
<path style="fill:#ED562E;" d="M278.6283,720.0192c0.1429-0.0945,0.3569-0.1558,0.4184-0.2881
	c2.1855-4.7053,2.747-4.8624,6.9438-1.7655c3.1142,2.298,5.0667,5.5144,6.6619,8.929c0.5733,1.2272,0.615,2.3499-1.2539,3.2108
	c-1.6894,0.7782-2.1485,0.274-2.7905-0.9504c-0.2958-0.564-0.6461-1.1066-1.0287-1.6161c-0.6704-0.8929-1.5785-1.4074-2.6082-0.7558
	c-1.1469,0.726-0.8311,1.7456-0.074,2.5702c0.9815,1.0692,0.9087,1.8748-0.0154,3.05c-2.244,2.854-2.5253,6.3915-2.9603,9.8401
	c-0.0686,0.5435-0.0225,1.1016-0.0936,1.6447c-0.3731,2.8531-0.9933,3.1138-3.4225,1.4583
	c-0.2998-0.2043-0.5852-0.4298-0.8772-0.6455c-0.6562-0.1677-1.3973-0.1894-1.6895-0.983
	c-1.6204,0.2216-2.7506-0.4977-3.7067-1.7598c-0.5355-0.7069-1.3189-1.5308-2.2784-0.6785c-1.0439,0.9272-0.0139,1.602,0.528,2.2682
	c0.2857,0.3513,0.6396,0.6495,0.9758,0.9572c2.4218,2.2172,4.9985,3.9486,3.59,8.3021c-1.1284,3.4879,1.6435,7.058,1.7912,10.8256
	c0.0978,2.496,0.0542,5.19,1.3498,7.5474c0.0967,0.1004,0.1933,0.2007,0.2918,0.2997c0.8594,2.4639,0.6839,5.1961,1.964,7.5504
	c0.4302,0.7349,0.5383,1.5522,0.6151,2.3777c0.0253,1.3267,0.1437,2.6356,0.7624,3.8467c0.2268,0.6066,0.7104,1.1858,0.1995,1.8703
	c0.9957,7.0175-0.3573,13.9155-0.9365,20.8668c-0.4909,5.8921-1.2236,11.7209-2.3235,17.5272
	c-0.8277,4.3697-1.7561,8.8223-3.5449,12.7676c-4.2009,9.2656-3.7548,18.5066-1.0854,27.8333
	c3.3422,11.6774,9.1401,22.0658,17.4665,30.9695c2.1267,2.2743,2.1854,2.2314-0.8384,3.2733
	c-1.3676,0.4711-2.7145,0.9136-4.1844,1.1403c-7.4493,1.1487-10.8729-4.3206-14.1789-9.1099
	c-3.6288-5.2566-6.484-11.0918-7.6773-17.5405c-0.8852-4.7838-1.1228-9.5893-0.4739-14.4094
	c0.9493-7.0522,1.9423-14.0954,2.4226-21.2037c0.1342-1.986,0.7626-3.9378,0.4243-5.9621
	c-0.6519-1.5054-0.1002-3.0517-0.0918-4.5677c0.0264-4.7161-1.132-9.3901-0.4684-14.122c0.4224-4.2151-0.8878-8.2746-1.1389-12.4449
	c-0.4239-7.0441-1.4175-14.054-2.1716-21.0782c-2.0875-2.6558-1.1332-5.9131-1.6638-8.8691
	c-0.4911-2.7355-0.6017-5.5534-1.0968-8.3096c0.1457-6.6079-0.9016-13.2671,0.8469-19.8066
	c0.1151-0.1272,0.2317-0.2535,0.3483-0.3799c1.9685-3.5272,4.0939-6.9783,5.8495-10.6085c1.141-2.3591,3.9148-3.3035,4.6309-5.9048
	c0.1793-0.9389,0.9004-1.4496,1.5715-2.0011c1.2244-0.8005,2.3235-1.7159,2.8726-3.1381
	C276.9803,721.1422,277.5142,720.2716,278.6283,720.0192z"/>
<path style="fill:#ED562E;" d="M283.5826,792.0547c-0.824-7.0626-0.7458-14.2484-2.7838-21.1447
	c-0.918-3.1064-1.9394-6.1846-3.002-9.2448c-0.6014-1.7322-0.8993-3.4874-0.9166-5.3058c-0.4301-0.558-0.2583-1.1241-0.023-1.6911
	c0.2797-4.0964,1.0612-4.5666,4.7437-2.7493c4.1974,2.0712,8.6877,3.129,13.2679,3.8317c1.3424,0.2059,2.0415,0.4604,1.406,2.0016
	c-0.3002,0.7282,0.2084,1.401,0.7735,1.9263c4.544,4.2239,6.0473,9.9393,7.2788,15.6437c1.056,4.8911,1.6211,9.9028,2.1567,14.8877
	c0.4753,4.4225-0.8783,8.4547-3.2564,12.2016c-3.3794,5.3244-6.7372,10.6656-9.9575,16.087
	c-3.0857,5.1944-4.0431,10.7848-3.2596,16.8516c0.9293,7.1964,0.9642,14.5032,2.3658,21.65
	c0.6127,3.1244,0.8061,6.3633,2.2461,9.2921c1.4295,0.3344,0.6323,1.5771,0.9716,2.3588c0.4767,2.5909,1.4485,4.9659,3.0596,7.0633
	c0.4784,0.5645,0.9661,1.123,1.2724,1.8068c0.2439,0.8004,0.7599,1.4241,1.3261,2.014c0.3206,0.3229,0.6167,0.6685,0.913,1.0139
	c-0.1915,1.1645,0.5347,1.9044,1.2903,2.5567c2.1689,1.8726,3.3553,4.5422,5.3764,6.5293c0.9543,0.9382,0.5316,1.5109-0.4803,2.0739
	c-3.0245,1.6826-6.0436,3.3793-9.0049,5.1697c-1.9068,1.1528-3.4275,0.6985-4.882-0.7515
	c-2.4594-2.4518-4.6889-5.1045-6.5568-8.0218c-7.0966-11.0842-11.6531-23.1933-12.82-36.2675
	c-0.6903-7.7344,1.6136-15.2675,4.4287-22.5237c0.6805-1.754,1.7221-3.3979,1.831-5.3518
	c-0.4922-1.4763,0.8158-2.2946,1.2458-3.4353c0.6369-0.9994,0.8749-2.1268,1.0496-3.2794c0.0449-0.2836,0.1179-0.5547,0.2074-0.8257
	c1.178-6.4613,0.4133-12.9733,0.5532-19.4529c-0.0594-0.2633-0.1138-0.5329-0.175-0.7968
	c-0.1175-1.2612-0.6026-2.4641-0.6492-3.7419C283.5798,792.3052,283.5812,792.18,283.5826,792.0547z"/>
<path style="fill:#ED562E;" d="M250.5648,867.3292c0.95,6.8259,2.5918,13.4454,6.551,20.0767
	c-2.2776-0.8388-3.0602-1.9997-3.8883-3.2687c-6.4773-9.9266-10.4385-20.9659-14.047-32.1217
	c-2.7626-8.5408-3.7651-17.4897-4.9546-26.3455c-1.7791-13.245-2.3475-26.5887-2.2254-39.9529
	c0.0929-10.17,1.9198-20.1768,2.9062-30.2629c0.6338-6.4813,1.795-12.8806,3.7636-19.0042
	c3.6955-11.4954,12.8297-20.1783,25.3762-22.3859c1.2958-0.228,2.7704-1.3452,4.133-0.004
	c-0.0107,0.1224-0.0214,0.2448-0.0307,0.3676c-0.1183,0.7401-0.3718,1.4305-0.7589,2.0726c-0.092,0.0828-0.186,0.1639-0.2799,0.2451
	c-2.519,5.2745-7.0842,8.8181-10.8032,13.1032c-6.5367,7.532-9.7788,16.8484-12.3072,26.3871
	c-1.3746,5.1859-2.4656,10.3785-2.2374,15.8168c0.3752,8.939,2.7112,17.5039,4.7148,26.131
	c1.5775,6.7925,3.059,13.5811,3.6055,20.5595c0.2246,2.8676-1.4975,5.1946-1.6812,7.903c0.5753,0.6202,0.2049,1.191-0.0854,1.7687
	c-0.5944,0.8541-0.9131,1.8223-1.155,2.8265c-0.0778,0.2698-0.1629,0.5327-0.2435,0.801c-1.4096,4.6163-1.078,9.3577-1.0454,14.0746
	c0.466,2.2035,0.3808,4.5342,1.5251,6.5807c0.7361,2.1216,1.421,4.2579,1.6806,6.5023c-0.0576,1.302,0.1647,2.5581,0.654,3.7672
	c0.0927,0.2347,0.1627,0.4771,0.2238,0.7214c0.1358,1.1058,0.6004,2.1479,0.6552,3.2713
	C250.5965,867.0826,250.5807,867.2059,250.5648,867.3292z"/>
<path style="fill:#ED562E;" d="M315.4758,816.7834c-3.8517,7.4241-8.7733,14.3807-9.7162,23.0563
	c-0.2544,2.3405-0.1532,4.699,0.5685,6.7832c2.7609,7.9737,3.9153,16.406,6.9692,24.2657c1.682,4.3287,3.34,8.6248,4.3215,13.1808
	c0.326,1.5134,0.0115,2.2365-1.3292,3.0126c-4.9629,2.873-5.0793,3.0652-8.9822-1.2762c-3.9191-4.3593-6.3773-9.7103-8.7772-14.9847
	c-2.5463-5.5963-5.037-11.3122-5.8798-17.4564c-1.4893-10.8574-1.9098-21.5665,4.5334-31.4096
	c4.2369-6.4724,6.1308-14.1804,10.2813-20.7611c0.883-1.4,1.1314-3.2732,1.4069-4.9715c1.3551-8.3556,0.1111-16.4464-2.4089-24.4583
	c-1.5928-5.0638-3.2396-10.0614-6.604-14.9167c6.313,0.12,12.2202,0.3986,18.2233-1.0466c-2.4077,1.15-2.0959,2.8127-1.5736,4.7691
	c2.9969,11.2263,3.6646,22.6393,2.8929,34.2181c-0.3568,5.3536-1.0796,10.6395-1.7679,15.9421
	c0.6772,1.2359-0.1703,2.1873-0.5999,3.2168l0.0745,0.1539c-0.8157,0.6142-0.7737,1.7059-1.3597,2.4487
	C315.659,816.6287,315.5674,816.7061,315.4758,816.7834z"/>
<path style="fill:#ED562E;" d="M248.9174,747.5505c0.1452-0.0959,0.3719-0.1598,0.4239-0.2922
	c2.989-7.6155,7.8971-13.6751,14.6561-18.2759c2.4802-1.6884,3.8384-3.8274,3.6938-7.1385
	c-0.1055-2.4158,2.0964-4.0717,3.7986-5.6964c0.4532-0.4325,1.1529-0.6913,1.4384-1.1992c0.8318-1.4797,2.1472-1.2535,2.9978-0.5252
	c0.9372,0.8022,1.9171,2.0269,0.6834,3.4993c-1.3445,1.6046-2.5824,3.2999-3.9496,4.884
	c-6.9594,8.0643-12.3414,17.0138-15.5572,27.2245c-1.6486,5.2345-0.5645,10.4728-0.2239,15.7109
	c0.5688,8.7469,3.4406,16.9844,5.5161,25.411c0.9855,4.0015,0.7793,8.3065,1.3391,12.4609
	c0.989,7.3407,0.7992,14.7606,1.042,22.1439c0.1792,5.4496-0.7772,10.8587-1.8201,16.2235
	c-0.4142,2.1307-0.7018,4.3081-0.7857,6.4744c-0.0755,1.9496-0.2496,3.8976-1.1149,5.5916
	c-3.8315,7.5012-2.9741,15.1907-1.4969,23.0615c1.2915,6.8808,4.5057,12.7979,8.1135,18.6029
	c0.1897,0.3052,0.4053,0.5992,0.5521,0.9241c0.0637,0.141-0.0166,0.3471-0.0338,0.5234c-2.3914-0.8663-2.1597-1.0289-5.4054-5.6573
	c-3.1316-4.4656-5.0614-9.3649-6.4613-14.5115c-2.1354-7.8506-4.1726-15.7315-6.0481-23.6478
	c-0.9407-3.9702,0.0728-7.9924,0.4831-11.9653c0.675-6.5364,1.6266-13.0666,0.4198-19.6182
	c-0.4769-2.589,1.2318-4.7274,1.0783-7.1966c-0.0177-0.1224-0.0354-0.2449-0.0554-0.3676
	c-0.0783-0.7545,0.0042-1.4997,0.1224-2.2457c0.0399-0.2585,0.1046-0.5092,0.1788-0.7587
	c0.2751-3.4559,0.5948-6.9094-0.0578-10.3562c-0.0824-0.2528-0.1409-0.5115-0.1927-0.7715
	c-0.3654-2.869-1.3321-5.5486-2.5744-8.1395c-0.4688-0.7732-0.9239-1.554-1.2326-2.4095c-0.2688-0.8811-0.681-1.6917-1.2092-2.4489
	c-0.3152-0.5009-0.5614-1.0284-0.6932-1.6083c-2.0607-5.4737-1.844-11.0699-1.2751-16.7797
	c0.4426-4.4431,0.1365-8.9564,0.8422-13.3969c0.1875-0.8591,0.4588-1.6993,0.6787-2.5513c0.6063-1.6379,0.945-3.3776,1.8165-4.9207
	C248.7077,747.7209,248.8126,747.6357,248.9174,747.5505z"/>
<path style="fill:#ED562E;" d="M309.8915,845.6941c0.0369-5.5665,1.8654-10.6389,3.7993-15.7739
	c3.8727-10.2831,6.2452-20.94,7.3173-31.9115c0.7143-7.3103,2.0326-14.5547,2.7003-21.8826
	c0.6161-6.7621-1.1319-13.0022-3.8054-19.0482c-0.7216-1.6319-0.1635-2.0361,1.2164-2.3464
	c5.1574-1.1601,10.3517-2.2295,14.7635-5.4245c0.3672-0.2659,0.7269-0.5574,1.1908-0.1348c0.5849,0.5329,0.472,1.2281,0.2526,1.787
	c-2.2894,5.8329-3.2489,12.0201-4.5752,18.0799c-1.7207,7.8614-2.8463,15.8569-4.1105,23.8134
	c-1.8484,11.6341-3.3888,23.3162-5.6855,34.8797c-0.5299,2.668-0.6277,5.4276-0.8407,8.1516
	c-0.3987,5.0965-0.969,10.1944-1.0443,15.2979c-0.1118,7.5746,0.8773,15.0533,2.8405,22.3972
	c0.6761,2.529,0.7994,5.1998,1.7696,7.6603c0.448,1.1361-0.2401,1.4996-1.0453,1.7953c-1.117,0.4102-2.1708,1.6035-3.4633,0.2791
	c-0.7131-0.7307-1.3683-1.4871-1.6782-2.4679c-3.3356-10.5567-8.3441-20.6251-9.3104-31.874
	C310.0891,847.8788,309.9888,846.7866,309.8915,845.6941z"/>
<path style="fill:#A52522;" d="M275.8385,743.7178c0.5633,0.3277,1.1266,0.6555,1.6896,0.9832
	c0.4174,2.2266,1.593,3.132,3.9969,2.9407c2.367-0.1884,2.4408-1.593,2.6133-3.3315c0.2799-2.8222,1.0406-5.557,2.3867-8.0557
	c0.928-1.7224,1.9154-2.4378,4.0516-0.8448c3.3357,2.4875,6.6899,5.1432,10.8807,6.2224c1.4079,0.3626,1.963,1.1278,1.9439,2.7344
	c-0.0598,5.0301-0.6644,5.7563-5.7434,5.9194c-0.3495,0.0112-0.6968,0.0878-1.2921,0.1667c5.2841,1.0225,7.0721,0.2427,7.51-3.079
	c0.1302-0.9869,0.4402-1.9545,0.5178-2.9427c0.087-1.1078,0.5158-1.4559,1.5845-1.1108c2.7614,0.8918,5.5377,1.7374,8.2892,2.6581
	c0.1379,0.0461,0.0971,0.6263,0.1396,0.9578c-0.1283,0.7047-0.2339,1.4335-1.2581,1.1924c-1.5023,0.9961-1.6645,2.515-1.5552,4.1078
	c0.1487,2.1676-0.2911,3.5556-2.9981,3.0368c-1.6003-0.3067-3.2102,0.4217-4.8413,0.574c-5.4428,0.5082-10.4796-1.5583-15.602-2.605
	c-1.972-0.4029-4.4787-1.4662-6.6292-2.6063c-2.4535-1.3007-4.045-3.3195-6.1098-4.897
	C273.9592,744.6281,274.9122,744.223,275.8385,743.7178z"/>
<path style="fill:#ED562E;" d="M247.2676,752.6377c-0.0297,0.6929,0.231,1.4452-0.4118,2.0125
	c-0.7235,1.6784-0.864,3.5617-0.8497,5.2548c0.0532,6.2902-1.0217,12.532-0.6524,18.8237c0.1509,2.5707,0.9901,4.9479,1.9424,7.3
	c0.18,0.3525,0.36,0.7048,0.5401,1.0573c0.3856,0.7258,0.4663,1.6035,1.0985,2.2066c0.3667,0.7316,0.7333,1.4632,1.1,2.1947
	c1.0904,2.8922,2.1164,5.8045,2.7668,8.8345l-0.0299-0.0509c0.5816,3.8651,0.49,7.7302-0.0001,11.5953l0.0297-0.0537
	c-0.7039,0.8286,0.0926,1.9683-0.5814,2.803c0,0,0.0368-0.0531,0.0368-0.0532c-1.0053,0.2704-0.1687,1.6617-1.442,1.9862
	c-0.5398-4.6961-1.2756-9.3482-2.4031-13.931c-2.0309-8.2545-3.9038-16.5469-5.3425-24.9274
	c-0.8692-5.0631-0.7176-10.1375,0.3789-15.1596c1.5635-7.1613,3.5056-14.2049,6.9296-20.7773
	c-0.4867,1.9324-0.9733,3.8649-1.46,5.7973l0.0383-0.0441C248.1345,749.1317,247.768,750.9068,247.2676,752.6377z"/>
<path style="fill:#ED562E;" d="M248.3827,859.6313c0.0661-2.3057-1.1745-4.3162-1.4771-6.5386
	c-1.0796-2.1696-0.708-4.6577-1.5115-6.889c-0.0565-5.0971-0.3032-10.2105,1.3625-15.1518l-0.0322,0.0502
	c0.5247-0.8719,0.6515-1.9035,1.1218-2.7971c0.185-0.553,0.3701-1.1061,0.5551-1.6591c1.2288-1.0158,1.0692-2.7271,2.1398-4.3679
	c0.031,7.2172,0.3425,13.9717-0.8942,20.6957c-1.0843,5.8954-0.4694,11.6845,1.2965,17.4209
	c1.2153,3.9478,2.0689,8.0071,2.6436,12.2124c-1.0074-1.7593-2.0147-3.5186-3.0221-5.2778c0,0,0.0378,0.0522,0.0378,0.0522
	c-0.4591-1.2759-0.6354-2.6339-1.1309-3.8992l0.0318,0.0517C249.0506,862.2559,248.8591,860.9027,248.3827,859.6313z"/>
<path style="fill:#EC562E;" d="M262.7265,781.0631c-0.3405,2.6055,0.2518,5.1772,0.3654,7.7734
	c-2.9906-8.3169-4.647-16.8315-5.5343-25.6341c-0.7686-7.6244,0.0319-14.6088,3.7027-21.3392
	c0.5408,0.6016,0.2052,1.2492,0.2949,1.8364c0-0.0001,0.0387-0.0447,0.0387-0.0447c-1.5797,6.6453-0.5622,13.4-0.8456,20.0986
	c0.981,4.4681,1.0966,9.0428,1.6081,13.5682C262.4965,778.5617,262.522,779.8229,262.7265,781.0631z"/>
<path style="fill:#EC562E;" d="M282.9885,820.7588c-0.5471,1.0678-1.0941,2.1356-1.6412,3.2034
	c-0.452,0.6074-0.904,1.2148-1.7211,2.3129c0.4526-3.2462,0.8541-5.946,1.2018-8.6527c1.0177-7.9227,2.179-15.8328,2.1858-23.8488
	c0.0005-0.6277-0.0913-1.3021,0.5688-1.7188c0-0.0001-0.0373-0.028-0.0373-0.028c0.4574,1.2758,0.6349,2.6329,1.1301,3.8978
	l-0.0315-0.0529c0.3431,7.1776,0.8572,14.3594-0.5513,21.4919l0.0322-0.0535C283.6754,818.4365,283.5473,819.6686,282.9885,820.7588
	z"/>
<path style="fill:#A52522;" d="M313.1488,748.1284c0.4193-0.3973,0.8385-0.7947,1.258-1.1922
	c2.7565-0.3547,5.3508-0.0049,7.621,1.7537c0.114,0.126,0.1487,0.2488,0.1042,0.3683c-0.0439,0.1179-0.0859,0.1769-0.1263,0.1769
	c-0.8321,4.6354-4.6435,5.1435-8.2387,5.9243c-1.1692,0.2539-1.5461-0.3042-1.6721-1.481
	C311.8816,751.6859,312.6642,749.9501,313.1488,748.1284z"/>
<path style="fill:#E9552D;" d="M266.6271,833.2782c-0.1299,4.8303-1.7447,9.321-3.318,13.8672
	c2.6617-11.7076,2.2175-23.5864,2.07-35.921c0.915,1.3737,0.3973,2.4279,0.6913,3.3625c0.2227,0.587,0.7368,1.0841,0.6917,1.7471
	c-0.3209,4.7137,0.7536,9.3665,0.5965,14.0751C267.3242,831.445,266.7917,832.3035,266.6271,833.2782z"/>
<path style="fill:#FEF7E1;" d="M317.0535,814.6453c-0.5323,5.2162-2.606,9.9975-4.2289,14.9033
	c-0.6057,1.8313-1.3583,3.6139-2.218,5.8768c-1.2757-2.4349-0.3932-4.3325,0.1937-6.0648
	c1.1504-3.3953,2.6303-6.6785,3.9488-10.0179c0.3254-0.8242,0.8609-1.6002,0.7267-2.5593l-0.0392,0.0414
	C316.0481,816.1522,315.6269,814.7131,317.0535,814.6453z"/>
<path style="fill:#A42522;" d="M322.0058,749.2351c0.0118-0.1817,0.0192-0.3636,0.022-0.5454
	c3.2499-1.2425,6.4137,0.2108,10.2097-0.1095c-1.0318,1.2659-1.3922,2.1782-2.581,2.2431c-2.0269,0.1107-3.8434,0.9699-5.715,1.6425
	c-0.6558,0.2357-1.3638,0.8574-2.0509,0.369c-0.8127-0.5776-0.0774-1.2972,0.0434-1.966
	C322.0301,750.3373,321.9871,749.7806,322.0058,749.2351z"/>
<path style="fill:#EA552D;" d="M280.2474,781.5247c-0.0507-0.724,0.2462-1.5255-0.4678-2.1019
	c-0.8067-2.7134-1.1105-5.532-1.7329-8.2839c0,0,0.0412,0.0414,0.0412,0.0413c0.1924-1.9034-0.3743-3.7408-0.4835-5.647
	c1.7907,2.5522,2.4646,5.533,3.0605,8.4511c0.8079,3.9557,1.2017,7.9965,1.7568,12.003c0.0624,0.45,0.01,0.9107-0.501,1.1377
	c-0.1842-0.5391-0.3685-1.0781-0.5528-1.6172C280.9246,784.1998,280.7197,782.8246,280.2474,781.5247z"/>
<path style="fill:#EA552D;" d="M273.6545,725.585c-0.3612,0.7142-0.8941,1.2548-1.619,1.6012
	c-1.1981,1.0438-2.3961,2.0877-3.5942,3.1316c2.2797-5.3481,7.3337-8.4974,10.0422-13.6359
	c1.2137,1.3605-0.2832,2.323,0.1448,3.3372c-0.5544,0.7411-1.1088,1.4822-1.6632,2.2233
	C276.0575,723.5508,274.9229,724.6342,273.6545,725.585z"/>
<path style="fill:#E9552D;" d="M299.5005,877.8104c-0.3714-0.5649-0.7428-1.1298-1.1142-1.6948
	c-1.6047-2.3584-2.4496-5.0574-3.4451-7.689c-0.3903-0.6691,0.6943-1.5588-0.3191-2.1345c0.0001-0.6238,0.0001-1.2477,0.0001-1.8715
	c2.1794,5.5757,5.1647,10.7125,7.5427,16.1282c-0.4445-0.0189-0.8271-0.1467-1.0317-0.5873
	C300.6364,879.2085,300.0143,878.5506,299.5005,877.8104z"/>
<path style="fill:#371211;" d="M266.6271,833.2782c0.9052-6.2629-0.1689-12.4669-0.5566-18.6913
	c0.1201,0.0013,0.2403,0.0016,0.3604,0.001c0.7553,6.0391,1.7928,12.0668,0.7401,18.179c-0.0302,0.1753-0.1187,0.3406-0.1799,0.5107
	l-0.182-0.0002L266.6271,833.2782z"/>
<path style="fill:#3F1410;" d="M262.7265,781.0631c-1.1642-2.6282-0.5011-5.4961-1.0922-8.228
	c-0.6234-2.8811-0.7323-5.8735-1.066-8.8173c0.1239,0,0.2479,0,0.3719,0c1.0126,2.3655,0.7862,4.9334,1.1594,7.4006
	c0.483,3.1938,0.6933,6.429,1.021,9.6464C262.9892,781.0649,262.8578,781.0644,262.7265,781.0631z"/>
<path style="fill:#EFEBEA;" d="M268.1795,714.06c3.0277,2.1835,0.4607,3.5441-1.0695,5.1352c0-0.8167,0-1.6333,0-2.45
	c0,0-0.0352,0.0399-0.0352,0.0399c0.5035-0.8769,0.601-1.9211,1.145-2.7813L268.1795,714.06z"/>
<path style="fill:#6B504C;" d="M322.1228,778.3812c-0.0042-3.159-0.0084-6.3179-0.0126-9.4769
	c0.1286-0.1855,0.2571-0.1953,0.3852,0.0005c-0.0043,3.1588-0.0086,6.3176-0.0129,9.4764
	C322.3626,778.3812,322.2427,778.3812,322.1228,778.3812z"/>
<path style="fill:#C7BCBA;" d="M295.3391,724.9769c1.0375,0.9251,2.4595,0.8435,2.4259,2.3037
	c-0.0032,0.141-0.419,0.4123-0.6115,0.3864C295.8639,727.4937,295.3877,726.6367,295.3391,724.9769z"/>
<path style="fill:#F2EFEE;" d="M264.0397,795.0998c0.372,1.0846,0.3947,2.1429,0.0193,3.5142
	C263.6346,797.2343,263.7347,796.1567,264.0397,795.0998z"/>
<path style="fill:#CC4729;" d="M317.0339,813.9471c0.2-1.0723,0.4-2.1445,0.5999-3.2168
	C318.7386,812.046,318.1507,813.0458,317.0339,813.9471z"/>
<path style="fill:#47150B;" d="M317.0535,814.6453c-0.539,0.7265-1.078,1.453-1.6169,2.1795
	c0.1259-1.1729-0.1273-2.5784,1.6718-2.7239C317.089,814.2823,317.0707,814.4638,317.0535,814.6453z"/>
<path style="fill:#D6CECC;" d="M298.0539,817.9366c-0.393,1.7673-0.8556,2.5873-2.1757,3.6631
	C296.4359,820.0504,296.842,819.1541,298.0539,817.9366z"/>
<path style="fill:#5F1A0E;" d="M276.8572,754.6683c0.0077,0.5637,0.0154,1.1274,0.023,1.6911
	c-0.3093,0.0777-0.7334,0.4084-0.9032-0.0103C275.6418,755.5223,276.2531,755.0699,276.8572,754.6683z"/>
<path style="fill:#98827E;" d="M322.1228,778.3812c0.12-0.0211,0.2401-0.0212,0.3599-0.0002
	c0.0141,0.937,0.4272,1.8995-0.1802,2.8405C321.6949,780.2806,322.1082,779.3181,322.1228,778.3812z"/>
<path style="fill:#98837F;" d="M322.4954,768.9048l-0.1928,0.0186c0,0-0.1928-0.0188-0.1926-0.0189
	c-0.0537-0.7601-0.2849-1.5353,0.1524-2.3292C322.8631,767.3623,322.5091,768.1481,322.4954,768.9048z"/>
<path style="fill:#ED562E;" d="M556.12,831.6038c0.2697,9.1178,1.5829,18.133,2.8528,27.1399
	c1.4815,10.5073-0.6668,20.152-5.7173,29.399c-2.4089,4.4105-5.5779,8.1218-9.187,11.4158
	c-2.5341,2.3125-6.0544,1.5863-9.1396,1.0811c-1.6758-0.2744-4.1912-0.537-4.6996-2.0695c-0.3942-1.188,1.9963-2.3106,3.0035-3.5842
	c8.0136-10.1329,14.3681-21.0264,16.9404-33.9551c1.5688-7.8852,0.9024-15.2203-1.9005-22.7606
	c-3.4789-9.3592-5.2188-19.1729-5.9856-29.1904c-0.3872-5.0586-0.7509-10.1459-1.428-15.1909
	c-0.3288-2.4499-0.0826-4.8875,0.3774-7.3056c0.0919-0.6191,0.0241-1.2637,0.291-1.8557c0.5358-1.1686,0.6378-2.4538,0.9768-3.6757
	c0.2148-0.7551,0.3613-1.5262,0.5471-2.2884c0.6931-2.4408,1.1906-4.9203,1.4945-7.4377c0.0392-0.2581,0.1042-0.5115,0.179-0.7609
	c0.407-0.9451,0.2072-2.0315,0.6731-2.965c0.0903-0.0905,0.1823-0.18,0.2741-0.2695c1.2037-1.2047,0.4254-2.7701,0.7043-4.1515
	c0.5701-2.8231,0.886-5.6851,1.9216-8.4149c0.3055-0.8051,0.4597-1.9966,0.0822-2.6781c-2.3127-4.175,1.114-5.8389,3.3332-8.051
	c0.2582-0.2574,0.5573-0.4831,0.7739-0.7713c0.5469-0.7275,1.9263-1.3451,0.8556-2.4368c-1.048-1.0686-1.9188,0.0534-2.4163,0.8091
	c-0.8853,1.3452-2.091,1.6103-3.5134,1.5585c-0.3228,0.7798-1.1105,0.753-1.7388,1.0025c-0.4384,0.3233-0.8556,0.6813-1.3187,0.964
	c-1.9597,1.1968-2.7925,0.8337-2.9876-1.5317c-0.37-4.4865-0.7198-8.9318-3.7158-12.6572
	c-0.7823-0.9728,0.3352-1.6367,0.7684-2.3759c0.4584-0.7824,0.6499-1.6313-0.1284-2.231c-0.8604-0.6628-1.7596-0.3597-2.4186,0.4385
	c-0.4623,0.5601-0.7222,1.3152-1.2481,1.7877c-0.6293,0.5656-0.4067,2.3412-2.2994,1.3162
	c-1.5746-0.8527-2.7023-1.6437-1.896-3.4141c1.8811-4.1309,4.3135-7.8773,8.4233-10.1845c3.0054-1.6873,3.7432-1.3809,4.9052,1.8115
	c0.1685,0.4626,0.1489,1.1259,0.8058,1.3251c1.3893,0.3615,1.9103,1.5709,2.5826,2.6339c0.5546,1.1307,1.4455,1.9369,2.5028,2.582
	c0.6938,0.5231,1.3013,1.1323,1.8248,1.8251c0.8011,1.486,2.3473,2.4134,3.0121,4.0025c2.649,4.0696,4.9483,8.3371,7.1576,12.6555
	c0.1141,0.1242,0.2281,0.2485,0.3442,0.3715c1.726,6.4055,0.7643,12.9257,0.8292,19.4005
	c-0.6146,1.7252-0.3748,3.5471-0.5681,5.3189c-0.0333,0.2805-0.0976,0.5574-0.1751,0.8284
	c-0.5222,1.4355-0.1843,2.9633-0.4495,4.4282c-0.0397,0.2698-0.1016,0.5345-0.1726,0.7969
	c-0.4712,1.7366-0.0482,3.5362-0.3631,5.285c-0.0362,0.2805-0.0989,0.5539-0.1728,0.8258c-0.5128,2.042,0.2048,4.361-1.3821,6.1592
	c-0.0349,0.9132-0.0698,1.8264-0.1046,2.7395l0.0273-0.018c-1.2274,1.2362-0.8623,3.0261-0.887,4.3391
	c-0.1295,6.8646-1.5649,13.5897-1.8577,20.4213c0.3169,3.0482,0.1738,6.0995,0.0715,9.1491
	c-0.0316,0.2919-0.0955,0.5797-0.1743,0.8616c-0.6719,2.3478-0.0845,4.769-0.3992,7.1385
	C556.1816,831.3285,556.1508,831.4662,556.12,831.6038z"/>
<path style="fill:#ED562E;" d="M528.667,865.6932c1.802-5.3055,2.5853-10.8264,3.2485-16.3475
	c0.6607-5.5012,1.0682-11.0344,1.5098-16.5596c0.5172-6.4709-1.6619-12.1985-5.0409-17.564
	c-2.8237-4.4835-5.657-8.9611-8.4905-13.4385c-2.8516-4.5057-3.8387-9.2788-2.8785-14.6308
	c1.267-7.0618,1.4987-14.3214,4.4265-21.039c1.0316-2.3668,2.2042-4.6183,4.0675-6.4428c0.921-0.9019,1.9766-1.6652,1.0206-3.2388
	c-0.5633-0.9272,0.4797-1.0526,0.9958-1.1276c5.5108-0.8002,10.8088-2.16,15.7791-4.8345c1.4396-0.7746,2.7686,0.1192,2.9695,2.1402
	c0.4648,4.673-0.7642,9.0248-2.3586,13.2959c-2.4702,6.6163-3.6132,13.4645-3.6736,20.4878
	c-0.0151,1.7563-0.5071,3.3989-0.6133,5.1122c-0.0009,0.1223-0.0016,0.2445-0.0018,0.3671
	c-0.056,1.2481-0.5407,2.4188-0.6525,3.6628c-0.0435,0.2775-0.1036,0.5455-0.1682,0.8175
	c0.1146,6.4863-0.6044,12.989,0.5389,19.4351c0.0861,0.262,0.1511,0.5339,0.2072,0.8038c0.1768,1.1447,0.3465,2.295,1.0818,3.2587
	c0.6728,1.0768,1.3216,2.1664,1.6987,3.3913c0.1437,0.9762,0.6487,1.8753,0.633,2.8873c1.0957,3.5386,2.2504,7.0602,3.2749,10.6193
	c2.1797,7.5723,2.3707,15.088,0.6163,22.9006c-2.7121,12.077-7.592,22.99-15.1311,32.7563
	c-0.1119,0.1449-0.2149,0.2969-0.3307,0.4385c-4.1232,5.0369-4.8348,5.1526-10.4053,1.8457
	c-1.8833-1.1181-3.7789-2.223-5.7244-3.2263c-1.4678-0.7569-1.8383-1.3736-0.5709-2.8223c2.2679-2.5925,4.2858-5.4039,6.4082-8.1237
	c1.0321-2.2872,2.8193-4.0961,3.9816-6.3016c1.3805-1.9188,2.2107-4.0515,2.4994-6.3976
	C527.7967,867.0339,527.9651,866.2269,528.667,865.6932z"/>
<path style="fill:#ED562E;" d="M555.0877,713.4481c2.8442-0.9977,5.5325,0.0908,8.0927,0.9385
	c10.3853,3.439,17.5812,10.4957,21.1215,20.7342c2.3725,6.8615,3.5937,14.0928,4.2523,21.3906
	c0.7048,7.8101,1.9688,15.5757,2.4955,23.394c0.4236,6.2891,0.2383,12.6308,0.0856,18.9434
	c-0.1193,4.9274-0.5743,9.848-0.9304,14.7679c-1.6132,22.2911-6.0431,43.8532-16.5435,63.8439
	c-3.2699,6.2251-4.0735,7.3686-6.9686,8.9445c3.3072-6.1666,4.95-12.8026,5.9424-19.6221
	c-0.0123-0.1199-0.0245-0.2399-0.0385-0.3598c0.0538-1.0939,0.5036-2.1069,0.6445-3.1847c0.0524-0.2432,0.1269-0.4785,0.2093-0.7123
	c0.4715-1.1715,0.7024-2.4062,0.9567-3.6354c0.3589-2.0821,1.0329-4.0827,1.5443-6.1246c0.3145-0.8671,0.4062-1.7806,0.5446-2.6854
	c0.041-0.2657,0.1049-0.5251,0.1736-0.7841c0.2233-1.6151,0.6379-3.2004,0.6963-4.8392c-0.0248-2.7389,0.1107-5.4775-0.0967-8.2087
	c-0.0961-0.258-0.1618-0.5258-0.2111-0.7956c-0.1921-1.0268-0.1013-2.0952-0.4412-3.1024c-0.172-0.5988-0.3432-1.1987-0.5507-1.7873
	c-0.2728-0.9457-0.631-1.8563-1.1151-2.7167c-0.2855-0.5704-0.5291-1.1566-0.6995-1.772c-0.2971-1.647-1.141-3.1683-1.1316-4.886
	c-0.1072-9.6438,2.6008-18.8085,4.6919-28.0896c1.5107-6.705,3.302-13.392,3.5718-20.3029
	c0.4659-11.9368-3.304-22.8939-8.1984-33.533c-2.5759-5.5993-5.9464-10.6265-10.9733-14.4077
	c-2.9036-2.1841-4.0457-5.702-6.0867-8.5444C555.321,715.5231,555.0315,714.5483,555.0877,713.4481z"/>
<path style="fill:#ED562E;" d="M506.1033,812.9572c-0.5339-3.0119-1.3138-6.0046-1.5511-9.0397
	c-0.5039-6.4461-1.6128-12.8765-1.1213-19.3669c0.6256-8.2616,0.449-16.6405,3.2184-24.6218
	c0.669-1.9283,0.5503-3.5554-1.6374-4.7139c6.1886,1.2787,12.1885,1.5331,18.6342,0.8226c-4.394,5.7773-6.04,12.4808-7.9481,19.0781
	c-2.2131,7.6519-2.5919,15.3723-0.7579,23.1556c0.208,0.8831,0.4182,1.8359,0.9058,2.5719
	c4.7045,7.1006,6.7625,15.5121,11.3666,22.6815c2.903,4.5203,3.9114,9.6678,4.2327,15.065
	c1.0024,16.8317-5.6006,31.2226-14.0599,45.0452c-0.9828,1.606-2.3327,3.0731-3.7828,4.2793
	c-1.103,0.9174-2.4153,1.3823-4.0844,0.2772c-4.4135-2.9221-4.401-2.7842-3.2227-7.9819c1.0736-4.7363,3.8421-8.8584,4.8487-13.5759
	c1.7221-8.0704,4.9914-15.7375,6.135-23.9515c0.4104-2.9479,0.2189-5.9422-0.8376-8.6257
	c-2.419-6.1442-5.2303-12.1327-8.6693-17.7971C506.7394,815.3995,506.828,813.9727,506.1033,812.9572z"/>
<path style="fill:#ED562E;" d="M570.954,814.016c1.9177,5.4404,0.126,11.012,0.5876,16.498
	c0.4572,5.4346,1.1581,10.8489,1.6053,16.2841c0.6273,7.6288-2.4979,14.6044-4.0599,21.845
	c-0.7416,3.4377-2.0652,6.7456-2.9737,10.1528c-1.1571,4.3393-3.1539,8.2121-5.5258,12.0221
	c-1.5327,2.4621-2.6789,5.0034-6.1662,6.3377c1.2017-2.1317,2.0015-3.9022,3.109-5.4528
	c4.3398-6.0761,5.7021-13.1265,6.8826-20.2628c0.9954-6.0172,0.6589-11.8323-2.1693-17.3794
	c-1.3665-2.6804-1.0211-5.7047-1.4315-8.5753c-1.0667-7.4601-2.8456-14.8596-2.4526-22.4601
	c0.4797-9.2786,1.0542-18.5449,1.9189-27.8098c0.7042-7.5438,4.0633-14.3026,4.9112-21.7007
	c1.0593-9.2422,3.5651-18.5343-0.2708-27.6831c-3.6395-8.6808-8.1573-16.856-14.6566-23.8063
	c-1.363-1.4576-2.4741-3.1492-3.7258-4.7133c-1.1604-1.4499-0.3633-2.7529,0.674-3.5253c0.8431-0.6279,2.0426-0.6898,3.1217,0.4869
	c1.3347,1.4552,2.9401,2.6537,4.0925,4.3173c0.7936,1.1458,1.5166,2.1691,1.1986,3.7267c-0.3348,1.64,0.4427,3.0553,1.6054,4.1912
	c1.1124,1.0866,2.1865,2.276,3.4803,3.1025c5.9379,3.7932,9.6379,9.3261,12.4941,15.5734c0.2864,0.6263,0.3258,1.4493,1.0822,1.8122
	c0.0982,0.0829,0.1964,0.1656,0.2964,0.2468c0.8759,1.4332,1.0305,3.1602,1.8784,4.607c0.4836,0.7019,0.5361,1.5132,0.6005,2.3228
	c0.2036,1.2403-0.0364,2.5292,0.4312,3.7424c0.0932,0.2936,0.1516,0.5896,0.1927,0.8934c0.2477,4.1373-0.2213,8.3077,0.6393,12.4112
	c-0.002,2.9108,0.018,5.8215-0.0096,8.7297c-0.0007,0.9047-0.171,1.7718-0.6091,2.5717c-0.5695,0.8523-1.0016,1.7809-1.4039,2.7214
	c-0.8287,0.3364,0.0539,1.2391-0.5351,1.658c-0.5181,0.6403-0.8055,1.3804-0.9358,2.1898
	c-0.1917,0.8641-0.5975,1.6159-1.1734,2.2802c-0.7501,0.7728-0.9075,1.7474-0.9369,2.7678
	c-0.3766,2.0734-0.763,4.1421-1.6533,6.0732c-0.9489,3.3292-0.2861,6.7211-0.4001,10.0762
	c0.0553,0.2532,0.1068,0.5107,0.1659,0.7639c0.1486,0.8582,0.2325,1.7245,0.1758,2.6
	C570.9916,813.7738,570.9728,813.8949,570.954,814.016z"/>
<path style="fill:#ED562E;" d="M513.3116,844.9348c-0.4384,9.2936-3.0684,17.6821-6.2675,25.9428
	c-1.2814,3.3088-2.2935,6.7233-3.6176,10.0134c-0.8145,2.0237-2.1089,3.3154-4.5963,1.8502
	c-1.2518-0.7372-1.4399-1.2415-1.0932-2.7313c2.0356-8.7458,4.3651-17.4977,4.3731-26.5358
	c0.0055-6.2803-0.6431-12.5714-1.1994-18.8399c-1.107-12.4733-4.0785-24.6712-5.6775-37.064
	c-1.068-8.2775-2.1494-16.5846-4.1342-24.6353c-1.821-7.3863-2.9834-14.9684-5.6159-22.1541
	c-0.2925-0.7985-0.6-1.6171,0.2163-2.2368c0.7235-0.5492,1.1386,0.2764,1.6216,0.5743c4.4228,2.7273,9.4242,3.8074,14.3756,4.9517
	c1.9355,0.4472,2.3617,0.9885,1.4521,2.8444c-4.3164,8.8069-4.1886,18.0081-2.6502,27.4651
	c1.323,8.1331,2.0305,16.3642,3.3793,24.5062c1.369,8.2643,3.9572,16.1588,7.0145,23.9089
	C512.4864,836.8361,513.0779,841.0106,513.3116,844.9348z"/>
<path style="fill:#A52422;" d="M545.6743,744.1972c0.4548-0.5505,1.0634-0.8345,1.7386-1.0026
	c0.3903,0.548,2.1172,0.4959,0.5505,1.8699c-2.4656,2.1624-4.9562,4.25-7.8633,5.7842c-1.6851,0.8893-3.3586,1.6201-3.3008-1.4932
	c0.0101-0.544-0.531-0.6669-1.0043-0.7179c-1.3219-0.8089-2.8575,0.3057-4.2231-0.5144c-0.847-0.5087-1.5555-1.0792-1.964-1.7933
	c1.2212,2.7262,3.946,1.8996,6.2002,2.2913c0.9527,3.6603,0.6588,4.1047-2.8713,4.7273c-0.6949,0.1226-1.1759,0.2117-1.613-0.4918
	c-1.6379-2.6362-4.1765-3.4492-7.0722-3.0966c-2.9165,0.3552-3.933-1.2164-4.2463-3.6989c-0.2841-2.2507-0.7657-4.3654,2.39-5.3693
	c2.5316-0.8054,4.5652-1.3743,6.0175,1.9696c0.0925-0.7344,0.2444-1.1276,0.1384-1.2177c-2.741-2.3328-1.1522-3.491,1.1594-4.5522
	c0.9014-0.4139,1.7733-0.9525,2.5469-1.5734c2.6179-2.1014,3.9291-1.7933,4.9864,1.5026c0.7733,2.4106,1.2593,4.9148,1.8453,7.3839
	c0.3689,1.5541,0.8148,3.3854,2.6999,3.2021C543.5204,747.2383,545.2908,746.3644,545.6743,744.1972z"/>
<path style="fill:#A52522;" d="M511.327,752.3149c-0.0541,2.0713-0.6758,2.6251-2.6117,2.0892
	c-1.1631-0.3219-2.0657-1.4631-3.1675-1.2994c-3.7339,0.5549-3.3118-2.5337-4.1381-4.499c-0.4635-1.1026,0.3481-1.4326,1.2389-1.61
	c4.9175-0.9792,9.6848-2.4671,14.3414-4.3083c1.5998-0.6328,2.1103,0.1094,2.3165,1.5434c0.8308,5.7779,0.8439,5.7704,6.8046,6.6337
	c0.8042,0.1166,1.5987,0.3098,2.3912,0.4952c1.0811,0.2531,1.9957,1.0701,1.9712,1.9993c-0.0251,0.9529-1.3198,0.5737-2.0406,0.8351
	c-4.915,1.782-9.8895,0.8694-14.8677,0.5231C512.0236,754.6099,511.4748,753.8513,511.327,752.3149z"/>
<path style="fill:#ED562E;" d="M576.4685,754.1315c0.0751-0.7837-0.1499-1.4917-0.5437-2.1571
	c-0.4845-1.6953-0.8864-3.4181-1.6711-5.0133l0.0315,0.0361c-0.5427-2.0648-1.0854-4.1298-1.6281-6.1946
	c2.9595,5.0404,4.3405,10.6302,5.9877,16.1309c1.2306,4.1096,1.8558,8.3427,2.1195,12.5693
	c0.2943,4.7204-0.9335,9.364-1.7726,14.0001c-1.7708,9.7846-4.7937,19.3026-6.2458,29.1551
	c-0.1718,1.1651-0.1407,2.3602-0.2045,3.5571c-1.4922-0.0797-0.542-1.8479-1.5875-2.199l0.0286,0.0451
	c-0.6674-0.8329,0.1227-1.9659-0.5749-2.7926l0.0239,0.0443c-0.4749-3.8495-0.4258-7.7003-0.0283-11.552
	c0.9819-1.8909,1.3148-3.9601,1.6572-6.027c0.4864-0.8739,0.6646-1.8687,1.0856-2.7682c0.7392-0.5609,1.0323-1.3472,1.1282-2.2332
	c0.6191-0.5939,0.7241-1.444,1.0801-2.1689c0.1818-0.367,0.3635-0.7341,0.5453-1.1011c0.5413-0.8734,0.6578-1.9172,1.1307-2.8181
	c0.3646-0.6235,0.6229-1.2744,0.5182-2.0184c0.6443-3.1185,0.1295-6.2739,0.299-9.4073c-0.8227-4.3882-0.2284-8.8666-0.8441-13.2681
	l0.0226,0.0466C576.2942,756.7873,577.2068,755.3403,576.4685,754.1315z"/>
<path style="fill:#ED562E;" d="M574.8123,826.1181c0.1844,0.553,0.3688,1.106,0.5533,1.659
	c0.4507,0.8784,0.6057,1.8739,1.0853,2.7408c0.6552,0.3923,0.5461,1.0449,0.5634,1.6545c0.6916,1.0231-0.1768,2.3102,0.5624,3.3253
	l-0.0242-0.0463c0.6299,3.0097,0.1123,6.0544,0.2776,9.0773c-0.3722,1.7377-0.4725,3.5193-0.8292,5.2606l0.0254-0.0465
	c-0.6949,0.8365,0.0869,1.9693-0.5645,2.8145c-0.0746,2.2943-1.0133,4.3764-1.6065,6.5433
	c-0.5434,1.2456-0.6776,2.6125-1.1503,3.8791l0.0253-0.0427c-0.488,1.264-0.6719,2.6161-1.1246,3.8904
	c0,0,0.0296-0.0442,0.0296-0.0443c-1.1345,2.1295-2.2689,4.259-3.4034,6.3884c-0.1383-0.0477-0.2766-0.0954-0.415-0.1431
	c1.3585-5.2424,2.6652-10.499,4.0903-15.7233c1.4126-5.1786,1.3282-10.32,0.4286-15.5955
	c-1.1237-6.5887-0.718-13.2862-0.7092-19.9454C574.3581,822.7118,573.7457,824.8365,574.8123,826.1181z"/>
<path style="fill:#ED562E;" d="M561.6443,743.1449c0.0307-0.6061,0.0615-1.2123,0.1139-2.2456
	c3.7529,6.8755,4.8063,13.676,3.9794,21.0781c-0.775,6.9366-1.6453,13.8062-3.5759,20.5158
	c-0.5698,1.9802-1.2463,3.9296-1.963,6.1721c-0.135-0.8811-0.229-1.4945-0.323-2.1079c0.6949-2.1592,0.0443-4.4534,0.6647-6.6201
	l-0.0229,0.046c0.8005-1.9739-0.1992-4.1167,0.5715-6.0934l-0.0243,0.0468c0.7882-1.5956-0.1772-3.3934,0.5755-4.993l-0.0245,0.0468
	c0.6569-1.9391-0.0493-4.0707,0.8426-5.9787c0.0054-4.0695-0.0627-8.1381,0.0245-12.2035c0.0562-2.6193-0.2845-5.1663-0.8687-7.6993
	L561.6443,743.1449z"/>
<path style="fill:#EC562E;" d="M541.8622,823.4282c-0.5521-1.095-1.1042-2.19-1.6564-3.285
	c-0.5723-1.06-0.6806-2.2742-1.1222-3.3777l0.0262,0.0445c-1.3986-7.1301-0.8916-14.3091-0.5503-21.4839l-0.0256,0.0447
	c0.4875-1.2637,0.673-2.6147,1.1237-3.889c0,0-0.0287,0.0247-0.0287,0.0246c0.6963,0.3992,0.542,1.0875,0.5635,1.7042
	c0.3613,10.327,1.4452,20.5764,3.2902,30.7446c0.0648,0.3569,0.0633,0.7258,0.0926,1.0891c0.0438,0.6239-0.2808,0.803-0.7065,0.4099
	C542.2985,824.9276,542.2532,824.0797,541.8622,823.4282z"/>
<path style="fill:#EB552E;" d="M557.1377,814.0344c0.0778-0.9705,0.1556-1.9409,0.2334-2.9114
	c0.4016,11.8954-0.2192,23.8171,2.6105,35.5415c-1.6714-4.0631-2.9413-8.1752-3.3122-12.5203
	c-0.0735-0.8621,0.3715-1.8557-0.5495-2.5403c0.0001-0.0001,0.0226,0.0481,0.0226,0.0481
	c-0.4564-2.5813-0.4553-5.1626-0.0005-7.7438l-0.0206,0.0476c0.6639-2.2386,0.1548-4.5275,0.2762-6.7902
	C556.457,816.0615,556.3832,814.9599,557.1377,814.0344z"/>
<path style="fill:#FBF9F8;" d="M507.7775,816.8549c1.7005,4.8055,4.2571,9.3005,5.2245,14.3705
	c0.1976,1.0357,0.7228,2.1472-0.5725,3.0937c-2.7074-6.6161-4.9282-13.3436-6.5728-20.2628
	C507.8788,814.0403,506.9556,816.0468,507.7775,816.8549z"/>
<path style="fill:#EB552E;" d="M541.8452,784.9093c-0.0161,0.626,0.0815,1.2933-0.6087,1.6741
	c-1.2838-1.7514-0.0144-3.5399,0.1736-5.1979c0.6478-5.7117,1.3599-11.4708,4.2619-17.3257c0,1.4583,0,2.3646-0.0001,3.2709
	c0,0,0.0317-0.0341,0.0317-0.0341c-0.7429,1.0194,0.1351,2.317-0.5734,3.3423l0.0236-0.0436
	c-0.5764,2.7643-0.994,5.5606-1.6675,8.3054c-0.0674,0.7396,0.2526,1.5695-0.5012,2.1488
	C542.4396,782.2871,542.3075,783.647,541.8452,784.9093z"/>
<path style="fill:#A42422;" d="M501.7993,752.4883c-3.7687-1.1732-7.1669-1.9162-10.8982-4.2343
	c3.2521-0.3244,5.7765-0.5005,8.1695-0.5297C501.4663,747.6952,500.8267,750.5197,501.7993,752.4883z"/>
<path style="fill:#EC552E;" d="M551.1508,726.6313c-0.7173-0.3616-1.2578-0.8985-1.6088-1.6233
	c-1.1014-0.7509-2.0164-1.6891-2.786-2.7733c-0.7305-0.9296-1.461-1.8592-2.1915-2.7888c0.3982-1.0239-1.109-1.9802,0.1588-3.3707
	c2.5084,4.7081,6.8004,7.7955,9.6109,12.1188c0.2831,0.4354,1.348,1.0646,0.1528,1.7359
	C553.1221,729.0861,552.1293,727.8659,551.1508,726.6313z"/>
<path style="fill:#EA542E;" d="M525.3487,874.5347c-0.9314,2.338-2.3288,4.3451-4.2458,5.9832
	c-0.3395-0.7613-0.027-1.3854,0.3651-2.033c2.8121-4.6454,4.8628-9.6542,7.0422-15.1878c0.0754,1.1539,0.116,1.775,0.1567,2.3961
	c0.0681,0.7999-0.1779,1.52-0.5601,2.2054C527.4838,870.2338,526.7108,872.5067,525.3487,874.5347z"/>
<path style="fill:#F3EDEB;" d="M556.1413,716.8086c-0.0375,0.6321-0.0751,1.2642-0.136,2.2906
	c-1.0996-1.6249-3.2275-2.3337-2.0656-4.6137c0.5847-0.7507,0.9981-0.7122,1.5317,0.1386
	C555.9102,715.3238,555.6193,716.1799,556.1413,716.8086z"/>
<path style="fill:#600E0E;" d="M557.1377,814.0344c-0.6998,2.264-0.3389,4.5972-0.4727,6.8988
	c-0.059,1.0154,0.4093,2.1584-0.5436,3.0225c0.2753-3.3-0.6431-6.6713,0.5909-9.9144
	C556.8541,814.0386,556.9958,814.0363,557.1377,814.0344z"/>
<path style="fill:#8A564B;" d="M500.6876,778.3566c0.0107-3.3333,0.0213-6.6665,0.032-9.9998c0.1223,0,0.2445,0,0.3668-0.0001
	c0.0108,3.3333,0.0216,6.6666,0.0323,9.9999C500.9749,778.5574,500.8312,778.5679,500.6876,778.3566z"/>
<path style="fill:#5D0E0D;" d="M560.5405,779.9373c-0.2316,2.2056,0.5485,4.513-0.6647,6.6201
	c-0.114,0.0007-0.2278,0.0013-0.3415,0.0021C560.2932,784.4163,559.4152,782.0245,560.5405,779.9373z"/>
<path style="fill:#D2BDB6;" d="M527.8961,724.4064c-0.0389,1.6218-0.5373,2.4657-1.7708,2.7286
	c-0.3513,0.0748-0.8148-0.1765-0.7434-0.5911C525.6071,725.236,526.9091,725.3024,527.8961,724.4064z"/>
<path style="fill:#741514;" d="M551.1508,726.6313c1.3898,0.8185,2.4645,1.9557,3.3361,3.2986
	c-0.0001,0.1865-0.0002,0.373-0.0002,0.5594C553.2209,729.3365,551.5666,728.5195,551.1508,726.6313z"/>
<path style="fill:#741514;" d="M574.8123,826.1181c-1.4481-1.0901-0.9918-3.1365-2.1858-4.3539
	c0.1646-0.1917,0.3292-0.3834,0.4938-0.5751C574.0779,822.6968,574.6871,824.3243,574.8123,826.1181z"/>
<path style="fill:#942A1E;" d="M507.7775,816.8549c-1.1461-0.5858-0.4632-2.4269-1.9206-2.799
	c-0.5126-0.4996,0.1932-0.726,0.2465-1.0988c1.2728,0.738,1.8299,1.838,1.669,3.3016
	C507.7741,816.4577,507.7758,816.6563,507.7775,816.8549z"/>
<path style="fill:#89241B;" d="M556.1413,716.8086c-0.8559-0.4928-0.596-1.5123-1.0291-2.2416
	c-0.515-0.8673-0.7897-0.1524-1.1727-0.0812c0.0108-0.757,0.3979-1.0973,1.1475-1.0378c0.9216,0.7447,1.2325,1.7109,1.0385,2.8618
	C556.1846,716.4755,556.1899,716.6412,556.1413,716.8086z"/>
<path style="fill:#691211;" d="M541.8622,823.4282c0.9874,0.0972,0.3892,1.8756,1.713,1.616
	c0.7401,0.8917,0.108,1.0126-0.6093,1.0856C542.1483,825.413,541.7995,824.5048,541.8622,823.4282z"/>
<path style="fill:#EBE2DF;" d="M558.9684,797.9293c0-1.1366,0-2.2733,0-4.2039
	C559.6974,795.7279,559.327,796.9465,558.9684,797.9293z"/>
<path style="fill:#DED0CA;" d="M526.9214,820.5055c-0.868-0.5824-1.4276-1.3804-1.6913-2.9258
	C526.3925,818.5787,526.7211,819.4836,526.9214,820.5055z"/>
<path style="fill:#AD857A;" d="M501.0863,768.3567l-0.1835,0.014c0,0-0.1836-0.0137-0.1834-0.0139
	c-0.0298-0.7607-0.3714-1.5468,0.1837-2.2867C501.4583,766.8101,501.1167,767.596,501.0863,768.3567z"/>
<path style="fill:#B18B81;" d="M500.6876,778.3566c0.1437-0.0392,0.2875-0.0392,0.4312,0c0.0142,0.7665,0.3262,1.5611-0.2156,2.2957
	C500.3612,779.9176,500.6733,779.1229,500.6876,778.3566z"/>
<path style="fill:#D9462D;" d="M559.4297,789.2989c0.7132,0.7059,0.7924,1.466,0.0267,2.6275c0-1.1104,0-1.8779,0.0004-2.6454
	C559.4571,789.2809,559.4297,789.2989,559.4297,789.2989z"/>
<path style="fill:#381311;" d="M260.9401,764.0178l-0.186,0.0009c0,0-0.1859-0.0009-0.1859-0.0009
	c0.0283-6.4202-0.5883-12.8554,0.4554-19.2526c0.0729-0.4466,0.0437-0.9116,0.5702-1.1104
	C260.6417,750.419,261.2363,757.2327,260.9401,764.0178z"/>
<path style="fill:#351212;" d="M278.0468,771.1389c1.0811,2.656,1.3628,5.4792,1.7327,8.284
	C278.5023,776.8079,278.051,774.0202,278.0468,771.1389z"/>
<path style="fill:#52180E;" d="M273.6545,725.585c0.8232-1.3919,1.9585-2.4747,3.3106-3.3425
	C276.438,723.9279,275.3963,725.1033,273.6545,725.585z"/>
<path style="fill:#43140D;" d="M280.2474,781.5247c0.8829,1.1843,1.2302,2.5193,1.1207,3.983
	C280.412,784.3441,280.1778,782.9772,280.2474,781.5247z"/>
<path style="fill:#381311;" d="M284.0925,817.3637c0.8929-7.1458,0.4914-14.3248,0.5513-21.4919
	c0.1672,0.1915,0.4814,0.3838,0.4804,0.5744c-0.0355,6.8813,0.651,13.7853-0.613,20.6277
	C284.4893,817.1922,284.2372,817.268,284.0925,817.3637z"/>
<path style="fill:#4D170D;" d="M294.9412,868.4266c1.4616,2.4226,2.3629,5.0963,3.4451,7.689
	C296.222,874.008,295.4078,871.2952,294.9412,868.4266z"/>
<path style="fill:#48160D;" d="M284.6754,795.9246c-0.8631-1.1581-1.267-2.4495-1.1301-3.8977
	C284.3546,793.2006,284.7858,794.4841,284.6754,795.9246z"/>
<path style="fill:#41140E;" d="M282.9885,820.7588c-0.0724-1.2982,0.4581-2.3978,1.1362-3.4486
	C284.2344,818.6207,284.0228,819.8254,282.9885,820.7588z"/>
<path style="fill:#4C180F;" d="M299.5005,877.8104c0.9722,0.3921,1.4649,1.1483,1.6328,2.1512
	C300.2262,879.52,299.4292,878.9948,299.5005,877.8104z"/>
<path style="fill:#3E1410;" d="M246.7566,831.0519c-1.0451,5.0882-1.2835,10.235-1.1211,15.4111
	c-0.1274,0.0002-0.2549,0.0005-0.3823,0.0009C245.1127,841.264,244.3542,836.0037,246.7566,831.0519z"/>
<path style="fill:#411410;" d="M245.2532,846.4639c0.1275-0.0004,0.2549-0.0007,0.3823-0.0008
	c0.9082,2.1169,0.8474,4.4197,1.2696,6.6298C245.2653,851.1548,245.8952,848.6508,245.2532,846.4639z"/>
<path style="fill:#43140D;" d="M249.4718,863.4823c0.8938,1.1498,1.2434,2.4574,1.1309,3.8992
	C249.6786,866.2405,249.3872,864.916,249.4718,863.4823z"/>
<path style="fill:#43140E;" d="M248.3827,859.6313c0.8283,1.1702,1.2448,2.4589,1.1208,3.9027
	C248.4799,862.4199,248.3409,861.0515,248.3827,859.6313z"/>
<path style="fill:#49160E;" d="M247.8463,828.305c0.0381,1.0977-0.2899,2.0485-1.1219,2.7971
	C246.641,829.9862,246.9265,829.0183,247.8463,828.305z"/>
<path style="fill:#4B1910;" d="M268.2198,714.0037c0.0567,1.1077-0.3403,2.0285-1.145,2.7813
	C266.9046,715.6306,267.2946,714.707,268.2198,714.0037z"/>
<path style="fill:#42140F;" d="M247.2961,786.0287c-1.6122-1.9601-2.0937-4.3796-2.1625-6.7437
	c-0.2322-7.981,0.355-15.9404,1.0802-23.8867c0.0364-0.3986,0.2377-0.6614,0.6415-0.7482
	c-0.3999,6.5406-0.7207,13.0875-1.2295,19.6196C245.3085,778.3434,246.2756,782.1759,247.2961,786.0287z"/>
<path style="fill:#4A160F;" d="M252.7715,811.8662c0-3.8651,0-7.7302,0.0001-11.5953
	C253.9769,804.136,253.8217,808.0011,252.7715,811.8662z"/>
<path style="fill:#4C170F;" d="M252.8015,800.3218c-1.1291-2.88-2.1748-5.7862-2.7668-8.8345
	C251.7421,794.1861,252.6514,797.135,252.8015,800.3218z"/>
<path style="fill:#4B160C;" d="M247.2676,752.6377c0.0359-1.8839,0.3544-3.6746,1.6881-5.1313
	C248.7267,749.3267,248.2388,751.0617,247.2676,752.6377z"/>
<path style="fill:#391311;" d="M252.2197,814.6155c0.2053-0.9319-0.4576-2.044,0.5814-2.803
	C252.6299,812.7515,253.2573,813.8562,252.2197,814.6155z"/>
<path style="fill:#4A160F;" d="M248.9347,789.2926c-1.0233-0.4082-1.1731-1.2515-1.0985-2.2065
	C248.6177,787.6146,248.8922,788.3959,248.9347,789.2926z"/>
<path style="fill:#371211;" d="M294.9143,741.7911c0.1984,5.7236-2.3926,8.4492-8.2372,7.6987
	c-0.1283-0.8551,0.7332-0.7953,1.5229-0.8659c4.7807-0.4269,4.872-0.5012,5.7665-5.1151
	C294.0883,742.8808,294.0161,742.2089,294.9143,741.7911z"/>
<path style="fill:#5D0E0E;" d="M561.6142,743.1091c0.84,1.412,1.0373,3.0421,1.0655,4.5793
	c0.0964,5.2582-0.0164,10.5202-0.0494,15.7808c-0.1371,0.175-0.277,0.1685-0.4195,0.0067
	C562.0287,756.6864,562.543,749.8766,561.6142,743.1091z"/>
<path style="fill:#6A1211;" d="M543.4864,778.9006c0.2091-2.838,0.5994-5.6397,1.6675-8.3053
	C545.1516,773.4749,544.6723,776.2587,543.4864,778.9006z"/>
<path style="fill:#5A0D0D;" d="M556.1421,823.9081c0.0001,2.5812,0.0004,5.1625,0.0005,7.7438
	C555.2415,829.0707,555.2733,826.4894,556.1421,823.9081z"/>
<path style="fill:#5F0E0D;" d="M562.2108,763.4759c0.1398-0.0034,0.2797-0.0057,0.4196-0.0067
	c-0.8768,1.7414,0.18,3.8383-1.0146,5.5214C561.8203,767.153,561.1204,765.2178,562.2108,763.4759z"/>
<path style="fill:#600E0E;" d="M561.089,773.8899c-0.306,2.0203,0.6496,4.1589-0.5715,6.0933
	C560.8022,777.961,559.8965,775.827,561.089,773.8899z"/>
<path style="fill:#701413;" d="M546.756,722.2347c1.197,0.6547,2.1121,1.5928,2.786,2.7733
	C548.0724,724.6272,547.0748,723.772,546.756,722.2347z"/>
<path style="fill:#5C0E0D;" d="M561.6402,768.9437c-0.2906,1.6529,0.5794,3.4396-0.5755,4.993
	C561.3513,772.2833,560.4905,770.4976,561.6402,768.9437z"/>
<path style="fill:#671010;" d="M541.8452,784.9093c-0.1088-1.431,0.2512-2.7236,1.1398-3.8599
	C542.9357,782.4337,542.8298,783.8013,541.8452,784.9093z"/>
<path style="fill:#610F0E;" d="M545.1303,770.6388c0.2305-1.1073-0.5428-2.387,0.5734-3.3422
	C545.4891,768.4066,546.2047,769.6763,545.1303,770.6388z"/>
<path style="fill:#5D0E0E;" d="M538.5595,795.3259c0.0812,7.1639-0.3589,14.3412,0.5503,21.4839
	c-0.8688-1.4016-1.0172-3.0402-1.058-4.57c-0.1379-5.1666-0.0578-10.3391-0.0518-15.5094
	C538.0007,796.2004,537.9394,795.6205,538.5595,795.3259z"/>
<path style="fill:#6F1312;" d="M525.3487,874.5347c0.9194-2.212,1.8387-4.424,2.7581-6.636
	C527.879,870.3982,527.3527,872.7736,525.3487,874.5347z"/>
<path style="fill:#6D1312;" d="M539.6576,791.4816c0.1415,1.4456-0.3083,2.7202-1.1238,3.889
	C538.463,793.9456,538.8303,792.6471,539.6576,791.4816z"/>
<path style="fill:#661010;" d="M539.0836,816.7654c0.8381,0.9716,1.1043,2.1333,1.1223,3.3776
	C539.1323,819.2496,539.0067,818.0412,539.0836,816.7654z"/>
<path style="fill:#5C0E0D;" d="M577.6562,844.8194c-0.0346-3.1227-0.0692-6.2454-0.1038-9.368
	c1.2173,3.0694,0.3357,6.2443,0.4706,9.368C577.9008,844.8194,577.7784,844.8194,577.6562,844.8194z"/>
<path style="fill:#5D0E0D;" d="M577.6561,844.8194c0.1224,0,0.2447,0,0.367,0c-0.4186,1.6406-0.0491,3.4434-1.0223,4.9698
	C576.9078,848.0916,577.045,846.4243,577.6561,844.8194z"/>
<path style="fill:#671010;" d="M572.6056,866.8274c-0.1287-1.4424,0.3009-2.7234,1.1246-3.8904
	C573.7937,864.3606,573.5155,865.6854,572.6056,866.8274z"/>
<path style="fill:#681110;" d="M573.7049,862.9797c-0.1099-1.4394,0.3102-2.7215,1.1502-3.8792
	C574.8191,860.4967,574.7098,861.871,573.7049,862.9797z"/>
<path style="fill:#6D1412;" d="M576.4509,830.5179c-0.7874-0.745-1.1281-1.6669-1.0853-2.7408
	C576.2629,828.4785,576.5666,829.4152,576.4509,830.5179z"/>
<path style="fill:#600F0E;" d="M577.5767,835.4977c-1.0687-0.9593-0.3965-2.2132-0.5624-3.3253
	C578.0545,833.1365,577.3887,834.3893,577.5767,835.4977z"/>
<path style="fill:#600F0D;" d="M576.4617,852.5573c0.1636-0.9431-0.4573-2.0436,0.5646-2.8145
	C576.8873,850.6909,577.4545,851.7806,576.4617,852.5573z"/>
<path style="fill:#630F0E;" d="M577.0035,757.9504c0.6906,0.389,0.582,1.0762,0.557,1.6763
	c-0.1607,3.8607,0.1988,7.6982,0.4612,11.5405c-0.121-0.0001-0.2421-0.0002-0.363-0.0003
	C576.7115,766.7975,577.0557,762.3641,577.0035,757.9504z"/>
<path style="fill:#620F0E;" d="M570.4032,799.7607c0.0095,3.8507,0.0189,7.7013,0.0283,11.552
	C569.4413,807.4645,569.4877,803.6136,570.4032,799.7607z"/>
<path style="fill:#5F0E0E;" d="M577.6587,771.1669c0.1211-0.0007,0.2421-0.0005,0.3631,0.0003
	c-0.088,3.156,0.6898,6.3555-0.4732,9.4581C577.5853,777.4728,577.622,774.3199,577.6587,771.1669z"/>
<path style="fill:#701313;" d="M574.2537,746.9611c1.3083,1.4204,1.6215,3.1728,1.6711,5.0131
	C574.9124,750.4551,574.5389,748.7228,574.2537,746.9611z"/>
<path style="fill:#600F0E;" d="M576.4685,754.1315c1.1133,1.1546,0.3124,2.5855,0.5576,3.8654
	C575.9171,756.8417,576.676,755.4169,576.4685,754.1315z"/>
<path style="fill:#6E1213;" d="M577.0303,782.6441c0.0347,1.1046-0.247,2.0822-1.1307,2.8181
	C575.8201,784.3397,576.2115,783.4061,577.0303,782.6441z"/>
<path style="fill:#671110;" d="M573.1459,790.9655c0.1547,1.1254-0.2169,2.0443-1.0856,2.7682
	C572.0244,792.655,572.3249,791.7081,573.1459,790.9655z"/>
<path style="fill:#5E0E0D;" d="M570.4077,811.2685c1.0363,0.7569,0.3779,1.8628,0.5749,2.7926
	C569.9257,813.3084,570.6138,812.1964,570.4077,811.2685z"/>
<path style="fill:#6D1512;" d="M575.3542,786.5634c0.077,0.9408-0.0967,1.7565-1.0801,2.169
	C574.3041,787.8448,574.6083,787.0941,575.3542,786.5634z"/>
<path style="fill:#5C0D0D;" d="M535.8082,748.6212c-1.8137,0.0115-3.7399,0.9419-5.3516-0.6808
	c-1.0709-1.0782-2.108-2.158-1.5291-4.1902c1.1198,1.3312,0.889,3.0914,2.5298,3.9128c1.4391,0.7204,3.1396-0.3338,4.3378,0.9745
	C535.795,748.6375,535.8082,748.6212,535.8082,748.6212z"/>
<path style="fill:#5E0E0D;" d="M511.4493,750.6181c-0.7315-0.9568-1.188-1.6772-1.3223-2.6711
	C511.4262,748.3345,511.7748,749.1333,511.4493,750.6181z"/>
</svg>
