<svg version="1.1" id="Layer_1"
	 xmlns="http://www.w3.org/2000/svg"
	 x="0px" y="0px" viewBox="0 0 841.8898 1190.5511" style="enable-background:new 0 0 841.8898 1190.5511;" xml:space="preserve">
<path style="fill:#122617;" d="M408.9292,812.3732c-0.3147-3.1996,1.9785-0.5144,2.7662-1.2263
	c1.6418,10.6513,3.5579,21.2659,5.0519,31.9313c1.3067,9.3288,2.6159,18.6635,3.8621,28.0038
	c0.5809,4.3542,1.1585,8.7126,1.8935,13.0463c0.1988,1.1719,0.4707,2.3562-0.2611,3.4599c-1.9607,0.1915-1.8165-1.425-1.9716-2.5222
	c-1.4443-10.2162-3.0646-20.4064-4.481-30.6263c-0.1506-1.0864-0.3353-2.1666-0.5158-3.2473
	c-0.0708-0.4236-0.0802-1.0151-0.6768-1.0279c-0.6756-0.0145-0.8801,0.574-0.9913,1.1126c-0.292,1.4146,0.0057,2.6921,0.8625,3.8821
	c2.0859,2.8972,2.3294,5.7991,0.1808,8.8602c-1.544,2.2-0.943,4.6268,0.1563,6.756c1.5066,2.9186,1.9205,5.6749-0.016,8.5148
	c-0.9799,1.437-0.5432,2.9869-0.3391,4.5187c0.0967,0.7253,0.0905,1.4579,0.1021,2.1887c0.0691,4.3718,0.5061,4.7305,4.802,3.9238
	c0.8954-0.1682,1.807-0.2944,2.5992-0.8031c1.6584-1.0117,2.3474,0.0801,2.9483,1.3619c-0.604,1.7528-1.9747,1.0993-3.2029,1.0777
	c-4.1923-0.074-8.3465,0.5842-12.5501,0.6047c-4.5262,0.0222-9.0062-0.4606-13.5108-0.6044
	c-0.8537-0.0272-1.3409-0.3929-1.6816-1.0957c5.1808-25.2036,9.8451-50.51,15.0742-75.704
	C409.1909,813.984,409.4478,813.1461,408.9292,812.3732z"/>
<path style="fill:#3E3D3D;" d="M422.0293,887.7352c-0.6313-4.7625-1.2155-9.532-1.904-14.2862
	c-1.294-8.9364-3.0357-17.8301-3.8259-26.8088c-0.4445-5.0506-1.595-9.9259-2.2557-14.9056
	c-0.8218-6.1948-1.952-12.3486-2.9497-18.5201c-0.127-0.7855,0.3019-1.4074,0.6013-2.0677
	c0.5667,0.4451,0.9206,1.0155,1.0216,1.7349c2.813,17.5118,6.0921,34.942,9.1819,52.4054
	c1.3175,7.446,2.5804,14.9016,3.9729,22.3344c0.162,0.8646,0.4094,1.7766,0.0353,2.6702c-0.3353,0.0629-0.6705,0.1258-1.0059,0.1887
	c-0.9703,0.0115-1.1386-1.6876-2.3729-1.113C421.4417,889.1049,421.5789,888.4679,422.0293,887.7352z"/>
<path style="fill:#3E3D3D;" d="M408.9292,812.3732c2.2479-0.3281,1.0042,1.4501,0.9182,1.934
	c-0.8565,4.8237-1.9016,9.6133-2.8564,14.42c-3.2335,16.2783-6.452,32.5597-9.6759,48.8398
	c-0.7219,3.6453-1.4704,7.2858-2.1428,10.9403c-0.1581,0.8595-0.3051,1.6154-1.2165,1.9554
	c-0.1768,0.0122-0.343-0.0239-0.4989-0.1083c-0.8441-1.3221-0.1878-2.6251,0.0736-3.9203
	c1.3417-6.6465,2.8752-13.2537,4.0853-19.9262c0.6964-3.7355,2.1047-7.3441,2.0209-11.2214
	c2.5211-11.9595,4.9932-23.9297,7.6053-35.8693C407.7567,817.0649,407.8776,814.6013,408.9292,812.3732z"/>
<path style="fill:#16281A;" d="M425.9071,890.2917c-2.7669-15.7855-5.5187-31.5734-8.3063-47.3552
	c-1.577-8.928-3.2299-17.8425-4.7993-26.7717c-0.1874-1.0663-0.0639-2.1874-0.0846-3.283c1.3618,4.5538,1.8386,9.282,2.7169,13.93
	c1.6523,8.7436,3.2314,17.5014,4.7896,26.2625c1.5564,8.7512,3.0502,17.5135,4.5707,26.2712
	c0.5525,3.1822,1.1317,6.3602,1.6199,9.5522C426.4793,889.3243,427.1537,890.2378,425.9071,890.2917z"/>
<path style="fill:#1B2C1E;" d="M397.8696,866.2625c-0.5837,5.4315-2.191,10.6686-3.0465,16.0455
	c-0.4276,2.6877-1.5864,5.2517-1.3662,8.0466c-1.7267,0.1005-0.9983-0.8829-0.8169-1.734
	c1.6258-7.6264,3.2199-15.2595,4.8234-22.8906C397.8656,865.704,398.1812,865.744,397.8696,866.2625z"/>
<path style="fill:#233024;" d="M397.8696,866.2625c-0.1354-0.1776-0.2708-0.355-0.4061-0.5325
	c0.7244-3.4811,1.4488-6.9622,2.1732-10.4434c1.1739,1.7223-0.0356,3.3895-0.3228,4.9802
	C398.9527,862.2675,398.9431,864.4142,397.8696,866.2625z"/>
<path style="fill:#0C8585;" d="M422.0292,887.7352c0.0017,0.5947-0.0902,1.2182,0.4995,1.6324
	c-0.0067,0.4594,0.0024,0.955-0.6084,1.0269c-1.8,0.2121-3.6086,0.3582-5.4033,0.6067c-2.0994,0.2907-2.9506-0.415-2.7655-2.6621
	c0.1785-2.1685,0.1907-4.3755-0.3934-6.5417c-0.3218-1.1933,0.0335-2.2448,0.9178-3.2498c1.8173-2.066,1.5221-4.4513,0.3023-6.6306
	c-1.7784-3.1772-2.6101-6.119,0.073-9.3152c1.5016-1.7889,1.0082-4.8915-0.6241-6.8304c-2.3939-2.8437-1.9516-5.4251,1.5652-7.5909
	c0.5138,3.4088,1.0057,6.692,1.504,9.9741c1.0466,6.8934,2.1109,13.7843,3.1363,20.681c0.2933,1.9725,0.5174,3.9575,0.6973,5.9437
	C421.0301,885.8847,421.12,886.9504,422.0292,887.7352z"/>
<path style="fill:#0C8585;" d="M402.7763,855.3313c0.0783-2.907,0.9771-5.6501,1.5303-8.6347
	c3.4172,3.4226,2.8622,6.7029,0.4208,10.1145c-1.7813,2.4892-1.7891,4.9697,0.1729,7.5003c1.682,2.1695,0.6021,5.0914-0.1451,6.7334
	c-1.6117,3.5413-0.6223,6.8986-0.8472,10.3156c-0.1792,2.7239-0.4041,5.4454-0.5403,8.1714
	c-0.0511,1.0221-0.4239,1.4985-1.4766,1.4622c-1.8154-0.0627-3.9062,0.5234-5.3398-0.634
	c-1.6744-1.3519-0.1193-3.2021,0.1728-4.7937c1.6481-8.9824,3.3719-17.9509,5.0882-26.9208
	c0.0443-0.2313,0.2984-0.4226,0.4547-0.6324C402.9135,857.2097,402.2004,856.1479,402.7763,855.3313z"/>
<path style="fill:#0C8585;" d="M405.2835,880.2432c2.4048,1.2629,4.7802,1.0916,7.4152,0.0732c0,3.1593-0.037,6.1471,0.018,9.1331
	c0.0224,1.2155-0.4954,1.5848-1.63,1.5529c-1.911-0.0537-3.8249-0.0323-5.7372-0.0095c-1.0033,0.0121-1.5549-0.2347-1.2798-1.4218
	C404.7657,886.5676,404.3443,883.4249,405.2835,880.2432z"/>
<path style="fill:#0C8485;" d="M411.9883,869.8165c-1.2386-0.6647-2.4457-1.0941-3.8512-0.4802
	c-0.9203,0.4019-2.0938,0.6141-2.0148-1.0809c0.0538-1.1543-0.5524-2.7902,1.6689-2.5526c0.2708,0.029,0.5475,0.0067,0.8215,0.0029
	C412.3402,865.6549,412.3402,865.6547,411.9883,869.8165z"/>
<path style="fill:#0C8484;" d="M412.1178,824.9517c0.7165,4.4376,1.4388,8.8743,2.1404,13.3143
	c0.0688,0.4354,0.0942,0.9834-0.5652,1.0009c-1.0038,0.0268-1.5074-0.5434-1.5281-1.517
	C412.0739,833.4744,411.1325,829.2291,412.1178,824.9517z"/>
<path style="fill:#0B8484;" d="M410.1862,823.8919c0.759,4.1869,0.9462,8.3418,0.9002,12.5199
	c-0.0132,1.1996-0.2795,2.0532-1.5522,1.9677c-1.36-0.0914-0.695-1.3243-0.6142-1.8724
	C409.5392,832.3062,409.8082,828.0759,410.1862,823.8919z"/>
<path style="fill:#0C8483;" d="M408.8476,825.0285c0.3752,3.7444-0.6452,7.4094-0.6309,11.1441
	c0.007,1.8425-1.068,3.4091-2.8733,5.4424c1.1728-6.0316,1.8543-11.3935,3.5198-16.5739L408.8476,825.0285z"/>
<path style="fill:#010101;" d="M406.1431,874.8842c0.2407-1.1913,0.6854-2.7023,2.5039-3.0666
	c0.8503-0.1705,1.9307-0.3674,2.5331,0.5075c0.7698,1.118-0.4767,1.5554-0.9915,2.19c-0.5127,0.6322-1.1009,1.221-1.7343,1.7316
	c-0.5101,0.4113-0.823,1.4784-1.6596,0.9997C406.1898,876.9003,406.0651,876.0306,406.1431,874.8842z"/>
<path style="fill:#010202;" d="M408.9277,844.4789c0.7039,0.1136,1.4203,0.1783,2.1085,0.3536
	c0.7871,0.2004,2.154-0.6387,2.2733,0.5576c0.1161,1.1647-1.0347,2.0837-2.126,2.5649c-1.4219,0.6269-3.7372-0.9318-3.8567-2.4934
	C407.2278,844.1677,408.0952,844.2819,408.9277,844.4789z"/>
<path style="fill:#010101;" d="M407.0501,857.6564c1.1945,1.3738,2.2079,2.5375,3.219,3.7032
	c0.3535,0.4075,0.8379,0.7944,0.5021,1.4201c-0.3544,0.6604-0.9921,0.7483-1.6622,0.688
	C406.5677,863.2387,405.5312,860.5532,407.0501,857.6564z"/>
<path style="fill:#010101;" d="M413.4822,843.6032c-2.0535,0-3.9199,0-5.9392,0c0.3401-1.635,1.071-2.5564,2.7144-2.6382
	C411.9622,840.8802,412.9993,841.5983,413.4822,843.6032z"/>
<path style="fill:#0C8484;" d="M411.8145,854.1047c-1.6777-0.7135-2.9561-0.4433-4.6876,0.1149
	c0.9453-1.7548-0.3235-4.3481,2.9823-3.927C412.9315,850.6522,411.0288,852.6164,411.8145,854.1047z"/>
<path style="fill:#010101;" d="M409.2609,856.3429c2.3285,0.0222,3.0913,1.4714,3.3921,3.2867
	c0.0981,0.592-0.1943,1.642-0.8831,1.2467c-1.5434-0.8859-2.9753-2.1459-3.6977-3.7846
	C407.667,856.1721,408.954,856.6423,409.2609,856.3429z"/>
<path style="fill:#020202;" d="M412.7067,874.9552c-0.1319,1.121-0.5503,1.92-1.1685,2.6024
	c-0.7342,0.8104-1.7118,1.955-2.7155,1.091c-1.2875-1.1082,0.368-1.7953,0.945-2.5566c0.4344-0.5731,0.9903-1.0667,1.5482-1.5278
	c0.2457-0.2032,0.6806-0.39,0.9376-0.3052C412.4919,874.3375,412.6076,874.7879,412.7067,874.9552z"/>
<path style="fill:#0D7D7B;" d="M412.4883,855.7853c2.4772,2.7209,2.5024,4.9534,0.3716,6.8577
	C414.1466,860.5139,413.5286,858.4064,412.4883,855.7853z"/>
<path style="fill:#0C8080;" d="M413.243,878.1746c0.4667-2.3504,0.4678-4.071-0.1474-6.2151
	C414.6872,874.1913,414.7324,875.4712,413.243,878.1746z"/>
<path style="fill:#0A8180;" d="M405.9445,843.5307c0.1349,0.7653,0.2177,1.5448,0.4193,2.2921
	c0.2039,0.7553,0.8669,1.3597,0.731,2.6055C405.1753,847.0706,405.5894,845.3153,405.9445,843.5307z"/>
<path style="fill:#0E7A77;" d="M410.4997,870.3748c-1.4896,0.1849-2.9664,0.3885-4.1037,1.5225
	C407.0244,869.5963,408.8264,870.1196,410.4997,870.3748z"/>
<path style="fill:#0B8281;" d="M404.7679,858.5428c0.313,1.6919,0.5661,3.0599,0.8807,4.7605
	C404.3137,861.4261,404.3137,861.4261,404.7679,858.5428z"/>
<path style="fill:#0A7E7D;" d="M404.9992,877.3079c1.2613,1.058,2.1232,1.7811,3.1509,2.6432
	C406.4417,879.9369,405.2668,879.5735,404.9992,877.3079z"/>
<path style="fill:#0D7D7B;" d="M410.4311,855.2039c-1.012,0.0728-2.024,0.1454-3.5032,0.2518
	C408.3533,854.3756,409.4613,854.7368,410.4311,855.2039z"/>
<path style="fill:#0C7D7B;" d="M413.7408,847.6516c0.4685-1.1127,0.3324-1.9273,1.1579-2.2124
	c0.1006-0.0349,0.3963,0.1487,0.4048,0.2478C415.3761,846.5424,414.7447,846.9366,413.7408,847.6516z"/>
<path style="fill:#0D7673;" d="M413.0614,840.1344c1.5502,0.9299,1.8482,1.6801,1.7956,3.1781
	C414.2228,842.1901,413.8331,841.5004,413.0614,840.1344z"/>
<path style="fill:#B7C6C4;" d="M402.7763,855.3313c0.0179,0.9295,0.3015,1.9095-0.5094,2.6816
	C402.5218,857.1353,401.6927,856.0515,402.7763,855.3313z"/>
<path style="fill:#0B807F;" d="M408.8632,825.0411c0-0.7938,0-1.5875,0-2.8493c0.7059,1.302,0.8096,2.0998-0.0156,2.8367
	C408.8476,825.0285,408.8632,825.0411,408.8632,825.0411z"/>
</svg>
