<svg version="1.1" id="Layer_1"
	 xmlns="http://www.w3.org/2000/svg"
	 x="0px" y="0px" viewBox="0 0 841.8898 1190.5511" style="enable-background:new 0 0 841.8898 1190.5511;" xml:space="preserve">
<path style="fill:#010101;" d="M427.0011,731.0379c0.3275,1.8411-0.2755,3.6754,0.83,5.6416
	c0.4706,0.8369-0.7675,3.3702-1.0964,5.1828c-0.1812,0.9989-0.2256,1.9739-0.2974,2.9649
	c-0.0931,1.2875-0.0859,2.3386,1.7716,2.2064c0.9828-0.0699,1.6754-0.0784,0.8885,1.6891
	c-1.2757,2.8652-1.6446,6.1904,0.7609,9.0117c0.8899,1.0436,0.5454,8.1124-0.5022,9.0817
	c-1.2427,1.1498-2.6089,1.0983-3.9431,0.0803c-1.3224-1.0089-2.4356-1.2896-3.9798-0.02c-1.6049,1.3195-3.7245,0.8162-5.5072,0.0723
	c-5.0038-2.0882-10.2521-0.749-15.3624-1.259c-0.7722-0.077-1.7722-0.1409-1.269,1.3284c0.0534,0.1559-1.7274,1.4285-2.4975,1.2906
	c-2.759-0.4941-5.1945,0.6729-7.6659,1.2903c-3.8475,0.9613-5.6801,4.5106-7.5826,7.5593
	c-0.4297,0.6885-0.2526,1.8848-1.3792,2.5621c-1.938,1.1653,0.3479,2.4913,0.0327,3.7656
	c-0.0581,0.2348-0.0084,0.4964-0.0084,0.7231c-1.2904,0.2372-2.0073-2.2634-3.4297-0.6299c0.7594,0.5599,1.5169,1.1185,2.317,1.7086
	c-1.715,0.7587-2.5229-0.7268-3.5969-1.3316c-3.6894-2.0779-7.1256-4.5468-10.3173-7.3306
	c-0.9071-0.7912-0.8138-0.8981,0.1056-1.2946c1.2441-0.2345,1.2754,1.5805,2.1659,1.4066
	c-0.7521-0.0259-0.9076-1.6764-2.1793-1.3409c-0.4714-1.962,0.6136-2.7749,2.314-3.1218c1.8348-0.3746,3.6584-0.851,5.512-1.0723
	c1.6306-0.1947,3.5838,0.2289,2.8348-2.5314c2.7635-1.2371-0.2614-3.4913,0.9653-5.2599c1.2043-1.7365,1.3573-2.1589,3.4343-1.1138
	c0.5057,0.2545,1.5009-0.9094,1.0744-1.6512c-2.8009-4.8718,1.4455-7.9812,2.8537-11.7621c0.4046-1.0864,1.1081-2.0269,0.9951-3.278
	c-0.0389-0.431-0.0287-1.022,0.2235-1.3001c3.3209-3.6619,3.8608-8.5873,5.781-12.8754c0.6678-1.4913,1.9883-1.5623,2.439-1.2451
	c2.4851,1.749,2.7584-0.6071,2.9949-1.7462c0.6076-2.9267,2.915-5.6165,0.9581-8.8671c2.2967-0.0599,1.6344,1.5947,2.0625,2.5167
	c3.54-3.108,5.8125-2.6519,8.8508,1.6799c0.153-0.0464,0.3636-0.0447,0.4571-0.1486c0.9127-1.015,0.5724-3.1274,1.8483-3.3687
	c0.9868-0.1866,2.1014,1.2736,3.3704,1.7368c0.9493,0.3466,1.6674,0.7212,2.7064,0.2863c3.607-1.5096,3.6219-1.4738,7.1174,0.8974
	c0.5203-0.7111-0.2627-1.8688,0.9431-2.4572c1.045,2.7886,1.1038,5.9039,2.8546,8.4235c1.1805,1.6989,2.5229,1.6696,4.0125-0.2053
	c1.408,2.8155-0.0854,6.0102,1.3972,8.8122c1.3163,2.4874,2.2519,5.1764,3.4651,8.0346c0.1185-1.2027,0.2154-2.1868,0.3153-3.2012
	c1.7582,0.2233,1.4615,1.455,1.4902,2.5076c0.0809,2.9709-0.3698,5.9709,1.0627,8.8221c1.2567,2.5015,1.9035,5.397,5.017,6.4418
	c0.498,0.1671,0.5738,0.6976,0.4755,1.1642c-0.4188,1.9888,1.0518,3.2162,1.8229,4.7401c0.3302,0.6525,1.39,1.0773,0.578,2.2229
	c-0.9511,1.3419-0.0412,2.8973,1.5413,2.5948c0.8627-0.1649,1.6682,0.1247,2.4733-0.116c0.213-0.0637,0.3888-0.3941,0.6556-0.0693
	c1.6916,2.059,2.2137,2.2775,4.9976,1.9767c-0.6913,1.2915-1.3254,2.476-1.9635,3.6678c2.246,0.4974,2.2117-2.4661,4.1725-2.2862
	c-4.036,4.4451-9.0011,7.5717-14.3448,10.1935c0.153-0.9166,1.4397-0.944,1.1561-2.0983c-1.0607-0.5245-1.4961,0.7922-2.6297,0.8293
	c0.6337-0.9405-0.7365-2.3096,0.9724-2.9855c0.0577-0.0228-0.1678-0.5366-0.0825-0.7501c0.6817-1.7057-3.7094-0.1771-1.8735-3.078
	c0.4545-0.7181-1.8106-2.7893-3.1166-4.0184c-0.9112-0.8574-1.5296-1.9319-2.0243-3.0923
	c-0.7804-1.8303-2.5242-2.2798-4.1824-1.1118c-0.403,0.284-0.5938,0.2374-0.7524-0.2319c-0.2982-0.8824-1.9509-0.7433-1.6065-2.1381
	c1.0401-4.2123,0.9962-8.3104-1.381-12.1296c-0.2787-0.4477-0.437-0.8223,0.1203-1.087c0.7299-0.3466,0.4815,0.8821,1.0055,0.7801
	c1.1373-4.6912-0.5621-8.761-3.2392-12.9361c2.2514,0.252,1.695,2.397,3.3241,2.8815c-1.2337-4.1803-0.353-8.6882-3.3372-12.2213
	c-0.3112-0.2634-0.5144-0.6345-0.8609-0.8627C426.7151,730.448,426.8764,730.7324,427.0011,731.0379z"/>
<path style="fill:#EEEDED;" d="M427.0011,731.0379c-1.4097-0.4435-1.1302-1.5299-1.0177-3.2338
	c0.6254,1.4633,1.0067,2.3553,1.3879,3.2473l-0.186,0.0183L427.0011,731.0379z"/>
<path style="fill:#FCFCFC;" d="M391.0391,734.9561c1.1871,5.0804-1.2899,8.9435-3.399,12.9115
	C387.6258,743.3634,389.0089,739.223,391.0391,734.9561z"/>
<path style="fill:#F9F9F9;" d="M417.0818,751.851c0.7385,1.8207,2.8352,2.9526,2.5433,5.4271
	c-1.332-0.1094-2.8759,0.904-4.0262-1.0255c-0.9727-1.6318-0.7651-2.892,0.3429-4.3487c0.6296-0.8277,0.8294,0.3941,1.2195,0.0276
	L417.0818,751.851z"/>
<path style="fill:#FBFAFA;" d="M435.9384,753.5653c-1.8862-3.3521-3.8763-6.6743-3.1442-10.7781
	C433.757,746.4044,437.1022,749.3375,435.9384,753.5653z"/>
<path style="fill:#F7F6F6;" d="M416.4032,736.5435c-1.2491-0.1743-2.9581,0.5777-3.0382-1.3667
	c-0.0386-0.9371,1.0619-2.6799,1.619-2.334c1.3893,0.8624,3.9518-0.0839,4.2411,2.1481
	C419.535,737.3811,417.3032,736.027,416.4032,736.5435z"/>
<path style="fill:#F6F6F6;" d="M412.196,742.0589c1.0809,0.5947,2.2096,0.2681,3.0783,1.1036
	c0.9527,0.9162,0.8335,1.84,0.4247,2.9401c-0.513,1.3807-1.6307,0.8355-2.5147,0.8597c-1.586,0.0435-0.8948-1.2228-0.968-1.9771
	C412.1298,744.0948,412.196,743.1896,412.196,742.0589z"/>
<path style="fill:#FDFDFD;" d="M406.6809,736.5382c-0.8773-0.6545-3.1722,1.2718-3.2124-1.1557
	c-0.0378-2.2849,2.1286-0.478,3.1554-1.0366c0.3831-0.2085,0.8561-0.2552,1.2912-0.3635c0.6775-0.1683,1.5043-0.5852,1.926,0.2094
	c0.2638,0.4971,0.2136,1.2803,0.0445,1.8592c-0.2401,0.8218-1.0594,0.405-1.6324,0.476
	C407.8058,736.5826,407.346,736.5382,406.6809,736.5382z"/>
<path style="fill:#FEFEFE;" d="M426.2154,753.0588c1.4406,1.5417,0.6708,2.7516-0.115,3.8038
	c-0.8501,1.1382-2.1928,0.4954-3.304,0.5096c-1.1776,0.015-0.6531-1.0357-0.7392-1.6523c-0.0943-0.6753-0.0062-1.3013,0.9589-1.0564
	C424.5246,755.0464,425.2829,753.8982,426.2154,753.0588z"/>
<path style="fill:#F7F7F7;" d="M393.6263,767.2043c-2.3915-2.7673-2.093-5.8845-1.237-9.2462
	C395.1216,760.8379,392.5502,764.2454,393.6263,767.2043z"/>
<path style="fill:#F6F5F5;" d="M414.3018,737.6339c1.8308,0,3.2833,0.0079,4.7357-0.0029c0.8958-0.0067,1.1818,0.5145,1.4326,1.3032
	c0.4431,1.3932-0.859,0.9564-1.2454,1.1049C417.017,740.888,415.4938,739.9608,414.3018,737.6339z"/>
<path style="fill:#FAF9F9;" d="M398.9631,730.6697c1.3317,1.4609,2.2231,2.3363,2.9867,3.3118
	c0.5276,0.6741,0.5649,1.6588,0.1516,2.2888c-0.4012,0.6115-1.3624,0.3203-2.0419,0.2214c-0.8377-0.1219-1.087-0.8511-1.0938-1.6312
	C398.9557,733.7026,398.9631,732.5446,398.9631,730.6697z"/>
<path style="fill:#F3F3F3;" d="M399.5724,743.5258c-0.4008-0.0695-1.1037,0.7639-1.1521-0.3448
	c-0.0465-1.0669-0.01-2.1375-0.01-3.4358c1.7049,0.6145,3.2466,1.2418,4.8349,1.712c0.7796,0.2309,0.7518,0.7367,0.6143,1.2228
	c-0.1771,0.626-0.5936,0.3395-1.0429,0.1654c-1.2513-0.4847-2.4519-0.4916-3.33,0.7662L399.5724,743.5258z"/>
<path style="fill:#FFFFFF;" d="M409.5887,737.6595c-0.9658,1.0764-0.4262,3.485-2.3921,3.1821
	c-1.5478-0.2385-2.8195-1.3324-3.1153-3.1821C405.9892,737.6595,407.789,737.6595,409.5887,737.6595z"/>
<path style="fill:#F2F1F1;" d="M410.0028,754.7632c-0.1314,1.1579,0.3275,2.3365-1.2633,2.0582
	c-2.1116-0.3696-0.7609-2.7072-2.0296-3.5517c0.6146-0.5732,0.6203-2.1895,1.6406-1.7817
	C409.7777,752.0585,409.6079,753.8117,410.0028,754.7632z"/>
<path style="fill:#FBFAFA;" d="M418.1618,732.6174c0.3048-3.5909-0.5825-7.2352,1.0128-10.7665c0,3.5983,0,7.1967,0,10.795
	C418.837,732.6364,418.4994,732.6269,418.1618,732.6174z"/>
<path style="fill:#F5F4F4;" d="M390.6566,763.2568c0.1286,4.1191,0.1286,4.1191-3.7964,5.8934
	C387.8138,766.8978,388.7286,764.8066,390.6566,763.2568z"/>
<path style="fill:#FAF9F9;" d="M408.3242,742.428c1.0459,0.0075,1.8687,0.2167,1.619,1.5087
	c-0.2228,1.1534-0.2715,3.1577-1.4292,2.8865c-0.9955-0.2333-1.9788-2.1738-2.2246-3.4974
	C406.0352,741.957,407.7227,742.9521,408.3242,742.428z"/>
<path style="fill:#F6F6F5;" d="M397.6811,755.7048c-1.1006-0.501-0.7905-1.4376-1.0312-2.1628
	c-0.3779-1.1382-1.1462-2.6859,0.2844-3.1443c1.5439-0.4946,1.7871,1.5963,2.2006,2.5319
	C399.4016,753.5331,398.2002,754.7859,397.6811,755.7048z"/>
<path style="fill:#F5F5F4;" d="M413.5443,752.9329c-1.5759-0.8357-1.5447-2.331-1.2712-3.7132
	c0.2168-1.0959,1.3416-0.5165,2.0526-0.5716c1.4157-0.1098,1.6395,0.7592,0.8216,1.6104
	C414.372,751.0652,414.2725,752.1758,413.5443,752.9329z"/>
<path style="fill:#F3F2F2;" d="M417.1613,751.9315c0.6947-1.9621,2.6487-2.7642,3.9289-4.1926
	c1.133-1.264,2.638-2.1944,3.9672-3.2628c-0.2636,1.7145-5.4316,6.5049-7.9758,7.3755
	C417.0818,751.851,417.1613,751.9315,417.1613,751.9315z"/>
<path style="fill:#F6F6F6;" d="M424.7882,741.3814c-0.6961-1.1445-3.3603-0.8291-2.1663-3.0227
	c0.7202-1.323,2.3766-0.9952,2.8165-0.5946C426.7982,739.0024,424.6224,739.957,424.7882,741.3814z"/>
<path style="fill:#EDECEC;" d="M388.6313,754.7391c-0.3785-3.1326,0.375-5.5118,2.4633-7.9102
	C391.3604,749.9707,390.0223,752.1653,388.6313,754.7391z"/>
<path style="fill:#FAFAFA;" d="M399.4866,743.6116c2.7196,2.3712,4.0348,5.7209,5.8472,8.7202
	c-2.1857-2.7524-4.8573-5.1757-5.7626-8.8033C399.5724,743.5258,399.4866,743.6116,399.4866,743.6116z"/>
<path style="fill:#F8F7F7;" d="M366.1598,773.6171c2.719-0.4739,4.9089-1.9236,7.1232,0.3443
	C370.9099,775.3829,368.8285,774.3103,366.1598,773.6171z"/>
<path style="fill:#FBFAFA;" d="M397.1605,747.5948c-2.4084-2.5375-1.2291-5.0891-0.9221-7.5544
	C396.7213,742.4029,397.6767,744.6985,397.1605,747.5948z"/>
<path style="fill:#F7F7F6;" d="M433.1625,760.5912c1.2115,2.3455,2.1434,4.1496,3.1485,6.0955
	C432.7421,766.2069,432.8707,763.7934,433.1625,760.5912z"/>
<path style="fill:#F5F5F5;" d="M383.8666,752.0267c0.2374,2.433-0.8837,4.5266-1.8678,7.4198
	C380.7118,755.9931,382.7767,754.1586,383.8666,752.0267z"/>
<path style="fill:#F2F1F1;" d="M398.6944,727.6895c3.1829,0.0925,6.3611-1.5529,9.5667-0.8978
	c0.008,0.2993,0.0159,0.5986,0.0239,0.8978C405.0881,727.6895,401.8912,727.6895,398.6944,727.6895z"/>
<path style="fill:#F3F2F2;" d="M389.7117,755.3994c-0.2224,3.2309-0.8535,5.6524-1.5201,8.2977
	C387.1053,761.6191,387.5028,759.3376,389.7117,755.3994z"/>
<path style="fill:#FBFBFB;" d="M393.4186,747.5081c2.8961,2.2419,0.744,4.1736-0.5866,6.5178
	c0.4415-2.3739-0.5921-4.4932,0.6622-6.4419L393.4186,747.5081z"/>
<path style="fill:#F1F0F0;" d="M395.5752,734.0543c-0.1354,3.364-0.2494,6.093-1.2191,8.6151
	C393.648,739.5674,393.9283,737.0122,395.5752,734.0543z"/>
<path style="fill:#F4F4F4;" d="M412.1259,722.1202c4.4911,1.5887,0.416,3.4423,0.7131,5.0342
	C411.6991,725.6895,412.3381,724.0251,412.1259,722.1202z"/>
<path style="fill:#FCFCFC;" d="M424.7184,731.0383c-0.1511,1.5823,0.8632,3.3329-1.3752,4.6233
	C423.2327,733.8253,421.4387,731.8934,424.7184,731.0383z"/>
<path style="fill:#F4F3F3;" d="M451.826,775.4352c-0.8075,0.4127-1.006,1.4348-1.9253,0.9c-0.7667-0.446-1.942-0.6959-1.7138-1.8365
	c0.1063-0.5314,0.9394-1.2339,1.7166-0.7783C450.6028,774.1304,451.1443,774.8098,451.826,775.4352z"/>
<path style="fill:#F6F6F6;" d="M397.8946,731.3331c0,1.3121-0.0204,2.6247,0.0087,3.9361c0.0143,0.643,0.1829,1.3239-0.8372,1.2452
	c-0.919-0.0709-0.9768-0.7854-0.8271-1.3765c0.3339-1.3176,0.8129-2.5987,1.2327-3.8946
	C397.6127,731.2733,397.7536,731.3032,397.8946,731.3331z"/>
<path style="fill:#F4F4F4;" d="M400.2329,723.33c2.4378-2.8241,3.549-2.8311,5.9026-0.5382
	C404.2425,722.5043,402.5274,721.7476,400.2329,723.33z"/>
<path style="fill:#F2F1F1;" d="M406.8979,732.9861c1.0496-0.6697,0.8651-2.5914,2.5273-2.4175
	c0.732,0.0765,0.6581,0.9061,0.4969,1.2908C409.3709,733.1751,408.1749,733.2391,406.8979,732.9861z"/>
<path style="fill:#F0EFEF;" d="M413.559,741.0926c4.4579-0.2959,4.7251-0.0721,3.3513,2.9114
	C416.5575,742.2675,415.2393,741.9402,413.559,741.0926z"/>
<path style="fill:#F3F2F2;" d="M365.2591,775.3967c1.9668-1.0376,2.5345,2.1879,4.3906,1.4758
	c-2.3169,1.9543-3.1157-0.4531-4.3729-1.55C365.2725,775.3311,365.2591,775.3967,365.2591,775.3967z"/>
<path style="fill:#ECEBEB;" d="M403.1077,740.3624c-1.7146-0.5525-3.4291-1.1049-5.5086-1.775
	C400.1829,738.1264,401.6121,738.5446,403.1077,740.3624z"/>
<path style="fill:#EEEDED;" d="M412.6977,754.2047c0.8895,1.0581,1.5859,1.8557,1.4742,2.9818
	c-0.0076,0.0771-1.1888,0.2899-1.4629,0.041C411.8772,756.473,412.157,755.5169,412.6977,754.2047z"/>
<path style="fill:#FEFEFE;" d="M422.0476,734.7201c0.0016,0.6149,0.1796,1.3086-0.8503,1.2715
	c-1.0239-0.0369-0.7863-0.7749-0.7911-1.3479c-0.005-0.5866-0.2128-1.3688,0.7363-1.4351
	C422.3643,733.123,421.9544,734.0898,422.0476,734.7201z"/>
<path style="fill:#FAFAFA;" d="M412.3704,727.6207c0.9962,1.3485,1.6721,2.0311,1.3337,3.1257
	c-0.0426,0.1379-0.5103,0.3007-0.6658,0.2225C411.8624,730.3781,412.1161,729.3779,412.3704,727.6207z"/>
<path style="fill:#E9E7E7;" d="M383.6209,765.101c-0.8724-1.3329-0.8196-2.3614,0.9644-2.7618
	C385.0545,763.5568,383.8422,764.1506,383.6209,765.101z"/>
<path style="fill:#E6E5E5;" d="M370.5146,777.7747c0.6422,0.3146,1.1564,0.6693,1.2743,1.5586
	c0.0658,0.4962,0.0388,0.6896-0.3723,0.6128c-0.8092-0.1511-1.5548-0.5645-1.8001-1.3808
	C369.5363,778.298,369.89,777.7065,370.5146,777.7747z"/>
<path style="fill:#FEFEFE;" d="M400.9283,757.0155c1.0004-2.5538,2.0047-1.5259,3.055-0.92
	C403.2105,757.146,402.1696,756.462,400.9283,757.0155z"/>
<path style="fill:#E3E1E1;" d="M423.5433,743.2198c-1.984-0.3403-3.3525-0.575-4.8873-0.8383
	C420.3544,741.5311,421.7773,741.5089,423.5433,743.2198z"/>
<path style="fill:#FEFEFE;" d="M393.4943,747.584c-0.2297-0.907,0.5804-1.4378,0.7553-2.2012
	c1.0904,0.2446,0.7478,1.3455,1.2302,1.9319c-0.6869,0.0643-1.3738,0.1287-2.0609,0.1931
	C393.4186,747.5081,393.4943,747.584,393.4943,747.584z"/>
<path style="fill:#F7F7F6;" d="M375.1427,775.1949c-0.7403,0.9646-1.6417,1.5643-3.095,1.4219
	C372.8311,775.2566,373.9929,775.2298,375.1427,775.1949z"/>
<path style="fill:#F2F1F1;" d="M400.4305,754.725c0.1291,0.0141,0.332,0.3615,0.0697,0.8575
	c-0.2359,0.4462-0.5645,1.1328-0.9126,1.1716c-0.7809,0.0869-0.5852-0.6891-0.6241-1.182
	C398.9063,754.8492,399.3201,754.6237,400.4305,754.725z"/>
<path style="fill:#F6F6F6;" d="M383.0858,761.5655c0.8836-1.6155,1.3646-2.4948,1.8917-3.4586
	C385.6432,759.6547,384.9256,760.4791,383.0858,761.5655z"/>
<path style="fill:#E0DFDF;" d="M454.0381,777.3198c-0.7224,0.9617-1.3513,2.3186-2.8062,0.7256
	C452.2728,777.7762,453.1554,777.548,454.0381,777.3198z"/>
<path style="fill:#F8F8F8;" d="M443.701,763.5724c0.9283,0.9736,1.0617,1.9474,0.7964,3.2931
	C443.7299,765.7784,443.1494,764.9167,443.701,763.5724z"/>
<path style="fill:#FFFFFF;" d="M393.105,731.5337c1.2069,1.0513,1.213,1.8407,0.02,2.803
	C392.83,733.3801,392.8553,732.5704,393.105,731.5337z"/>
<path style="fill:#FBFBFB;" d="M438.8043,760.2915c-0.4101-1.4689-0.3397-2.5808-0.0586-4.0606
	C439.2305,757.7022,439.1767,758.814,438.8043,760.2915z"/>
<path style="fill:#F8F8F8;" d="M394.7885,752.5691c0.9258,0.4735,1.0974,1.1302,0.6422,1.9557
	c-0.0535,0.0971-0.376,0.1714-0.4582,0.1074C394.1933,754.0261,394.5389,753.3184,394.7885,752.5691z"/>
<path style="fill:#D5D4D3;" d="M439.2016,760.4839c0.4354,1.0989,1.2305,1.587,0.8318,2.5538
	C438.9803,762.683,438.8256,761.9805,439.2016,760.4839z"/>
<path style="fill:#DDDBDB;" d="M424.4787,751.8884c0.3575,0.8799,0.7096,1.7576-0.5045,1.7011
	c-0.2158-0.01-0.4239-0.1851-0.6356-0.2841C423.7187,752.8331,424.0987,752.3607,424.4787,751.8884z"/>
<path style="fill:#EBEAEA;" d="M446.3575,770.6727c0.5842,0.4873,1.3828,0.6916,1.3437,1.5504
	c-0.0081,0.1778-0.4659,0.5258-0.5595,0.4791C446.3164,772.2923,446.1,771.6056,446.3575,770.6727z"/>
<path style="fill:#DFDDDD;" d="M426.2838,736.1365c-0.9083-1.4567-0.0734-2.566,0-3.6766
	C426.2838,733.5706,426.2838,734.6813,426.2838,736.1365z"/>
<path style="fill:#F2F1F1;" d="M412.261,737.3209c0.5632,1.3541,1.7979,2.1681,0,3.0165
	C412.261,739.4857,412.261,738.7241,412.261,737.3209z"/>
<path style="fill:#FFFFFF;" d="M408.8459,749.3007c0.0434,0.5901-0.0526,1.0832-0.8116,0.9671
	c-0.2493-0.0381-0.8505,0.17-0.609-0.42c0.1746-0.4264,0.1609-1.0947,0.8269-1.1804
	C408.6881,748.6113,408.8395,748.9108,408.8459,749.3007z"/>
<path style="fill:#F4F3F2;" d="M419.9946,754.2667c1.3,0.5927,0.8484,1.4845,0.6132,2.3589
	C420.4034,755.8394,420.199,755.053,419.9946,754.2667z"/>
<path style="fill:#D5D3D3;" d="M433.9532,759.7024c-0.7701-0.7137-1.2391-1.4088-0.6273-2.7132
	C433.4518,758.074,434.3546,758.64,433.9532,759.7024z"/>
<path style="fill:#E7E5E5;" d="M443.6116,771.332c1.4222-0.3996,1.8867,0.1004,2.1477,1.0887
	C444.7115,772.726,444.4453,771.81,443.6116,771.332z"/>
<path style="fill:#F3F3F3;" d="M447.8405,778.6541c-0.9825,0.4312-1.5774,0.187-2.0146-0.562
	C446.6679,777.3381,447.1873,777.9413,447.8405,778.6541z"/>
<path style="fill:#CBC9C9;" d="M450.4986,778.9359c0.1729,0.223,0.3887,0.5015,0.6046,0.78
	c-0.3544,0.2615-0.6743,0.6345-1.0714,0.7572c-0.5423,0.1675-0.5528-0.3135-0.4467-0.6541
	C449.7074,779.4265,449.7683,778.9111,450.4986,778.9359z"/>
<path style="fill:#E3E2E2;" d="M374.2368,781.0932c-0.0204,0.5095-0.3481,0.5921-0.7108,0.4075
	c-0.3051-0.1552-0.5442-0.44-0.8125-0.6675c0.2504-0.2411,0.5746-0.7242,0.7364-0.6749
	C373.8298,780.2744,374.2465,780.5546,374.2368,781.0932z"/>
<path style="fill:#FFFFFF;" d="M381.0593,774.3861c-0.0846-0.2184-0.216-0.4043-0.2169-0.591
	c-0.0021-0.4142-0.1051-0.9624,0.567-0.9363c0.1717,0.0066,0.4583,0.2756,0.475,0.4454
	C381.9342,773.8101,381.5182,774.0592,381.0593,774.3861z"/>
</svg>
