<svg version="1.1" id="Layer_1"
	 xmlns="http://www.w3.org/2000/svg"
	 x="0px" y="0px" viewBox="0 0 841.8898 1190.5511" style="enable-background:new 0 0 841.8898 1190.5511;" xml:space="preserve">
<path style="fill:#020202;" d="M408.6752,723.9547c2.2057-4.0858,4.4933-3.092,8.1806-0.1866
	c0.9172-0.9094,0.7169-3.1895,2.7227-2.7079c1.8575,0.446,3.8393,0.918,4.752,3.0646c0.2502,0.5883,0.5689,1.1686,0.5207,1.7584
	c-0.2898,3.5444,3.0458,6.2172,2.2518,9.9406c-0.3529,1.6547-0.1937,3.3657-1.1278,4.9524
	c-0.8483,1.4409-0.6943,2.9823,0.0663,4.5962c2.5738,5.4617,3.3263,11.112,1.5508,17.0292
	c-0.4715,1.5712-1.4166,2.1047-2.561,1.4221c-3.9905-2.3807-7.9954-0.0529-11.9617-0.0955
	c-3.4448-0.0372-6.9513,1.3542-10.4319,0.2637c-1.7064-0.5346-2.4513,1.5513-3.9858,1.0624
	c-0.1789-0.7668,1.0712-0.6844,0.8495-1.4617c-5.0092-0.3404-5.6681-0.7434-6.0321-3.6896
	c-0.8359-6.7659,0.1786-9.4353,4.3022-10.9291c-1.4443-0.8464-2.5744-1.8704-2.9915-3.4615
	c-0.4009-1.5296-0.5605-3.2049-0.0251-4.5851c0.7534-1.9423,0.8341-3.8144,0.8427-5.8344c0.009-2.1148,0.3401-4.3215,2.3857-5.6823
	c0.7874-0.5239,0.2752-1.0449,0.0764-1.6334c-0.3904-1.1556-0.2541-2.2662,0.3268-3.3875
	C401.255,718.8527,404.9482,718.6135,408.6752,723.9547z"/>
<path style="fill:#030303;" d="M372.071,778.3145c-1.838-1.2222-4.1373-1.6019-5.7758-3.218
	c-0.4009-0.3954-1.2727-0.3757-1.1349-1.2206c0.1398-0.8572,0.8972-0.9971,1.587-1.2615c2.2792-0.8737,4.6877-1.1071,7.0659-1.4279
	c2.5074-0.3381,3.9087-2.6893,2.8767-4.9957c-0.6851-1.5309,0.3136-2.7703,0.9209-4.0319c0.2522-0.5239,0.7398-0.3265,1.1247,0.0333
	c0.539,0.504,0.8883,1.9092,1.7344,1.1615c0.6753-0.5969,1.2524-2.2617,0.8944-2.92c-2.8308-5.2056,1.2864-8.6478,3.5258-12.0319
	c1.4348-2.1682,1.8265-4.2983,2.5032-6.4963c1.1671-3.7915,2.4657-7.4913,4.8474-10.7335c0.4574-0.6227,0.8901-1.2894,1.6425-0.9408
	c0.5847,0.2709,1.2582,0.7449,1.2381,1.6409c-0.0244,1.088-0.416,2.187-0.424,3.1835c-0.0599,7.5221-2.8229,14.657-2.9711,22.1803
	c-0.0604,3.0634-0.5487,6.431-3.4915,8.4095c-1.9493,1.3107-1.4833,5.1017-4.9774,4.7612c-0.0334-0.0033-0.1571,0.6102-0.188,0.9404
	c-0.3888,4.1666-2.5401,7.5669-4.8275,10.8737c-1.2678,1.8327-3.0252,1.236-3.6881-0.2797
	c-0.5844-1.3362-1.299-2.0194-2.4988-2.4757c-1.0107-0.3842,0.3487-0.8171-0.0314-1.2103c0.9107-0.3416,1.9242-0.2189,2.8116-0.6625
	C373.9625,778.0317,372.9258,777.8041,372.071,778.3145z"/>
<path style="fill:#040404;" d="M447.406,776.3318c-0.3158,0.8499,0.4453,0.8719,0.8309,1.1656
	c0.8472,0.6456,1.8015,1.082,1.3921,2.5713c-0.4034,1.4675-1.4749,2.2052-2.6175,2.4595c-1.2396,0.2758-1.6729-1.1122-2.1831-2.034
	c-1.076-1.9438-1.8212-4.037-2.7053-6.0617c-1.3348-3.0568-2.0969-6.6762-6.7903-7.021c-2.5578-0.1879-3.7935-2.7623-3.9434-5.4289
	c-0.2554-4.5416-0.3224-9.1284-0.304-13.6336c0.0205-5.025-1.9508-9.6309-1.8137-14.5501c0.0344-1.2319-0.6667-3.2933,0.3217-3.5199
	c1.7025-0.3901,1.5394,1.7607,1.9647,2.8826c2.7787,7.3301,5.9271,14.514,8.455,21.9492c0.8124,2.3896,2.7115,4.4211,4.1751,6.5746
	c1.8645,2.7433,3.3258,5.4995,2.1886,9.0253c-0.5587,1.7322,0.7787,2.5849,2.1419,2.0105c2.318-0.9768,4.1974,0.2418,6.2753,0.5668
	c2.4858,0.3889,1.432,1.6552,0.6622,2.6019c-1.8106,2.2271-4.8165,2.6481-6.7113,0.9435
	C448.4573,776.5748,448.0013,776.0283,447.406,776.3318z"/>
<path style="fill:#FEFEFE;" d="M408.3054,726.4013c-0.0259,1.8126-3.5089,4.8873-5.4807,4.8381
	c-1.3723-0.0342-3.2762-3.1273-3.3066-5.3723c-0.0347-2.5493,1.758-4.7596,3.8289-4.7211
	C405.5265,721.1864,408.3373,724.1656,408.3054,726.4013z"/>
<path style="fill:#FEFEFE;" d="M395.6646,743.1163c0.0963-1.5244-0.6184-3.4728,2.2106-3.3088
	c3.7626,0.2181,6.1468,1.995,6.1299,4.8358c-0.0119,1.9953-1.8405,3.5084-4.2845,3.5452
	C396.8604,748.2314,395.6642,746.7355,395.6646,743.1163z"/>
<path style="fill:#FEFEFE;" d="M417.6432,748.9564c-0.0045-3.4677,1.7596-5.3702,4.1695-5.2685
	c1.8696,0.0789,3.0862,1.9899,3.1125,4.8884c0.017,1.8745-1.9656,3.5103-4.3141,3.5036
	C417.9588,752.0724,417.6711,750.2173,417.6432,748.9564z"/>
<path style="fill:#FEFEFE;" d="M414.4908,758.6567c-0.0139,1.4036-0.1696,3.0211-1.5024,3.5356
	c-1.0149,0.3918-1.9301-0.9675-2.901-1.528c-2.9465-1.7012-2.2218-4.9467-3.2847-7.4177c-0.1157-0.2689,0.4028-1.6383,1.3365-1.8199
	c0.8361-0.1627,1.1292,0.6803,1.1683,1.2153c0.0984,1.3465,1.2657,1.7906,2.0263,1.8066
	C414.3464,754.5123,414.2012,756.6965,414.4908,758.6567z"/>
<path style="fill:#FEFEFE;" d="M413.5026,753.1539c-0.544-0.6081-0.9483-1.1024-1.397-1.5523
	c-0.779-0.7809-2.4111-0.5178-2.2575-2.481c0.1885-2.4103,0.8737-4.5579,2.1443-6.5248c0.6933-1.0732,1.6925-0.0231,2.4579,0.1024
	c0.9418,0.1546,1.5398,1.037,1.5983,2.2229C416.1422,746.8229,415.6463,748.7799,413.5026,753.1539z"/>
<path style="fill:#FEFEFE;" d="M409.4047,725.9917c0.454-1.3414,0.2433-3.5151,2.6895-3.7112
	c1.8095-0.145,4.4386,2.1232,4.4521,3.6071c0.0152,1.6769-2.3208,5.1713-3.4248,5.1232
	C411.5915,730.944,409.4035,728.166,409.4047,725.9917z"/>
<path style="fill:#FCFCFC;" d="M419.1844,732.0143c0.0514,2.4288,0.2613,4.642,1.1867,6.7249
	c0.1133,0.2548,0.5854,0.7369-0.145,1.0593c-1.908,0.8416-3.6902,0.8141-5.1769-0.7642c-1.6423-1.7435-1.8576-4.39-0.7874-5.7937
	c0.5187-0.6804,1.0781-0.5478,1.6581-0.5369C417.0018,732.724,418.0569,732.6711,419.1844,732.0143z"/>
<path style="fill:#FEFEFE;" d="M413.0915,732.4935c-2.5138,2.1819-3.0021,4.7906-4.1353,7.0341
	c-0.9486,1.8778-1.9418,1.4964-3.156,0.7308c-1.7571-1.108-1.9895-3.0621-2.4228-4.8622c-0.1863-0.7739,0.1562-1.1582,1.0363-1.0715
	C407.2336,734.6022,409.8094,733.5028,413.0915,732.4935z"/>
<path style="fill:#FCFCFC;" d="M406.2483,752.7144c-1.5841-1.2416-2.2762-2.2681-1.1588-3.7361
	c0.9249-1.2152,0.3108-2.6397,0.449-3.9625c0.2146-2.0547,2.7904-3.4232,4.5411-2.3938c0.7825,0.4601,0.1532,0.8414,0.0423,1.3073
	c-0.4307,1.8094-1.3487,3.4551-1.336,5.4352C408.7966,751.0505,405.7169,750.2722,406.2483,752.7144z"/>
<path style="fill:#FCFCFC;" d="M402.7719,738.0667c-1.8027-0.2188-3.3537-1.1348-5.0706-0.5113
	c-0.7178,0.2606-0.8232-0.2651-1.0897-0.7897c-1.1468-2.2575,0.3794-3.9841,1.1492-5.8071
	c0.3949-0.9352,1.1378,0.0067,1.5284,0.2569C401.6736,732.7433,402.6088,735.091,402.7719,738.0667z"/>
<path style="fill:#FBFBFA;" d="M424.6569,741.3655c-1.9232-0.8753-2.7458-1.9726-1.6389-4.1899
	c0.4929-0.9873,0.4126-2.5088-0.15-3.7086c-0.7071-1.5079,0.5185-2.09,1.39-2.3952c1.3536-0.4741,1.9693,0.6599,2.0971,1.7855
	C426.6965,735.8654,426.2933,738.761,424.6569,741.3655z"/>
<path style="fill:#FEFEFE;" d="M426.1887,753.0684c2.1638,2.0985,1.4349,4.452,0.7209,6.661
	c-0.4821,1.4917-1.9281,1.1883-3.0262,0.7544c-1.1569-0.4572-2.2892-4.1845-1.8397-5.3783c0.1615-0.4288,0.3575-0.577,0.77-0.4521
	C424.3847,755.1288,425.2491,753.9664,426.1887,753.0684z"/>
<path style="fill:#FCFCFC;" d="M407.2092,760.631c-0.033,1.6779-0.4943,2.2203-2.0986,1.6412
	c-1.8889-0.6818-3.1314-2.0645-4.4165-3.4196c-1.1544-1.2173,0.7025-1.8696,0.7506-2.9727
	c0.0331-0.7592,0.9218-0.6356,1.7359-0.2803C405.5404,756.6296,406.9223,758.2855,407.2092,760.631z"/>
<path style="fill:#FBFBFB;" d="M393.9438,754.8068c1.8824-4.9985,2.9117-5.4884,8.5309-4.3537
	c-0.1234,2.3877-2.7679,2.4731-3.5578,3.6271C397.0484,756.8097,395.5675,753.8374,393.9438,754.8068z"/>
<path style="fill:#FCFBFB;" d="M420.5791,761.2379c-3.0942-1.7095-4.4893-3.9898-5.6206-6.4205
	c-0.647-1.3901,0.8893-2.2023,1.2775-3.3392c0.8745,0.4802,1.915,0.8335,2.2859,1.8472
	C419.3775,755.6636,420.2054,758.0207,420.5791,761.2379z"/>
<path style="fill:#FBFAFA;" d="M422.867,726.0121c-0.5651,1.2423-1.1122,2.8483-2.4256,3.9646
	c-0.3449,0.2932-0.8033,0.6735-1.3622,0.055c-0.8802-0.974-1.3319-2.0738-1.1341-3.3414c0.1073-0.6873,0.5524-1.3149,0.7759-1.9923
	c0.3513-1.064,1.1434-2.2562,2.0432-2.0649C422.0986,722.9168,422.6774,724.369,422.867,726.0121z"/>
<path style="fill:#F3F2F2;" d="M398.6494,762.7117c-0.8935-0.1243-1.8247-0.131-2.671-0.4026
	c-1.0483-0.3365-1.6974-2.0789-1.3551-2.1736c1.5186-0.4206,3.2595,0.2854,4.7511-0.7526c0.5205,0.858,0.8499,1.7554,0.7045,2.791
	C399.9303,763.2318,399.2212,762.8123,398.6494,762.7117z"/>
<path style="fill:#FDFDFD;" d="M411.5237,731.7581c-2.4577,1.4153-5.1021,1.7887-8.6195,1.2711
	C406.2762,732.7357,408.19,728.2847,411.5237,731.7581z"/>
<path style="fill:#F7F7F7;" d="M415.5006,758.1827c1.2526,1.6026,2.6395,2.8175,4.8146,4.2405
	c-2.2375-0.3516-3.9276,1.2587-5.1981-0.0593C413.9481,761.1511,416.2729,759.7723,415.5006,758.1827z"/>
<path style="fill:#F7F6F6;" d="M409.3267,740.7605c0.9174-1.8297,1.744-3.4783,2.5705-5.1269
	c-0.4825,1.6688,2.0668,2.7502,0.9074,4.4316C412.0282,741.1911,410.8097,741.0857,409.3267,740.7605z"/>
<path style="fill:#F9F9F8;" d="M398.2967,758.0859c-0.1792,0.9415-0.8747,1.0951-1.6176,0.9728
	c-1.0521-0.1732-2.2472-0.3144-2.1656-1.8188c0.0342-0.6301-0.2094-1.6976,0.9932-1.4299
	C396.7671,756.0906,397.7962,756.8123,398.2967,758.0859z"/>
<path style="fill:#FCFCFC;" d="M421.255,738.1425c-0.6024-1.2996-1.0056-2.6368-0.8666-4.1133
	c0.0519-0.551,0.2977-0.8235,0.8202-0.8521c0.5582-0.0305,0.8266,0.2681,0.8271,0.8171c0.0012,1.3829,0.0004,2.7657,0.0004,4.1486
	C421.7758,738.1428,421.5154,738.1426,421.255,738.1425z"/>
<path style="fill:#F2F1F1;" d="M426.5263,762.1822c-2.7336,1.0797-4.9951-0.346-4.935-3.2634
	C422.6717,761.2436,424.4521,761.9243,426.5263,762.1822z"/>
<path style="fill:#E9E8E7;" d="M408.3493,760.6024c1.0396,0.8246,1.9225,1.525,3.013,2.39
	c-1.2577,0.7255-2.4871,0.7823-3.2759,0.2985C407.2614,762.785,407.8002,761.6993,408.3493,760.6024z"/>
<path style="fill:#E9E8E8;" d="M403.1149,740.3589c-1.8036-0.5683-3.6072-1.1366-6.0524-1.907
	c2.8789-0.571,4.6103,0.3921,6.3794,1.2239C403.3329,739.9036,403.2239,740.1312,403.1149,740.3589z"/>
<path style="fill:#F4F3F3;" d="M413.5096,741.0654c4.3668-0.1854,4.6015,0.0221,3.6003,3.0398
	C416.5661,742.4356,415.2542,741.9347,413.5096,741.0654z"/>
<path style="fill:#EAE9E9;" d="M423.0168,742.9096c-1.5454,0.0045-3.0693,0.1099-4.636,0.8207
	C419.4575,741.3583,420.3029,741.2064,423.0168,742.9096z"/>
<path style="fill:#F4F3F3;" d="M403.8317,751.3129c0.1027,1.3577,0.0097,2.4323,0.9158,3.5103
	C401.6839,754.072,401.6609,753.9719,403.8317,751.3129z"/>
<path style="fill:#ECEBEB;" d="M404.7804,763.1423c-1.3625-0.0173-3.322,0.7343-3.7479-1.9529
	C402.4664,761.9365,403.6234,762.5394,404.7804,763.1423z"/>
<path style="fill:#ECEBEB;" d="M399.808,757.1111c-1.0369-0.8179-1.1646-1.6075-0.444-2.3696
	c0.1517-0.1605,0.8329-0.1167,0.9822,0.0671C401.1378,755.7834,399.6041,756.2405,399.808,757.1111z"/>
<path style="fill:#FEFEFE;" d="M424.0903,726.0269c0.1506,1.3439,0.5925,2.5206-0.682,3.2975
	c-0.1571,0.0958-0.6996-0.081-0.7018-0.1443C422.6642,727.9908,423.5344,727.2054,424.0903,726.0269z"/>
<path style="fill:#F9F9F9;" d="M422.6634,753.2302c0.6325-0.6774,1.0995-1.6178,2.1098-1.0298
	c0.1131,0.0659,0.0989,0.4919,0.0263,0.7122C424.3282,754.342,423.3831,753.1709,422.6634,753.2302z"/>
<path style="fill:#DEDCDC;" d="M401.7793,748.9105c0.3142,0.051,0.7495-1.4258,1.6023-0.3809
	c0.1307,0.1602,0.1238,0.6188-0.0106,0.7795C402.491,750.3606,402.0868,748.8826,401.7793,748.9105z"/>
<path style="fill:#E9E8E8;" d="M419.6342,753.0905c1.8551,1.3779,1.2338,2.489,1.1812,4.3113
	C420.3479,755.6956,420.0894,754.7519,419.6342,753.0905z"/>
<path style="fill:#FEFDFD;" d="M410.1469,752.0793c1.0744-0.0985,1.5131,0.5731,2.023,1.306
	C410.869,753.7958,410.6283,752.7172,410.1469,752.0793z"/>
<path style="fill:#FDFDFD;" d="M387.6572,747.9409c0.1569-5.577,1.8691-10.6712,4.7413-15.3936
	c0.2284-0.3755,0.5101-0.9426,0.9627-0.7703c0.6801,0.259,0.7668,0.9874,0.6486,1.6406
	C393.0477,738.7366,391.6552,743.8756,387.6572,747.9409z"/>
<path style="fill:#F7F7F7;" d="M366.1695,773.618c3.0724-0.6718,5.7276-1.2676,8.393-1.8132
	c0.293-0.0601,0.7396,0.0751,0.9478,0.2854c0.3188,0.3221-0.0183,0.6187-0.2527,0.8965
	C373.3576,775.239,368.8518,775.7573,366.1695,773.618z"/>
<path style="fill:#F9F9F8;" d="M391.7984,745.9021c-0.114,4.6304-0.8752,6.7416-2.9426,8.4609
	C388.2417,751.119,388.5692,750.1444,391.7984,745.9021z"/>
<path style="fill:#F7F7F6;" d="M386.9772,759.1341c-0.4581,2.2015-0.0036,4.3165-2.0808,5.4789
	c-0.494,0.2764-0.8261,1.5704-1.6032,0.4586c-0.4607-0.6591-0.6599-1.7232,0.1666-2.1783
	C384.902,762.0993,385.4726,760.6232,386.9772,759.1341z"/>
<path style="fill:#F6F6F6;" d="M384.1943,757.4042c-0.0366-2.6213,1.2889-4.6958,1.6525-6.9863
	c0.1857-1.1705,1.3192,0.295,1.7525-0.4697c0.6805,0.5513,0.5735,1.4526,0.1682,1.8154
	C386.0916,753.2635,385.7936,755.5782,384.1943,757.4042z"/>
<path style="fill:#F5F5F5;" d="M381.9094,758.6179c-0.9008-2.6795,0.6751-4.6174,2.2013-7.3013
	C384.142,754.4399,382.9641,756.5121,381.9094,758.6179z"/>
<path style="fill:#F3F2F2;" d="M387.9588,763.4471c-0.5556-2.649,0.0595-5.0912,1.4169-7.3891
	C389.7092,758.6515,388.5975,761.0051,387.9588,763.4471z"/>
<path style="fill:#F4F3F3;" d="M370.8807,776.6476c1.4602-1.0294,3.4104-1.2394,4.6823-2.6156
	c0.3867-0.4185,1.0761-0.3406,1.3436,0.2521c0.229,0.5076-0.2518,0.8184-0.6659,0.9922c-1.6636,0.6984-3.3399,1.3665-5.0115,2.0458
	C371.1131,777.0973,370.9969,776.8724,370.8807,776.6476z"/>
<path style="fill:#ECEBEB;" d="M383.3917,761.5348c0.7257-2.6478,2.3202-4.139,3.3418-5.9424
	C386.3131,757.7274,385.7457,759.7902,383.3917,761.5348z"/>
<path style="fill:#F2F2F1;" d="M378.7933,767.9534c0.6706,2.0551-0.1412,3.1341-0.9338,4.1768
	c-0.0677,0.089-1.0681-0.252-1.0896-0.4519C376.6044,770.1367,377.938,769.4479,378.7933,767.9534z"/>
<path style="fill:#F3F2F2;" d="M372.071,778.3145c0.981-1.0976,2.5318-1.0049,3.6825-1.7603
	c0.3875-0.2543,0.9386-0.8439,1.2028,0.0978c0.1461,0.5211,0.0449,0.9166-0.6938,1.1631c-1.4059,0.4691-2.7909,0.6315-4.2393,0.4405
	C372.0235,778.2551,372.071,778.3145,372.071,778.3145z"/>
<path style="fill:#F2F2F1;" d="M380.8336,774.485c-0.0046-0.4575-0.0336-0.9163-0.0085-1.3721
	c0.0433-0.785-0.2828-1.6921,0.6077-2.2224c0.1457-0.0869,0.5167-0.0055,0.6493,0.1298c0.8609,0.878,0.0836,1.7051-0.1948,2.4976
	c-0.1503,0.4281-0.4256,1.0092-1.1181,0.9223C380.7692,774.4402,380.8337,774.485,380.8336,774.485z"/>
<path style="fill:#EBE9E9;" d="M375.218,781.3713c1.4706-0.5839,2.7455-1.2673,4.0041-2.8452
	C377.8261,781.8326,377.1377,782.2937,375.218,781.3713z"/>
<path style="fill:#E6E5E5;" d="M378.9432,775.538c-1.1755-1.4404-0.4874-2.5565,0.6054-3.8658
	C379.9548,773.2042,379.8808,774.4116,378.9432,775.538z"/>
<path style="fill:#E4E3E3;" d="M383.7224,767.2513c-1.1637-0.0099-2.0974,0.5263-2.725-0.3779
	c-0.1106-0.1591,0.2946-0.9753,0.5894-1.0643C382.7263,765.4656,382.7992,766.7038,383.7224,767.2513z"/>
<path style="fill:#DCDADA;" d="M384.5606,768.6837c-0.821,1.1318-1.8331,0.6985-2.8212,0.4399
	C382.6798,768.9769,383.6202,768.8303,384.5606,768.6837z"/>
<path style="fill:#FFFFFF;" d="M377.0921,778.9662c-1.0878,1.3859-1.8887,1.1229-2.8884,0.2018
	C375.1968,778.6912,376.0154,778.8541,377.0921,778.9662z"/>
<path style="fill:#EEEDED;" d="M380.7692,774.4402c0.2459,1.1004,0.2098,2.1017-1.3872,2.5372
	c0.4841-0.8309,0.9682-1.6618,1.452-2.4926C380.8337,774.485,380.7692,774.4402,380.7692,774.4402z"/>
<path style="fill:#E4E3E3;" d="M380.3618,764.5684c0.1024,0.0853,0.3978,0.208,0.4426,0.3917
	c0.1372,0.5639-0.3234,0.7751-0.7392,0.9547c-0.019,0.0082-0.2489-0.3508-0.2971-0.5582
	C379.6808,764.9813,379.7207,764.6292,380.3618,764.5684z"/>
<path style="fill:#FDFDFD;" d="M431.0785,735.4814c3.3657,8.0973,7.0581,15.8497,8.3592,24.8437
	C435.7964,757.8801,429.7456,739.3351,431.0785,735.4814z"/>
<path style="fill:#FDFDFD;" d="M432.4737,756.0678c1.7944,3.9873,3.1884,7.9352,6.9568,10.631
	c-3.5612,1.1223-6.758-0.9368-6.9348-4.1896C432.3794,760.3679,432.4737,758.2153,432.4737,756.0678z"/>
<path style="fill:#FBFAFA;" d="M447.2236,774.2798c2.494-1.6632,4.7913-0.6703,7.0478-0.2968
	c1.0197,0.1688,0.9106,0.873,0.2935,1.5447c-1.7894,1.9479-3.7297,2.0023-5.7591,0.1511
	C448.3421,775.2557,447.8655,774.8467,447.2236,774.2798z"/>
<path style="fill:#FBFBFB;" d="M440.3199,758.7366c2.9038,3.1415,5.2133,6.5286,4.6624,11.8583
	C442.6537,766.4558,440.9221,762.8297,440.3199,758.7366z"/>
<path style="fill:#F4F3F3;" d="M449.0432,779.2132c-0.5535,1.1508-1.2498,2.2814-2.1093,2.2283
	c-1.1071-0.0682-1.3229-1.5455-1.7133-2.4734c-0.2335-0.5551,0.4167-1.2236,1.1367-1.1798
	C447.4724,777.856,448.2278,778.6243,449.0432,779.2132z"/>
<path style="fill:#F0EFEF;" d="M445.3477,775.2993c-0.8064-1.6905-1.4336-3.0054-2.176-4.5618
	C445.9652,771.7298,445.9652,771.7298,445.3477,775.2993z"/>
<path style="fill:#E8E6E6;" d="M440.2613,762.867c1.1237,2.6205,1.92,4.4773,2.9072,6.7794
	C440.9588,767.344,440.5897,766.5063,440.2613,762.867z"/>
<path style="fill:#EAE9E8;" d="M440.3989,763.1527c-1.4886-0.2682-1.5334-1.0817-1.631-1.8337
	c-0.0099-0.0768,0.3312-0.3103,0.4149-0.2708C439.9421,761.4067,439.936,762.1675,440.3989,763.1527z"/>
<path style="fill:#C3C1C1;" d="M444.9523,776.0861c0.1325,0.2215,0.4545,0.5183,0.4286,0.7808
	c-0.0285,0.2899-0.3758,0.5485-0.5843,0.8207c-0.1022-0.2446-0.225-0.4831-0.3015-0.7355
	C444.3951,776.6223,444.1813,776.2318,444.9523,776.0861z"/>
</svg>
