<svg version="1.1" id="Layer_1"
	 xmlns="http://www.w3.org/2000/svg"
	 x="0px" y="0px" viewBox="0 0 841.8898 1190.5511" style="enable-background:new 0 0 841.8898 1190.5511;" xml:space="preserve">
<path d="M346.1642,607.3251c0.3871-4.8335,0.8805-9.6793,0.515-14.5208c-0.4009-5.3116-1.0329-10.6096-1.7256-15.8923
	c-0.1642-1.2517-0.9734-2.4188-1.4859-3.6248c0.2493-0.1638,0.5115-0.1882,0.7882-0.0748c1.0402,0.6112,1.5472,1.6102,1.9583,2.6833
	c0.688,1.9767,0.596,4.1,1.1635,6.1024c0.3171,4.234,1.0436,8.4421,0.7477,12.7096c-0.1242,3.2947-0.1304,6.5941-0.0295,9.8853
	c0.1307,4.2626-0.4854,8.3852-1.8043,12.4142c-0.0899,0.4286-0.0628,0.8804-0.268,1.6767c0.2446-0.7122,0.1629-1.0951,0.2457-1.4543
	c0.398-1.0991,0.5444-2.2788,1.0726-3.3367c0.1212-0.2408,0.2892-0.4421,0.5009-0.6066c0.2684-0.0619,0.5111-0.0023,0.7307,0.1604
	c0.7039,1.1147,0.218,2.0862-0.4449,3.0361c-0.1259,0.3163,0.4381,0.1413,0.0799,0.0644c2.2448-3.6332,3.4904-7.836,6.3325-11.1307
	c4.5079-4.8659,7.2519-10.9637,11.2778-16.1636c4.6376-5.9899,9.5361-11.7756,14.0196-17.8854
	c1.5941-1.6317,1.544-3.1566,0.1893-5.0587c-2.2427-3.149-1.9246-4.1006,1.5634-6.2147c1.3017-0.789,2.232-1.6191,1.4688-3.2737
	c-0.0794-0.1653-0.1337-0.3411-0.2146-0.5034c-0.7324-1.4698-0.4955-3.4861-1.6936-4.5304
	c-1.3036-1.1364-2.8446,0.6671-4.3727,0.5094c-0.2738-0.0283-0.5358-0.0917-0.7825-0.2164
	c-0.2063-0.1761-0.3024-0.4027-0.3059-0.6718c0.4024-1.1071,1.47-1.2448,2.3734-1.6003c0.8957-0.3525,1.8289-0.6127,3.0433-1.1754
	c-2.7735,0.1586-4.4565,2.3986-6.9462,2.1878c-0.2675-0.3756-0.2184-0.7324,0.064-1.075c2.0003-1.1627,4.0904-2.1109,6.2749-2.8922
	c1.0199-0.3648,2.0066-0.6736,2.7329-1.9037c0.8409-1.4243,2.4949-1.2756,3.617,0.1384c1.3206,1.6641,2.175,3.4389,1.8185,5.7379
	c-0.3625,2.3375-0.3606,4.7314-0.5182,7.0984c3.2502-0.3989,5.1718-2.8436,5.683-7.2452c0.5629-4.8463,1.7767-5.6438,6.5321-4.3945
	c3.5531,0.9335,7.1276,1.7839,10.49,3.3207c0.8468,0.3871,1.7521,0.3962,2.5931-0.0015c3.5081-1.6597,7.2971-2.4514,10.9825-3.5497
	c3.7296-1.1115,5.7627,0.2186,6.089,4.0942c0.1797,2.1348,1.2192,3.8784,1.8573,5.8051c0.6279,1.8958,2.3528,1.7166,3.7852,2.2538
	c-0.1635-2.5707-0.1331-5.1481-0.5431-7.6534c-0.3878-2.3692,0.8238-3.9863,1.9796-5.687c0.7603-1.1188,2.5015-1.1069,2.8929-0.4856
	c1.9395,3.0789,5.7238,2.6464,8.1654,4.6475c0.4008,0.3285,0.9446,0.4823,1.4224,0.7169c0.2817,0.3408,0.3308,0.6961,0.0677,1.0711
	c-2.4659,0.1245-4.2382-1.8981-6.5784-2.1136c1.5094,1.1875,3.9047,0.7601,5.0401,2.687c0.0015,0.2736-0.0947,0.5042-0.3019,0.6862
	c-0.9143,0.4731-1.8315,0.2052-2.6479-0.1687c-2.1352-0.978-2.8451-0.0125-3.408,1.9659c-0.7768,2.7297-1.4706,5.4742-2.119,8.2335
	c-0.9566,2.3329-0.201,4.1087,1.4442,5.9372c3.4244,3.8058,6.236,8.1429,9.6216,11.9674
	c6.5779,7.4307,11.4763,16.0386,17.3578,23.9486c2.866,3.8545,4.5064,8.3503,6.7897,12.2653
	c-0.1792-0.7133-0.744-1.5363-0.8817-2.5064c-0.1516-1.069-0.5899-2.1686,0.4531-3.0586c1.3859,0.381,1.1341,1.6917,1.5063,2.6488
	c0.5104,1.8159,1.0197,3.6326,1.297,5.5016c0.1222,0.7765,0.6372,1.4711,0.58,1.9127c-0.1176-0.9929-0.8373-2.259-0.7969-3.663
	c-0.5033-1.5399-0.8279-3.1234-1.2609-4.6818c-0.5141-1.8657-0.647-3.7607-0.6187-5.689c0.1201-8.1931-0.3749-16.4034,0.7214-24.565
	c0.6898-2.0147,0.2596-4.2401,1.1351-6.2238c0.4606-1.0513,0.9668-2.0729,2.0109-2.6909c0.2781-0.1144,0.5439-0.0876,0.7959,0.0776
	c-2.4127,4.6991-1.9838,9.9192-2.7455,14.9224c-0.9147,6.0074-0.5998,12.0041,0.0624,18.0027
	c0.8552,0.8974,0.5133,2.0577,0.703,3.1068c1.2262,6.7795,1.6795,13.7698,5.3632,19.8892c0.7552,1.2545,1.6533,2.3953,2.6111,3.4948
	c1.7044,2.3385,2.7385,5.0213,3.9173,7.6298c1.3646,1.7112,2.3605,3.5609,2.1826,5.8473c-0.0899,1.1558,0.7837,1.9645,1.0668,2.9855
	c-0.1937,3.3163,1.5925,4.2547,4.6572,5.0591c7.706,2.0223,15.4852,2.7436,23.3706,2.542c2.0958-0.0535,2.5248,0.8688,2.7719,2.4907
	c0.2442,1.6038-0.165,3.2065,0.2736,4.8524c0.275,1.0317-0.9754,1.0353-1.7716,0.9452c-2.7766-0.314-5.5486-0.6702-8.3223-1.0103
	c-1.1249,0.9514-2.4413,0.7159-3.6643,0.4286c-6.691-1.5711-13.5538-2.025-20.3047-3.1963
	c-0.6373-0.1106-1.2754-0.1481-1.9093-0.0106c-7.1588,1.5523-14.0156-0.2079-20.744-2.2262
	c-9.9749-2.9922-18.9164-8.2025-27.7437-13.624c-5.2301-3.2122-10.8583-5.698-16.5177-8.0438
	c-3.983-1.6509-7.479-3.8123-10.0889-7.2879c-0.6323-0.842-1.3321-1.8113-2.278-0.394c-3.3667,5.045-8.7522,7.0305-13.9633,9.2474
	c-8.1103,3.4502-15.5726,8.0776-23.1829,12.4568c-10.6855,6.1487-22.1469,10.6501-34.5389,10.3322
	c-8.8929-0.2281-17.335,1.4791-25.9483,2.7135c-2.2879,0.3279-4.6463,1.1253-7.0069,0.2189
	c-1.6695-0.4325-3.2456,0.257-4.8669,0.4042c-1.3873,0.126-1.9285-0.0485-1.7121-1.8646c0.7564-6.3464,0.6283-6.3215,6.8552-6.3721
	c7.5073-0.0609,14.8637-1.1998,22.0638-3.327c0.9753-0.2882,1.2388-0.9594,1.6923-1.959c2.7313-6.021,2.3148-13.2276,6.9686-18.4905
	c0.2997-0.339,0.6605-0.624,0.9929-0.9341c2.7615-4.1571,4.3622-8.7404,5.3448-13.6232
	C344.6246,614.769,344.9406,610.9515,346.1642,607.3251z"/>
<path style="fill:#999999;" d="M306.5367,664.6591c7.0476-1.124,14.0696-2.4736,21.1535-3.2778
	c3.5883-0.4074,7.2031-0.6655,10.949-0.4279c6.5828,0.4175,13.1744-0.9385,19.5443-3.1364
	c9.1351-3.1522,17.2894-8.1331,25.5899-12.9073c5.685-3.2699,11.5465-6.2512,17.7114-8.5675
	c4.6218-1.7366,7.9356-5.0117,10.6321-9.4019c2.5334,3.7646,5.2107,7.0936,9.3276,8.7563
	c10.8595,4.386,20.8538,10.3851,31.0248,16.116c9.413,5.3038,19.6338,8.6431,30.5844,9.4102
	c3.1555,0.2211,6.0713-0.8826,9.3759-0.4286c7.3437,1.0089,14.6078,2.5823,21.9979,3.2502c1.5246,2.349,1.2502,2.8931-1.6837,3.2284
	c-3.8814,0.4437-7.397-1.108-10.9001-2.3066c-5.2523-1.7972-10.4966-2.782-16.0724-2.186
	c-9.8286,1.0503-19.0663-1.4802-28.0349-5.1646c-13.3846-5.4984-26.3036-11.9589-38.8375-19.1852
	c-1.7382-1.0021-3.5853-1.9625-4.8207-3.5886c-1.1781-1.5506-2.1885-1.5185-3.9117-0.6956
	c-10.1549,4.8494-19.7121,10.8515-30.0274,15.3979c-3.7366,1.6469-6.6652,4.7345-10.6299,6.1813
	c-5.8243,2.1256-11.888,3.5914-17.4897,6.3636c-1.0579,0.5236-2.5183,0.3478-3.787,0.3077
	c-2.8387-0.0897-5.6711-0.2654-8.4746,0.387c-0.3512,0.0817-0.7488,0.1326-1.0921,0.0543
	c-6.8203-1.5565-12.6797,2.3762-19.0486,3.4086c-2.9532,0.4788-5.8928,1.238-8.878,1.5926
	C308.4606,668.11,306.7844,667.2421,306.5367,664.6591z"/>
<path style="fill:#999999;" d="M486.2812,632.7029c-2.8383-0.928-4.0302-3.551-4.7752-5.8642
	c-2.1512-6.6799-4.1568-13.4604-3.9021-20.6265c2.5612-1.7615,3.7786-1.4892,4.3481,1.5668
	c1.2483,6.6987,2.2526,13.447,3.1674,20.2007C485.3429,629.6288,486.0203,631.101,486.2812,632.7029z"/>
<path style="fill:#999999;" d="M346.1642,607.3251c-0.4944,7.9093-1.8226,15.6188-5.5662,22.7261
	c-0.4558,0.8654-1.1283,1.6274-2.0675,2.0648c0.7281-2.9174,0.9617-5.8101,0.7248-8.8701
	c-0.4148-5.3556,1.3563-10.381,3.4604-15.2419C343.4773,606.2444,344.854,606.7485,346.1642,607.3251z"/>
<path style="fill:#593714;" d="M343.8327,573.2933l-0.1826,0.0009l-0.1825-0.007c-2.3069-1.2824-3.2728-3.7925-5.0714-5.5392
	c-0.7235-0.7026-0.0506-0.8876,0.3212-1.4136c1.0688-1.5122,2.7209-2.107,4.2375-2.6263
	c9.2943-3.1821,17.9293-7.8439,26.892-11.7641c0.3122,0.3339,0.3225,0.7149,0.1781,1.1202c-0.7454,1.1415-1.996,1.551-3.1361,2.0858
	c-7.6666,3.5964-15.3396,7.1787-23.2824,10.1451c-0.8777,0.3278-1.9804,0.4662-2.3649,1.6111
	c0.9325,1.0989,2.0826,0.2819,3.0992,0.4293c0.2566,0.0391,0.4915,0.1353,0.7082,0.2773c0.4778,1.0054-0.3838,1.2464-0.9637,1.5312
	c-0.7125,0.3499-0.8829,0.8057-0.6034,1.4988c0.1593,0.4543,0.3314,0.902,0.5034,1.3505
	C344.0872,572.4437,344.3985,572.9222,343.8327,573.2933z"/>
<path style="fill:#593714;" d="M480.287,573.2871l-0.1823,0.0068l-0.1825-0.0004c-0.5724-0.3901-0.1783-0.8191-0.0574-1.2392
	c0.1924-0.4242,0.329-0.8683,0.4367-1.3227c0.2636-0.7106,0.3709-1.2898-0.6072-1.6034c-0.6144-0.197-1.3532-0.5112-1.0596-1.4638
	c0.2059-0.1543,0.4337-0.2564,0.6845-0.3116c1.0358-0.1624,2.1913,0.4838,3.2311-0.5612c-0.6074-1.0234-1.719-1.2397-2.6789-1.6195
	c-7.7966-3.0842-15.3261-6.7648-22.9407-10.2547c-0.9829-0.4504-2.0278-0.8588-2.652-1.8493
	c-0.1474-0.408-0.136-0.7906,0.1787-1.124c9.3303,4.1906,18.4742,8.7968,28.0003,12.5512c0.5757,0.2269,1.1809,0.4686,1.6528,0.851
	c1.2141,0.9837,2.028,1.9874,0.4171,3.4565C483.0118,570.1852,482.2216,572.2784,480.287,573.2871z"/>
<path style="fill:#A68F78;" d="M493.448,649.1655c-1.486-0.9172-2.3416-2.0372-1.6707-3.9384
	c0.6943-1.9677-1.6585-3.0599-1.5787-4.8944C492.8541,642.6982,493.8351,645.6801,493.448,649.1655z"/>
<path style="fill:#010101;" d="M454.4574,551.944c0.0026,0.3041,0.0053,0.6084,0.0079,0.9125
	c-1.9105,0.1063-3.27-0.8514-4.3888-2.2737c0.001-0.2792,0.002-0.5585,0.003-0.8378
	C451.5387,550.478,452.998,551.2111,454.4574,551.944z"/>
<path style="fill:#010101;" d="M369.8387,552.8565c0.0028-0.3041,0.0056-0.6084,0.0084-0.9125
	c1.4593-0.733,2.9185-1.466,4.3779-2.199c0.0013,0.2791,0.0025,0.5583,0.0038,0.8374
	C373.1098,552.0056,371.7498,552.9633,369.8387,552.8565z"/>
<path style="fill:#F99E44;" d="M426.6507,551.474c-1.8282,7.2587,2.6736,11.6552,6.8158,15.799
	c15.7529,15.7589,28.3642,33.7602,39.3614,53.0493c5.229,9.1716,9.3938,18.7188,12.6572,28.7169
	c0.6893,2.1119-0.7131,2.4415-2.0588,2.6324c-4.4158,0.6263-8.7471,0.1567-12.9853-1.2715
	c-3.8236-1.2884-7.5547-2.8158-11.1221-4.6736c-9.8648-5.137-20.7058-7.7181-30.9063-11.966
	c-0.3367-0.1402-0.666-0.3088-1.0147-0.4081c-10.2927-2.9303-15.4775-10.4315-18.1249-20.2207
	c-4.2857-15.8475-10.9867-30.5617-20.629-43.8917c-0.2115-0.2924-0.4524-0.569-0.6254-0.8829
	c-1.7493-3.174-1.5724-3.2209,1.6881-4.799c10.3283-4.9987,21.6561-6.8829,32.3905-10.6017
	C423.458,552.4849,424.8362,552.0631,426.6507,551.474z"/>
<path style="fill:#F99E44;" d="M408.3528,626.0942c-1.8789,3.1599-4.9623,4.5923-8.1819,5.9898
	c-9.7247,4.2214-20.0464,6.833-29.7341,11.1309c-5.429,2.4085-10.6933,5.1876-16.3387,7.1052
	c-4.3195,1.4672-8.7544,1.8953-13.2553,1.4455c-2.8671-0.2864-3.0738-1.0159-2.1005-3.728
	c2.0987-5.8484,3.8669-11.7788,6.7125-17.3854c3.3147-6.531,7.5829-12.4625,11.0086-18.9096
	c4.8278-9.086,11.505-16.9483,17.3094-25.3856c2.9727-4.321,6.8499-8.0196,10.3182-11.9995
	c1.1954-0.1896,1.5891,0.8087,2.0201,1.5275c4.2759,7.1312,9.3662,13.7729,12.7743,21.4303c0.9744,2.1895,1.8013,4.3994,2.3116,6.73
	c1.5698,7.1692,3.5175,14.2083,7.0105,20.7264C408.429,625.1846,408.5092,625.631,408.3528,626.0942z"/>
<path style="fill:#D38B2C;" d="M342.9697,570.9421c-0.2754-0.6191-0.5507-1.2382-0.843-1.8952
	c1.0989-0.2276,2.275-0.2436,3.0375-1.2386c1.2794-1.0728,2.6741-1.9074,4.3678-2.127c1.9111-0.4831,3.5773-1.47,5.2039-2.5364
	c0.7073-0.4244,1.5052-0.6979,2.1159-1.2826c0.905-1.2634,2.4207-1.4675,3.6733-2.1317c1.161-0.3749,2.2245-0.9373,3.2038-1.6641
	c1.9712-1.0574,4.0588-1.8997,5.8886-3.215c1.1792-0.6758,2.2607-1.5049,3.4255-2.2048c0.9237-0.3322,1.8041-0.8321,2.8364-0.7612
	c2.0938,0.2175,4.214-2.4315,5.8257-0.9252c1.3122,1.2263,1.3611,3.8049,1.9702,5.7839c0.4772,1.2979-0.5322,1.5146-1.3546,1.9171
	c-4.7936,2.3462-5.5208,4.5748-3.0965,9.42c0.3688,0.7372,0.7857,1.4566,0.7414,2.3253c-0.3735,1.1606-1.1929,2.0444-1.95,2.937
	c-8.1905,9.6562-15.044,20.2784-22.2287,30.6622c-0.3728,0.5388-0.398,1.2003-0.8109,1.6936
	c-2.6973,3.4053-3.9323,7.7115-6.8861,11.8528c-0.0699-1.9496,0.7911-3.0185,0.2534-4.1523
	c0.4288-0.8492,0.5908-1.7688,0.7065-2.7057c0.0434-0.261,0.1087-0.5115,0.1876-0.7626c0.5085-2.6322,1.0638-5.2577,0.2115-7.9241
	c-0.3076-3.1968-0.1843-6.4019-0.1231-9.5981c0.0549-2.8666-0.1775-5.6422-1.3495-8.2821
	c-0.0464-0.9079,0.9322-1.8068,0.0327-2.7342c-0.6346-1.2361-0.7513-2.6085-1.0529-3.9305
	c-0.2824-0.5657,0.1252-1.3406-0.554-1.7873c-0.5184-0.2765-0.7021-0.8036-0.9727-1.2703c-0.088-0.2223-0.1395-0.4492-0.161-0.6856
	C345.1129,572.2842,343.772,571.8354,342.9697,570.9421z"/>
<path style="fill:#D38B2C;" d="M478.5912,567.8079c0.7642,0.9827,1.9176,1.0297,3.0682,1.2272
	c-0.322,0.6443-0.6221,1.2447-0.9222,1.8452c-0.5486,1.1185-2.2237,1.3533-2.2482,2.8779
	c-0.0172,0.2278-0.0743,0.4462-0.1614,0.6556c-0.2733,0.4763-0.4854,1.0007-0.9736,1.3175
	c-0.6075,0.6619-0.3566,1.5666-0.6507,2.3229c-1.5895,7.9269-1.8224,15.9504-1.8434,23.989
	c-0.7616,2.1511-0.2683,4.3589-0.278,6.5421c-1.465,1.3902-1.8802-0.3049-2.3682-0.9676c-3.6302-4.9299-7.2546-9.89-10.4047-15.1271
	c-4.7768-7.9417-10.3864-15.2376-16.3451-22.2791c-1.5158-1.7912-3.228-3.4631-4.9164-5.1225
	c-0.8284-0.8141-1.5521-1.5764-0.9837-2.8353c0.3585-3.6589,1.7112-7.0685,2.6051-10.5938
	c0.3803-1.4997,1.0191-1.2623,2.1031-0.9521c1.3823,0.3954,2.6482,1.2229,4.153,1.178c1.0287-0.0656,1.9035,0.4371,2.8281,0.7608
	c1.1617,0.7073,2.2598,1.5142,3.4363,2.2001c1.8203,1.3496,3.9403,2.1511,5.9098,3.2269c0.9953,0.746,2.076,1.3208,3.2898,1.6284
	c1.3097,0.4653,2.657,0.8654,3.5894,2.0039c0.5644,0.6724,1.3625,1.0056,2.0986,1.4293c1.6771,1.0953,3.367,2.1584,5.4138,2.4319
	C476.3266,566.0958,477.5008,566.8848,478.5912,567.8079z"/>
<path style="fill:#B26F29;" d="M408.3528,626.0942c-3.7944-5.4308-5.5353-11.7414-6.9088-18.0209
	c-1.3267-6.0653-3.3749-11.7306-6.5475-16.9691c-3.4401-5.6802-7.1902-11.1726-10.8053-16.7468
	c0.7423-1.272,1.385-1.6741,2.6158-0.2876c5.4792,6.1729,9.7496,13.0668,13.296,20.5183c3.2752,6.882,4.1757,14.5075,7.2439,21.4243
	c0.7012,1.5806,1.1143,3.3234,2.0108,4.7748C410.5937,622.9504,410.4276,624.6259,408.3528,626.0942z"/>
<path style="fill:#9F6227;" d="M439.5638,562.2537c0.5377,2.6104,2.9061,3.8419,4.4779,5.5908
	c4.6226,5.1434,9.1707,10.327,13.0071,16.0881c5.5937,8.4,10.7926,17.0687,17.0973,24.9815
	c0.4535,0.1896,0.5723,0.6256,0.7555,1.0159c0.0881,0.1997,0.1387,0.4099,0.162,0.6268c-0.8468,2.6449,0.9308,4.8794,1.2732,8.0322
	c-1.552-2.4526-2.9099-4.2581-3.8492-6.3768c-1.5156-3.4186-3.4202-6.5848-5.8152-9.5139
	c-2.0042-2.4511-3.6242-5.2353-5.2628-7.9631c-4.4691-7.4395-10.6099-13.5918-15.7053-20.5486
	c-1.7682-2.4142-3.5633-4.8211-5.7109-6.9528C438.5533,565.8044,438.6407,564.0079,439.5638,562.2537z"/>
<path style="fill:#FDF3EE;" d="M360.6439,559.8378c-0.6172,1.5138-3.0252,0.6423-3.3641,2.5267
	c-1.1163,0.3353-2.241,0.6508-3.2037,1.351c-0.8348,0.3766-1.6491,0.7949-2.464,1.2132c-2.6367,0.3124-4.5835,2.3763-7.1654,2.8277
	c-0.5947,0.1664-1.1805,0.3857-1.786,0.4879c-1.1782,0.1988-2.3973-0.3159-2.7293-1.2365c-0.3802-1.0538,1.0265-1.2133,1.754-1.5067
	c7.8906-3.1817,15.7674-6.3904,23.3618-10.2468c1.5925-0.8086,3.1943-1.5989,4.7916-2.3978
	c1.4631-0.7581,2.9263-1.5161,4.3897-2.2741c2.5361-0.8898,4.7778-2.5352,7.8551-3.1268c-1.0512,3.3344-4.337,2.5001-6.1273,3.9643
	c-0.8384,0.5222-1.6969,1.0017-2.664,1.2488c-1.1814,0.6548-2.1992,1.5661-3.4075,2.1787
	c-2.0464,1.3568-4.4286,2.1147-6.4051,3.5948C362.5824,559.0036,361.7966,559.7938,360.6439,559.8378z"/>
<path style="fill:#FDF4EE;" d="M467.1051,562.2119c-0.5883-1.5925-2.5872-1.0981-3.4276-2.3177
	c-1.1193-0.136-1.9417-0.8582-2.8376-1.4371c-1.9335-1.5637-4.4663-2.0609-6.4093-3.6062c-1.211-0.6135-2.2355-1.519-3.4154-2.1812
	c-0.9681-0.2479-1.8281-0.7264-2.667-1.2498c-1.4895-0.5728-2.9694-1.1724-4.4719-1.7086c-0.9969-0.3558-1.7092-0.8262-1.2901-2.29
	c2.5403,1.0722,5.0154,2.117,7.4904,3.1617c1.4627,0.7579,2.9256,1.5158,4.3885,2.2737
	c7.8889,4.0221,15.9117,7.7549,24.0881,11.1548c0.9908,0.412,2.087,0.6339,2.9857,1.1859c0.8451,0.5192,2.7267,0.7542,2.2766,1.7287
	c-0.52,1.126-2.1491,1.8137-3.7117,0.9541c-0.2211-0.1216-0.5284-0.0865-0.7959-0.1239c-2.5343-0.1862-4.1004-2.6355-6.6299-2.8333
	c-0.8086-0.4191-1.6211-0.8308-2.4521-1.205C469.3157,562.9465,468.0724,562.8649,467.1051,562.2119z"/>
<path style="fill:#9F6227;" d="M354.9761,605.6995c0.0074-1.6469,0.8927-2.9415,1.7738-4.2034
	c5.9183-8.4761,11.8163-16.9672,17.8322-25.3739c1.4706-2.0549,3.355-3.8136,5.0491-5.7086
	c0.541,0.2334,0.6079,0.7078,0.6161,1.2121c-2.9171,3.9321-5.555,8.1165-8.8213,11.7332
	c-4.1839,4.6327-7.5963,9.7508-10.8345,15.0162C358.9633,601.0227,357.1109,603.4597,354.9761,605.6995z"/>
<path style="fill:#F9B6A6;" d="M464.4998,603.7809c2.7415,1.9102,4.2715,4.8035,5.742,7.6586
	c3.0044,5.8334,6.6041,11.3116,9.8213,17.012c1.9793,3.5071,3.4886,7.2796,5.2094,10.9327
	c0.7642,1.6224-1.1176,1.0972-1.3264,1.8492C478.972,627.9214,471.4367,616.0515,464.4998,603.7809z"/>
<path style="fill:#FDF1EC;" d="M347.4133,594.7416c-0.2317-4.3989-0.4633-8.7979-0.695-13.1968
	c-0.2401-0.7347-0.3255-1.3419,0.7905-0.9609c1.7526,5.8234,2.7634,11.7362,2.2826,17.8531
	c-0.1064,1.3537-0.0981,2.7306,0.0539,4.0944c0.4153,2.7347,0.2271,5.4393-0.392,8.123l0.0241-0.0454
	c-0.7784,0.7953-0.3365,2.2537-1.5326,2.8221c-0.1116,0.1263-0.1941,0.2694-0.2474,0.4293
	c-1.1649-0.3777-0.7107-1.3985-0.6014-2.0275C348.0844,606.1455,347.5119,600.4409,347.4133,594.7416z"/>
<path style="fill:#F9B6A7;" d="M443.0262,576.0685c-1.7088-1.8455-3.4176-3.691-5.1264-5.5366
	c-0.4637-1.1009-1.592-1.704-2.0842-2.7837c-2.9029-2.9266-5.7855-5.8696-7.8751-9.4733c-1.0527-1.8154-0.2223-3.7534-0.372-5.6276
	c-0.0427-0.5342,0.2734-0.8258,0.8375-0.8126c0.6583,0.0154,1.0253,0.4659,1.1773,0.9827c0.3027,1.0284,0.5964,2.0815,0.698,3.1432
	c0.4976,5.2023,4.2556,8.3873,7.4871,11.7773c2.3784,2.4951,3.8647,5.4788,5.7057,8.2748
	C443.3516,576.2462,443.2023,576.2648,443.0262,576.0685z"/>
<path style="fill:#F9B6A6;" d="M492.3421,654.8185c1.2224-0.0811,1.7967-0.2744,2.2641-0.1274
	c8.5162,2.6777,17.2754,3.3419,26.1335,3.2546c0.9401-0.0093,2.3524-0.2908,2.2609,1.1556
	c-0.0847,1.3398-1.4767,1.0567-2.4316,1.0229c-5.3182-0.1884-10.5499-1.0309-15.8008-1.8708
	C500.7266,657.6071,496.6136,657.5006,492.3421,654.8185z"/>
<path style="fill:#FDEFEA;" d="M477.0381,581.5451c-0.6971,7.5206-0.7162,15.061-0.6631,22.6036
	c0.0203,2.8897-0.1602,5.7914,0.5328,8.6393c-0.1977,0.3579-0.2766,0.9224-0.9095,0.523c-0.7379-0.7731-0.4727-1.8871-0.9348-2.7541
	c0.0002-0.0001-0.0588,0.0119-0.0588,0.0119c-0.9336-2.6219-0.8769-5.312-0.5537-8.0199c0.1893-2.9165,0.1945-5.8455,0.0448-8.7536
	c-0.2327-4.5212,0.8731-8.825,1.7347-13.18C477.3739,580.1656,477.2645,580.8046,477.0381,581.5451z"/>
<path style="fill:#F9B6A6;" d="M331.507,654.8322c-3.018,2.0181-5.6826,2.6797-8.3762,3.0724
	c-5.6061,0.8171-11.2255,1.5847-16.8636,2.115c-1.6334,0.1536-4.6367,1.1163-4.7785-0.8604
	c-0.1695-2.3621,2.7281-1.1125,4.1999-1.1571c8.1113-0.2454,16.1443-0.8945,23.948-3.3149
	C329.9486,654.5905,330.3343,654.7314,331.507,654.8322z"/>
<path style="fill:#F9B6A5;" d="M352.3137,616.0517c-1.0806,2.8303-2.7961,5.2408-4.3481,7.7657
	c-3.1756,5.1661-5.6873,10.722-7.7652,16.4448c-0.192,0.5288,0.0363,1.5623-1.0002,0.9415
	c-0.5916-0.3544-1.5754-0.7698-0.9931-1.8906c1.9777-3.8066,3.834-7.6819,5.9663-11.3991c0.7077-1.2338,1.5288-2.4092,2.057-3.7383
	C347.5306,620.9042,350.3523,618.8191,352.3137,616.0517z"/>
<path style="fill:#9F6227;" d="M380.2473,571.6257c-0.477-0.2652-0.5133-0.7544-0.6154-1.2113
	c-0.3145-0.6541-0.5995-1.3231-0.9467-1.9581c-2.9171-5.3345-1.7139-8.5862,3.9907-10.591c0.6281-0.2208,0.856-0.5778,0.9991-1.1208
	c1.0417,1.7455,0.4235,2.8095-1.282,3.706c-3.9857,2.095-4.1792,2.4406-1.5873,5.7944
	C382.5343,568.4816,382.2902,570.0229,380.2473,571.6257z"/>
<path style="fill:#F9B6A6;" d="M325.4694,660.3138c-11.7969,3.3418-20.8857,4.0575-24.0605,1.8752
	c1.8607-1.0298,8.8743-2.0421,12.0389-1.4393C317.552,661.5314,321.4865,659.2534,325.4694,660.3138z"/>
<path style="fill:#F9B6A6;" d="M523.2954,661.8269c-1.3777,1.4658-2.6522,1.6317-4.0517,1.6212
	c-6.9523-0.0524-13.6286-1.9139-20.4124-3.204C506.8401,661.3728,515.0088,659.9456,523.2954,661.8269z"/>
<path style="fill:#D38B2C;" d="M397.5652,547.629c3.396,0.5065,6.6869,1.1261,9.8222,2.5219
	c1.1709,0.5214,0.9529,0.9617,0.2106,1.4579C404.3897,553.7537,398.4617,551.4486,397.5652,547.629z"/>
<path style="fill:#F8B6A3;" d="M450.4859,583.7749c5.4112,5.2849,9.2337,11.6709,12.5363,18.4232
	c-4.3206-5.9688-8.6413-11.9376-12.9619-17.9062C449.8097,583.7963,450.1133,583.7571,450.4859,583.7749z"/>
<path style="fill:#F9EDE1;" d="M416.6171,551.2241c3.4406-1.5136,6.4687-3.0237,9.9475-3.5548
	C425.9935,551.2939,421.254,553.1091,416.6171,551.2241z"/>
<path style="fill:#F0B593;" d="M411.0771,554.4662c-4.2992,2.1367-9.1004,2.7328-13.6091,4.3262
	c3.9417-3.2573,8.9024-4.1447,13.5161-5.8218c0.2078,0.1274,0.3426,0.3105,0.4156,0.5416
	C411.4464,553.8821,411.359,554.2072,411.0771,554.4662z"/>
<path style="fill:#B2BD38;" d="M365.4856,594.5782c1.1019-2.8968,3.3752-4.9984,5.1331-7.442
	c1.2006-1.6689,2.7655-3.0756,4.1675-4.5996c0.256-0.1539,0.4423-0.0932,0.5591,0.1816c-2.6929,3.6575-5.3857,7.3152-8.0786,10.9728
	C366.6053,593.851,366.5192,595.1661,365.4856,594.5782z"/>
<path style="fill:#E1BC83;" d="M347.4133,594.7416c0.6852,5.4086,0.3932,10.8312,0.1042,16.2416
	c-0.0535,1.0013-0.3003,1.9376,0.18,2.877c-0.3714,1.1423-0.7428,2.2846-1.1141,3.4268c-0.1227,0.4114-0.3415,0.6608-0.8138,0.4835
	c1.7538-6.5893,1.5731-13.3234,1.5144-20.0502C347.2754,596.7279,347.3677,595.7346,347.4133,594.7416z"/>
<path style="fill:#F9B6A3;" d="M359.8354,603.8002c-2.1575,3.6901-3.9409,7.5759-6.6066,11.0616
	C353.241,611.8966,356.2759,606.6802,359.8354,603.8002z"/>
<path style="fill:#D38B2C;" d="M397.516,550.8148c1.1877,0.281,1.3802,1.869,2.7443,1.6127
	c0.7768-0.146,1.4489,0.1447,1.4225,1.1483c-0.0426,1.6122-1.5669,0.781-2.2721,1.3502c-0.4973,0.4013-1.4261,0.4658-1.4321-0.4275
	C397.9703,553.2835,397.0991,552.1589,397.516,550.8148z"/>
<path style="fill:#D38D2D;" d="M396.7579,553.2913c0.1228,1.2953-0.0189,2.4052-1.6993,2.4063
	c-0.6312,0.0005-1.0383-0.1797-0.758-0.9554c0.4631-1.2816,0.0482-3.2547,1.6716-3.6039
	C397.0024,550.9167,396.6774,552.4709,396.7579,553.2913z"/>
<path style="fill:#F5B69D;" d="M365.4856,594.5782c0.7059-0.0714,0.8855-1.1991,1.7814-0.8877
	c-1.5683,2.9714-3.8906,5.3865-5.9786,7.9965C362.1169,598.9792,363.862,596.8139,365.4856,594.5782z"/>
<path style="fill:#F8B49E;" d="M450.4859,583.7749c-0.1418,0.1724-0.2837,0.3447-0.4256,0.517
	c-2.345-2.7415-4.69-5.483-7.0346-8.2239c0.1475-0.0381,0.2969-0.0566,0.4486-0.055
	C446.3657,578.0992,448.3608,580.9958,450.4859,583.7749z"/>
<path style="fill:#FABF96;" d="M411.0576,553.5156c-0.0242-0.1818-0.0484-0.3637-0.0731-0.5453
	c1.7314-0.6996,3.4634-1.3997,5.2198-2.1095c0.7498,1.5136-4.0855,0.7631-0.9092,3.0598c-0.719,0.0929-1.3375,0.1728-1.9559,0.2527
	C412.5712,553.9799,411.691,554.1761,411.0576,553.5156z"/>
<path style="fill:#F9B6A6;" d="M375.3452,582.7183c-0.1863-0.0605-0.3727-0.1208-0.559-0.1815
	c1.5367-2.774,4.2252-4.5745,6.0214-7.129c0.3718,0.3882,0.3218,0.7866,0.0291,1.191
	C378.9158,578.5575,377.5258,580.9928,375.3452,582.7183z"/>
<path style="fill:#775421;" d="M385.199,562.1379c0.4632-0.2713,0.9199-0.5543,1.391-0.8111
	c0.7825-0.4265,1.4676-0.6371,1.9607,0.4624c0.4978,1.1102-0.0022,1.4616-0.9743,1.6647c-0.4335,0.0906-0.838,0.3201-1.2556,0.4866
	C385.645,563.5275,385.1453,563.0049,385.199,562.1379z"/>
<path style="fill:#F2BBAA;" d="M347.205,580.3941c-0.1621,0.3838-0.3242,0.7676-0.4865,1.151
	c-0.8059-1.9227-0.6823-4.0136-1.089-6.0084c-0.2772-0.4246-0.3023-0.8311,0.0866-1.2079c0.3061,0.3859,0.6121,0.7717,0.9182,1.1575
	c0.7295,0.6275,0.1425,1.7526,0.8962,2.3714C347.4344,578.705,347.9525,579.6309,347.205,580.3941z"/>
<path style="fill:#F2BBAA;" d="M477.0381,581.5451c-0.1632-0.3837-0.3264-0.7675-0.4897-1.1512
	c-0.7448-0.7642-0.2285-1.6895-0.3245-2.5364c0.7511-0.619,0.1697-1.7429,0.897-2.3715c0.306-0.3858,0.612-0.7716,0.918-1.1574
	c0.3889,0.377,0.3636,0.7835,0.0864,1.2081C477.2144,577.4402,478.0676,579.6631,477.0381,581.5451z"/>
<path style="fill:#F2B396;" d="M337.1051,648.3502c-0.4688-0.2866-1.0378-0.6398-0.7263-1.041
	c0.7675-0.9886,0.5982-2.7092,2.2121-2.9952c0.3523-0.0625,0.5075,0.4586,0.2982,0.8042
	C338.2524,646.1693,338.5039,647.746,337.1051,648.3502z"/>
<path style="fill:#FAB49C;" d="M380.8366,576.5988c-0.0097-0.3969-0.0194-0.7939-0.0291-1.1909
	c1.0506-1.4966,2.5051-2.736,3.0618-5.1464C385.003,573.8372,381.9602,574.7372,380.8366,576.5988z"/>
<path style="fill:#AD9374;" d="M475.9983,613.311c0.3032-0.1743,0.6063-0.3484,0.9095-0.5229
	c0.3826,1.5005,0.7651,3.0012,1.1477,4.5018c-0.4908,0.4507,0.0366,1.2399-0.5511,1.6584
	C477.0024,617.0693,476.5003,615.1902,475.9983,613.311z"/>
<path style="fill:#F2B396;" d="M484.9261,644.5187c0.1255,0.0239,0.2674,0.0394,0.4022,0.0787
	c1.5273,0.4452,1.5429,1.9364,2.0533,3.0669c0.0451,0.0998-0.5837,0.709-0.717,0.6524c-1.2314-0.5238-1.2591-1.7645-1.5844-2.8374
	C484.9844,645.1635,484.6286,644.9167,484.9261,644.5187z"/>
<path style="fill:#E5B080;" d="M392.8012,560.0316c0.0889-0.5925,0.5064-0.8708,0.9771-1.1811
	c0.7523-0.496,1.7004-1.3339,2.3051-0.3923c0.8253,1.2852-1.008,1.028-1.4017,1.6868
	C394.0341,560.4509,393.394,560.6343,392.8012,560.0316z"/>
<path style="fill:#FDF6F2;" d="M478.1253,575.5367c-0.0287-0.4028-0.0575-0.8055-0.0863-1.2081
	c0.0616-0.1466,0.06-0.2925-0.0052-0.4376c0.2419-1.3097,0.7382-2.2609,2.3367-1.6583c-0.1494,0.3536-0.2988,0.7072-0.4482,1.0607
	C479.3232,574.0413,478.7243,574.7889,478.1253,575.5367z"/>
<path style="fill:#603B15;" d="M347.9449,613.4311c1.1052-0.6178-0.6434-2.7861,1.5326-2.8221
	c-0.2776,0.971,0.9539,2.5547-1.1335,2.7911C348.2115,613.4218,348.0786,613.4321,347.9449,613.4311z"/>
<path style="fill:#ABB337;" d="M345.7696,617.7706c0.2712-0.1614,0.5424-0.3227,0.8138-0.4837
	c0.3358,1.2096-0.4238,2.1378-0.6637,3.3743C344.3694,619.5573,345.8954,618.6631,345.7696,617.7706z"/>
<path style="fill:#EAB293;" d="M477.5044,618.9484c0.1618-0.5601-0.235-1.3059,0.5511-1.6584
	c-0.1786,1.5823,1.0839,3.0182,0.397,4.8438C477.9525,621.0192,477.4117,620.0923,477.5044,618.9484z"/>
<path style="fill:#AAA136;" d="M392.8012,560.0316c0.6266,0.0378,1.2531,0.0757,1.8801,0.1135
	c-0.845,1.141-2.2687,1.1281-3.3975,1.7037c-0.2414-0.2309-0.2744-0.4885-0.0991-0.7728
	C391.523,560.4173,392.2498,560.3603,392.8012,560.0316z"/>
<path style="fill:#FDF6F2;" d="M345.7161,574.3288c-0.0287,0.4027-0.0575,0.8054-0.0864,1.208
	c-0.5992-0.7479-1.1981-1.4957-1.797-2.2435c-0.1246-0.3596-0.2493-0.7192-0.374-1.0789c1.6052-0.5902,2.0451,0.3927,2.2623,1.6764
	C345.656,574.0361,345.6544,574.1821,345.7161,574.3288z"/>
<path style="fill:#83531D;" d="M448.3482,551.4198c1.0955-0.0626,1.9399,0.5402,2.8147,1.0625
	c0.1497,0.1404,0.1953,0.2757,0.1368,0.4059c-0.0573,0.1277-0.1125,0.1916-0.1659,0.1916c-1.034-0.1011-2.0544-0.2332-2.7088-1.1946
	C448.3755,551.7344,448.3499,551.579,448.3482,551.4198z"/>
<path style="fill:#83531D;" d="M373.1414,552.4826c0.8745-0.5221,1.7188-1.1243,2.8144-1.0625
	c-0.0012,0.1588-0.0268,0.3136-0.0763,0.465c-0.655,0.961-1.6746,1.0939-2.7085,1.1944c-0.1628-0.1249-0.2213-0.2549-0.1759-0.3902
	C373.0414,552.5515,373.09,552.4826,373.1414,552.4826z"/>
<path style="fill:#AEAB37;" d="M435.8156,567.7482c0.9413,0.7433,2.078,1.3404,2.0842,2.7839
	C437.1,569.6827,435.7085,569.2767,435.8156,567.7482z"/>
<path style="fill:#FAB6A1;" d="M329.9495,659.9135c0.9777-0.0493,1.6563-1.2524,2.9138-0.6644
	C332.1132,660.6182,330.9659,660.0134,329.9495,659.9135z"/>
<path style="fill:#FFF3EE;" d="M411.0576,553.5156c0.8304-0.0231,1.7594-0.3888,2.2817,0.6577
	c-0.6687,0.7568-1.481,0.4037-2.2621,0.293C411.0706,554.1494,411.0641,553.8325,411.0576,553.5156z"/>
<path style="fill:#B0B536;" d="M385.199,562.1379c0.651,0.4283,0.8601,1.1318,1.1217,1.8026
	C384.8029,564.0518,383.9843,563.7278,385.199,562.1379z"/>
<path style="fill:#FAB6A1;" d="M491.0763,659.2121c1.0785-0.6505,1.6711,0.8547,2.6908,0.4651
	C492.3549,660.0411,492.3549,660.0411,491.0763,659.2121z"/>
<path style="fill:#9C9133;" d="M391.1847,561.076c0.033,0.2572,0.066,0.5145,0.0991,0.7722
	c-0.4904,0.655-1.2961,0.5828-1.4229,0.0024C389.6655,560.9557,390.7047,561.3126,391.1847,561.076z"/>
<path style="fill:#E7B089;" d="M323.3428,659.527c-1.1629,0-1.7632,0-2.3635,0
	C321.5748,658.9963,322.1995,658.8644,323.3428,659.527z"/>
<path style="fill:#E7B089;" d="M501.3403,659.2961c0.7261-0.4202,1.3954-0.3956,2.1682-0.0395
	C502.7542,659.8005,502.0841,659.7409,501.3403,659.2961z"/>
<path style="fill:#70461A;" d="M344.4468,567.7563c2.3323-1.1565,4.3735-2.9556,7.1091-3.222
	c-0.0885,1.3186-1.2155,1.1504-2.0352,1.422c-1.6078,0.2518-2.4954,2.1998-4.3572,1.8517
	C344.9251,567.791,344.6859,567.7737,344.4468,567.7563z"/>
<path style="fill:#6C4218;" d="M345.7211,573.8908c-0.6367-0.7173-0.9184-1.9138-2.2623-1.6766
	c-0.1631-0.4236-0.3262-0.8474-0.4892-1.2716C344.7001,571.1659,346.066,571.7298,345.7211,573.8908z"/>
<path style="fill:#70461A;" d="M472.7468,564.5326c2.563,0.3087,4.2703,2.3598,6.561,3.2235
	c-0.2382,0.0172-0.4766,0.0343-0.7158,0.0516c-1.7975,0.4797-2.447-1.4678-3.8505-1.8202
	C473.9671,565.6529,472.8059,565.8486,472.7468,564.5326z"/>
<path style="fill:#6C4218;" d="M480.3705,572.2327c-1.3975-0.3202-1.6806,0.9313-2.3365,1.6577
	c-0.3891-2.1624,1.0731-2.6613,2.7035-3.0095C480.8158,571.3856,480.8864,571.8887,480.3705,572.2327z"/>
<path style="fill:#5B3714;" d="M347.205,580.3941c0.031-0.8932,0.062-1.7863,0.093-2.6795
	c-0.1461-0.129-0.1936-0.2569-0.1429-0.3834c0.0504-0.1259,0.1004-0.189,0.15-0.189c0.8035,1.3422,0.8004,2.9014,1.1725,4.3596
	c0.3847,0.5695,0.388,1.1436,0.0199,1.7218c2.8194,6.2032,0.9561,12.8248,1.7156,19.2122c-0.215,0.155-0.4149,0.1375-0.5995-0.0527
	C349.9104,594.9329,349.0774,587.6065,347.205,580.3941z"/>
<path style="fill:#885821;" d="M363.1685,558.4164c1.8722-1.8599,4.2396-2.8719,6.6173-3.8662
	c0.276,0.2128,0.3118,0.4603,0.1077,0.7427c-1.7389,1.5279-3.7973,2.462-5.9574,3.207
	C363.6518,558.7335,363.3959,558.7057,363.1685,558.4164z"/>
<path style="fill:#80511D;" d="M349.6136,602.3831c0.1988,0.0173,0.3976,0.0345,0.5979,0.0522
	c0.9528,2.8513,0.4597,5.5686-0.7581,8.2191C349.5069,607.8973,349.5602,605.1401,349.6136,602.3831z"/>
<path style="fill:#6E4419;" d="M349.5207,565.9563c0.5896-0.6042,1.6293-0.564,2.0373-1.4235
	c0.5922-0.7849,1.4698-0.9904,2.3675-1.155c0.4333-0.3051,0.8502-0.3204,1.2442,0.0703
	C353.4979,564.76,351.844,566.1124,349.5207,565.9563z"/>
<path style="fill:#87561F;" d="M369.8935,555.2929c-0.0357-0.2477-0.0714-0.4954-0.1074-0.7429
	c1.0274-0.8364,2.0726-1.6446,3.3553-2.0674c0.0098,0.1982,0.0195,0.3964,0.0294,0.5958
	C372.23,554.0417,371.1907,554.8584,369.8935,555.2929z"/>
<path style="fill:#83531E;" d="M363.1685,558.4164c0.255,0.0275,0.51,0.0552,0.7663,0.0831
	c-0.9138,0.8962-1.726,2.0444-3.2915,1.3411C361.4983,559.3868,362.1185,558.5198,363.1685,558.4164z"/>
<path style="fill:#7F511C;" d="M355.1697,563.4481c-0.4149-0.0233-0.8297-0.0466-1.2444-0.07
	c1.0494-0.5643,2.0473-1.2985,3.3538-1.0136C356.7375,563.0394,356.0323,563.3972,355.1697,563.4481z"/>
<path style="fill:#AE712A;" d="M348.4976,583.2236c-0.0067-0.5739-0.0135-1.1478-0.0201-1.7217
	c0.5339,0.1191,1.0237,0.2866,0.9478,0.9853C349.3654,583.038,348.9207,583.1213,348.4976,583.2236z"/>
<path style="fill:#694218;" d="M347.3051,577.1422c-0.0024,0.1908-0.0048,0.3815-0.0072,0.5724
	c-0.8758-0.5475-0.3826-1.5027-0.6634-2.2278C348.062,575.5503,347.0011,576.6229,347.3051,577.1422z"/>
<path style="fill:#5A3714;" d="M476.4561,577.715c0.0306,0.8935,0.0613,1.787,0.0922,2.6796
	c-1.9419,7.2167-1.6938,14.6195-1.8591,21.9873c-0.183,0.1872-0.3805,0.2131-0.5945,0.0531
	c0.05-3.6597-0.0004-7.3242,0.1746-10.9778c0.2317-4.8369,0.795-9.6413,2.1819-14.3106c0.1479,0.1251,0.1979,0.2509,0.1502,0.3777
	C476.5535,577.6515,476.5052,577.715,476.4561,577.715z"/>
<path style="fill:#895824;" d="M454.5266,554.5527c2.2687,1.1769,4.8004,1.9037,6.6126,3.8625
	c-0.2293,0.2905-0.4869,0.3184-0.7729,0.0834c-2.1592-0.7439-4.2156-1.6789-5.9545-3.2041
	C454.2065,555.0096,454.2449,554.7623,454.5266,554.5527z"/>
<path style="fill:#80511D;" d="M474.0947,602.4351c0.1981-0.0175,0.3963-0.035,0.5945-0.0529
	c0.1046,2.7285,0.2091,5.4573,0.3146,8.1863c-0.9888-0.186-0.6961-1.0375-0.8572-1.6542
	C473.7874,606.7571,473.0786,604.603,474.0947,602.4351z"/>
<path style="fill:#6E4419;" d="M472.7468,564.5326c0.3873,0.8661,1.4659,0.7842,1.995,1.4553
	c-2.2838,0.0685-3.9555-1.2141-5.6074-2.5405c0.3945-0.3896,0.8115-0.3749,1.2448-0.0697
	C471.2762,563.5416,472.1531,563.7467,472.7468,564.5326z"/>
<path style="fill:#87561F;" d="M454.5266,554.5527c-0.0381,0.2465-0.076,0.493-0.1144,0.7406
	c-1.297-0.4359-2.3391-1.2495-3.2782-2.2146c0.0095-0.1981,0.0192-0.3972,0.0289-0.5964
	C452.4495,552.9037,453.5037,553.7027,454.5266,554.5527z"/>
<path style="fill:#83531E;" d="M460.3663,558.4986c0.2576-0.0278,0.5152-0.0556,0.7729-0.0834
	c1.0471,0.1514,1.7252,0.9342,2.5388,1.4816C462.1207,560.5045,461.2784,559.4188,460.3663,558.4986z"/>
<path style="fill:#7F511C;" d="M470.3792,563.3777c-0.4136,0.0228-0.8273,0.0457-1.2429,0.0692
	c-0.8547-0.1214-1.6828-0.284-2.0312-1.2349C468.2947,562.3243,469.4088,562.6493,470.3792,563.3777z"/>
<path style="fill:#694218;" d="M476.4561,577.715c-0.0017-0.1895-0.0034-0.379-0.005-0.5685
	c0.404-0.4802-0.9021-1.6503,0.6695-1.6601C476.8389,576.2111,477.3333,577.1677,476.4561,577.715z"/>
</svg>
