<svg version="1.1" id="Layer_1"
	 xmlns="http://www.w3.org/2000/svg"
	 x="0px" y="0px" viewBox="0 0 841.8898 1190.5511" style="enable-background:new 0 0 841.8898 1190.5511;" xml:space="preserve">
<path d="M301.1415,674.4877c-1.7805,3.8529-2.2381,8.0099-2.733,12.1472c-0.6949,5.8091-0.6319,11.6472-0.5411,17.4846
	c0.0088,0.5624,0.2996,1.5383-0.5591,1.564c-3.4555,0.1035-6.0907,2.9952-9.7621,2.7285c0.105-1.1544,2.2374-1.1248,1.5906-2.6259
	c0.3134-0.3288,0.7131-0.4479,1.1485-0.4808c1.6557-0.0704,2.2331-1.1201,2.1753-2.5735c-0.1969-4.9511,1.147-9.8027,0.9048-14.7534
	c0.1671-0.8139,0.2526-1.631,0.0897-2.4599c0.2578-1.1782-0.6115-2.6364,0.863-3.5114c0.7054,0.6105,0.6257,1.3031,0.5488,1.4727
	c0.0655-0.2665,0.0805-1.0413-0.6343-1.7227c-0.4008-1.1418-0.2107-2.2589-0.0613-3.3844
	c-1.0513,7.2003-1.9205,14.4349-2.6382,21.6902c-0.1061,1.0716-0.1259,2.2189-1.1526,2.9532
	c-0.5302,0.1635-0.915,0.1294-0.7965-0.5855c0.4371-7.7545,1.8668-15.3778,2.9105-23.0549
	c0.6776-4.9843,1.7461-9.8953,1.2412-15.1428c-0.662-6.879,1.0417-13.6628,3.2782-20.2972
	c3.0534-9.0576,8.1504-16.998,12.751-25.2414c3.2272-5.7823,6.3379-11.6536,8.6541-17.9017c1.5723-4.2411,4.453-7.5475,8.339-9.7518
	c7.2334-4.103,14.8643-7.2538,23.0282-9.0915c8.8128-1.9839,16.5652-6.2996,24.0197-11.2617
	c5.5291-3.6805,9.8864-8.8331,15.6673-12.1963c2.8735-1.6718,3.7494-1.726,4.947,1.3402
	c2.9323,7.5073,5.6339,15.1058,8.3581,22.6929c1.5741,4.3841,3.0117,8.8173,4.5108,13.2283
	c1.9863,3.4569,3.4308,7.0196,2.1667,11.1107c-0.552,0.6724-1.2559,1.0784-2.1175,1.2078c-0.8067,0.7467-1.738,1.1269-2.8339,1.3858
	c-3.2665,0.7717-6.3188,2.0951-9.0653,4.2146c1.7803-0.1509,3.4369,0.8196,5.2224,0.3743c3.2654-0.119,6.6797-1.1069,9.4707,1.5802
	c0.6401,0.6163,1.2086,0.6112,1.8445-0.0012c2.7921-2.688,6.2061-1.6966,9.4711-1.5782c1.0967,0.4698,2.1353,0.0057,3.2086-0.1472
	c1.0229-0.1457,2.1137-0.2659,2.9543,0.3613c-2.8778-2.4176-6.3977-3.8886-10.097-4.876c-1.9885-0.5308-3.8162-1.1954-5.346-2.5825
	l-0.0004,0.0021c-0.2517-3.4967,0.2657-6.8224,2.1844-9.8369c2.935-7.3846,4.8754-15.119,7.7602-22.5071
	c1.9852-5.0841,3.4907-10.3553,5.9223-15.2739c0.9572-1.9362,2.05-2.367,3.8389-1.1486c3.756,2.5582,7.3429,5.2915,10.815,8.2607
	c5.4694,4.6773,11.5529,8.4887,18.1728,11.5568c7.7417,3.588,16.2649,4.7036,23.9667,8.2061
	c5.3107,2.4152,10.9616,4.2614,15.1715,8.738c2.4612,2.6169,3.4163,5.8955,4.8447,8.9802
	c4.2079,9.0872,9.2246,17.7229,14.1631,26.4258c5.4677,9.6354,9.0293,20.0585,9.5709,31.2985
	c0.0483,1.0024,0.2349,2.1105-0.0972,2.9996c-1.3581,3.6363,0.2141,7.0883,0.5698,10.5817
	c0.8577,8.4199,2.7654,16.7056,3.4316,25.159c0.0144,0.1824,0.0194,0.3658,0.0222,0.5489c0.0144,0.9674-0.5485,1.7192-0.9784,2.5148
	c-0.0063,0.0115-0.6594-0.2395-0.6487-0.319c0.1168-0.8633-0.1725-1.6715-0.0114-2.6174c0.3766-2.21,0.2579-4.5741-0.0594-6.8193
	c-0.8127-5.7503-1.8432-11.4697-3.1098-17.1699c-0.1259,1.8469-0.2518,3.6937-0.3776,5.5406
	c0.0168,0.6285-0.0922,1.2534-0.0411,1.8827c-0.0177-0.6284,0.09-1.2549,0.015-1.8842c1.5586,1.0506,0.4803,2.6636,0.846,3.9686
	c-0.1578,0.6102,0.3156,1.2166,0.0108,1.8277c-0.2374,4.0933,0.0767,8.1468,0.8987,12.1609
	c0.1255,0.6134,0.4782,1.2847-0.5213,1.4564c-0.9774,0.1678-0.9703-0.5095-0.9742-1.1824c-0.0137-2.3627-0.3339-4.72-0.4388-7.0549
	c-0.2562-5.7037-1.8605-11.1868-2.2799-16.8371c-0.134-1.8062-1.2836-3.1865-1.6754-4.8583
	c-0.1211-0.5166-0.3009-0.8729-0.8887-0.6276c-0.5146,0.2146-0.4763,0.5324-0.3083,1.0704
	c2.743,8.7886,3.5042,17.8324,3.4085,26.9852c-0.0124,1.1792,0.0584,1.1799,1.3613,2.9394
	c-1.9305,0.021-2.5879-0.7621-2.5318-2.8365c0.2503-9.2648-0.7042-18.3925-3.8499-27.1921
	c-5.3857-0.9288-10.7538-1.8968-15.8322-4.0606c-1.9738-0.8411-3.7108-1.9344-5.1681-3.5008
	c-2.3075-2.4803-5.1689-3.976-8.4294-4.8283c-9.8722-2.5806-19.9205-3.6338-30.0973-3.386
	c-5.5705,0.1356-11.0747,1.0864-16.5898,1.8277c-1.5796,0.2123-2.8916,1.1024-4.0746,2.1389
	c-1.1693,1.0244-2.3795,1.9952-3.6182,2.9329c-2.8063,2.1244-4.2252,1.6683-5.3192-1.7201
	c-0.1099-0.3405-0.1175-0.7206-0.4222-0.9749l-0.0021-0.0025c-1.5415-2.1972-2.3403-4.7598-3.3918-7.1805
	c-3.7939-8.7338-7.9401-17.2971-12.1812-25.8168c-0.9006-1.8091-1.5802-3.7009-2.3591-5.5558
	c-0.3262-0.7768-0.8297-1.4712-1.7925-1.4847c-0.9651-0.0135-1.5012,0.6613-1.8229,1.4406
	c-4.2275,10.2403-9.7248,19.8892-13.9942,30.1116c-1.2335,2.9534-2.4327,5.9222-3.7107,8.8566
	c-0.6646,1.526-1.5429,2.9231-3.1906,3.6096c-0.8725,0.0522-1.4713-0.5328-2.1552-0.9224c-1.1516-0.9962-2.4549-1.8048-3.58-2.837
	c-2.0031-2.1602-4.5419-3.0062-7.4197-3.0257c-0.2591-0.0405-0.5118-0.1021-0.7637-0.1712
	c-0.9125-0.2917-1.8541-0.184-2.7877-0.2028c-5.3539-0.6405-10.6973-1.3401-16.1152-1.0648
	c-8.313,0.4225-16.5867,1.0707-24.6232,3.4625c-3.1254,0.9301-5.8519,2.4486-8.1816,4.7795
	c-3.713,3.7151-8.6001,4.8535-13.5043,6.0067C306.196,670.8848,303.0383,671.5635,301.1415,674.4877z"/>
<path style="fill:#909483;" d="M430.7987,660.1701c2.7315,3.9523,3.2376,4.4348,6.4476,1.0657
	c4.8791-5.1209,11.1205-4.5081,17.058-5.4963c7.5457-1.256,15.166-0.6876,22.6177,0.1842
	c6.784,0.7936,13.8363,1.4674,19.9706,5.2086c0.5309,0.3237,1.2183,0.4754,1.5757,1.0015
	c2.9017,4.2708,7.6848,5.2695,12.0568,6.9813c0.4177,0.1634,0.9165,0.4034,1.3062,0.3098c3.2786-0.7867,5.5142,2.1753,8.5184,2.3167
	c-1.1249-0.0008-2.2827-0.4299-2.7436,1.3478c-0.3998,1.5424-1.8799,1.5508-3.1956,1.1445
	c-8.377-2.5869-16.9216-4.4551-25.5356-6.0378c-0.9849-0.1809-2.0354-0.3123-2.9066-0.7578
	c-11.4805-5.8722-23.5663-3.3873-35.5014-2.5237c-3.8056,0.2753-7.5667,1.2045-11.34,1.8806
	C433.0819,667.8782,431.0647,666.2888,430.7987,660.1701z"/>
<path style="fill:#909483;" d="M383.1207,660.1339c1.0358,0.9547,2.4959,1.4143,3.2056,2.7493
	c0.0947,0.7134,0.0607,1.4063-0.3222,2.0447c-0.0942,0.0701-0.1896,0.1393-0.285,0.2085
	c-5.3594-1.7744-10.874-2.9292-16.4243-3.8495c-3.9484-0.6547-7.833-1.6527-11.8973-1.7357
	c-11.4122-0.2331-22.8302,0.2808-33.1442,5.4703c-6.1451,3.0917-13.3249,4.5018-18.181,10.0743
	c-1.5681,1.7996-3.4113,1.3837-4.9307-0.6082c-0.012-1.7981,0.0253-3.5528,2.6509-3.0936c0.0818,0.0143,0.1884-0.0219,0.2626-0.0679
	c4.5433-2.8226,10.248-2.193,14.7971-4.9792c0.9296-0.5694,2.021-1.0809,2.6418-1.9142c3.5685-4.7897,8.9747-5.7609,14.2327-7.0157
	c9.0125-2.1508,18.2086-2.2755,27.3962-2.1486c3.0103,0.0414,6.0118,0.7297,9.0173,1.1222c0.8446,0.452,1.856-0.1259,2.683,0.4349
	l-0.0558-0.027C377.7522,657.4083,380.6051,658.3485,383.1207,660.1339z"/>
<path style="fill:#919483;" d="M387.9828,664.025c3.8381-2.8915,4.2868-7.6234,6.1286-11.562
	c3.9626-8.4738,7.8533-16.9798,11.9959-25.369c0.9612-1.9467,1.8305-3.954,2.5418-6.0029c0.4226-1.2172,1.2899-1.9541,2.31-2.0084
	c1.0289-0.0548,1.8795,0.6489,2.4173,1.826c5.2052,11.3959,10.5209,22.7412,15.7379,34.1317
	c0.7443,1.625,1.1305,3.4141,1.6823,5.1272c-1.3511-0.7285-2.0036-2.0839-2.861-3.2418
	c-5.3902-7.2799-10.2173-14.9044-14.1482-23.0842c-1.7715-3.6862-2.2795-7.6631-3.0236-11.6354
	c-0.9405,0.0056-0.8349,0.9861-1.0938,1.5542c-3.2084,7.0392-5.9581,14.2609-8.5928,21.5333
	c-2.3636,6.5243-5.5125,12.7084-8.603,18.9105c-0.2832,0.5682-0.6255,1.1217-1.0227,1.6157
	c-1.9561,2.4337-4.1376,2.1646-5.7325-0.6834l0.194-0.1931C386.5314,664.476,387.4675,664.7249,387.9828,664.025z"/>
<path style="fill:#919484;" d="M400.6616,614.046c-0.4178,0.1505-0.8325,0.4196-1.2541,0.4309
	c-1.7992,0.0483-3.6003,0.0205-6.1028,0.0205c4.3314-3.9526,9.0789-5.4085,14.0335-6.4261c0.1515,1.3597-0.824,1.9163-1.7921,2.4191
	c-2.073,1.0768-4.1717,2.1039-6.4128,3.2283C399.7298,613.8464,400.1957,613.9462,400.6616,614.046z"/>
<path style="fill:#919484;" d="M412.1678,606.8026c2.8612,1.856,6.3685,1.7826,9.4077,3.1774
	c2.3903,1.097,4.6726,2.2806,7.2603,4.2943c-2.8959,0.2128-5.1423,0.7045-7.3878-0.2273c0.6271-0.0609,1.2543-0.1218,2.2489-0.2183
	c-2.6065-1.9765-5.5324-2.6999-8.0843-4.1188C414.2423,608.9478,412.9121,608.2551,412.1678,606.8026z"/>
<path style="fill:#929585;" d="M414.3517,596.9677c-0.7281,3.2789-1.4562,6.5579-2.1844,9.8369
	c-0.5122-0.0906-0.9082-0.493-0.8798-0.9016c0.2361-3.4022,0.9862-6.7115,1.9587-9.9733c0.1157-0.388,0.4263-0.7029,0.7662-0.4697
	C414.5154,595.8051,414.3535,596.4339,414.3517,596.9677z"/>
<path style="fill:#8F9383;" d="M409.4557,606.8635c0.3117-3.9053-1.4145-7.413-2.1667-11.1107
	C410.388,597.6524,411.6341,604.0419,409.4557,606.8635z"/>
<path style="fill:#676D59;" d="M289.5838,702.4308c0.1448,0.1781,0.2896,0.3563,0.4344,0.5344
	c0.6967,0.9409,0.9414,1.8835,0.0104,2.8305c-0.2972-0.0032-0.5945-0.0063-0.8918-0.0095
	C289.0747,704.6396,288.6797,703.4486,289.5838,702.4308z"/>
<path style="fill:#668B78;" d="M528.1497,687.7182c-0.4462-0.6061-0.912-1.2121-0.0106-1.8268
	C528.9141,686.4952,528.8918,687.1046,528.1497,687.7182z"/>
<path style="fill:#DF9FB0;" d="M447.2812,624.0097c-5.5497-5.158-11.0724-10.3455-16.6638-15.4578
	c-1.9359-1.77-4.2275-3.0724-6.6759-4.0057c-1.775-0.6766-3.6534,0.5851-5.5582-0.1115c3.7554-9.5614,5.5291-19.7457,9.1371-29.3614
	c1.1329-3.0193,2.4831-5.9565,3.6424-8.9665c0.4528-1.1756,1.0142-1.3431,2.0331-0.7143c2.0207,1.2471,4.257,2.0797,6.2144,3.485
	c6.0148,4.319,12.3184,8.3698,19.0938,11.1771c7.2508,3.0043,14.7476,5.591,22.4104,7.5804
	c6.0322,1.5662,11.328,4.726,15.7006,9.1428c1.394,1.4081,1.9989,3.6341,2.8499,5.5373
	c4.4698,9.9957,7.0359,20.7131,11.5904,30.6776c2.3164,5.068,4.8222,10.0488,6.6607,15.3292
	c1.473,4.2307,1.9382,8.5621,1.4442,12.977c-0.2998,2.679-1.0557,2.8802-3.6141,1.9588c-5.9702-2.1501-12-4.0359-17.7426-6.8812
	c-11.901-5.8965-23.4511-12.3084-34.125-20.2517c-3.1764-2.3638-6.5102-4.5162-9.7718-6.7654
	C451.1045,628.3118,449.2122,626.1367,447.2812,624.0097z"/>
<path style="fill:#DF9FB0;" d="M368.1994,629.3596c-5.1533,3.1771-9.7947,7.0938-14.8486,10.3965
	c-7.3802,4.8229-15.1896,8.942-22.8094,13.3727c-7.8962,4.5914-16.4063,7.6229-24.9785,10.558
	c-2.3342,0.7993-2.4498-1.0804-2.6038-2.4033c-0.5363-4.6057,0.0317-9.1058,1.6002-13.4963
	c3.0152-8.4406,7.742-16.1525,10.4532-24.7201c2.1168-6.6892,4.846-13.1602,7.1628-19.7707
	c2.869-8.186,9.106-12.5688,16.6721-15.0314c8.0122-2.6076,16.1923-4.7911,24.0198-7.8855
	c5.647-2.2324,10.8384-5.5805,15.9538-8.9224c3.1371-2.0495,6.2352-4.1414,9.5906-5.8584c1.6092-0.8235,2.1599-0.4518,2.8061,0.9901
	c3.794,8.4667,6.2899,17.3583,8.7712,26.2626c1.09,3.9115,2.39,7.7645,3.6655,11.8719c-7.3283-1.7186-11.6622,3.2466-16.2882,7.4174
	c-4.274,3.8533-8.369,7.9054-12.5429,11.8699C372.8928,626.1374,371.0012,628.3123,368.1994,629.3596z"/>
<path style="fill:#BB979E;" d="M390.7709,617.2979c4.4073,0.6638,8.6935,1.7962,12.9472,3.1235
	c1.3303,0.4151,1.0859,0.826,0.8292,1.856c-0.3659,1.468-1.3588,2.7719-1.1845,4.3769c-0.0002,0.1215-0.0005,0.243,0.0018,0.3648
	c-0.152,0.7155-0.4232,1.3939-0.6507,2.0874c-0.0875,0.2324-0.2033,0.4497-0.333,0.6605c-0.6295,0.9144-1.2593,1.8287-1.816,2.7914
	c-0.1215,0.2195-0.261,0.4265-0.4056,0.6304c-1.2603,1.7307-1.9904,3.749-3.031,5.5983c-0.6678,0.9023-1.2096,1.8718-1.5594,2.9448
	c-1.2026,1.9705-2.0791,4.1242-3.3789,6.0406c-1.2684,1.6388-2.2828,3.3932-2.5213,5.506
	c-0.7194,1.6955-0.8112,3.7672-2.8041,4.7006c-0.6395,0.9863-0.914,2.8931-2.6716,1.0599
	c-0.8832-1.2767-1.7779-2.5391-3.4792-2.8066c-0.247-0.0803-0.4755-0.1916-0.6948-0.3279c-0.748-0.6821-1.769-0.6095-2.6402-0.9576
	c-7.8109-1.5221-15.6971-2.0046-23.6328-1.8207c-3.05-0.9985-6.0708-0.288-9.0935,0.1791c-0.271,0.0989-0.5501,0.1654-0.8333,0.2154
	c-0.849,0.1152-1.6949,0.1866-2.4611-0.324c-0.518-1.3456,0.6711-1.4686,1.3881-1.861
	c11.5342-6.3109,22.2877-13.7137,32.4048-22.1446C380.1622,625.015,385.1607,620.729,390.7709,617.2979z"/>
<path style="fill:#BB989E;" d="M437.4379,659.5168c-2.1534,1.4325-1.2647-1.3532-2.2107-1.595
	c-0.5391-0.1373-0.8069-0.5373-0.9923-1.0182c-0.2304-0.926-0.4825-1.8443-1.0751-2.6249
	c-0.2752-0.4113-0.5023-0.8448-0.6401-1.3218c-0.4681-1.949-1.3792-3.6755-2.6301-5.2313c-1.3127-1.864-1.979-4.087-3.3124-5.9388
	c-0.369-1.0305-0.7951-2.0267-1.6886-2.7369c-0.3572-0.3647-0.5635-0.8099-0.7001-1.2927c-0.4497-1.793-1.3867-3.3447-2.4119-4.8516
	c-0.6105-1.0306-1.2756-2.0259-1.9657-3.0042c-0.1347-0.1942-0.246-0.4023-0.3412-0.6182c-0.2429-0.767-0.5528-1.515-0.7292-2.3049
	c0.0031-0.1149,0.008-0.23,0.0128-0.3451c0.0031-0.1818,0.0251-0.3656,0.0063-0.545c-0.1918-1.8307-2.1868-3.8495-1.177-5.1515
	c0.9642-1.2432,3.4009-1.4424,5.2422-1.8837c2.8181-0.6754,5.6807-1.1644,8.5245-1.7325c3.8322,2.2509,6.6922,5.6691,9.8111,8.683
	c8.6303,8.3396,18.5416,14.7874,28.8068,20.796c2.2072,1.2919,4.4389,2.5413,6.7244,3.6967
	c1.0365,0.5242,2.1871,0.9974,2.6385,2.2462c-0.1809,0.6424-0.7094,0.6664-1.2339,0.6981c-0.2487-0.0167-0.495-0.0626-0.7351-0.1296
	c-0.9215-0.332-1.9088-0.2285-2.8564-0.405c-0.2451-0.0418-0.4842-0.1032-0.7229-0.1697c-1.5194-0.3073-3.0242-0.2909-4.517,0.1789
	c-0.2772,0.0889-0.5552,0.1451-0.8416,0.1866c-3.3635,0.1761-6.7257,0.0919-10.086,0.0716
	c-2.0107-0.0121-3.9886,0.1019-5.9211,0.674c-0.2728,0.114-0.5579,0.1926-0.8468,0.2501c-2.3732,0.147-4.7501,0.2891-7.0671,0.8865
	c-0.7109,0.2171-1.4763,0.2545-2.1448,0.6258c-0.2959,0.2144-0.5969,0.4198-0.9387,0.5554
	c-0.2234,0.0916-0.4539,0.1646-0.6845,0.2338c-1.1198,0.3143-1.7717,1.1272-2.258,2.1183
	C438.2352,658.9605,437.8977,659.3024,437.4379,659.5168z"/>
<path style="fill:#7A6C69;" d="M479.1498,652.9275c-6.4933-3.8608-13.0581-7.6074-19.4595-11.615
	c-6.1917-3.8763-12.0601-8.2231-17.3142-13.3397c-3.6614-3.5656-7.7812-6.6565-11.0268-10.6523
	c1.2141-0.3282,2.1261,0.3083,2.9819,0.9975c7.7063,6.2068,15.3548,12.4867,23.1271,18.6094
	c2.3464,1.8484,5.0948,3.1769,7.5411,4.9101c5.7818,4.0965,11.7114,7.9395,18.0352,11.1537
	c0.3016,0.1534,0.5469,0.4174,1.3328,1.0323c-1.7696-0.2123-2.9331-0.3519-4.0967-0.4915c-0.1136-0.0015-0.2273-0.003-0.3414-0.0028
	C479.5888,653.4335,479.3041,653.2647,479.1498,652.9275z"/>
<path style="fill:#474A39;" d="M390.7709,617.2979c-4.061,3.6626-8.6797,6.6284-12.8344,10.1572
	c-7.1588,6.0804-14.5444,11.8345-22.4752,16.8719c-4.1464,2.6339-8.1045,5.5834-12.67,7.5241
	c-0.5754,0.2446-1.5435,0.238-1.5312,1.2764c0.3975,0.1139,0.7531,0.2634,0.6673,0.7878c-0.2687,0.552-0.8047,0.6624-1.3227,0.804
	c-0.8966,0.2743-1.7993,0.7275-2.6629-0.0804c-1.8781-0.4542-0.6651-0.8755-0.0165-1.4083
	c2.8508-2.3418,6.3488-3.5397,9.5667-5.1616c4.021-2.0267,7.223-5.1223,11.0715-7.3735
	c9.8321-5.7511,17.9482-13.871,27.1858-20.4668C387.3209,619.1068,388.0453,616.4564,390.7709,617.2979z"/>
<path style="fill:#F6F9F9;" d="M426.4921,573.9615c-2.7626,9.2932-5.5424,18.5815-8.2723,27.8843
	c-0.5081,1.7314-1.6768,2.6371-3.909,3.5052c3.5025-12.1581,8.085-23.4174,12.0022-34.8955
	C427.3255,571.2726,427.3255,571.2726,426.4921,573.9615z"/>
<path style="fill:#F6F9F9;" d="M395.6474,570.5446c3.0073,8.4021,6.5245,16.6231,8.9642,25.2269
	c0.7758,2.7361,2.4383,5.1719,2.6999,8.0934c0.0387,0.432,0.4142,0.8767-0.1475,1.1098c-0.2247,0.0933-0.6124-0.2031-0.9248-0.3248
	c-1.8386-0.7161-2.3543-2.4091-2.8209-4.0392c-1.7126-5.9839-3.3287-11.9955-5.021-17.9854
	c-0.8249-2.9193-2.2367-5.6527-2.7831-8.6636C395.7607,572.8239,393.7447,571.6652,395.6474,570.5446z"/>
<path style="fill:#F8FBFC;" d="M293.9426,705.0334c0.8643-7.5615,0.9077-15.1292,2.4445-22.5726
	c0.7412-3.59,0.5727-7.3748,2.475-10.6971c0.2296-0.4009-0.0425-1.2576,0.8737-1.0198c0.7515,0.1949,0.538,0.6754,0.3737,1.2523
	c-2.9081,10.213-4.157,20.5839-2.8978,31.188C297.3215,704.109,297.269,704.1152,293.9426,705.0334z"/>
<path style="fill:#939485;" d="M424.7762,637.6207c0.046,0.4608,0.0778,0.9292,0.6017,1.137
	c0.6964,0.8267,0.8296,1.9892,1.6385,2.7488c1.6348,1.735,2.0738,4.1143,3.2756,6.0825c0.4777,0.6161,0.9033,1.2553,0.9225,2.0753
	c0.1824,2.902,0.9362,5.5991,2.8292,7.8879c0.441,0.5174,0.6304,1.0923,0.3981,1.7601c-0.5734,0.887-1.3064,0.0662-1.9535,0.179
	c-0.1848-0.1633-0.3695-0.3266-0.5542-0.4899c-0.7211-1.3951-0.8777-3.009-1.6917-4.3682l0.0349,0.0477
	c-2.5445-5.9648-4.5609-12.1758-8.2117-17.6249c-2.2767-4.5727-5.0707-8.8974-6.6211-13.8183
	c-0.3676-0.6803-0.5149-1.451-0.0012-2.0295c0.3643-0.4103,0.8029,0.0156,1.0683,0.4153c1.0833,1.5195,0.8913,3.6099,2.2419,5.0096
	c-0.0003,0-0.0162-0.056-0.0162-0.056c0.4702,0.8955,0.5951,1.931,1.1333,2.799l-0.0294-0.049
	c0.5925,1.3735,1.5728,2.5051,2.3499,3.7635C423.3209,634.4477,423.721,636.2211,424.7762,637.6207z"/>
<path style="fill:#F6F5F5;" d="M340.7266,654.2332c0.3632-0.2307,0.7263-0.4614,1.0895-0.6921
	c0.6487-0.5903,1.5969,0.0518,2.2438-0.5457l-0.0662,0.0427c3.1611-0.4669,6.3018-1.5399,9.5198-0.32
	c0.7249,0.009,1.4537,0.0554,2.1735-0.003c7.1725-0.5815,14.1914,0.7787,21.2466,1.6589c1.0019,0.7048,2.5266,0.0972,3.3243,1.3207
	c0.187,0.016,0.3739,0.0319,0.5609,0.048c0.9518,0.7177,2.9311,0.6235,2.1441,2.7149c-3.7497-2.7507-8.1729-2.7842-12.5399-3.3163
	c-7.8391-0.9553-15.689-0.171-23.5207-0.5441c-1.9414-0.0925-3.7174,0.9707-5.6497,0.4975
	C340.8199,654.9647,340.6561,654.6705,340.7266,654.2332z"/>
<path style="fill:#F7FBFC;" d="M351.6645,642.9712c-2.7904,2.7363-6.3816,4.2144-9.6798,6.15
	c-5.1612,3.0288-10.292,6.1147-15.5295,9.0067c-3.6308,2.0047-7.4047,3.7541-11.1444,5.5556
	c-1.4916,0.7186-1.3639-0.935-2.16-1.4536c10.746-3.9626,20.4416-9.5559,30.0646-15.2978c2.7387-1.6342,5.4579-3.3201,8.4603-4.4603
	c0.1632,0.1147,0.2157,0.2269,0.1581,0.3367C351.7771,642.9169,351.7208,642.9712,351.6645,642.9712z"/>
<path style="fill:#F7FBFC;" d="M470.4305,642.4716c6.1152,3.4926,12.1178,7.2049,18.3768,10.4173
	c6.4746,3.3229,12.8463,6.9401,19.9974,9.1795c-0.5483,1.4927-1.1622,2.1574-3.0048,1.1624
	c-5.3648-2.8968-11.0909-5.1937-16.2133-8.4526c-6.3292-4.0267-13.6119-6.5104-19.1443-11.8067
	c-0.1685-0.1072-0.2263-0.2169-0.1739-0.3294C470.3214,642.5285,470.3753,642.4716,470.4305,642.4716z"/>
<path style="fill:#F7FAFB;" d="M290.0286,705.7957c-0.0035-0.9435-0.007-1.887-0.0105-2.8304
	c1.2932-1.7938,1.0222-4.0336,1.1028-5.9373c0.2979-7.0319,1.9939-13.7993,3.2936-20.6655c0.124,1.8555,0.248,3.7111,0.372,5.5666
	l0.0294-0.0071c-1.5528,1.055-0.4825,2.6683-0.8459,3.9764c0.1281,0.605-0.3518,1.206-0.0119,1.8124
	c0.2,4.1793-0.0091,8.3236-1.0041,12.4084c-0.1998,0.8206,0.188,1.5954,0.3112,2.3922
	C293.7022,705.3362,292.4558,706.54,290.0286,705.7957z"/>
<path style="fill:#F4F8F8;" d="M378.6105,621.6442c5.5-4.822,11.0052-9.6381,16.4978-14.4684
	c2.5546-2.2465,5.5301-1.5903,8.6074-1.3042c-0.0779,1.1587-0.6356,1.9033-1.7274,2.0151
	c-5.6543,0.5793-10.1481,3.4974-13.8759,7.4445c-2.6504,2.8065-6.1494,4.2899-8.9505,6.7783
	C378.9006,622.0462,378.7206,621.8867,378.6105,621.6442z"/>
<path style="fill:#F1EEEE;" d="M391.9026,647.3167c1.6289-1.5565,1.8303-3.9368,3.2417-5.6188
	c0.387-0.9127,0.8272-1.7948,1.4714-2.5598c0.9229-1.0283,0.966-2.597,2.1334-3.4764c0.4041-0.0858,0.7648-0.0227,1.0487,0.3041
	c0.2519,1.4648-0.1297,2.8035-0.8495,4.0585c-2.7091,4.7239-4.2443,10.0168-7.1133,14.6625
	c-1.2138-0.0349-1.0229,1.159-1.4963,1.7607c-0.445,0.5657-0.6595,1.302-1.104,1.8882c-0.2739,0.3611-0.6069,0.8335-1.0765,0.658
	c-0.6405-0.2393-0.5527-0.8625-0.3886-1.4086c0.7085-2.3571,2.0959-4.4711,2.486-6.9453
	C390.6319,649.4447,391.2426,648.3685,391.9026,647.3167z"/>
<path style="fill:#F4F8F8;" d="M442.9418,622.1083c-4.4395-3.0283-8.7327-6.2241-12.5843-10.0099
	c-2.6489-2.6038-6.2452-3.3258-9.7044-4.1241c-1.2085-0.2789-1.9904-0.6472-2.3021-1.8489c4.54-1.7651,8.0291,0.1954,11.2337,3.0373
	c4.6608,4.1334,9.276,8.3184,13.9106,12.4813C443.3862,621.8886,443.2016,622.0433,442.9418,622.1083z"/>
<path style="fill:#909383;" d="M484.1689,656.2551c-1.3315-0.3521-2.7448-0.4259-3.9625-1.1652
	c-0.8206-0.4014-1.8448,0.0743-2.6032-0.6047c-5.669-0.1732-11.3355-0.2928-17.0004,0.061
	c-4.0652,0.2157-8.1304,0.4314-12.1956,0.6472c-1.0074,0.2166-2.0844,0.8681-2.8456-0.4541
	c1.9184-1.1113,4.2077-0.3587,6.1742-1.2285l-0.0489,0.0282c0.8825-0.5052,1.9219-0.1173,2.8264-0.4971
	c2.5639-0.2137,5.1494,0.2086,7.7047-0.2598c2.3597-0.2933,4.767,0.3284,7.106-0.3689l-0.0515,0.0227
	c0.2027-0.1659,0.4288-0.2092,0.6781-0.1308c1.2168,0.2147,2.434,0.2129,3.6515-0.0008c0.2493-0.08,0.476-0.0381,0.6805,0.1245
	l-0.0477-0.0194c1.0136,0.7746,2.3175-0.1166,3.3442,0.583l-0.05-0.029c0.8119,0.7328,1.963-0.1003,2.7813,0.6026
	c0,0-0.0399-0.0337-0.0398-0.0338c1.3054,0.5711,2.6107,1.1424,3.916,1.7137C484.4712,655.5874,484.4665,655.9238,484.1689,656.2551
	z"/>
<path style="fill:#F5F9F9;" d="M378.6105,621.6442c0.1839,0.1551,0.3677,0.3102,0.5515,0.4653
	c-7.6763,7.119-15.6105,13.9036-24.771,19.0951c-0.304,0.1724-0.6607,0.2516-0.9929,0.3741
	c-0.1652-0.119-0.222-0.2405-0.1707-0.3645c0.0517-0.1251,0.1043-0.1877,0.1583-0.1877c5.1139-3.7165,10.2278-7.433,15.3417-11.1495
	c1.8152-2.2902,3.8958-4.2597,6.605-5.4699C376.425,623.4861,377.5178,622.5652,378.6105,621.6442z"/>
<path style="fill:#F5F9F9;" d="M442.9418,622.1083c0.1845-0.1548,0.3691-0.3096,0.5536-0.4644
	c1.0928,0.921,2.1857,1.8422,3.2786,2.7632c2.7092,1.21,4.7897,3.1795,6.6048,5.4697c5.1136,3.7164,10.2271,7.4327,15.3407,11.1492
	c0.1603,0.1262,0.212,0.25,0.1554,0.3716c-0.0561,0.1205-0.1116,0.1808-0.1667,0.1808c-5.3596-2.5789-10.1269-6.0863-14.7401-9.7633
	C450.1435,628.7668,446.6063,625.3577,442.9418,622.1083z"/>
<path style="fill:#949787;" d="M390.6736,650.7992c-0.2849,2.7864-2.5149,4.9478-2.7345,8.4747
	c1.3677-2.3753,2.4027-4.173,3.4609-6.0109c0.6686,0.3981,0.2255,1.0024,0.4351,1.4238c0,0,0.0285-0.0537,0.0285-0.0537
	c-0.8143,1.3722-0.9875,2.9908-1.6917,4.4053c-0.1332,0.233-0.3186,0.4509-0.3904,0.7015
	c-0.2664,0.9302-0.2946,2.2432-1.6689,1.9797c-1.0948-0.2098-1.1055-1.456-1.2732-2.3875c-0.0785-0.4355,0.011-0.9011,0.0247-1.353
	c0.8961-1.6141,1.7994-3.225,2.2622-5.0339C389.7011,652.2723,389.2156,650.8348,390.6736,650.7992z"/>
<path style="fill:#CBD7D2;" d="M426.4921,573.9615c-0.6161-1.1402,1.2956-2.4096-0.1792-3.5059
	c0.8026-2.225,1.5419-4.4763,2.4519-6.6564c0.2284-0.547,0.3002-1.814,1.2402-1.4443c0.8591,0.338,1.1158,1.3492,0.628,2.3572
	C429.1611,567.7537,428.2592,571.0513,426.4921,573.9615z"/>
<path style="fill:#CBD7D2;" d="M395.6474,570.5446c-1.2055,1.1272,0.56,2.2834-0.0332,3.4168
	c-1.7408-2.8891-2.6497-6.1506-4.1042-9.1667c-0.4724-0.9794-0.3644-2.0006,0.5107-2.3649
	c1.1623-0.4838,1.0877,0.9318,1.3586,1.5056C394.3752,566.0446,395.2437,568.2213,395.6474,570.5446z"/>
<path style="fill:#F3F9F9;" d="M422.0656,637.056c2.3406,2.9733,4.6277,5.9169,5.4416,9.8082
	c0.4337,2.0739,1.5591,4.0115,2.4473,5.9766c0.2778,0.6147,0.3777,1.1981,0.3228,1.8401
	C427.2049,648.9622,424.5893,643.0305,422.0656,637.056z"/>
<path style="fill:#EDECEB;" d="M403.3628,626.6543c1.2982-1.1333,1.4073-2.812,1.8371-4.2978
	c0.3628-1.2544,1.1494-2.4338,2.1871-1.9912c1.1513,0.4911-0.0581,1.8017-0.355,2.5452c-0.8233,2.0618-2.0146,3.9767-3.0604,5.9496
	c-0.5457,0.149-0.7892-0.1701-0.9525-0.6145c0.0306-0.5725-0.0576-1.1738,0.3905-1.6476L403.3628,626.6543z"/>
<path style="fill:#F6FBFC;" d="M460.6028,654.5462c4.2241-1.0063,8.5112-0.2956,12.7661-0.4089
	c1.5447-0.0413,3.244-0.6814,4.6934,0.4943c-0.1798,0.2098-0.3679,0.2175-0.5642,0.0232
	C471.8663,654.6186,466.2345,654.5824,460.6028,654.5462z"/>
<path style="fill:#E6EFED;" d="M340.7266,654.2332c0.1753,0.2872,0.3506,0.5743,0.526,0.8615
	c-3.0262,0.7695-6.0524,1.5389-9.5546,2.4294c1.9109-2.1884,4.5544-1.4686,6.2438-2.8851
	C338.9746,655.2214,339.7812,654.2513,340.7266,654.2332z"/>
<path style="fill:#F4F4F2;" d="M383.1207,660.1339c-2.8613-0.9193-5.668-1.975-8.3533-3.3354
	C378.0608,656.6351,381.0334,657.2755,383.1207,660.1339z"/>
<path style="fill:#B9989E;" d="M434.162,659.5668c-0.0408-0.6243,0.0639-1.301-0.6118-1.696
	c-1.0437-2.2341-2.2133-4.426-2.3443-6.9676c1.7849-0.3362,1.0826,1.5098,1.8287,2.0854c0.1835,0.3675,0.367,0.735,0.5504,1.1025
	c0.4644,0.8917,0.6068,1.9116,1.1096,2.788c0.1775,0.3476,0.3551,0.6952,0.5326,1.0428c-0.0174,0.7202-0.0348,1.4405-0.0522,2.1607
	C434.606,660.3652,434.3442,660.0442,434.162,659.5668z"/>
<path style="fill:#D4C2C4;" d="M403.3196,628.177c0.2174,0.2276,0.4348,0.4551,0.6521,0.6829
	c-0.671,2.3546-2.2107,4.2432-3.3887,6.3259c-0.7899-0.9073-0.109-1.7924,0.0391-2.6857c0.3532-1.1609,1.025-2.153,1.6744-3.157
	l-0.0442,0.0497C402.7161,629.0824,402.3217,628.0183,403.3196,628.177z"/>
<path style="fill:#3B422F;" d="M453.3788,629.8769c-2.2016-1.8232-4.4032-3.6465-6.6048-5.4697
	c0.169-0.1325,0.3381-0.265,0.5072-0.3975c2.5787,1.3246,4.4151,3.569,6.6256,5.3499
	C453.7308,629.532,453.5548,629.7045,453.3788,629.8769z"/>
<path style="fill:#3B422F;" d="M375.3324,624.4071c-2.2017,1.8234-4.4034,3.6466-6.605,5.47
	c-0.176-0.1725-0.352-0.3449-0.528-0.5175c2.2103-1.7802,4.0458-4.0245,6.624-5.3489
	C374.993,624.1428,375.1627,624.275,375.3324,624.4071z"/>
<path style="fill:#E4EDEC;" d="M307.3463,665.694c-0.7315,0.1724-1.0621-0.5505-1.0248-0.6913
	c0.452-1.7072,2.297-1.2238,3.3599-2.028c0.2626-0.1987,0.7974-0.072,0.738,0.3941
	C310.1824,665.2306,308.0405,664.5707,307.3463,665.694z"/>
<path style="fill:#E4EDEC;" d="M514.9279,665.9907c-0.8614-1.4376-3.0332-0.7551-3.2415-2.6397
	c-0.0498-0.4512,0.4772-0.5771,0.7546-0.3689c1.0641,0.799,2.9205,0.3196,3.353,2.0403
	C515.8474,665.235,515.2904,665.6008,514.9279,665.9907z"/>
<path style="fill:#E9EEEE;" d="M445.6251,654.6974c0.7689,1.0546,1.8607,0.2972,2.7821,0.4959
	c-1.9185,0.8845-4.0319,0.6964-6.0383,1.0972c-0.4991,0.3199-0.9255,0.4547-0.971-0.3812c0.1517-0.1503,0.3033-0.3005,0.4549-0.4509
	c0.5935-1.1207,1.9366-0.0674,2.6273-0.9071C444.8919,654.3632,445.288,654.3005,445.6251,654.6974z"/>
<path style="fill:#6B705E;" d="M434.162,659.5668c0.3377,0.1718,0.6754,0.3437,1.0131,0.5156
	c-0.2805,0.926-0.8123,1.7513-1.853,1.4698c-0.9219-0.2494-0.8108-1.2601-0.8339-2.0605
	C433.1429,657.3715,433.6026,659.5738,434.162,659.5668z"/>
<path style="fill:#616853;" d="M387.9828,664.025c0.4029,1.4959,0.4029,1.4959-2.07,0.9188
	c-0.1376-0.7424-0.3853-1.5065,0.4135-2.0605C387.1382,662.8868,387.6478,663.3291,387.9828,664.025z"/>
<path style="fill:#E4EDEB;" d="M484.1689,656.2551c0.0059-0.3364,0.0117-0.6729,0.0176-1.0091
	c1.9751,0.1009,3.7174,0.8461,5.3199,2.0334C487.7272,656.938,485.9481,656.5966,484.1689,656.2551z"/>
<path style="fill:#D9D3D5;" d="M441.3978,655.9093c0.3238,0.1271,0.6475,0.2542,0.9712,0.3812
	c-1.9897,0.5464-2.8052,2.8878-4.9309,3.2264c0.1846-0.2902,0.3695-0.5803,0.5544-0.8704c0.565-1.3414,1.7401-2.0828,2.8445-2.8937
	C441.0239,655.8049,441.2109,655.8571,441.3978,655.9093z"/>
<path style="fill:#E8E3E2;" d="M401.1683,632.668c-0.1951,0.8392-0.3902,1.6786-0.5853,2.5178
	c-0.2617,0.2599-0.5235,0.5198-0.7852,0.7798c0,0.0001-0.272,0.0291-0.272,0.0291l-0.2716-0.0319
	c-1.2685-1.4982,0.5291-2.2028,0.851-3.2894l-0.0338,0.0251C400.427,632.3278,400.793,632.3298,401.1683,632.668z"/>
<path style="fill:#37412E;" d="M382.9629,658.4576c0.3181-1.7209-1.5523-1.7129-2.1441-2.715c2.141,0.058,3.2829,1.139,3.374,3.2962
	C383.7829,658.8452,383.3729,658.6514,382.9629,658.4576z"/>
<path style="fill:#DEEDEB;" d="M416.5116,621.6235c-1.7475-0.3823-1.0168,0.8741-1.067,1.6142
	c-0.7105-0.2062-0.3098-0.9386-0.6022-1.2943c-0.4747-0.5774-0.927-1.2709-0.049-1.5738
	C415.1381,620.2507,416.7808,620.0668,416.5116,621.6235z"/>
<path style="fill:#E9F4F2;" d="M390.172,659.0383c0.1929-1.611,0.4118-3.2119,1.6917-4.4053
	C391.6807,656.2478,391.3453,657.804,390.172,659.0383z"/>
<path style="fill:#E9F4F2;" d="M430.2424,654.6332c1.3061,1.1685,1.4716,2.7789,1.6917,4.3682
	C430.7326,657.7924,430.4417,656.2305,430.2424,654.6332z"/>
<path style="fill:#D3E5E2;" d="M295.6887,668.2966c0.4087,1.6687-0.6599,2.4706-0.7653,3.7881
	C294.1645,670.603,294.5564,669.5963,295.6887,668.2966z"/>
<path style="fill:#D3E5E2;" d="M527.2948,671.8415c-0.1986-1.1123-1.3102-1.9511-0.9363-3.4012
	C527.7012,669.5103,527.7563,670.643,527.2948,671.8415z"/>
<path style="fill:#D1E1DB;" d="M353.3856,641.0265c0.004,0.1843,0.0081,0.3685,0.0123,0.5525
	c-0.4015,0.6831-0.9507,1.1826-1.7332,1.3921c-0.0351-0.1674-0.0312-0.3339,0.0111-0.4995
	C352.0211,641.7241,352.5734,641.2214,353.3856,641.0265z"/>
<path style="fill:#D1E1DB;" d="M468.7081,641.5786c0.0039-0.1841,0.0078-0.3682,0.0116-0.5524
	c0.8126,0.1945,1.365,0.6973,1.7107,1.4454c0.0428,0.1658,0.0465,0.3324,0.0117,0.4998
	C469.6594,642.7623,469.1102,642.2621,468.7081,641.5786z"/>
<path style="fill:#D5E3DE;" d="M477.498,654.6548c0.1883-0.0077,0.3765-0.0153,0.5645-0.0231
	c0.7424,0.0216,1.5583-0.2992,2.1439,0.4582C479.2705,655.1512,478.272,655.6021,477.498,654.6548z"/>
<path style="fill:#EAEAE7;" d="M374.8232,656.8256c-0.9229,0.0312-1.8745,0.2394-2.683-0.4349
	C373.042,656.4895,374.0809,655.7422,374.8232,656.8256z"/>
<path style="fill:#DAE5E2;" d="M295.37,678.9131c0.4738,0.8066,0.4145,1.5499,0.0101,2.3582
	C294.9512,680.4664,294.9194,679.7234,295.37,678.9131z"/>
<path style="fill:#DAE5E2;" d="M526.7266,678.9131c0.4739,0.8066,0.4145,1.5499,0.0101,2.3583
	C526.3079,680.4663,526.2761,679.7233,526.7266,678.9131z"/>
<path style="fill:#DBEAE8;" d="M294.7866,681.929c0.25,0.8297,0.5892,1.6561,0.0415,2.6715
	c-0.4756-0.9852-0.3295-1.8292-0.0143-2.6781C294.816,681.9219,294.7866,681.929,294.7866,681.929z"/>
<path style="fill:#DBEAE8;" d="M527.2928,681.9219c0.3648,0.8475,0.359,1.7155,0.1229,2.7313
	c-0.8032-0.9663-0.3247-1.8518-0.0942-2.7283C527.3189,681.9233,527.2928,681.9219,527.2928,681.9219z"/>
<path style="fill:#668B78;" d="M293.9582,687.7108c-0.7357-0.6083-0.7618-1.2121,0.0117-1.8115
	C294.8697,686.5084,294.4035,687.1096,293.9582,687.7108z"/>
<path style="fill:#2D3B22;" d="M377.5404,654.6345c-2.0827,0.1914-4.1207,0.0041-6.1519-0.5341
	c-5.9287-1.5706-12.0238-0.7883-18.0355-1.2037c-0.1857-0.088-0.2473-0.1761-0.1862-0.265
	c0.0609-0.0885,0.1223-0.1331,0.1853-0.1331c8.1241-0.5007,16.1645,0.2443,24.1581,1.6468
	c0.1906,0.0334,0.3346,0.3319,0.5003,0.5068C377.8464,654.8419,377.6897,654.836,377.5404,654.6345z"/>
<path style="fill:#303D26;" d="M353.3521,652.4987c0.0002,0.1327,0.0005,0.2654,0.0009,0.398
	c-3.1326-0.8054-6.2372,0.2425-9.3592,0.1414C347.0594,651.9241,350.1464,651.1824,353.3521,652.4987z"/>
<path style="fill:#656056;" d="M400.1053,632.6735c0.3068,1.2493-1.0244,2.0746-0.851,3.2894
	c-0.8271,1.1013-1.6541,2.2025-2.4812,3.3038c-0.1664-0.1423-0.2239-0.2869-0.1728-0.4338
	c0.0515-0.1481,0.1043-0.2222,0.1585-0.2222C397.4572,636.3964,398.2403,634.2299,400.1053,632.6735z"/>
<path style="fill:#323F2B;" d="M390.6736,650.7992c-0.5159,0.7151-1.0318,1.4303-1.5475,2.1457
	c0.1615-2.2529,1.2578-4.0447,2.7763-5.6282C392.1479,648.7088,390.9529,649.5923,390.6736,650.7992z"/>
<path style="fill:#434938;" d="M401.1683,632.668c-0.3656,0.0102-0.7312,0.0204-1.0968,0.0306
	c0.1936-1.482,1.1714-2.4438,2.225-3.3555C402.4705,630.6381,401.009,631.3779,401.1683,632.668z"/>
<path style="fill:#3A432F;" d="M396.7588,638.6106c0.0048,0.2187,0.0096,0.4373,0.0143,0.6559
	c-0.3178,0.9618-0.855,1.7764-1.6293,2.4316C395.0184,640.3214,395.7698,639.4038,396.7588,638.6106z"/>
<path style="fill:#454837;" d="M377.5404,654.6345c0.159-0.0401,0.3163-0.0343,0.471,0.0176
	c0.7862,0.2657,2.2415-0.9095,2.2463,1.0428C379.5035,654.9531,378.2192,655.5699,377.5404,654.6345z"/>
<path style="fill:#303D28;" d="M403.3196,628.177c-0.6138,0.1786-0.2772,1.192-1.0673,1.2158
	c-0.0523-1.113,0.15-2.1207,1.1573-2.7948C403.3796,627.1243,403.3496,627.6506,403.3196,628.177z"/>
<path style="fill:#2B3A21;" d="M344.06,652.9955c-0.533,1.0659-1.5072,0.3172-2.2438,0.5456
	c-0.1854-0.1379-0.3708-0.2757-0.5561-0.4135C342.1934,653.0836,343.1267,653.0396,344.06,652.9955z"/>
<path style="fill:#2C3B21;" d="M454.4685,653.533c-0.9272,0.002-1.8544,0.004-2.7816,0.006
	c1.8244-1.1616,3.8728-1.1063,5.9169-1.1052c3.9067,0.0023,7.8133-0.0128,11.7201-0.0206c-2.2982,1.3431-4.8264,0.1572-7.2014,0.655
	C459.5971,653.6515,456.9845,652.7957,454.4685,653.533z"/>
<path style="fill:#2C3B21;" d="M445.6251,654.6974c-0.3568-0.0226-0.7136-0.0452-1.0704-0.0678
	c-0.1424,0.2047-0.2945,0.2121-0.4562,0.0225c2.4162-1.2477,5.0108-1.3011,7.6373-1.1414
	C449.8619,654.7463,447.7335,654.6707,445.6251,654.6974z"/>
<path style="fill:#323F2B;" d="M433.0345,652.9885c-0.976-0.3588-0.6169-1.8291-1.7274-2.0761
	c-0.7845-0.0831-0.7891-0.5563-0.5708-1.1412c0.4577-0.8508-0.5492-1.4036-0.4441-2.1825
	C431.9166,649.028,432.7572,650.8651,433.0345,652.9885z"/>
<path style="fill:#394330;" d="M424.7762,637.6207c-1.5562-1.0273-1.5977-3.0385-2.7924-4.3006
	c-0.2106-0.3004-0.1738-0.5665,0.1106-0.7983C423.3303,634.0415,424.3127,635.6946,424.7762,637.6207z"/>
<path style="fill:#434938;" d="M422.0944,632.5218c-0.0368,0.2659-0.0736,0.532-0.1105,0.7982
	c-0.5521-1.4179-2.4841-2.0952-2.1427-3.9929C420.8761,630.1918,421.6631,631.2313,422.0944,632.5218z"/>
<path style="fill:#2B3A1E;" d="M440.837,655.7527c-0.0842,1.8146-1.964,1.8631-2.8449,2.8937
	C438.1472,656.9016,439.1873,656.0274,440.837,655.7527z"/>
<path style="fill:#2C3B22;" d="M474.2825,652.4289c-0.2155,0.0526-0.4308,0.1052-0.6463,0.1577
	c-1.2427,0.1821-2.4848,0.2042-3.726-0.0143c-0.2126-0.0454-0.4252-0.0908-0.6378-0.1364
	C470.9411,651.5463,472.6112,651.558,474.2825,652.4289z"/>
<path style="fill:#3A432F;" d="M427.0165,641.5065c-1.4537-0.3754-1.2101-1.7625-1.6384-2.749
	C426.4485,639.3613,426.9421,640.309,427.0165,641.5065z"/>
<path style="fill:#3A422E;" d="M434.6946,656.879c-0.757-0.7752-1.1822-1.6825-1.1096-2.788
	C434.4773,654.8124,434.8636,655.7352,434.6946,656.879z"/>
<path style="fill:#2B3A22;" d="M477.579,652.9925c-1.1073-0.2371-2.3969,0.572-3.3442-0.5831
	C475.3415,652.6498,476.6217,651.8945,477.579,652.9925z"/>
<path style="fill:#303D28;" d="M419.8706,629.376c-0.8611-0.7372-1.088-1.7313-1.1333-2.799
	C419.68,627.2812,419.8872,628.2833,419.8706,629.376z"/>
<path style="fill:#454837;" d="M444.0984,654.6522c0.1498-0.0538,0.3019-0.0613,0.4562-0.0225
	c-0.6929,0.9556-1.8737,0.3183-2.7025,0.8286C442.1674,653.9807,443.3015,654.7861,444.0984,654.6522z"/>
<path style="fill:#2B3A21;" d="M480.3103,653.5661c-0.9026-0.314-2.0502,0.5034-2.7813-0.6026
	c0.5403-0.012,1.0805-0.024,1.6208-0.036C479.5951,653.0341,480.1208,652.9946,480.3103,653.5661z"/>
<path style="fill:#EFEDEC;" d="M430.7363,649.7712c0.0705,0.4406,0.0216,0.9409,0.5711,1.1413
	c0.2962,2.465,2.2666,4.3903,2.2426,6.9585C431.6134,655.518,430.458,652.8937,430.7363,649.7712z"/>
<path style="fill:#D9D9D3;" d="M349.0405,653.6379c1.4015,0,2.8029,0,4.2044,0c0.0019,0.0923,0.0038,0.1846,0.0058,0.2769
	c-1.4009,0-2.8017,0-4.2026,0C349.0455,653.8225,349.043,653.7302,349.0405,653.6379z"/>
<path style="fill:#BA979D;" d="M454.4685,653.533c2.4916-1.1365,5.1016-0.3239,7.6538-0.4648
	C459.6214,654.0522,457.0161,653.3171,454.4685,653.533z"/>
<path style="fill:#B8969C;" d="M469.9102,652.5723c1.2419,0.0047,2.4838,0.0094,3.7258,0.0142
	C472.3918,653.2088,471.1497,653.2213,469.9102,652.5723z"/>
</svg>
