<svg version="1.1" id="Layer_1"
	 xmlns="http://www.w3.org/2000/svg"
	 x="0px" y="0px" viewBox="0 0 841.8898 1190.5511" style="enable-background:new 0 0 841.8898 1190.5511;" xml:space="preserve">
<path style="fill:#020202;" d="M371.7343,906.43c-2.2263,3.4288-3.0964,3.8461-5.4697,2.6442
	c-2.6307-1.3323-4.919-5.6908-3.9897-7.9193c0.3755-0.9003,0.9932-1.8777,2.4548-1.4438c1.2923,0.3837,2.6726,0.4775,4.0181,0.6713
	c0.3668,0.0529,0.7454,0.8796,1.1398-0.1826c0.3354-0.9031,0.7273-0.8743,0.9935-0.0183c0.2454,0.7889,0.8408,1.0404,1.3604,1.1357
	c3.6426,0.668,7.3023,1.2441,10.9616,1.817c0.2046,0.032,0.5252-0.1689,0.6725-0.3555c2.9686-3.7603,7.3376-6.0049,10.411-9.631
	c0.7132-0.8414,1.5882-1.5821,0.9532-3.2319c-0.8717-2.2651,3.5687-6.4676,6.2796-6.0009c2.3671,0.4074,4.8221,0.9672,5.8233,3.7325
	c0.6061,1.674,0.9009,3.1684-0.9554,4.2481c-0.2942,0.1711-0.7734,0.4265-0.773,0.6423c0.0078,4.3424-3.6126,5.4801-6.4163,7.3306
	c-2.6395,1.7422-4.7171,3.8901-3.9618,7.332c0.5056,2.3043-1.3867,2.6123-2.4869,3.3777
	c-3.3734,2.3469-6.7871,4.5156-11.2982,4.1992c-2.745-0.1926-4.2551-1.6963-5.7541-3.5471
	C374.3934,909.6201,373.4534,907.7068,371.7343,906.43z"/>
<path style="fill:#020202;" d="M447.5132,906.2496c-1.8071,2.2764-3.338,4.4291-5.1013,6.3707
	c-2.3373,2.5735-8.2763,3.0134-11.0309,0.9182c-1.8411-1.4003-3.9616-2.361-5.8884-3.6168
	c-1.1958-0.7792-1.4594-1.5068-1.3227-2.3919c0.5749-3.7219-1.3502-5.9141-4.2058-7.7709c-2.731-1.7758-6.2597-2.9468-6.2062-7.1807
	c0.0023-0.178-0.3281-0.3629-0.5079-0.54c-2.0966-2.0648-2.1844-3.9131-0.2833-5.9895c2.9525-3.2247,9.5695-2.0703,11.1832,1.9598
	c0.0974,0.2432,0.1362,0.5541,0.0811,0.8071c-1.0094,4.6407,2.7554,6.0707,5.4544,8.2924c1.9391,1.5963,3.6948,3.4188,5.4924,5.1811
	c0.3619,0.3548,0.4561,1.0328,1.1927,0.7681c3.1109-1.118,6.5066-0.4402,9.6415-1.5723c1.0786-0.3896,2.4265-0.1013,2.4725-1.8245
	c0.0036-0.1351,0.3899-0.2601,0.5983-0.3898c1.1773,2.6912,2.9551,0.24,4.4235,0.4979c1.0638,0.1869,2.3686-0.6832,3.1572,0.6501
	c0.8313,1.4056,0.9308,2.9733,0.1451,4.3663c-0.7496,1.329-1.682,2.6227-2.7814,3.6729
	C451.7458,910.637,449.9691,910.032,447.5132,906.2496z"/>
<path style="fill:#040404;" d="M401.7299,843.2741c1.4278-6.9181,2.6901-13.1728,4.0161-19.4139
	c0.986-4.6412,2.0631-9.2629,3.0771-13.8983c0.1475-0.6741-0.1712-1.8096,0.7629-1.7758c1.0275,0.0372,1.2057,1.324,1.3709,2.1228
	c0.6709,3.2457,1.1664,6.5273,1.7421,9.793c1.2766,7.2423,2.5654,14.4824,3.8317,21.7264c0.0393,0.2251-0.1146,0.4839-0.1766,0.72
	c-0.2424-0.0135-0.4916,0.0494-0.5851-0.0438C411.1574,837.9075,406.617,839.1754,401.7299,843.2741z"/>
<path style="fill:#080808;" d="M414.758,901.6332c-1.3217-1.3411-2.7137-2.6212-3.9428-4.0424
	c-0.9921-1.1471-1.7253-1.3297-2.7659-0.0535c-1.1876,1.4563-2.5434,2.7755-4.3179,4.6828
	c-0.1667-2.0877,0.8243-2.6466,1.5033-3.0881c3.4684-2.2557,3.9565-5.7922,4.1378-9.4109c0.1465-2.9233-0.0313-5.8617,0.0564-8.7897
	c0.043-1.4368-0.4768-1.9643-1.8906-1.9384c-2.1026,0.0383-4.2079-0.0444-6.3115-0.0981c-0.9392-0.0239-1.6682,0.0612-1.4865-1.4933
	c0.4644-3.9741,0.654-7.9841,0.845-11.9849c0.1472-3.0854-0.2238-6.2024,0.8503-9.5721c5.1163,0,10.4446,0.0562,15.7706-0.0317
	c1.7593-0.029,2.5876,0.0294,2.748,2.3356c0.4479,6.4389,0.9044,12.8696,1.0152,19.326c0.0301,1.7515-0.3209,2.33-2.3324,2.1011
	c-8.1125-0.923-8.1606-0.829-8.1112,7.1268c0.0176,2.8335-1.3171,5.704-0.4381,8.4068c0.8342,2.5649,3.6549,3.8769,5.1999,6.0839
	C415.111,901.3397,414.9345,901.4865,414.758,901.6332z"/>
<path style="fill:#040404;" d="M407.7759,843.7173c2.4543,0.0346,4.9107-0.1208,7.3516,0.3947
	c0.7339,0.155,1.3916-0.0278,1.4403,1.0687c0.1246,2.8051,0.3279,5.6072,0.5393,8.4076c0.0999,1.3227-0.4479,1.9701-1.7413,1.6237
	c-3.0295-0.8112-5.9936-0.3139-9.0492-0.0555c-4.9565,0.4192-7.0083-1.1168-5.9699-6.0574
	c1.1277-5.3655,1.0955-5.3724,6.6084-5.3802C407.2287,843.7183,407.5023,843.7187,407.7759,843.7173z"/>
<path style="fill:#3E3D3D;" d="M390.595,903.0706c1.0709,0.0786,2.3164-0.2672,2.681,1.0018
	c0.3757,1.3072,0.5386,2.7751-0.0767,4.0218c-0.4207,0.8524-1.4682,0.5466-2.2379,0.2741c-1.803-0.6381-3.565-1.3956-5.3786-1.9993
	c-0.8162-0.2717-0.8831-0.8-0.8814-1.4689c0.0019-0.7563,0.3264-1.1702,1.1232-1.2524
	C387.4504,903.48,389.0705,903.2581,390.595,903.0706z"/>
<path style="fill:#3E3D3D;" d="M398.1456,897.7644c-1.5904,1.1279-2.5769,3.3724-5.0473,2.3434
	c-0.9061-0.3775-2.5429-0.8318-1.7739-2.0703c0.6668-1.0739,1.467-3.0288,3.4857-2.2028
	C395.9495,896.3012,397.1961,896.6917,398.1456,897.7644z"/>
<path style="fill:#3E3D3C;" d="M396.7682,893.2647c2.0539,0.795,3.9048,0.3344,5.7114,0.4783
	c0.4372,0.0347,0.9781-0.0618,1.1458,0.5015c0.1523,0.5118-0.2516,0.8289-0.5702,1.1453c-1.7208,1.7094-5.3533,1.6746-7.155-0.0741
	c-0.3898-0.3784-0.8534-0.7796-0.5045-1.4006C395.7637,893.2601,396.3754,893.1639,396.7682,893.2647z"/>
<path style="fill:#3D3C3C;" d="M398.9473,889.9003c1.3439,0.0914,2.7005-0.2135,4.0356,0.3279
	c0.7526,0.3052,1.2729,0.4838,0.9945,1.4843c-0.2032,0.7302-0.2313,1.457-1.23,1.4592c-0.9078,0.002-1.8156,0.0214-2.7233,0.0145
	c-1.0612-0.0081-2.4137,0.2324-2.8196-0.98c-0.4306-1.2861,0.9618-1.6959,1.7685-2.324L398.9473,889.9003z"/>
<path style="fill:#3E3D3D;" d="M387.9617,911.3172c-1.0331,2.2464-3.0433,2.419-5.0508,2.1163
	c-1.2412-0.187-2.1517-1.3643-1.9181-2.5883c0.3114-1.6306,1.7818-1.2825,2.9111-0.951c1.3822,0.4055,2.5172,1.5323,4.0845,1.4442
	L387.9617,911.3172z"/>
<path style="fill:#3E3D3C;" d="M385.8679,902.5073c2.6854-3.2139,5.2654-3.5821,8.1121-1.4919
	c0.1778,0.1307,0.3701,0.4769,0.3158,0.6458c-0.1834,0.5707-0.6666,0.8388-1.2551,0.8417
	C390.7913,902.5139,388.5418,902.5073,385.8679,902.5073z"/>
<path style="fill:#3D3C3C;" d="M381.3694,905.2712c0.1519,0.2209,0.3356,0.4268,0.4496,0.6659
	c0.31,0.65,1.9843,0.1317,1.3757,1.4371c-0.3997,0.8574-1.3974,0.8016-2.1703,0.4534c-1.2638-0.5693-2.226-0.2792-3.1703,0.6689
	c-0.4384,0.4404-0.9243,1.496-1.6894,0.7628c-0.677-0.6489-0.1752-1.5014,0.3862-2.1627c0.3478-0.4096,0.6605-0.8491,0.989-1.275
	c0.0836-0.0979,0.1671-0.1959,0.2491-0.2958c1.0372-0.5781,2.0959-1.0282,3.3062-0.5283
	C381.1869,905.0879,381.2781,905.1795,381.3694,905.2712z"/>
<path style="fill:#3D3C3C;" d="M377.5398,905.8217c-0.4131,0.1506-0.8323,0.2866-1.238,0.4552
	c-0.6318,0.2627-1.13,1.6989-1.8606,0.6334c-0.6104-0.8901-0.3022-2.0336,0.8815-2.7345c2.1831-1.2924,5.7433-0.8144,7.9391,1.2023
	c-0.6862,0.7255-1.2639-0.3416-1.8924-0.1067c-0.0001-0.0001,0.0239,0.0188,0.0239,0.0188
	c-1.429-0.7852-2.6304,0.0363-3.8755,0.5494L377.5398,905.8217z"/>
<path style="fill:#3D3C3C;" d="M387.9884,911.3383c-1.2849-1.2733-3.1422-1.5847-4.8506-2.7729
	c3.233-1.3666,5.6066,0.7952,8.6078,1.0466c-1.1293,1.5702-2.1906,2.2414-3.7839,1.7052
	C387.9617,911.3172,387.9884,911.3383,387.9884,911.3383z"/>
<path style="fill:#3D3C3C;" d="M398.973,889.8821c-0.347-0.2926-1.977,0.6663-0.9571-0.9515
	c1.2402-1.9672,3.9896-2.3431,5.9548-0.8299c0.416,0.3204,0.9822,0.7063,0.7506,1.3083c-0.2688,0.6987-0.8719,0.3323-1.3836,0.225
	c-1.4833-0.3114-2.9843-0.7587-4.3902,0.2662C398.9473,889.9003,398.973,889.8821,398.973,889.8821z"/>
<path style="fill:#3C3B3B;" d="M366.2365,903.604c0.748,0.3007,2.2215-0.5429,2.1413,0.769c-0.0749,1.225-1.696,1.5427-2.7469,1.794
	c-1.1205,0.2679-1.6049-0.9893-1.5395-1.7719C364.2086,902.9952,365.5182,903.9387,366.2365,903.604z"/>
<path style="fill:#3D3C3C;" d="M380.5153,913.4014c-1.38-0.2159-2.1797-0.9438-2.9276-1.7631
	c-0.4739-0.5192-0.3282-1.0679,0.0629-1.4689c0.3621-0.3712,0.8735-0.7653,1.3536-0.8147c0.7856-0.0808,0.6214,0.6755,0.7371,1.1817
	C379.9407,911.4096,380.2047,912.2679,380.5153,913.4014z"/>
<path style="fill:#3E3D3D;" d="M372.7121,904.7271c-1.0327-0.0268-1.6526-0.4658-1.7422-1.4291
	c-0.0642-0.6899,0.1877-1.4503,1.0051-1.1608c0.8672,0.3071,2.3046-0.0543,2.5036,1.0419
	C374.6402,904.0694,373.6112,904.6268,372.7121,904.7271z"/>
<path style="fill:#3E3D3D;" d="M370.1037,904.7183c-0.5458,3.5849-0.8658,3.7903-3.8383,2.5411
	C367.5529,906.407,368.739,905.6218,370.1037,904.7183z"/>
<path style="fill:#EBE9E9;" d="M368.1102,901.2844c-1.535,1.2872-2.7202,0.9335-4.4324-0.0298
	C365.4079,900.7152,366.5978,900.67,368.1102,901.2844z"/>
<path style="fill:#3E3D3D;" d="M425.877,905.6786c-0.3718-2.1987,0.9543-2.839,3.0832-2.5916
	c1.5334,0.1782,3.0616,0.4026,4.5966,0.5622c0.8085,0.084,1.0986,0.531,1.1016,1.2733c0.0027,0.6743-0.0867,1.1921-0.9051,1.4506
	c-1.6483,0.5208-3.2542,1.177-4.8745,1.7855C426.3539,909.1067,425.8346,908.726,425.877,905.6786z"/>
<path style="fill:#3E3D3D;" d="M420.9629,897.462c2.1642-0.2396,3.4111-3.2846,5.6816-0.9644
	c0.6298,0.6437,2.3712,1.1497,1.3204,2.4624c-1.0669,1.3327-2.6885,1.9836-4.3622,0.9163
	C422.7271,899.3178,422.0393,898.4649,420.9629,897.462z"/>
<path style="fill:#3E3D3C;" d="M422.6317,893.2672c0.7091-0.0352,1.1956,0.2265,1.403,0.7872
	c0.1782,0.4817-0.1716,0.8495-0.4935,1.19c-1.7363,1.8365-5.7314,1.861-7.3547,0.021c-0.2305-0.2612-0.5219-0.6348-0.4911-0.9252
	c0.0584-0.5521,0.5984-0.5922,1.064-0.5957c1.0068-0.0074,2.0153-0.0416,3.0199,0.0047
	C420.8045,893.7964,421.7757,893.6176,422.6317,893.2672z"/>
<path style="fill:#3D3C3C;" d="M420.3857,889.882c0.8066,0.6283,2.1991,1.0382,1.7686,2.3242
	c-0.4059,1.2121-1.7584,0.9694-2.8196,0.9807c-0.7261,0.0078-1.4554-0.0462-2.178,0.0026c-1.094,0.0739-1.5479-0.3331-1.7989-1.4735
	c-0.3361-1.527,0.8406-1.476,1.5407-1.6216c1.1353-0.2361,2.3384-0.1462,3.5129-0.194L420.3857,889.882z"/>
<path style="fill:#3E3D3D;" d="M431.3702,911.3383c1.5673,0.0882,2.7024-1.0385,4.0846-1.444
	c1.1292-0.3315,2.5996-0.6797,2.9111,0.951c0.2338,1.2241-0.6768,2.4015-1.9179,2.5883c-2.0072,0.3023-4.0181,0.1309-5.0509-2.1163
	L431.3702,911.3383z"/>
<path style="fill:#3E3D3C;" d="M433.6157,902.5038c-2.8211,0-5.0788,0.0101-7.3362-0.007c-0.583-0.0045-1.1474-0.2751-1.2116-0.8693
	c-0.0874-0.8088,0.649-0.6539,1.146-0.7458c0.441-0.0816,0.9829-0.0541,1.2993-0.3039
	C430.129,898.5112,431.6476,900.2393,433.6157,902.5038z"/>
<path style="fill:#3D3C3C;" d="M441.819,905.8217c0.2667,0.3601,0.5057,0.7453,0.8057,1.0751
	c0.6377,0.7014,1.3422,1.624,0.5589,2.3496c-0.8499,0.7874-1.3394-0.4766-1.8742-0.9407c-0.8384-0.728-1.6607-1.0156-2.7169-0.5655
	c-0.8742,0.3726-1.9651,0.5972-2.4181-0.3707c-0.6646-1.42,1.3518-0.7477,1.5513-1.6317c0.0377-0.1669,0.1733-0.3116,0.2637-0.4666
	c0.0922-0.0897,0.1844-0.1795,0.2759-0.2706c1.2089-0.5024,2.2676-0.0525,3.3077,0.5218
	C441.6561,905.6209,441.7376,905.7213,441.819,905.8217z"/>
<path style="fill:#3D3C3C;" d="M437.9895,905.2712c-0.5818,0.1326-1.1636,0.2651-1.8698,0.426
	c1.7707-2.3033,6.0387-2.9489,8.1552-1.3921c0.9803,0.721,1.2205,1.8312,0.65,2.606c-0.7737,1.0507-1.2357-0.3715-1.8676-0.634
	c-0.4058-0.1685-0.825-0.3046-1.2382-0.4553c-0.0001-0.0001,0.0219,0.0177,0.0219,0.0177
	c-1.2451-0.5128-2.4463-1.3346-3.8753-0.5493L437.9895,905.2712z"/>
<path style="fill:#3D3C3C;" d="M431.3971,911.3172c-1.5324,0.6091-2.5092-0.3043-4.0492-1.5286
	c3.1769-0.5438,5.5877-2.3987,9.0279-1.3309c-1.8632,1.2961-3.7203,1.6076-5.0055,2.8806
	C431.3702,911.3383,431.3971,911.3172,431.3971,911.3172z"/>
<path style="fill:#3D3C3C;" d="M420.4114,889.9003c-1.4057-1.0251-2.9067-0.5779-4.3902-0.2663
	c-0.5119,0.1074-1.1149,0.4736-1.3838-0.225c-0.2317-0.602,0.3345-0.9878,0.7506-1.3082c1.9653-1.5134,4.7146-1.1375,5.9549,0.8298
	c1.0199,1.6179-0.6101,0.6588-0.9572,0.9514C420.3857,889.882,420.4114,889.9003,420.4114,889.9003z"/>
<path style="fill:#3C3B3B;" d="M453.1634,903.5569c0.7781,0.3818,2.1239-0.5892,2.0885,0.9715
	c-0.0164,0.7224-0.4326,1.8549-1.4019,1.639c-1.1459-0.2552-2.86-0.5507-2.8785-1.9276
	C450.9558,903.0881,452.495,903.9944,453.1634,903.5569z"/>
<path style="fill:#3D3C3C;" d="M444.325,902.9015c1.3835,0.1219,2.6902-1.6576,3.9457-0.2448
	c0.4796,0.5397,0.1249,1.4592-0.622,1.8268C446.0554,905.2678,445.2369,904.0224,444.325,902.9015z"/>
<path style="fill:#3D3C3C;" d="M438.8064,913.5537c0.3425-1.2324,0.6105-2.082,0.8071-2.9478
	c0.1154-0.5083-0.0672-1.2708,0.6722-1.2634c0.469,0.0046,1.0183,0.3999,1.3789,0.7692c0.4871,0.4985,0.5413,1.088-0.0258,1.6881
	C440.9301,912.5497,440.124,913.0865,438.8064,913.5537z"/>
<path style="fill:#3E3D3D;" d="M449.0977,904.5336c1.5664,1.0721,2.7313,1.8694,3.9324,2.6916
	C450.2445,908.5624,449.938,908.3858,449.0977,904.5336z"/>
<path style="fill:#EBE9E9;" d="M451.6074,901.0126c1.176,0,2.3521,0,3.8217,0
	C454.1019,902.5634,452.8903,902.4113,451.6074,901.0126z"/>
<path style="fill:#818181;" d="M409.1737,812.6633c0,8.644,0,17.0238,0,26.0349
	C407.9282,835.7581,408.0816,817.8265,409.1737,812.6633z"/>
<path style="fill:#808080;" d="M410.5064,817.9661c0.3858,4.1994,0.8628,8.4463,1.0231,12.7023
	c0.0863,2.2905,0.6915,4.5084,0.6106,6.7929c-0.0146,0.4143,0.1428,1.0215-0.4267,1.1262
	c-0.6146,0.1132-0.9841-0.3591-1.1443-0.9231c-0.0731-0.2572-0.0604-0.5433-0.0605-0.8162
	C410.5058,830.5541,410.5064,824.2601,410.5064,817.9661z"/>
<path style="fill:#808080;" d="M407.1657,823.3782c0,5.2074,0,10.4149,0,15.6222
	C405.7391,833.8242,405.8183,828.6277,407.1657,823.3782z"/>
<path style="fill:#7F7F7F;" d="M412.2627,824.9753c0.6927,4.821,2.993,9.5131,1.2412,14.7451
	C412.2947,834.7245,412.952,829.7869,412.2627,824.9753z"/>
<path style="fill:#7D7D7D;" d="M405.2065,832.9098c0.5553,2.5169,0.2915,4.5123,0.3301,6.6034
	C404.2323,837.737,404.0926,835.9739,405.2065,832.9098z"/>
<path style="fill:#7F7F7F;" d="M403.5924,838.3235c0.4166,0.9733,0.4152,1.6349,0.0746,2.4777
	C403.1553,840.0002,403.3441,839.3176,403.5924,838.3235z"/>
<path style="fill:#FEFEFE;" d="M401.7123,866.8648c-0.0001-2.4705,0.1205-4.9487-0.0388-7.4089
	c-0.1244-1.9193,0.2416-2.7168,2.448-2.6208c4.4725,0.1945,8.9605,0.0336,13.4421,0.0173c0.9009-0.0033,1.6096-0.1689,1.7916,1.2777
	c0.7413,5.8936,0.2938,11.8476,1.0484,17.7298c0.1979,1.543-0.3614,1.9708-1.9235,1.9808
	c-5.1241,0.0329-10.2277-0.2402-15.3372-0.5489c-1.2955-0.0782-1.4685-0.5607-1.4487-1.6434
	C401.7476,872.7215,401.7125,869.7928,401.7123,866.8648z"/>
<path style="fill:#202020;" d="M407.2965,853.8176c1.011-2.6107,2.2725-4.8647-0.6169-6.8931
	c-0.9243-0.6489-0.2981-1.939-0.0763-2.1821c0.9137-1.0013,2.0993-0.3494,3.2112-0.052c0.8893,0.2377,0.802,0.5131,0.497,1.3002
	c-0.7884,2.0349-1.0266,4.058-0.4468,6.3434C410.5966,855.2189,407.7028,852.4089,407.2965,853.8176z"/>
<path style="fill:#4A4949;" d="M413.7379,848.5621c-0.5014,1.3089-0.7814,2.6932-0.1431,4.1319
	c0.151,0.3403,0.0183,0.728-0.4361,0.8177c-0.2602,0.0513-0.5979,0.1393-0.791,0.0252c-0.7605-0.4496,0.1356-0.6294,0.2106-0.9504
	c0.3737-1.5983,0.0998-3.1429-0.9086-4.3378c-0.8534-1.0112-0.5381-1.7755-0.1055-2.7c0.2765-0.5911,0.7453-0.755,1.3247-0.6725
	c0.9152,0.1303,0.3826,0.7764,0.436,1.2358C413.4176,846.9081,413.5873,847.6952,413.7379,848.5621z"/>
<path style="fill:#B1B1B1;" d="M401.8766,846.8356c-0.1942-0.7322-0.5667-1.7255,0.368-1.9693
	c0.9789-0.2552,2.1174,0.036,3.1635,0.218c0.0939,0.0163,0.1108,1.0031,0.0038,1.5051c-0.119,0.5585-0.6677,0.557-1.1013,0.4413
	c-1.125-0.3001-0.0296-0.7415-0.0616-1.1093c-0.0802-0.9224-0.7869-0.5517-1.1399-0.3508
	C402.6314,845.8426,402.9173,846.8882,401.8766,846.8356z"/>
<path style="fill:#B4B4B4;" d="M404.2206,851.809c-1.6816-1.2121-2.1706-2.4556-1.7923-3.9797
	c0.033-0.1328,0.7915-0.2963,0.9468-0.1543C404.6088,848.8031,403.4672,850.2519,404.2206,851.809z"/>
<path style="fill:#B2B2B2;" d="M415.57,848.673c-1.4729-1.0184-1.5277-2.3227-0.7351-4.4323
	c0.6895,1.8022,1.1577,3.035,1.0439,4.4324h-0.1544L415.57,848.673z"/>
<path style="fill:#BBBCBB;" d="M415.5699,848.673c0.103,0.0052,0.2059,0.0053,0.3088,0.0001
	c0.1491,1.6323,0.2652,3.2619-0.0586,4.8569c-0.2462-0.0093-0.4924-0.0186-0.7386-0.0278
	C415.2444,851.8924,415.4072,850.2828,415.5699,848.673z"/>
<path style="fill:#BDBDBD;" d="M401.4586,849.5731c0.092,1.4254,0.2402,2.7501,1.1106,3.8612
	C400.4177,852.7268,401.4411,850.9297,401.4586,849.5731z"/>
<path style="fill:#B9B9B9;" d="M405.0609,854.1621c-0.5765-0.1532-1.1464-0.4236-1.006-1.1895
	c0.0357-0.1949,0.5354-0.4132,0.8333-0.4312c0.8684-0.0526,0.8675,0.7956,1.0247,1.2916
	C406.0251,854.187,405.4369,854.1273,405.0609,854.1621z"/>
<path style="fill:#B9B9B9;" d="M411.3206,851.8963c-1.0236-0.8099-0.8857-1.6361-0.5082-2.8588
	C411.0248,850.2325,411.1727,851.0645,411.3206,851.8963z"/>
<path style="fill:#0A0A0A;" d="M377.5178,905.8395c1.165-1.0776,2.3989-1.6691,3.8753-0.5494
	C380.1015,905.4733,378.8096,905.6564,377.5178,905.8395z"/>
<path style="fill:#0A0A0A;" d="M437.9657,905.2902c1.4761-1.1185,2.7104-0.5307,3.8752,0.5493
	C440.5492,905.6564,439.2575,905.4733,437.9657,905.2902z"/>
<path style="fill:#060606;" d="M408.8891,876.1382c-6.075,0.0416-6.0758,0.0416-6.0792-6.0148
	c-0.0019-3.4792,0.0534-6.9596-0.0278-10.4368c-0.0307-1.3168,0.3723-1.7785,1.6981-1.6961
	c2.1843,0.1356,4.3774,0.1297,6.5668,0.1835c0.0995,0.2805,0.0241,0.5097-0.1997,0.6955c-1.8842,1.2515-4.0663,0.451-6.3157,0.7594
	c0.5264,1.1349,1.4325,0.8807,2.1284,1.0054c1.0415,0.1868,2.0648,0.4086,2.0669,1.7364c0.0025,1.5322-1.1039,1.6895-2.2905,1.6795
	c1.0985,0.0243,2.2962,0.0872,2.2826,1.5435c-0.0224,2.3895-2.273,1.5272-3.5817,2.2417c1.0352,0.9645,3.3065-0.1049,3.4346,1.9639
	c0.0857,1.3831-1.1201,1.4288-2.2405,1.4225c1.0374,0.4225,2.4316,0.5483,2.2684,2.0343c-0.1783,1.6237-1.8291,1.0854-2.8063,1.5746
	c1.4453,0.2106,2.9834-0.3224,4.2376,0.7745C409.9748,876.4807,409.5377,876.5382,408.8891,876.1382z"/>
<path style="fill:#131212;" d="M411.0742,858.3063c0,0-0.0273-0.1323-0.0273-0.1324c2.0616-0.0272,4.125-0.0142,6.1842-0.0999
	c0.9175-0.0381,1.5251,0.3102,1.3669,1.1805c-0.9031,4.9673-0.1426,9.9686-0.3894,14.9463
	c-0.0409,0.8239,0.0359,2.0275-1.0144,1.8749c-2.7926-0.4054-5.54,1.3444-8.3051,0.0625c0.3538-0.1494,0.7075-0.2988,1.0613-0.4482
	c1.1719-1.2568,2.7309-0.8932,4.1372-0.8577c1.6243,0.0412,2.3317-0.4536,2.2679-2.1693c-0.1189-3.199,0.0327-6.4045-0.0388-9.6057
	c-0.0631-2.8281-0.5062-3.2336-3.358-3.4044C411.6433,859.5744,411.6433,859.5744,411.0742,858.3063z"/>
<path style="fill:#808181;" d="M411.0742,858.3063c0.48,1.3809,1.3882,0.743,2.2127,0.4642
	c2.3178-0.7838,3.6003,0.3028,3.688,2.4836c0.1758,4.3732,0.0762,8.757,0.115,13.1362c0.011,1.2449-0.8201,1.188-1.665,1.1992
	c-1.825,0.0244-3.6497,0.0659-5.4745,0.1003c-1.7343-0.0339-3.4686-0.0828-5.2031-0.0943
	c-0.6702-0.0045-1.0757-0.3873-1.1367-0.9435c-0.0946-0.8624,0.6672-0.6176,1.1427-0.6876
	c0.2686-0.0394,0.5811,0.0718,0.8155-0.0255c0.8743-0.3629,2.5925,0.8719,2.5752-0.8964c-0.0116-1.1891-1.6389-1.0721-2.6534-1.2705
	c-0.6068-0.1188-1.2867,0.1204-1.9362-0.48c0.8252-1.1082,1.9856-0.4155,2.9351-0.5913c0.6467-0.1197,1.6382,0.3262,1.7325-0.7762
	c0.1019-1.1909-0.9195-0.8232-1.5711-0.9175c-0.1791-0.0259-0.3691,0.0199-0.5471-0.0096
	c-0.9882-0.1633-2.5672,0.4539-2.6245-1.1452c-0.067-1.8736,1.64-0.681,2.4868-1.04c0.0775-0.0329,0.1844,0.0117,0.2718-0.0071
	c0.7727-0.1662,1.9794,0.5087,2.0429-1.0421c0.0638-1.559-1.1189-1.0449-1.9284-1.1603c-0.9422-0.1342-1.9755,0.3326-3.1153-0.6036
	c1.2802-0.7934,2.5433-0.4062,3.6993-0.4759c0.8351-0.0505,1.417-0.1808,1.363-1.2166c-0.047-0.9032-0.6055-0.9965-1.2973-0.9936
	c-0.731,0.0031-1.4635-0.0367-2.1929-0.004c-1.0427,0.0466-1.4472-0.3989-1.4601-1.4564c-0.0149-1.2175,0.7198-1.4521,1.5861-1.2413
	C407.0302,859.1211,409.0535,858.9176,411.0742,858.3063z"/>
<path style="fill:#060606;" d="M409.4245,861.965c-0.0379-0.7803,0.3158-1.3552,1.1039-1.1136
	c1.6933,0.5186,3.4156,0.4245,5.1362,0.4949c0.6969,0.0285,0.8851,0.5065,0.8665,1.1235c-0.0146,0.4845-0.1243,0.9664-0.6895,0.9749
	c-1.8188,0.0275-3.6418,0.0552-5.4562-0.0435C409.6393,863.3606,409.4359,862.6545,409.4245,861.965z"/>
<path style="fill:#060606;" d="M412.9001,866.8016c-0.6393-0.004-1.2816-0.0441-1.917,0.0057
	c-0.8748,0.0687-1.1293-0.5419-1.2195-1.1677c-0.1235-0.8575,0.5132-1.0245,1.2041-1.0255
	c1.3695-0.0016,2.7391,0.0146,4.1085,0.0008c0.7752-0.0078,1.4543-0.0088,1.4632,1.084c0.009,1.0938-0.6766,1.1138-1.4475,1.1079
	C414.3613,866.8013,413.6307,866.8057,412.9001,866.8016z"/>
<path style="fill:#060606;" d="M413.0326,874.0402c-1.2061-0.4375-3.3801,0.6799-3.3724-1.1969
	c0.0075-1.8385,2.1449-0.9588,3.3521-1.0511c1.2883-0.0987,3.3887-0.0162,3.3083,1.2882
	C416.2106,874.869,414.1178,873.4863,413.0326,874.0402z"/>
<path style="fill:#0D0E0E;" d="M413.2231,870.7867c-0.9639-0.7543-3.3098,1.0016-3.1158-1.2588
	c0.1919-2.2354,2.1562-0.4416,3.2716-0.4708c1.0098-0.0265,2.9722-0.7896,2.9591,0.7077
	C416.3226,871.5397,414.3217,870.28,413.2231,870.7867z"/>
</svg>
