<svg version="1.1" id="Layer_1"
	 xmlns="http://www.w3.org/2000/svg"
	 x="0px" y="0px" viewBox="0 0 841.8898 1190.5511" style="enable-background:new 0 0 841.8898 1190.5511;" xml:space="preserve">
<path style="fill:#FFE6BF;" d="M366.0453,887.1841c-0.373-0.5609-0.7459-1.1218-1.1189-1.6826
	c1.3307-2.5775,1.4221-5.4642,1.9461-8.2238c4.2616-22.4456,8.6752-44.8621,12.8896-67.3167
	c1.1123-5.9263,2.3742-11.824,3.4226-17.7633c0.474-2.6855,0.9438-3.0504,3.4662-2.1452
	c6.4935,2.3302,13.1614,3.8335,20.0075,4.5868c1.6381,0.1804,2.0672,0.941,1.7738,2.6069
	c-1.8862,10.7087-4.0337,21.3685-5.9471,32.0716c-3.0809,16.0629-6.1002,32.1375-9.045,48.2259
	c-0.1812,0.9902-0.4161,1.9692-0.5817,2.9602c-0.6181,2.6682-1.0107,5.3823-1.5635,8.066
	c-0.2407,1.1683-0.7454,1.7056-1.9492,1.8657c-7.0617,0.9391-13.8463,0.103-20.2319-3.147
	C368.0114,886.7275,367.0843,886.7471,366.0453,887.1841z"/>
<path style="fill:#FFE6BF;" d="M454.9817,885.5013c-0.3731,0.5607-0.7462,1.1215-1.1193,1.6821
	c-1.0378-0.4182-1.9637-0.4491-3.07,0.098c-4.2128,2.0837-8.6956,3.3262-13.3988,3.5713c-2.4469,0.1275-4.8622-0.5713-7.3303-0.5144
	c-0.9728,0.0225-1.2392-0.8292-1.4392-1.7078c-0.4048-1.7785-0.6005-3.5937-1.0233-5.3683
	c-3.4334-17.9633-6.7-35.9561-10.1667-53.9113c-1.8166-9.7937-3.6335-19.5873-5.5099-29.3696
	c-0.1723-0.8981-0.1917-1.8388-0.4356-2.7029c-0.5273-1.8683,0.3085-2.5717,2.006-2.6529c2.2079-0.1057,4.3323-0.7217,6.5044-1.0197
	c4.4753-0.6138,8.7079-2.0703,12.9667-3.4733c2.8837-0.9497,3.2722-0.6536,3.8286,2.3073
	c5.6374,30.0034,11.5439,59.9552,17.1981,89.9554C454.193,883.4598,454.2694,884.5889,454.9817,885.5013z"/>
<path style="fill:#916E42;" d="M454.9817,885.5013c-2.0411-0.5214-1.2513-2.4738-1.4767-3.5979
	c-3.8022-18.9608-7.436-37.9556-11.0518-56.9535c-2.0863-10.9616-4.0828-21.9404-6.0953-32.9159
	c-0.2622-1.4301-0.7338-2.3053-2.3936-1.5883c-6.703,2.8956-13.791,4.1823-20.9985,4.9055
	c-1.6392,0.1644-1.2495,0.904-1.0314,2.0325c1.9375,10.0256,3.7908,20.0676,5.6482,30.1085
	c0.1151,0.6224,0.0553,1.2772,0.0768,1.9169c0.297,0.5722-0.0209,0.6154-0.4696,0.546
	c-2.0722-11.0833-4.0518-22.1855-6.3083-33.2311c-0.3732-1.8267,0.5583-2.5463,1.4487-3.3505
	c0.757-0.6837,1.9062-0.9904,2.9305-1.3068c1.5534-0.48,4.1156,0.2781,4.4268-1.6937c0.4916-3.1149-0.1413-6.2975-2.891-8.5219
	c-0.1929-0.1561-0.5166-0.2221-0.7753-0.2128c-1.1911,0.0428-2.4946,0.2874-2.7446-1.4124c-0.268-1.8227,0.1983-3.5048,1.594-4.7038
	c0.9879-0.8486,2.2682-0.8821,3.1758,0.2206c1.0462,1.2711,2.5443,1.8325,3.9152,2.3951c4.1859,1.7174,5.4596,4.1762,4.0174,8.4819
	c-0.1431,0.4271-0.3108,0.8459-0.4612,1.2707c-0.219,0.6188-0.3725,1.2871,0.1255,1.798c0.5383,0.5524,1.2263,0.2361,1.7742-0.0242
	c2.4279-1.1533,4.9559-1.6678,7.6456-1.4752c0.9686,0.0693,1.6006,0.0712,1.8249,1.3959c1.414,8.3533,2.9102,16.6942,4.5,25.0161
	c2.0972,10.9782,4.3272,21.9311,6.4601,32.9026c2.4081,12.3871,4.773,24.7828,7.1478,37.1765
	C455.0464,884.9432,454.9889,885.2271,454.9817,885.5013z"/>
<path style="fill:#916E42;" d="M402.2477,829.4077c0.9974-5.7953,1.9565-11.5975,3.0038-17.3838
	c0.9163-5.0629,1.9081-10.1126,2.9209-15.1573c0.2301-1.1458-0.2103-1.4047-1.2412-1.5113
	c-7.2073-0.7443-14.3011-2.0101-21.0027-4.9152c-1.4474-0.6274-2.0865-0.0361-2.3369,1.3417
	c-1.8331,10.0906-3.6042,20.193-5.5205,30.2678c-2.2093,11.6147-4.5601,23.2024-6.826,34.8063
	c-1.768,9.0544-3.5076,18.1144-5.2346,27.1768c-0.135,0.7087,0.0548,1.5474-1.0841,1.4683
	c1.5267-8.1461,3.029-16.2973,4.5856-24.4382c2.1007-10.9869,4.2455-21.9655,6.3671-32.9485
	c1.949-10.0889,3.9058-20.1765,5.8291-30.2703c0.5057-2.6543,0.9525-5.3226,1.321-7.999c0.1585-1.1515,0.2124-2.1723,1.7311-1.2769
	c1.1669,0.688,2.7209-0.6151,3.7238,0.7722c-0.1782,0.2628-0.5108,0.1669-0.7303,0.3229c-0.0221,0.0156,0.1267,0.0413,0.2287,0.088
	c0.6295,0.2884,0.3145-0.2916,0.4397-0.4611c1.351,0.0132,2.6591,0.0234,4.0081,0.4661c1.8309,0.6007,2.7021-0.215,1.8487-2.1048
	c-0.6964-1.542-1.004-3.1161-0.7964-4.7627c0.2823-2.2385,1.5032-3.8311,3.6589-4.5632c1.723-0.5854,3.3768-1.2587,4.6713-2.5829
	c0.9047-0.9254,1.9963-1.0706,2.9649-0.3844c1.6263,1.1522,2.042,2.9025,1.8692,4.8246c-0.1271,1.4138-1.1406,1.374-2.1874,1.4424
	c-2.1288,0.1392-3.1177,1.8987-3.7337,3.4467c-0.6346,1.5945-0.4643,3.5092-0.648,5.2836
	c-0.0819,0.7916,0.2211,1.2007,1.0668,1.1414c1.5007-0.1053,2.7594,0.7314,4.1243,1.1326c3.5518,1.0445,4.2414,2.1974,3.5572,5.7604
	c-2.0207,10.5239-4.0694,21.0422-6.1071,31.5628C402.2688,830.0247,401.9514,829.9815,402.2477,829.4077z"/>
<path style="fill:#926F44;" d="M366.0453,887.1841c0.9348-0.3681,0.0646-1.405,0.7791-1.947
	c4.989,2.9669,10.4482,4.6586,16.2693,4.9871c2.2407,0.1265,4.5076-0.2437,6.7642-0.3538c0.9724-0.0474,0.8088-0.7957,0.9312-1.3728
	c0.5597-2.6389,1.1115-5.2795,1.6662-7.9196c0.4673-0.0745,0.7877-0.0219,0.489,0.5659c-0.3999,2.7729-0.7418,5.5563-1.2405,8.3113
	c-0.1246,0.688-0.408,1.3965-1.5467,1.5415c-8.0697,1.0278-15.8422,0.1301-23.2856-3.2343
	C366.5704,887.6265,366.3196,887.3795,366.0453,887.1841z"/>
<path style="fill:#9E7A55;" d="M417.1899,829.9551c0.1566-0.1819,0.3131-0.364,0.4697-0.546
	c1.6125,5.104,2.1643,10.431,3.1992,15.652c2.5228,12.7267,4.783,25.5054,7.1489,38.2631c-0.1755,0.236-0.2121,0.5878-0.5642,0.6765
	c-1.2032-6.0024-2.4661-11.9937-3.5972-18.0096C421.5893,853.9863,419.4045,841.968,417.1899,829.9551z"/>
<path style="fill:#926F44;" d="M427.4435,884.0008c0.1881-0.2255,0.3761-0.451,0.5642-0.6765
	c0.0139,0.0904,0.0179,0.1837,0.0433,0.2707c0.5998,2.0482,0.0629,5.3325,1.6982,5.9421c2.2537,0.8405,5.1117,0.8823,7.769,0.5781
	c2.793-0.3198,5.582-0.5446,8.2355-1.5746c2.5157-0.9766,5.0977-1.7968,7.276-3.3438c0.7727,0.5723-0.1038,1.6175,0.8327,1.9869
	c-6.1371,2.8071-12.3766,5.1-19.3224,3.8529c-0.1777-0.0319-0.3712,0.0059-0.5421-0.0426c-1.8528-0.5255-4.4267,1.2693-5.551-1.1811
	C427.6545,888.0859,427.7465,885.9526,427.4435,884.0008z"/>
<path style="fill:#9E7B55;" d="M392.9442,881.1439c-0.163-0.1886-0.326-0.3773-0.489-0.5659
	c2.8711-15.2252,5.7564-30.4478,8.5951-45.679c0.344-1.8459,0.3572-3.7557,1.1974-5.4913c0.1571,0.1818,0.3141,0.3635,0.4713,0.5453
	c-2.6576,14.1817-5.3123,28.364-7.9752,42.5447C394.2005,875.3912,393.9975,878.3563,392.9442,881.1439z"/>
<path style="fill:#0D1621;" d="M390.7767,876.4615c-0.62,3.0057-1.2753,6.1683-1.9236,9.3325
	c-0.2533,1.2363-1.0536,1.6323-2.1696,1.2754c-4.9468-1.5823-9.86-3.2731-14.8302-4.7764c-1.4518-0.4391-1.5971-1.3315-1.4528-2.463
	c0.4095-3.2099,0.9463-6.4046,1.2995-9.62c0.1057-0.9623,0.4882-1.1565,1.0993-0.6796c3.2326,2.5229,7.2779,2.3125,10.9605,3.2526
	c2.0747,0.5295,3.9509,1.8954,6.3701,1.4114C390.998,874.0206,390.5679,875.5378,390.7767,876.4615z"/>
<path style="fill:#0D1622;" d="M396.882,838.9017c-0.6856,3.2512-1.3539,6.4136-2.0188,9.5765
	c-0.2661,1.2659-1.0913,1.5491-2.2006,1.1918c-4.9446-1.5927-9.8635-3.2689-14.8327-4.7798
	c-1.6392-0.4984-1.5424-1.611-1.3871-2.7772c0.404-3.0342,1.0666-6.0444,1.2872-9.0887c0.1154-1.5924,0.5086-1.1902,1.3996-0.6873
	c5.0005,2.8226,10.7585,3.1868,16.1692,4.5024C397.444,837.361,396.3185,838.2928,396.882,838.9017z"/>
<path style="fill:#064A60;" d="M393.5094,858.3077c-0.6143,3.0449-1.2183,6.1299-1.8658,9.2057
	c-0.2671,1.2689-0.9698,1.8204-2.3439,1.3664c-4.8537-1.6041-9.6984-3.2445-14.5986-4.6947
	c-2.2433-0.6639-1.8878-2.4698-1.6101-3.7389c0.6001-2.7431,1.1139-5.4924,1.3348-8.2762c0.0863-1.0873,0.6197-1.1222,1.1368-0.7493
	c3.7486,2.7034,8.4127,2.3252,12.5382,3.7643c1.406,0.4904,2.8248,1.2217,4.5992,0.8986
	C393.8978,855.8655,393.2521,857.4796,393.5094,858.3077z"/>
<path style="fill:#064B60;" d="M385.8352,793.3895c4.2103,2.8895,8.9388,2.6254,13.1642,4.0739
	c1.4147,0.485,2.8743,1.36,4.6042,0.8702c0.9026-0.2557,0.8834,0.7131,0.8412,1.3037c-0.2639,3.6978-1.2045,7.2666-2.1166,10.8413
	c-0.3235,1.2679-1.2778,0.8911-1.9623,0.6768c-4.972-1.5562-9.9041-3.241-14.8873-4.7589c-1.5008-0.457-1.4827-1.4899-1.3294-2.5544
	C384.6359,800.461,385.2286,797.0952,385.8352,793.3895z"/>
<path style="fill:#064A60;" d="M380.2812,822.9454c0.5114-3.6116,1.082-6.6237,1.3097-9.6615
	c0.1208-1.6114,0.5757-1.0989,1.4403-0.6523c5.0757,2.6215,10.7975,3.0278,16.2136,4.4407
	c1.3205,0.3445,1.4267,0.6571,1.3383,1.4602c-0.3944,3.582-1.2155,7.0851-2.096,10.5778c-0.3265,1.295-1.242,0.9623-1.9169,0.7513
	c-4.9624-1.5508-9.8805-3.2454-14.8562-4.7501C380.0801,824.6174,380.2603,823.5206,380.2812,822.9454z"/>
<path style="fill:#0C1219;" d="M450.6753,879.7903c0.1227,1.3724-0.282,2.14-1.7648,2.5815
	c-4.8038,1.4302-9.5545,3.0403-14.318,4.6044c-1.2256,0.4025-2.1369,0.23-2.4302-1.1705c-0.6441-3.0754-1.3427-6.1441-1.8259-9.2457
	c-0.1661-1.0663-0.3436-1.7566,1.723-2.3596c5.3604-1.564,11.2237-1.5479,16.1267-4.6681c0.5874-0.3738,1.0623-0.3782,1.1329,0.6579
	C449.539,873.4207,449.9343,876.6369,450.6753,879.7903z"/>
<path style="fill:#0C1827;" d="M416.3819,800.1412c0.0451-1.2589,0.2661-1.6705,1.8018-2.0321
	c5.4679-1.2873,11.275-1.4332,16.281-4.4395c0.661-0.397,0.9928-0.2838,1.0992,0.6992c0.3389,3.1282,0.8572,6.2373,1.3213,9.3515
	c0.2391,1.605-0.3366,2.4692-1.9875,2.949c-4.6447,1.35-9.2423,2.8633-13.8496,4.3401c-1.0931,0.3502-2.1577,0.7633-2.5151-0.8642
	C417.8014,806.8137,417.0974,803.4762,416.3819,800.1412z"/>
<path style="fill:#074B60;" d="M424.1048,838.8111c0.3629-0.9184-0.0987-1.5121,1.4766-1.9581
	c5.4401-1.5402,11.2085-1.9615,16.3512-4.5287c1.0701-0.5341,1.2233-0.3264,1.3364,0.8907
	c0.2747,2.9558,0.8768,5.8799,1.2943,8.8243c0.2086,1.471-0.0773,2.5214-1.8513,3.0338c-4.7465,1.3707-9.4252,2.9758-14.1349,4.4745
	c-0.9756,0.3105-1.9897,0.6407-2.3159-0.8637C425.5372,845.3441,424.8033,842.0065,424.1048,838.8111z"/>
<path style="fill:#064A60;" d="M427.413,858.011c0.4456-0.7535-0.2864-1.4613,1.593-1.9349
	c5.4205-1.366,11.1937-1.6912,16.2183-4.4998c1.0294-0.5754,1.2234-0.3977,1.336,0.8615c0.2639,2.9487,0.8895,5.8631,1.295,8.8016
	c0.1968,1.426,0.0168,2.5302-1.8025,3.0497c-4.7385,1.3535-9.4099,2.9434-14.0972,4.4726c-1.1584,0.378-2.1408,0.5427-2.4706-1.0045
	C428.7928,864.5096,428.1039,861.2615,427.413,858.011z"/>
<path style="fill:#064B60;" d="M440.6952,822.8278c0.1963,1.2725-0.2718,1.9413-1.6011,2.3422
	c-4.8088,1.4503-9.5712,3.0547-14.3558,4.5862c-0.9666,0.3093-2.0016,0.6629-2.3149-0.8472
	c-0.7094-3.419-1.8713-6.7507-2.0213-10.2768c-0.0448-1.0533,0.2659-1.137,1.51-1.5233c5.3687-1.6675,11.1941-1.7513,16.2137-4.5888
	c0.7202-0.4072,1.1842-0.6166,1.2998,0.6844C439.7119,816.4244,440.2552,819.6215,440.6952,822.8278z"/>
<path style="fill:#FCE5BF;" d="M422.3554,787.6568c-1.3396,0.2465-2.1097-0.1748-2.0084-1.9963
	c0.1128-2.0281-1.7437-3.1335-2.916-4.3288c-1.2719-1.2968-1.13-2.491-0.476-3.5668c0.8016-1.3189,1.9846-0.2133,2.8385,0.2328
	c2.3666,1.2365,5.3232,1.7441,5.9438,5.1602C426.2223,785.8278,425.0862,787.6746,422.3554,787.6568z"/>
<path style="fill:#FEE6C0;" d="M422.5865,788.7585c0.8895,0.0172,2.1375-0.116,2.0232,1.102
	c-0.0769,0.8193-1.2368,1.1172-2.1865,1.0899c-0.7255-0.0209-1.4559,0.1078-1.4805-1.0316
	C420.9145,788.6085,421.7783,788.7726,422.5865,788.7585z"/>
<path style="fill:#F6F3F0;" d="M433.5521,789.5822c-1.0494,0.2558-1.8281,1.0121-3.0789,0.7002
	C431.4309,789.5219,432.2667,788.9742,433.5521,789.5822z"/>
<path style="fill:#FCE5BF;" d="M397.2018,787.661c-2.3623-0.033-3.8032-2.4463-2.9463-4.8165
	c0.6141-1.6986,1.3672-3.2975,3.5157-3.7058c1.0195-0.1937,1.9481-0.8944,2.902-1.3956c0.8224-0.4322,1.7396-0.9933,2.3748,0.0646
	c0.5692,0.9479,0.692,2.2296-0.0592,3.0642c-1.6449,1.8276-3.7118,3.2278-3.64,6.1932
	C399.3762,788.1943,397.7837,787.3082,397.2018,787.661z"/>
<path style="fill:#FBE4BF;" d="M397.2612,788.7609c0.899-0.0002,1.741-0.1255,1.7052,1.1693
	c-0.0314,1.1363-0.7676,1.0037-1.4864,1.0198c-0.9185,0.0206-2.077-0.2111-2.1491-1.0433
	C395.2316,788.7627,396.3927,788.691,397.2612,788.7609z"/>
<path style="fill:#F6F3F0;" d="M388.4221,789.2903c0.313,0.2696,0.6262,0.5392,1.0007,0.8616
	c-1.1371,0.7183-1.8812-0.4972-3.095-0.3411c0.8206-0.813,1.5328-0.35,2.1574-0.4704
	C388.4839,789.3405,388.4221,789.2903,388.4221,789.2903z"/>
<path style="fill:#0E5E68;" d="M381.8146,873.472c1.1632,0.2657,2.3958,0.2772,3.4502,0.9417
	c-2.5563,1.9391-5.6273,2.5101-8.6338,3.2476c-0.1059,0.1324-0.2681,0.2166-0.3414,0.3806c0.1592-0.2247,0.3564-0.4025,0.6222-0.501
	c3.5045-0.9561,6.3895-0.0529,8.7546,2.7355c2.1423,2.5256,2.0227,3.3182-0.9348,4.6058c-2.6202-0.9952-5.256-1.9514-7.857-2.9944
	c-4.0833-1.6375-4.0734-1.6622-3.6753-5.8198C376.3294,876.0599,378.814,873.9094,381.8146,873.472z"/>
<path style="fill:#5CBCB3;" d="M384.7317,884.8823c-0.5362-2.1561,1.4312-0.6701,1.9709-1.1943
	c-1.3303-3.9518-4.007-5.927-7.8562-5.8995c-0.8162,0.0059-1.6326,0.0013-2.4488,0.0016c0,0.0001,0.0372,0.0317,0.0372,0.0317
	c2.7874-1.5402,5.7242-2.6936,8.8301-3.4082c3.8978,0.7335,3.8917,0.7324,3.2755,4.5707c-0.2127,1.3248-0.4024,2.6539-0.5755,3.9846
	C387.7007,884.9995,386.8958,886.0803,384.7317,884.8823z"/>
<path style="fill:#5BBBB2;" d="M381.8146,873.472c-1.8277,1.4605-4.1242,1.9808-6.149,3.0502
	c-0.8582,0.4532-1.7303,0.1734-2.4661-0.454c0.6963-4.5786,0.6956-4.5757,4.9661-3.4894
	C379.3792,872.8875,380.5982,873.175,381.8146,873.472z"/>
<path style="fill:#0F5D69;" d="M395.0786,838.7521c-0.1911,1.3072-0.3822,2.6144-0.5733,3.9216
	c-0.6867,0.4939-1.1183,1.5588-2.2696,1.015c-0.9727-1.8777-6.031-2.6128-7.3446-1.0585c-0.8738,1.0341,0.8957,1.734,0.3637,2.7332
	c-2.0204-1.12-4.8868-0.6113-6.147-3.1946c0.991-0.8494,0.1172-1.813,0.1667-2.7202c-0.2782-0.8806,0.0581-1.6351,0.4862-2.3707
	c1.2248-0.8529,2.461-0.8839,3.7077-0.0549c0.3866,1.3235-1.2661,0.867-1.6423,1.8456c0.7385-0.7616,1.6414-0.8986,2.1211-1.6137
	c2.1076-1.5557,4.4973-0.0728,6.6967-0.6296c0.956,0.3113,1.6869,1.2348,2.8287,1.0408
	C393.9488,838.1156,394.6623,838.2142,395.0786,838.7521z"/>
<path style="fill:#5CBBB2;" d="M385.2548,845.3633c-0.6913-0.8303-1.3827-1.6605-2.1305-2.5585
	c2.7484-2.0724,5.6201-1.8354,8.6252-1.0149c1.3659,0.3729,0.5962,1.2018,0.6439,1.8774c0.155,1.736-0.8589,2.703-2.2502,3.4218
	C388.3965,846.8464,386.7665,846.2725,385.2548,845.3633z"/>
<path style="fill:#5ABAB2;" d="M390.644,836.6251c-2.2826,0.8647-4.7679,0.3568-7.0766,1.0448l0.0258,0.0311
	c-1.1194-1.1801-2.5758-0.2873-3.8325-0.6232c-0.3201-2.1226-0.221-3.3268,2.6111-2.2672
	C384.9893,835.7897,387.8759,836.0489,390.644,836.6251z"/>
<path style="fill:#5CBBB2;" d="M390.1433,847.0891c0.7501-1.1406,1.5001-2.2811,2.2502-3.4218
	c0.7903-0.1475,1.1185-1.2779,2.1119-0.9935c-0.1619,0.7834-0.356,1.5619-0.4799,2.3514
	C393.485,848.4684,393.4924,848.4695,390.1433,847.0891z"/>
<path style="fill:#40A2A3;" d="M379.2746,839.4485c0.3847,0.9337,1.5236,1.9136-0.1666,2.7203
	C378.0122,841.1914,379.4596,840.37,379.2746,839.4485z"/>
<path style="fill:#45ADAD;" d="M395.0786,838.7521c-0.7589-0.0314-1.3575-0.2999-1.606-1.0862
	C394.188,837.7617,395.2957,837.2773,395.0786,838.7521z"/>
<path style="fill:#38AEB4;" d="M385.1868,855.3506c1.3761,0.3696,2.7523,0.7385,4.1282,1.1087
	c2.8615,0.77,3.116,1.3572,1.8735,4.3209c-0.4695,1.2762-1.4915,1.6806-2.7352,1.7272c-2.039,0.0766-3.0162,0.8123-1.8718,2.9349
	c0.1176,0.2183-0.0343,0.5154-0.2115,0.7301c-3.4351-0.4256-6.2975-2.5073-9.6018-3.3259c-0.921-0.2281-1.4165-1.2917-1.2186-1.9141
	c0.492-1.5472-0.1424-3.2865,0.8956-4.6951c1.0894-0.5557,1.9377,0.1083,2.7123,0.6597c1.8142,1.2919,3.396,1.5847,4.7113-0.6411
	C384.1481,855.7833,384.7174,855.6113,385.1868,855.3506z"/>
<path style="fill:#BACB9A;" d="M385.1868,855.3506c-0.146,0.2279-0.282,0.4628-0.4393,0.6826
	c-2.4709,3.4506-2.4645,3.4385-6.1057,1.2488c-0.6912-0.4156-1.4625-0.6982-2.1967-1.0436
	c-0.3137-2.1899-0.0857-3.3755,2.6663-2.1948C380.9796,854.8452,383.151,854.9399,385.1868,855.3506z"/>
<path style="fill:#BBCC99;" d="M386.37,866.1725c-1.7809-3.7006-1.7129-3.8738,2.4309-4.2878
	c0.9889-0.0988,1.6138-0.6951,2.3876-1.1042c0.2858,1.1136-0.2198,2.1075-0.4302,3.1583
	C389.971,867.8698,390.0023,867.8761,386.37,866.1725z"/>
<path style="fill:#3AAFB4;" d="M391.7597,806.3958c-0.0902-0.0104-0.1854-0.006-0.27-0.0336
	c-5.6288-1.843-5.8607-2.3099-4.1169-8.2839c2.889-0.098,5.7903-0.0734,8.6604,0.1213c2.6726,0.1813,5.1247,1.213,6.6259,3.7103
	c-0.3484,1.8685-0.6967,3.737-1.045,5.6055C398.3701,806.7828,394.966,807.4605,391.7597,806.3958z"/>
<path style="fill:#B6CB9A;" d="M402.6591,801.91c-0.9841,0.0826-1.4149-0.7198-1.9865-1.2701
	c-2.0177-1.9424-4.4985-2.5519-7.0782-1.8718c-2.2599,0.5958-4.2009-0.0095-6.2216-0.6899c-0.3054-2.267,0.3938-2.5192,2.5646-1.811
	c3.4739,1.1334,7.1132,1.7772,10.7032,2.5292C402.4633,799.178,403.2648,800.0415,402.6591,801.91z"/>
<path style="fill:#BACB9A;" d="M391.7597,806.3958c2.2562-0.2728,4.5464,0.2598,6.7982-0.3592
	c1.373-0.3774,1.7824,1.4976,3.0561,1.4785c-0.2116,2.0439-1.1871,2.477-3.0193,1.5869
	C396.3896,808.0308,393.7889,807.9342,391.7597,806.3958z"/>
<path style="fill:#BCCC99;" d="M398.4316,821.2141c0.0807,1.3909,0.0095,2.7389-1.072,3.8019
	c-0.1894,0.2404-0.4283,0.4116-0.7152,0.5175c-1.9706,0.386-3.8433,0.3107-5.4136-1.1675
	c-1.2642-1.5542-2.7581-3.0508-1.4479-5.3129c0.1467-0.2615,0.3385-0.4828,0.5698-0.6727c2.6998-1.1642,5.252-0.8546,7.6731,0.7734
	C398.4321,819.7861,398.9344,820.402,398.4316,821.2141z"/>
<path style="fill:#3BAFB3;" d="M397.8888,819.6454c-2.4796-1.332-5.0339-1.7784-7.721-0.6521
	c-0.1206-0.1234-0.2209-0.1768-0.301-0.1602c0.0736-0.007,0.1804,0.0347,0.3204,0.1251c-1.1327,1.9813,0.5539,3.3564,1.0706,4.9831
	c-0.1151,0.0401-0.2303,0.0803-0.3453,0.1216c-1.1799-0.7161-2.4371-0.7231-3.7308-0.4026
	c-0.2436-0.0903-0.404-0.2599-0.4843-0.5067c-0.0468-0.6624,0.3818-1.5385-0.4928-1.876c-1.2491-0.4821-1.9127,0.5353-2.6453,1.2805
	c-0.1811,0.1761-0.3926,0.2997-0.636,0.3675c-0.4893-2.2956,0.2192-4.4681,0.6848-6.6655c2.2079-0.2083,4.496,0.6474,6.6332-0.4999
	c2.3089,0.9133,4.8749,0.9752,7.1054,2.1479C398.6964,818.908,398.705,818.9358,397.8888,819.6454z"/>
<path style="fill:#B5CA9B;" d="M390.2413,815.7602c-2.085,1.8424-4.317,1.7306-6.6333,0.4996
	c-0.2332-1.369-0.0753-2.1783,1.6895-1.6147C386.9007,815.157,388.59,815.399,390.2413,815.7602z"/>
<path style="fill:#48B0B0;" d="M391.2578,823.9412c1.6936,1.1968,3.6265,1.1549,5.5666,1.0762
	c-0.6607,1.9418-2.4218,1.047-3.6852,1.4355c-2.1042-0.4016-4.0131-1.6005-6.2335-1.5461c-1.275-0.7657-3.1139-0.3976-3.9821-1.9814
	c-0.0002,0.0001,0.1741-0.1614,0.1741-0.1614c1.4216-0.7668,2.6333-0.2625,3.7819,0.6246l-0.0144-0.0115
	c1.493,0.0422,2.958,0.312,4.4277,0.5432L391.2578,823.9412z"/>
<path style="fill:#B9CB9A;" d="M392.9209,826.1371c1.0315-1.3124,2.8778,0.2166,3.903-1.1196
	c0.1789,0.0048,0.3574,0.0043,0.5358-0.0015c1.1989,1.1356,0.2098,2.6382-0.3285,2.9694c-1.1506,0.708-2.4315-0.2748-3.5811-0.8564
	C393.0758,826.904,392.5829,826.7422,392.9209,826.1371z"/>
<path style="fill:#B9CB9A;" d="M392.9209,826.1371c0.1764,0.3306,0.3528,0.6613,0.5291,0.9919
	c-2.3446-0.2596-4.3809-1.4272-6.5441-2.2219C389.127,824.2588,391.0785,824.9314,392.9209,826.1371z"/>
<path style="fill:#B7CB9A;" d="M397.8888,819.6454c0.8105-0.8889-0.6386-1.0718-0.5423-1.7374
	c2.9301,0.2592,1.3876,1.9862,1.0851,3.3062C398.2507,820.6912,398.0697,820.1682,397.8888,819.6454z"/>
<path style="fill:#39AEB3;" d="M432.5184,879.9542c-0.5664-4.6703-0.5664-4.6703,4.2727-5.9225
	c1.4948,0.3708,3.1499-0.1184,4.536,0.8434c1.0596,2.5876-1.0262,4.2155-1.8932,6.2167c-0.4549,0.4812-1.0797,0.9803-1.6461,0.5358
	C436.2161,880.3943,434.2738,880.5014,432.5184,879.9542z"/>
<path style="fill:#105159;" d="M432.5184,879.9542c1.8077-0.6102,3.565-0.7647,4.92,0.8978
	c0.5441,0.6675,1.0811,0.3585,1.6603,0.2623c0.1097-0.0339,0.2195-0.0679,0.3288-0.1035c0.8967-0.4704,1.5699-1.5454,2.8277-1.0502
	c1.0593,0.6672,2.5495,0.1086,3.454,1.2119c-0.777,0.6912-1.6728,1.0663-2.7252,1.025c-1.2325,0.6774-2.9392,0.2194-3.8708,1.6172
	C433.9738,885.9324,433.9738,885.9324,432.5184,879.9542z"/>
<path style="fill:#105059;" d="M441.0759,875.1179c-1.5294,0.037-2.9627-0.3047-4.2847-1.0864
	c3.1546-0.7495,6.3093-1.499,9.464-2.2485c0.659,0.5123,0.6381,1.352,0.9726,2.0204c0.1583,0.9473,0.9926,1.8631,0.1329,2.8577
	c-1.2564,0.1689-2.6501-0.3673-3.7246,0.7273c-0.7322-0.3775-1.1339-1.1509-1.8482-1.554
	C441.5729,875.5731,441.4471,875.2242,441.0759,875.1179z"/>
<path style="fill:#39AEB3;" d="M443.4869,877.2195c0.9856-2.3062,2.4025-1.62,3.8736-0.5583
	c0.0643,1.7289,0.7487,3.6849-1.6514,4.5112c-1.2106-0.7204-3.1805,1.1621-3.9281-1.1461
	C441.8556,878.7902,442.5165,877.9107,443.4869,877.2195z"/>
<path style="fill:#35A7AC;" d="M439.1133,883.8146c0.4193-2.6243,2.4693-1.3446,3.8708-1.6173
	C441.9189,883.2755,440.5046,883.5175,439.1133,883.8146z"/>
<path style="fill:#319DA2;" d="M447.2278,873.8035c-0.5414-0.5688-0.92-1.2162-0.9725-2.0205
	C448.325,871.6159,446.9443,873.1104,447.2278,873.8035z"/>
<path style="fill:#0F6470;" d="M419.8891,808.5717c-0.5924-0.8607-0.6576-1.8269-0.565-2.8247
	c0.7778-1.7415,2.9554-2.0153,3.8238-3.5198c-1.3947,0.5365-2.7898,1.2707-4.3531,0.2933c-1.1917-1.9083-0.9142-3.0951,1.505-3.6027
	c2.2932-0.481,4.5315-1.224,6.7939-1.8517c1.1741,0.5402,2.2797,0.0587,3.3783-0.2644c1.3928-0.4097,2.4561-0.116,3.1111,1.2519
	c0.1029,0.1592,0.1367,0.3319,0.1014,0.5181c-0.5204,1.6763-0.6151,3.6618-3.0936,4.0593c1.2986,0.1255,2.6669-0.6531,3.473,0.8066
	c0.139,0.7017-0.0243,1.3762-0.7113,1.5954c-3.4306,1.0949-6.5462,3.1024-10.2054,3.5278
	C422.0606,808.3968,420.9756,808.7233,419.8891,808.5717z"/>
<path style="fill:#65BCB0;" d="M434.0639,803.4375c-1.7239-1.0134-3.5093,0.6391-5.4886-0.3273
	c2.4827-0.7468,4.0844-2.3471,5.1087-4.5388C434.2912,800.1561,434.423,801.7776,434.0639,803.4375z"/>
<path style="fill:#63BBB0;" d="M418.7949,802.5204c1.6753,0.0266,3.2823-0.9584,5.2428-0.3005
	c-1.2828,1.7181-2.8879,2.761-4.7135,3.5272C418.4655,804.7834,418.7728,803.6285,418.7949,802.5204z"/>
<path style="fill:#59B4AD;" d="M433.5831,798.0535c-1.1355-0.7806-2.2129-1.3598-3.7169-0.6588
	c-0.8046,0.3751-1.9357,0.4962-2.7727-0.3287c1.4049-0.2475,2.9407-0.2164,4.1857-0.8029
	C433.5516,795.1926,433.8633,796.1101,433.5831,798.0535z"/>
<path style="fill:#65BCB1;" d="M419.8891,808.5717c1.083-0.8561,2.1681-1.1229,3.2581-0.0112
	C422.0616,808.7039,420.9828,810.8345,419.8891,808.5717z"/>
<path style="fill:#3AAFB4;" d="M434.0777,835.943c2.3114-0.5892,4.6229-1.1785,7.0759-1.8038
	c0.2061,1.8241,0.3971,3.5139,0.588,5.2039c-1.3204,2.7139-3.8157,4.293-5.9787,6.193c-0.8965,0.4034-1.7583,0.9226-2.8005,0.8395
	c0.022-2.036,2.2283-2.223,2.8242-3.4686c-1.0244,0.978-2.2394,2.1441-3.9642,2.4146c-1.751,0.2747-3.482,0.33-4.8561-1.1083
	c-0.8775-1.5383-0.6404-3.3154-1.0427-4.9589c-0.2131-0.8702,0.0469-1.4865,1.2166-1.6375c1.604-0.2072,3.1674-0.7292,4.7481-1.1165
	C432.5929,836.2151,433.7613,837.7534,434.0777,835.943z"/>
<path style="fill:#B6CB9A;" d="M426.9664,844.2132c4.0796,1.5583,7.3264,0.2012,10.1546-2.8873
	c-0.8073,2.1963-2.9049,3.2805-4.158,5.0495c-0.5735,0.2386-1.1363,0.5057-1.7207,0.7112
	C427.2563,848.4886,427.1735,848.4299,426.9664,844.2132z"/>
<path style="fill:#B5C99A;" d="M435.763,845.5359c1.6069-2.437,3.8443-4.2651,5.9787-6.1927
	c1.0146,3.5332,0.9539,3.6534-2.4379,4.8908C438.1224,844.665,436.9431,845.1018,435.763,845.5359z"/>
<path style="fill:#B4CA9B;" d="M434.0777,835.943c0.3741,0.1395,1.019,0.0456,0.7821,0.7576
	c-0.177,0.532-0.5161,1.0453-1.1747,0.8794c-0.6855-0.1728-1.4078-0.3732-1.7968-1.0795
	C432.4563,835.6784,433.3637,836.1908,434.0777,835.943z"/>
<path style="fill:#BBCC99;" d="M429.8604,861.8337c-0.9515-4.6096-0.9632-4.6536,3.5117-5.8399
	c3.1293-0.8294,6.3012-1.4968,9.4441-2.2767c1.9731-0.4895,1.8074,0.8349,1.8155,2.0452c0.0504,1.6149-1.5443,1.4297-2.3263,2.1359
	c-2.7988,1.0562-5.5545,2.2497-8.5208,2.793c-0.8141,0.1178-1.5618,0.4072-2.2347,0.889
	C431.0126,861.837,430.4785,862.1223,429.8604,861.8337z"/>
<path style="fill:#BACB9A;" d="M429.8604,861.8337c0.425-0.1695,0.8501-0.3391,1.2751-0.5085
	c0.8003-0.4246,1.6551-0.7289,2.4702-1.121c2.7338-0.8944,5.4677-1.7888,8.2014-2.6832c0.8084-0.481,1.6021-0.5858,2.3658,0.0912
	c0.3489,0.9314-0.0874,1.6248-0.6858,2.2692c-1.0193,0.8293-2.3413,1.0293-3.4605,1.6551c-0.2218,0.1155-0.4537,0.209-0.688,0.2944
	c-1.5819,0.6016-3.2148,1.0847-4.665,1.9925c-0.6619,0.4796-1.5294,0.3126-2.2231,0.7084
	c-0.6885,0.1334-1.3732,0.4252-2.0725,0.0516C430.2055,863.6668,430.0329,862.7502,429.8604,861.8337z"/>
<path style="fill:#BACB9A;" d="M432.4992,864.0538c0.5405-0.1703,1.081-0.3406,1.6214-0.511
	c1.8288-0.7808,3.7508-1.3318,5.5262-2.2443l-0.037,0.0223c0.6786-0.3903,1.4244-0.5812,1.8117,0.2654
	c0.3549,0.7758-0.2096,1.3538-0.8403,1.7644c-0.9063,0.5903-1.9415,0.8981-2.9407,1.2747c-0.234,0.1126-0.4703,0.2273-0.701,0.3486
	c-1.0988,0.2628-2.1709,0.6163-3.2184,1.0514c-0.2411,0.1017-0.4907,0.1642-0.7497,0.1951
	c-0.812,0.1423-1.5827,0.0862-2.2505-0.4648c-0.1129-0.1745-0.2257-0.349-0.3387-0.5235
	C430.8725,864.4524,431.8327,864.5171,432.4992,864.0538z"/>
<path style="fill:#48AFB1;" d="M436.8734,864.6169c0.8244-1.1046,2.2656-0.9828,3.3095-1.6611
	c0.4677-0.3039,1.0457-0.6105,0.8487-1.2059c-0.2069-0.6254-0.9201-0.3464-1.4218-0.4291c0.8351-1.0895,2.2711-0.9778,3.3113-1.6572
	c0.7207,0.3221,1.6053-0.2297,2.2636,0.4247c0.5983,0.79,0.7924,1.5594-0.1154,2.2729c-1.3398-0.2985-2.3018,0.4353-3.2556,1.1917
	c-0.5948,0.6683-1.4718,0.6836-2.2336,0.9654C438.6696,864.3225,437.8067,865.4367,436.8734,864.6169z"/>
<path style="fill:#B5CA9B;" d="M435.8236,865.7515c-1.1182,0.9348-2.6014,0.9502-3.8731,1.5143
	c-0.7162,0.3178-1.2185-0.0793-1.0425-0.9706c0.7789-0.7363,1.9119,0.1164,2.6949-0.6009l-0.037,0.0205
	c0.6099-0.4406,1.2976-0.2646,1.9653-0.2485C435.6288,865.5612,435.7262,865.6564,435.8236,865.7515z"/>
<path style="fill:#BACB9A;" d="M445.1848,860.0883c-0.7989,0.0948-1.6304,0.3635-2.2636-0.4247
	c0.3662-0.5397,0.7325-1.0794,1.0987-1.6191c0.2215-0.3878,0.4402-0.7806,1.0013-0.5505
	C445.0757,858.3587,445.1302,859.2235,445.1848,860.0883z"/>
<path style="fill:#BBCC99;" d="M441.8137,863.5529c1.6262-1.8676,2.3521-2.1334,3.256-1.1919
	C444.1041,863.0865,442.9541,863.3065,441.8137,863.5529z"/>
<path style="fill:#4AADAD;" d="M445.0211,857.4939c-0.3337,0.1833-0.6675,0.3666-1.0013,0.5503
	c-0.5574-0.9346-1.4492-0.4581-2.2126-0.5237c0.6667-1.027,2.2432-0.5928,2.8243-1.7582
	C445.1144,856.26,445.0748,856.8754,445.0211,857.4939z"/>
<path style="fill:#B3CA9B;" d="M436.8734,864.6169c0.9187,0.4193,1.7714-0.9754,2.7067-0.0986
	c-1.1611,0.6885-2.3882,1.1763-3.7566,1.2331c0,0.0001-0.0464-0.0516-0.0464-0.0516c-0.3199-1.0723,0.8847-0.5998,1.1219-1.1077
	L436.8734,864.6169z"/>
<path style="fill:#44B1B2;" d="M432.4992,864.0538c-0.5178,0.7304-1.3067,0.9732-2.117,1.178
	c-0.0015-0.216-0.0028-0.4324-0.0042-0.6486C431.0371,864.2147,431.725,863.9612,432.4992,864.0538z"/>
<path style="fill:#39AEB4;" d="M433.6029,865.6943c-0.7255,0.9761-1.8046,0.3647-2.6949,0.6008
	c-0.0621-0.1796-0.1243-0.3594-0.1868-0.5393C431.6815,865.7352,432.6422,865.7148,433.6029,865.6943z"/>
<path style="fill:#3BB0B4;" d="M434.7319,815.2099c0.9044,0.0037,2.2636-2.4171,2.6227,0.4924
	c-0.731,0.751-1.6322,1.3789-1.822,2.5239c-3.4456,0.9288-6.7551,2.1958-10.1134,3.9385c1.8029,0.0639,1.797,0.0518,3.8034-0.9323
	c1.3162-0.6456,2.5648-1.4115,3.856-2.0995c1.1606-0.6183,2.386-1.093,3.5726-0.0694c0.7021,0.6057,0.825,1.4478,0.4709,2.2631
	c-0.5483,1.2621-1.1103,2.5971-2.9325,2.196c-0.2479-0.3306,0.0432-0.8208-0.0431-0.9575
	c-0.2177-0.3448-0.3795,0.1396-0.5458,0.2682c-2.1111,1.6306-4.3755,2.9604-7.0639,3.315
	c-1.1363,0.1498-2.3732,0.3989-3.3181-0.6375c-0.2443-1.4523-0.4885-2.9045-0.7328-4.3568
	C426.3692,818.7628,430.626,817.1419,434.7319,815.2099z"/>
<path style="fill:#BACB9A;" d="M434.1549,823.3724c0.7219,0.0491,1.2566-0.3357,1.6172-0.8727
	c0.5876-0.8751,1.6099-1.7942,0.7455-2.9172c-0.873-1.1342-2.0087-0.484-2.9828,0.0175c-2.1925,1.1285-4.3422,2.3412-6.5463,3.4458
	c-0.8984,0.4501-2.393,0.811-2.7322-0.0184c-0.5247-1.283,0.9034-1.651,1.943-2.0797c3.1051-1.2802,6.0774-2.9485,9.5534-3.0667
	c0.3889-0.7374,0.9253-1.0676,1.7397-0.6305c0.8368,1.4546,0.5195,3.1428,0.9234,4.6981c0.2437,0.9385-0.4496,1.6764-1.4798,1.9735
	c-1.3001,0.3749-2.578,0.827-3.8654,1.2458c-0.2144-0.1967-0.3264-0.4404-0.3369-0.7315
	C432.9195,823.6975,433.2245,823.1168,434.1549,823.3724z"/>
<path style="fill:#BACB9A;" d="M434.7319,815.2099c-3.7034,2.7603-7.8187,4.6722-12.2448,5.9449
	c-1.1985-2.1295-0.3592-3.2423,1.8335-3.6791C427.8044,816.7817,431.1353,815.3851,434.7319,815.2099z"/>
<path style="fill:#B5CA9B;" d="M434.1549,823.3724c-0.5804,0.2347-0.9673,0.6546-1.1843,1.2372
	c-1.4072,0.8268-2.9967,1.2872-4.3724,2.1774c-0.7376,0.2938-1.4991,0.5392-2.2084,0.8901
	c-2.3693,1.1718-3.1708,0.1049-3.1711-2.1654c4.81,0.8137,8.369-2.0962,12.3187-4.0458
	C435.0766,822.1014,434.6158,822.737,434.1549,823.3724z"/>
<path style="fill:#50B3B1;" d="M428.5982,826.7871c1.2494-1.1448,2.4349-2.4181,4.3729-2.1785
	c0.0326,0.1873,0.0657,0.3735,0.0991,0.5595C431.7374,826.1433,430.1941,826.5378,428.5982,826.7871z"/>
<path style="fill:#B5CB9A;" d="M437.4923,817.2505c-0.5797,0.2102-1.1595,0.4204-1.7394,0.6306
	c-1.8127-2.4525,0.9975-1.5042,1.6018-2.1788C437.4005,816.2184,437.4464,816.7344,437.4923,817.2505z"/>
<path style="fill:#4DB4B1;" d="M376.3976,877.7902c0.4613,0.9335,0.3538,1.6071-0.8521,1.6185
	c-0.5887,0.0056-1.2372-0.4539-1.1373-0.9435c0.2449-1.2,1.3242-0.4659,2.0269-0.6435
	C376.4348,877.8219,376.3976,877.7902,376.3976,877.7902z"/>
<path style="fill:#53B5B0;" d="M383.5674,837.6699c-0.5332,1.0752-1.4124,1.7772-2.4608,2.3752
	c-1.08-2.9422,1.0025-2.3129,2.4866-2.3444C383.5933,837.701,383.5674,837.6699,383.5674,837.6699z"/>
<path style="fill:#B6CB9A;" d="M396.1971,803.0295c-0.9337,1.1151-2.1416,0.3056-3.4307,0.7736
	c1.0852-2.1069,2.3499-0.8459,3.4644-0.7387L396.1971,803.0295z"/>
<path style="fill:#9BC5A0;" d="M396.2308,803.0644c-0.0312-0.377-0.7209-1.1381,0.4223-0.8459
	c0.4275,0.1093,1.2507,0.3317,0.9109,0.977c-0.3477,0.6601-0.8999-0.0734-1.3668-0.1657
	C396.1971,803.0295,396.2308,803.0644,396.2308,803.0644z"/>
<path style="fill:#ACC99D;" d="M389.6353,800.3091c0.2547-0.2144,0.4088-0.446,0.592-0.4717
	c0.2144-0.0303,0.4541,0.119,0.6828,0.1904c-0.1927,0.2398-0.3547,0.5239-0.597,0.6926
	C390.2397,800.7714,389.9442,800.5034,389.6353,800.3091z"/>
<path style="fill:#B9CB9A;" d="M386.8794,823.3888c-1.2608-0.2081-2.5215-0.4162-3.7821-0.6245
	c-0.0924-1.5602,1.2057-1.9006,2.2162-2.3933c0.8592-0.4191,1.6068,0.225,2.1732,0.7498
	C388.5974,822.15,386.9469,822.5864,386.8794,823.3888z"/>
<path style="fill:#BACC99;" d="M391.2928,823.9205c-1.6203,0.9969-2.9801-0.1306-4.4276-0.5432
	C388.5045,822.2245,389.9763,822.4389,391.2928,823.9205z"/>
<path style="fill:#B2CA9B;" d="M390.1871,818.9581c-0.6154,0.132-0.6008,1.488-1.5966,0.8414
	c-0.2889-0.1876-0.5199-0.5579-0.1766-0.8629c0.5703-0.5067,1.1975-0.7862,1.7538,0.0568
	C390.1678,818.9933,390.1871,818.9581,390.1871,818.9581z"/>
<path style="fill:#135A62;" d="M441.0759,875.1179c0.2602,0.1899,0.5203,0.3798,0.7805,0.5697
	c0.4788,2.4957-0.4531,4.2964-2.7955,5.4022c0,0,0.0373,0.0242,0.0376,0.0244C439.1743,878.923,441.5464,877.4893,441.0759,875.1179
	z"/>
<path style="fill:#39AFB4;" d="M439.0609,881.0898c1.6074-1.4512,2.4382-3.3043,2.7954-5.4025
	c1.4021-0.4031,1.7374,0.3292,1.6306,1.5322c-0.1378,1.1974-0.9368,1.993-1.7059,2.8067
	C440.748,880.0576,440.5656,882.2656,439.0609,881.0898z"/>
<path style="fill:#B2CA9B;" d="M431.1453,838.2038c0.6618,0.1178,1.7078-0.0295,1.5144,0.9932
	c-0.1645,0.8697-1.0282,1.5347-1.9528,1.6507c-1.1115,0.1393-1.321-0.8763-1.3522-1.6329
	C429.3016,837.9288,430.4061,838.3216,431.1453,838.2038z"/>
<path style="fill:#47B1B2;" d="M433.6057,860.2042c-0.631,0.7938-1.4785,1.1115-2.468,1.1213
	C431.7758,860.5479,432.5515,860.0691,433.6057,860.2042z"/>
<path style="fill:#4FB2B1;" d="M439.6467,861.2985c-1.5705,1.417-3.5028,1.9423-5.526,2.2441
	C435.7553,862.2841,437.632,861.621,439.6467,861.2985z"/>
<path style="fill:#40B0B3;" d="M436.8991,864.5921c-0.374,0.3692-0.748,0.7385-1.1219,1.1077
	c-0.7371,0.0051-1.4742,0.0101-2.2113,0.0151C434.5246,864.8882,435.677,864.6367,436.8991,864.5921z"/>
</svg>
