<svg width="24" height="24" viewBox="0 0 24 24" fill="none" xmlns="http://www.w3.org/2000/svg">
<path fill-rule="evenodd" clip-rule="evenodd" d="M18.8212 9.75L18.8212 5.38604L18.8212 4.88604L18.3212 4.88604L13.9572 4.88604L13.9572 5.88604L17.1141 5.88604L13.0179 9.98224L13.725 10.6893L17.8212 6.59315L17.8212 9.75L18.8212 9.75Z" fill="#141414"/>
<path fill-rule="evenodd" clip-rule="evenodd" d="M4.88585 13.9572L4.88585 18.3211V18.8211H5.38585L9.74981 18.8211L9.74981 17.8211L6.59296 17.8211L10.6892 13.7249L9.98204 13.0178L5.88585 17.114L5.88585 13.9572L4.88585 13.9572Z" fill="#141414"/>
<path fill-rule="evenodd" clip-rule="evenodd" d="M13.957 18.8211L18.321 18.8211H18.821V18.3211L18.821 13.9571L17.821 13.9571L17.821 17.114L13.7248 13.0178L13.0177 13.7249L17.1139 17.8211L13.957 17.8211L13.957 18.8211Z" fill="#141414"/>
<path fill-rule="evenodd" clip-rule="evenodd" d="M9.75 4.88609L5.38604 4.88609L4.88604 4.88609L4.88604 5.38609L4.88604 9.75005L5.88604 9.75006L5.88604 6.5932L9.98224 10.6894L10.6893 9.98229L6.59315 5.88609L9.75 5.88609L9.75 4.88609Z" fill="#141414"/>
</svg>
